<svg width="18" height="15" xmlns="http://www.w3.org/2000/svg" xmlns:xlink="http://www.w3.org/1999/xlink" xml:space="preserve" overflow="hidden"><g transform="translate(-68 -200)"><path d="M5.23616 1.06335C3.68843 1.23768 2.39911 2.43642 2.10839 3.97134 2.04963 4.28154 2.04963 10.7517 2.10839 11.0619 2.37976 12.4947 3.47345 13.6019 4.93131 13.9199L5.21402 13.9816 8.52398 13.9816 11.8339 13.9816 12.1167 13.9199C13.4559 13.6278 14.4854 12.6796 14.8524 11.4002 14.9836 10.943 14.9779 11.1208 14.9779 7.51661 14.9779 3.91773 14.9833 4.08932 14.8541 3.6387 14.4873 2.3599 13.4604 1.40976 12.1243 1.11297L11.8561 1.05339 8.62362 1.04965C6.84576 1.04759 5.3214 1.05376 5.23616 1.06335M5.18081 2.01784C4.09957 2.19576 3.21033 3.09753 3.02404 4.205 2.97093 4.52066 2.97093 10.5126 3.02404 10.8282 3.21208 11.9461 4.1048 12.843 5.20295 13.0174 5.40111 13.0489 11.6469 13.0489 11.845 13.0174 12.7921 12.867 13.6175 12.1589 13.9236 11.234 14.0633 10.8118 14.059 10.9299 14.059 7.50277L14.059 4.38602 14.0136 4.15049C13.8013 3.05052 12.9242 2.18717 11.845 2.0158 11.6632 1.98693 5.35694 1.98886 5.18081 2.01784M11.8253 3.41347C11.2394 3.70346 11.4373 4.57359 12.0886 4.5714 12.7391 4.56921 12.9373 3.69387 12.3493 3.42011 12.192 3.34694 11.9655 3.34406 11.8253 3.41347M8.2583 4.50788C5.36287 4.86418 4.13765 8.26466 6.17508 10.2897 8.26587 12.3677 11.8289 10.9775 11.9496 8.03661 12.0331 6.00257 10.2174 4.2668 8.2583 4.50788M8.14512 5.46775C6.20455 5.81878 5.43965 8.22 6.82497 9.61215 8.37458 11.1694 11.0181 10.0767 11.0108 7.88192 11.0057 6.37773 9.61085 5.20264 8.14512 5.46775" fill="#FFFFFF" fill-rule="evenodd" transform="matrix(1 0 0 1.00074 68 200)"/></g></svg>