<?xml version="1.0" encoding="utf-8"?>
<!-- Generator: Adobe Illustrator 27.8.0, SVG Export Plug-In . SVG Version: 6.00 Build 0)  -->
<svg version="1.1" xmlns="http://www.w3.org/2000/svg" xmlns:xlink="http://www.w3.org/1999/xlink" x="0px" y="0px"
	 viewBox="0 0 353.2 150.4" style="enable-background:new 0 0 353.2 150.4;" xml:space="preserve">
<style type="text/css">
	.st0{fill:#E8472C;}
	.st1{fill:#FFFFFF;}
	.st2{fill:#7295CD;}
	.st3{fill:#A2C73B;}
	.st4{fill:#EF7D00;}
	.st5{fill:#FBBA00;}
	.st6{fill:#51AE79;}
	.st7{fill:#00ABDF;}
	.st8{display:none;}
	.st9{display:inline;fill:none;stroke:#00ABDF;stroke-width:0.25;stroke-miterlimit:10;}
</style>
<g id="Ebene_1">
	<g>
		<g>
		</g>
	</g>
	<g>
		<rect x="216.1" y="24.3" class="st0" width="3.3" height="101.9"/>
		<g>
			<g>
				<path class="st1" d="M120.7,46.2l2.6-0.7c0.2,2.2,0.7,4.5,3,4.5c1.5,0,2.3-0.9,2.3-2.5c0-1.9-1-2.9-2.3-4l-3.5-3.1
					c-1.4-1.2-2-2.5-2-4.6c0-3.1,1.9-4.8,4.9-4.8c3.3,0,4.9,1.7,5.3,5.4l-2.5,0.7c-0.2-2.1-0.6-3.8-2.8-3.8c-1.4,0-2.3,0.8-2.3,2.3
					c0,1.3,0.4,2,1.4,2.8l3.5,3.1c1.6,1.4,3,3.3,3,5.9c0,3.1-2.1,5-5,5C122.7,52.3,120.9,49.8,120.7,46.2z"/>
				<path class="st1" d="M133.6,48.8V39H132v-1.8h1.6v-4.4h2.8v4.4h2.4V39h-2.4v9.6c0,1.2,0.3,1.6,1.4,1.6c0.3,0,0.7,0,1-0.1v2
					c-0.7,0.1-1.2,0.2-1.9,0.2C134.4,52.3,133.6,51,133.6,48.8z"/>
				<path class="st1" d="M140.5,32.1h2.8V35h-2.8V32.1z M140.5,37.2h2.8v14.9h-2.8V37.2z"/>
				<path class="st1" d="M146.7,39.2h-1.8v-2h1.8v-0.8c0-2.8,0.4-4.5,3.2-4.5c0.7,0,1.2,0.1,1.8,0.2v2c-0.3-0.1-0.7-0.1-1-0.1
					c-1.1,0-1.2,0.8-1.2,1.9v1.2h2.3v2h-2.3v12.9h-2.8V39.2z"/>
				<path class="st1" d="M154.6,48.8V39h-1.6v-1.8h1.6v-4.4h2.8v4.4h2.4V39h-2.4v9.6c0,1.2,0.3,1.6,1.4,1.6c0.3,0,0.7,0,1-0.1v2
					c-0.7,0.1-1.2,0.2-1.9,0.2C155.5,52.3,154.6,51,154.6,48.8z"/>
				<path class="st1" d="M161.7,49.3V37.2h2.8v11.3c0,1.1,0.2,1.7,1.2,1.7c0.6,0,1.3-0.4,1.9-0.9V37.2h2.8v14.9h-2.8v-1.5
					c-1,0.9-2.2,1.7-3.6,1.7C162.2,52.3,161.7,50.7,161.7,49.3z"/>
				<path class="st1" d="M173.2,37.2h2.8v1.5c1-0.9,2.2-1.7,3.6-1.7c1.8,0,2.3,1.6,2.3,3.1v12.1h-2.8V40.8c0-1.1-0.2-1.7-1.2-1.7
					c-0.6,0-1.3,0.4-1.9,0.9v12.1h-2.8V37.2z"/>
				<path class="st1" d="M183.7,53.9c0-1.4,1-2.4,2.1-2.9c-1-0.3-1.4-0.9-1.4-1.6c0-1.1,0.6-1.8,1.7-2.7c-1.1-0.9-1.7-2.1-1.7-4.4
					c0-3.5,1.4-5.3,4.2-5.3c1.6,0,2.6,0.6,3.1,1.7c0.2-0.3,1-1.1,2-1.6l0.4-0.2l0.7,1.8c-0.7,0.1-2.3,0.7-2.5,1
					c0.2,0.6,0.5,1.9,0.5,2.7c0,3.1-1,5.2-4.1,5.2c-0.4,0-1-0.1-1.4-0.2c-0.2,0.3-0.5,0.8-0.5,1.1c0,0.4,0.4,0.6,1.2,0.7l2.3,0.2
					c2.4,0.2,3.5,1.4,3.5,3.6c0,2.5-1.7,3.7-5.2,3.7C185.8,56.8,183.7,56,183.7,53.9z M191.5,53.1c0-0.9-0.4-1.4-2-1.5l-2.4-0.2
					c-0.6,0.6-1.1,1.1-1.1,1.9c0,0.9,0.6,1.3,2.6,1.3C190.6,54.6,191.5,54.2,191.5,53.1z M190.3,42.3c0-2.1-0.2-3.4-1.8-3.4
					c-1.6,0-1.8,1.2-1.8,3.4c0,1.9,0.3,3.3,1.8,3.3C190.1,45.6,190.3,44.4,190.3,42.3z"/>
			</g>
			<g>
				<path class="st1" d="M24.4,61.9h4.8c3.8,0,5.6,1.7,5.6,5.2c0,2.6-1,4.1-3,4.4c2.5,0.6,3.6,2.3,3.6,5.3c0,3.6-1.6,6-5.4,6h-5.6
					V61.9z M29.1,70.6c2.5,0,3.2-1,3.2-3.5c0-2.9-1.3-3.1-4.2-3.1h-0.7v6.6H29.1z M29.3,80.7c2.6,0,3.3-1.2,3.3-3.9c0-2.6-1-4-3.5-4
					h-1.7v7.9H29.3z"/>
				<path class="st1" d="M37.7,67.9h2.8V70c1.1-1.8,2.2-2.3,3.3-2.3c0.1,0,0.2,0,0.4,0v3.1c-0.4-0.2-1-0.3-1.5-0.3
					c-0.9,0-1.5,0.3-2.2,1.4v10.9h-2.8V67.9z"/>
				<path class="st1" d="M45.4,79.6c0-3.7,2.7-4.8,5.9-6.1v-1.1c0-1.8-0.2-2.7-1.5-2.7c-1.1,0-1.6,0.8-1.6,2.1v0.8l-2.7-0.1
					c0.1-3.3,1.4-4.8,4.5-4.8c2.9,0,4.1,1.7,4.1,4.7v6.8c0,1.4,0.1,2.6,0.3,3.6h-2.5c-0.1-0.5-0.3-1.5-0.4-2.2
					c-0.4,1.2-1.3,2.4-3,2.4C46.7,83,45.4,81.3,45.4,79.6z M51.3,79.4v-4.2c-1.7,1-3.1,1.8-3.1,3.5c0,1.2,0.5,1.9,1.3,1.9
					C50.3,80.7,51.1,79.8,51.3,79.4z"/>
				<path class="st1" d="M57.2,67.9H60v1.5c1-0.9,2.2-1.7,3.6-1.7c1.8,0,2.3,1.6,2.3,3.1v12.1h-2.8V71.5c0-1.1-0.2-1.7-1.2-1.7
					c-0.6,0-1.3,0.4-1.9,0.9v12.1h-2.8V67.9z"/>
				<path class="st1" d="M68.8,76.9V74c0-3.4,0.6-6.4,3.7-6.4c1,0,1.8,0.5,2.5,1.2v-7h2.8v20.9H75v-1c-0.6,0.7-1.4,1.2-2.4,1.2
					C70,83,68.8,81.4,68.8,76.9z M75,80.3v-9.8c-0.5-0.3-1.1-0.6-1.8-0.6c-1.3,0-1.6,1.4-1.6,3.1v4.2c0,2.1,0.2,3.7,1.7,3.7
					C73.8,80.8,74.4,80.7,75,80.3z"/>
				<path class="st1" d="M80.2,77v-3.4c0-4,1-6,4.4-6c3.7,0,4.2,2.4,4.2,6.5v1.2H83v3c0,1.8,0.5,2.6,1.7,2.6c1.2,0,1.5-1,1.5-2.5
					v-0.9h2.7v0.6c0,3-1.2,4.8-4.2,4.8C81.1,83,80.2,80.9,80.2,77z M86.2,74.1v-1.3c0-1.8-0.2-2.8-1.6-2.8c-1.3,0-1.6,0.8-1.6,3.4
					v0.8H86.2z"/>
				<path class="st1" d="M91.6,67.9h2.8v1.5c1-0.9,2.2-1.7,3.6-1.7c1.8,0,2.3,1.6,2.3,3.1v12.1h-2.8V71.5c0-1.1-0.2-1.7-1.2-1.7
					c-0.6,0-1.3,0.4-1.9,0.9v12.1h-2.8V67.9z"/>
				<path class="st1" d="M106,81.7v1.1h-2.8V61.9h2.8v7.2c0.6-0.8,1.6-1.4,2.8-1.4c3.1,0,3.4,3.8,3.4,5.6v3.6c0,3.2-0.8,6.1-3.7,6.1
					C107.5,83,106.6,82.4,106,81.7z M109.4,76.9v-3.6c0-1.9-0.2-3.4-1.6-3.4c-0.7,0-1.4,0.4-1.9,0.7v9.6c0.5,0.4,1.2,0.7,2,0.7
					C109.4,80.9,109.4,79.1,109.4,76.9z"/>
				<path class="st1" d="M114.8,80V67.9h2.8v11.3c0,1.1,0.2,1.7,1.2,1.7c0.6,0,1.3-0.4,1.9-0.9V67.9h2.8v14.9h-2.8v-1.5
					c-1,0.9-2.2,1.7-3.6,1.7C115.2,83,114.8,81.4,114.8,80z"/>
				<path class="st1" d="M126.3,67.9h2.8V70c1.1-1.8,2.2-2.3,3.3-2.3c0.1,0,0.2,0,0.4,0v3.1c-0.4-0.2-1-0.3-1.5-0.3
					c-0.9,0-1.5,0.3-2.2,1.4v10.9h-2.8V67.9z"/>
				<path class="st1" d="M133.5,84.7c0-1.4,1-2.4,2.1-2.9c-1-0.3-1.4-0.9-1.4-1.6c0-1.1,0.6-1.8,1.7-2.7c-1.1-0.9-1.7-2.1-1.7-4.4
					c0-3.5,1.4-5.3,4.2-5.3c1.6,0,2.6,0.6,3.1,1.7c0.2-0.3,1-1.1,2-1.6l0.4-0.2l0.7,1.8c-0.7,0.1-2.3,0.7-2.5,1
					c0.2,0.6,0.5,1.9,0.5,2.7c0,3.1-1,5.2-4.1,5.2c-0.4,0-1-0.1-1.4-0.2c-0.2,0.3-0.5,0.8-0.5,1.1s0.4,0.6,1.2,0.7l2.3,0.2
					c2.4,0.2,3.5,1.4,3.5,3.6c0,2.5-1.7,3.7-5.2,3.7C135.6,87.5,133.5,86.7,133.5,84.7z M141.3,83.9c0-0.9-0.4-1.4-2-1.5l-2.4-0.2
					c-0.6,0.6-1.1,1.1-1.1,1.9c0,0.9,0.6,1.3,2.6,1.3C140.4,85.4,141.3,84.9,141.3,83.9z M140.1,73.1c0-2.1-0.2-3.4-1.8-3.4
					c-1.6,0-1.8,1.2-1.8,3.4c0,1.9,0.3,3.3,1.8,3.3C139.9,76.4,140.1,75.2,140.1,73.1z"/>
				<path class="st1" d="M146.1,62.7h2.8v2.9h-2.8V62.7z M146.1,67.9h2.8v14.9h-2.8V67.9z"/>
				<path class="st1" d="M151.2,78.8l2.3-0.7c0.3,1.9,0.9,2.8,2.1,2.8c1,0,1.5-0.6,1.5-1.6c0-0.9-0.4-1.5-1.2-2.2l-2.6-2.2
					c-1-0.9-1.8-1.9-1.8-3.6c0-2.4,1.5-3.7,3.9-3.7c2.4,0,3.6,1.8,3.8,3.9l-1.9,0.7c-0.2-1.6-0.6-2.6-1.8-2.6
					c-0.9,0-1.5,0.7-1.5,1.5c0,0.5,0.2,1,0.7,1.5l2.6,2.4c1.1,1,2.1,2.1,2.1,4c0,2.6-1.7,3.8-4.1,3.8
					C152.9,83,151.4,81.3,151.2,78.8z"/>
				<path class="st1" d="M161.4,77.1v-3.4c0-3.8,0.7-6,4.4-6c3.3,0,4.1,1.6,4.1,4.7v0.9h-2.5v-0.9c0-1.9-0.3-2.6-1.6-2.6
					c-1.4,0-1.6,0.8-1.6,3.4v4.7c0,2.6,0.4,3.2,1.7,3.2c1.4,0,1.5-1.1,1.5-2.6v-1.2h2.5v1c0,3-0.9,4.8-4.1,4.8
					C162.1,83,161.4,80.7,161.4,77.1z"/>
				<path class="st1" d="M172.6,61.9h2.8v7.5c1-1,2.2-1.8,3.7-1.8c1.8,0,2.2,1.6,2.2,3.1v12.1h-2.8V71.5c0-1.1-0.2-1.7-1.2-1.7
					c-0.6,0-1.4,0.4-2,1v12h-2.8V61.9z"/>
				<path class="st1" d="M184.1,77v-3.4c0-4,1-6,4.4-6c3.7,0,4.2,2.4,4.2,6.5v1.2h-5.9v3c0,1.8,0.5,2.6,1.7,2.6c1.2,0,1.5-1,1.5-2.5
					v-0.9h2.7v0.6c0,3-1.2,4.8-4.2,4.8C185,83,184.1,80.9,184.1,77z M190,73.9v-1.3c0-1.8-0.2-2.8-1.6-2.8c-1.3,0-1.6,0.8-1.6,3.4
					v0.8H190z"/>
			</g>
			<g>
				<path class="st1" d="M60.8,110v-7c0-4.6,1.2-7.2,5.6-7.2c3.9,0,5.5,2,5.5,6.1v0.8h-2.7V102c0-2.7-0.3-4-2.7-4
					c-2.6,0-2.7,1.9-2.7,4.5v7.8c0,3,0.5,4.5,2.8,4.5c2.3,0,2.8-1.6,2.8-4.8v-1.4h-2.7v-2.1H72v10.4h-1.8l-0.3-2.4
					c-0.6,1.6-1.7,2.7-3.7,2.7C62.3,117.1,60.8,114.5,60.8,110z"/>
				<path class="st1" d="M74.7,111v-3.4c0-4,1-6,4.4-6c3.7,0,4.2,2.4,4.2,6.5v1.2h-5.9v3c0,1.8,0.5,2.6,1.7,2.6c1.2,0,1.5-1,1.5-2.5
					v-0.9h2.7v0.6c0,3-1.2,4.8-4.2,4.8C75.6,117,74.7,115,74.7,111z M80.7,107.9v-1.3c0-1.8-0.2-2.8-1.6-2.8c-1.3,0-1.6,0.8-1.6,3.4
					v0.8H80.7z"/>
				<path class="st1" d="M85.5,110.8v-2.9c0-3.4,0.6-6.4,3.7-6.4c1,0,1.8,0.5,2.5,1.2v-7h2.8v20.9h-2.8v-1c-0.6,0.7-1.4,1.2-2.4,1.2
					C86.7,116.9,85.5,115.2,85.5,110.8z M91.7,114.1v-9.8c-0.5-0.3-1.1-0.6-1.8-0.6c-1.3,0-1.6,1.4-1.6,3.1v4.2
					c0,2.1,0.2,3.7,1.7,3.7C90.5,114.7,91.1,114.5,91.7,114.1z"/>
				<path class="st1" d="M96.9,111.1v-3.4c0-4,1-6,4.4-6c3.7,0,4.2,2.4,4.2,6.5v1.2h-5.9v3c0,1.8,0.5,2.6,1.7,2.6
					c1.2,0,1.5-1,1.5-2.5v-0.9h2.7v0.6c0,3-1.2,4.8-4.2,4.8C97.8,117.1,96.9,115,96.9,111.1z M102.8,107.9v-1.3
					c0-1.8-0.2-2.8-1.6-2.8c-1.3,0-1.6,0.8-1.6,3.4v0.8H102.8z"/>
				<path class="st1" d="M107.8,101.7h2.8v1.5c1-0.9,2.2-1.7,3.6-1.7c1.8,0,2.3,1.6,2.3,3.1v12.1h-2.8v-11.3c0-1.1-0.2-1.7-1.2-1.7
					c-0.6,0-1.3,0.4-1.9,0.9v12.1h-2.8V101.7z"/>
				<path class="st1" d="M119.5,95.7h2.8v12.5l4-6.5h2.9l-3.5,5.8l3.4,9.1h-2.8l-2.8-7.7l-1.3,1.9v5.7h-2.8V95.7z"/>
				<path class="st1" d="M129.9,112.7l2.3-0.7c0.3,1.9,0.9,2.8,2.1,2.8c1,0,1.5-0.6,1.5-1.6c0-0.9-0.4-1.5-1.2-2.2l-2.6-2.2
					c-1-0.9-1.8-1.9-1.8-3.6c0-2.4,1.5-3.7,3.9-3.7c2.4,0,3.6,1.8,3.8,3.9l-1.9,0.7c-0.2-1.6-0.6-2.6-1.8-2.6
					c-0.9,0-1.5,0.7-1.5,1.5c0,0.5,0.2,1,0.7,1.5l2.6,2.4c1.1,1,2.1,2.1,2.1,4c0,2.6-1.7,3.8-4.1,3.8
					C131.6,116.8,130.1,115.2,129.9,112.7z"/>
				<path class="st1" d="M140.6,113.3v-9.7H139v-1.8h1.6v-4.4h2.8v4.4h2.4v1.8h-2.4v9.6c0,1.2,0.3,1.6,1.4,1.6c0.3,0,0.7,0,1-0.1v2
					c-0.7,0.1-1.2,0.2-1.9,0.2C141.5,116.8,140.6,115.4,140.6,113.3z"/>
				<path class="st1" d="M147,113.2c0-3.7,2.7-4.8,5.9-6.1V106c0-1.8-0.2-2.7-1.5-2.7c-1.1,0-1.6,0.8-1.6,2.1v0.8l-2.7-0.1
					c0.1-3.3,1.4-4.8,4.5-4.8c2.9,0,4.1,1.7,4.1,4.7v6.8c0,1.4,0.1,2.6,0.3,3.6h-2.5c-0.1-0.5-0.3-1.5-0.4-2.2
					c-0.4,1.2-1.3,2.4-3,2.4C148.2,116.6,147,114.9,147,113.2z M147.9,95.5h2.8v2.9h-2.8V95.5z M152.9,113v-4.2
					c-1.7,1-3.1,1.8-3.1,3.5c0,1.2,0.5,1.9,1.3,1.9C151.9,114.2,152.6,113.4,152.9,113z M152.4,95.5h2.8v2.9h-2.8V95.5z"/>
				<path class="st1" d="M158.8,113v-9.7h-1.6v-1.8h1.6v-4.4h2.8v4.4h2.4v1.8h-2.4v9.6c0,1.2,0.3,1.6,1.4,1.6c0.3,0,0.7,0,1-0.1v2
					c-0.7,0.1-1.2,0.2-1.9,0.2C159.7,116.6,158.8,115.2,158.8,113z"/>
				<path class="st1" d="M166.8,113v-9.7h-1.6v-1.8h1.6v-4.4h2.8v4.4h2.4v1.8h-2.4v9.6c0,1.2,0.3,1.6,1.4,1.6c0.3,0,0.7,0,1-0.1v2
					c-0.7,0.1-1.2,0.2-1.9,0.2C167.7,116.6,166.8,115.2,166.8,113z"/>
				<path class="st1" d="M173.4,110.6v-3.4c0-4,1-6,4.4-6c3.7,0,4.2,2.4,4.2,6.5v1.2h-5.9v3c0,1.8,0.5,2.6,1.7,2.6
					c1.2,0,1.5-1,1.5-2.5v-0.9h2.7v0.6c0,3-1.2,4.8-4.2,4.8C174.3,116.6,173.4,114.6,173.4,110.6z M179.3,107.5v-1.3
					c0-1.8-0.2-2.8-1.6-2.8c-1.3,0-1.6,0.8-1.6,3.4v0.8H179.3z"/>
				<path class="st1" d="M184.1,101.5h2.8v1.5c1-0.9,2.2-1.7,3.6-1.7c1.8,0,2.3,1.6,2.3,3.1v12.1H190v-11.3c0-1.1-0.2-1.7-1.2-1.7
					c-0.6,0-1.3,0.4-1.9,0.9v12.1h-2.8V101.5z"/>
			</g>
		</g>
		<rect x="233.9" y="24.3" class="st2" width="3.3" height="101.9"/>
		<rect x="251.6" y="24.3" class="st3" width="3.3" height="101.9"/>
		<rect x="269.4" y="24.3" class="st4" width="3.3" height="101.9"/>
		<rect x="287.2" y="24.3" class="st5" width="3.3" height="101.9"/>
		<rect x="322.7" y="24.3" class="st6" width="3.3" height="101.9"/>
		<rect x="305" y="24.3" class="st7" width="3.3" height="101.9"/>
	</g>
</g>
<g id="Ebene_2" class="st8">
	<rect x="181.2" y="449.7" class="st9" width="352.4" height="36.5"/>
	<rect x="181.2" y="539.1" class="st9" width="352.4" height="36.5"/>
	<rect x="181.2" y="628.4" class="st9" width="352.4" height="36.5"/>
	<rect x="181.2" y="717.8" class="st9" width="352.4" height="36.5"/>
	<rect x="181.2" y="807.2" class="st9" width="352.4" height="36.5"/>
	<rect x="181.2" y="896.6" class="st9" width="352.4" height="36.5"/>
</g>
<g id="Ebene_3">
</g>
</svg>
