<svg xmlns="http://www.w3.org/2000/svg" xml:space="preserve" viewBox="0 0 300 35">
  <g fill-rule="evenodd" clip-rule="evenodd">
    <path class="logo__eles" fill="#961E4B" d="M9.54 16.41h4.07c1.78 0 3.01-.04 3.48 1.21.33.94.33 1.88.33 2.59 0 .27.13.36.39.36h.97c.21 0 .34-.27.34-.67 0-1.39-.04-2.82-.04-4.03 0-1.65.04-3.3.04-4.96 0-.18-.08-.31-.47-.31h-.72c-.21 0-.29.09-.34.31-.63 3.67-2.03 3.49-5.17 3.49H9.54V6.57c0-3.62.51-3.84 2.8-3.84h4.02c2.8 0 3.91.53 4.16 3.98.04.67.09.89.3.89h.84c.34 0 .56-.18.56-.49 0-.94-.05-1.92-.05-2.86 0-.99.05-2.01.05-3 0-.22 0-.54-.39-.54-4.53 0-9.11.23-13.65.23C6.02.89 2.67.71.98.71c-.43 0-.81 0-.81.45v.9c0 .44.3.44.72.44 1.32 0 3.01 0 3.01 2.33v22.18c0 2.95-1.23 3.4-2.46 3.49-1.19.08-1.44.17-1.44.62v.81c0 .26.21.35.34.35 2.54 0 5.04-.22 7.59-.22 5.21 0 10.47.22 15.68.22.68-2.23 1.23-3.93 1.74-5.67.09-.23.13-.45.13-.68 0-.49-1.23-.67-1.57-.67-.21 0-.38.09-.76.67l-1.32 2.11c-.89 1.43-1.22 2.23-3.13 2.23h-5.81c-2.84 0-3.35-1.12-3.35-3.58V16.41zM37.39 5.28c0-2.33 1.57-2.78 3.56-2.78.39 0 .43-.26.43-.49v-.94c0-.22-.09-.36-.3-.36-1.82 0-3.69.23-5.55.23-4.11 0-6.57-.23-7.25-.23-.38 0-.51.18-.51.45v.94c0 .27.13.4.42.4 2.63 0 3.56 1.17 3.56 4.65v18.78c0 3.76-.63 4.57-3.51 4.57-.34 0-.47.17-.47.49v.98c0 .22.17.31.34.31 3.26 0 8.6-.22 11.4-.22 2.76 0 7.51.22 11.32.22.34-1.43.77-2.95 1.15-4.56.21-.89.42-2.01.42-2.23 0-.32-1.19-.54-1.48-.54-.22 0-.38.14-.55.45-2.46 4.65-2.89 4.87-8.1 4.87-4.28 0-4.88-1.12-4.88-3.89V5.28zm26.58 11.13h4.07c1.79 0 3.01-.04 3.48 1.21.34.94.34 1.88.34 2.59 0 .27.13.36.38.36h.98c.21 0 .34-.27.34-.67 0-1.39-.05-2.82-.05-4.03 0-1.65.05-3.3.05-4.96 0-.18-.09-.31-.47-.31h-.72c-.21 0-.3.09-.34.31-.64 3.67-2.04 3.49-5.17 3.49h-2.89V6.57c0-3.62.51-3.84 2.8-3.84h4.03c2.8 0 3.9.53 4.16 3.98.04.67.08.89.29.89h.85c.34 0 .55-.18.55-.49 0-.94-.04-1.92-.04-2.86 0-.99.04-2.01.04-3 0-.22 0-.54-.38-.54-4.54 0-9.12.23-13.65.23-2.16-.05-5.51-.23-7.21-.23-.42 0-.81 0-.81.45v.9c0 .44.3.44.73.44 1.31 0 3.01 0 3.01 2.33v22.18c0 2.95-1.23 3.4-2.46 3.49-1.19.08-1.44.17-1.44.62v.81c0 .26.21.35.33.35 2.55 0 5.05-.22 7.59-.22 5.22 0 10.47.22 15.69.22.68-2.23 1.23-3.93 1.74-5.67.08-.23.12-.45.12-.68 0-.49-1.22-.67-1.56-.67-.22 0-.39.09-.77.67l-1.31 2.11c-.89 1.43-1.23 2.23-3.14 2.23h-5.81c-2.84 0-3.35-1.12-3.35-3.58V16.41zm18.79 8.72c.21 2.01.46 4.02.63 6.04 2.46 1.34 5.17 1.83 7.89 1.83 5.59 0 10.68-3.49 10.68-9.79 0-10.96-14.58-8.68-14.58-16.32 0-3.27 2.33-4.88 5.17-4.88 3.43 0 5.13 2.42 5.68 5.99h1.91V2.46C99.42 1.34 95.64 0 92.93 0c-5.47 0-10.01 3.31-10.01 9.48 0 10.46 14.59 8.58 14.59 16.37 0 3.35-2.76 5.14-6.19 5.14-4.28 0-5.81-3.09-6.87-5.86h-1.69z"/>
    <path class="logo__studienwerk" fill="#003C6E" d="M122.93 2.55h6.21V.27h-8.95V14.1h9.19v-2.26h-6.45V8.06h5.66V5.8h-5.66V2.55zm8.05 2.98v1.1l.02.65v6.82h2.63V9.51c0-2.21.64-3.23 2.01-3.23.55 0 1.09.17 1.58.48V4.17l-.13-.05c-.28-.06-.41-.08-.66-.08-1.24 0-2.1.67-2.91 2.26v-.52c0-.56-.04-1.1-.15-1.53h-2.52c.11.58.13.83.13 1.28zm7.5 1.46v7.11h2.62V9.06c0-1.95.58-2.78 1.92-2.78 1.22 0 1.65.71 1.65 2.7v5.12h2.63V8.42c0-1.81-.07-2.24-.47-2.95-.52-.87-1.65-1.43-2.91-1.43-1.24 0-2.26.5-3.01 1.47 0-.58-.04-.89-.21-1.26h-2.55c.28.87.33 1.26.33 2.74zm14.62-3.03c-2.43 0-4.07 1.28-4.07 3.21 0 1.43.72 2.16 2.79 2.76l1.35.39c1.17.35 1.49.58 1.49 1.06 0 .66-.62 1.08-1.6 1.08-1.26 0-1.83-.5-1.92-1.66h-2.48v.08c0 2.26 1.58 3.48 4.49 3.48 2.6 0 4.14-1.16 4.14-3.15 0-.56-.13-1.05-.4-1.45-.43-.66-1.05-.97-2.78-1.47-2.29-.66-2.48-.77-2.48-1.39 0-.6.6-1.01 1.41-1.01.98 0 1.52.41 1.65 1.34h2.52c-.13-2.07-1.65-3.27-4.11-3.27zm9.1-2.55h-2.54l-.07 2.84h-1.66v1.99h1.58l-.15 3.83c0 .38-.02.77-.02.98 0 1.28.17 1.86.73 2.42.53.56 1.26.83 2.19.83.82 0 1.5-.14 2.33-.45v-2.12c-.59.23-1.02.33-1.51.33-.82 0-1.03-.31-1.03-1.41v-.62l.07-3.79h2.11V4.25h-2.07l.04-2.84zm9.06 12.69h8.97v-2.26h-6.18V.27h-2.79V14.1zm10-4.11c0 .98.13 1.76.34 2.34.45 1.19 1.82 1.97 3.37 1.97 1.24 0 2.06-.37 2.85-1.34.04.49.1.82.21 1.14h2.5c-.07-.21-.11-.36-.13-.46-.09-.35-.13-.71-.13-1.08 0-.16-.02-.43-.02-.83V4.25h-2.63v5.26c0 1.72-.66 2.55-2 2.55-1.2 0-1.71-.66-1.71-2.21v-5.6h-2.65v5.74zM198.9.19v5.14c-.75-.94-1.45-1.29-2.63-1.29-2.47 0-4.27 2.18-4.27 5.23 0 3 1.75 5.03 4.32 5.03 1.36 0 2.22-.45 2.88-1.57-.02.25-.02.33-.02.49 0 .27.02.46.08.88h2.46c-.15-.71-.19-1.43-.19-3.11V.19h-2.63zm.04 8.95c0 1.89-.81 3.03-2.18 3.03-1.3 0-2.07-1.1-2.07-2.93 0-1.9.81-3.06 2.16-3.06 1.32 0 2.09 1.1 2.09 2.96zm6.9 5.02h2.8l1.86-5.91 1.92 5.91h2.8l3.05-9.91h-2.63l-1.94 6.94-2.09-6.94h-2.12l-2.11 6.94-1.88-6.94h-2.65l2.99 9.91zm13.78-.06h2.62V4.25h-2.62v9.85zm-.22-12.59c0 .89.6 1.45 1.52 1.45.94 0 1.54-.58 1.54-1.47 0-.91-.6-1.49-1.5-1.49-.92 0-1.56.62-1.56 1.51zm11.45 2.8c-.81-.21-1.28-.27-1.92-.27-2.61 0-4.25 1.35-4.25 3.46 0 1.35.55 2.22 1.73 2.8-1.3.5-1.8.91-1.8 1.56 0 .54.32.89 1.14 1.2-1.41.48-2.05 1.18-2.05 2.3 0 1.78 1.94 2.9 5.08 2.9 3.18 0 5.04-1.22 5.04-3.32 0-.84-.38-1.63-.98-2.09-.62-.45-1.5-.66-3.51-.85-2.09-.21-2.22-.25-2.22-.62 0-.29.41-.54 1.01-.58l1.28-.13c2.16-.18 3.27-1.16 3.27-2.83 0-.65-.2-1.27-.52-1.77h2.05V4.25l-3.35.06zm-.38 3.17c0 .87-.71 1.45-1.8 1.45-1.04 0-1.73-.58-1.73-1.45 0-.91.71-1.51 1.75-1.51 1.09 0 1.78.6 1.78 1.51zm.83 7.71c0 .77-.9 1.23-2.52 1.23-1.77 0-2.82-.48-2.82-1.27s.92-1.22 2.5-1.22h.23c1.69.06 2.61.5 2.61 1.26zm12.24-12.64h6.21V.27h-8.95V14.1h9.19v-2.26h-6.45V8.06h5.66V5.8h-5.66V2.55zm8.07 11.55h2.63V9.06c0-1.85.66-2.78 2.01-2.78 1.23 0 1.7.77 1.7 2.7v5.12h2.65V8.42c0-1.52-.04-1.89-.27-2.53-.41-1.1-1.69-1.85-3.19-1.85-1.15 0-2.11.44-2.9 1.29V.19h-2.63V14.1zm11.41-8.57v1.1l.02.65v6.82h2.62V9.51c0-2.21.65-3.23 2.01-3.23.56 0 1.09.17 1.58.48V4.17l-.13-.05c-.27-.06-.4-.08-.66-.08-1.24 0-2.09.67-2.9 2.26v-.52c0-.56-.05-1.1-.15-1.53h-2.52c.1.58.13.83.13 1.28zm7.64 8.57h2.63V.19h-2.63V14.1zm5.15 0h2.63V4.25h-2.63v9.85zm-.21-12.59c0 .89.59 1.45 1.51 1.45.94 0 1.54-.58 1.54-1.47 0-.91-.6-1.49-1.49-1.49-.92 0-1.56.62-1.56 1.51zm9.52 2.47c-2.97 0-4.93 2.07-4.93 5.2 0 3.09 1.98 5.18 4.87 5.18 2.45 0 4.2-1.51 4.31-3.77h-2.52c-.17 1.18-.75 1.74-1.79 1.74-1.37 0-2.18-1.18-2.18-3.15 0-1.92.87-3.17 2.22-3.17.94 0 1.47.5 1.64 1.49h2.57c-.3-2.28-1.8-3.52-4.19-3.52zm5.89 10.12h2.63V9.06c0-1.85.66-2.78 2-2.78 1.24 0 1.71.77 1.71 2.7v5.12H300V8.42c0-1.52-.04-1.89-.28-2.53-.4-1.1-1.68-1.85-3.18-1.85-1.15 0-2.11.44-2.9 1.29V.19h-2.63V14.1zm-166.69 4.6c-2.48 0-4.28 1.49-4.28 3.58 0 .87.33 1.66.94 2.28.54.52 1.41 1 3.29 1.81 1.41.62 1.73.78 2.2 1.16.58.45.86 1.03.86 1.72 0 1.39-1.22 2.38-2.95 2.38-1.96 0-3.12-1.1-3.25-3.09h-1.55c.14 2.9 1.81 4.44 4.76 4.44 2.77 0 4.65-1.58 4.65-3.92 0-.74-.21-1.47-.57-2.03-.54-.81-1.26-1.26-3.38-2.2l-1.54-.66c-.38-.19-.72-.35-1-.54-.55-.37-.85-.89-.85-1.47 0-1.2 1.11-2.09 2.6-2.09 1.63 0 2.61.87 2.76 2.44h1.56c-.13-2.42-1.69-3.81-4.25-3.81zm9.27 1.39h-1.46l-.06 2.84h-1.54l-.02 1.18h1.52l-.13 4.93c0 .21 0 .46-.02.77 0 .29-.02.56-.02.81 0 1.67.68 2.34 2.35 2.34.64 0 1.15-.11 1.79-.33l.02-1.29c-.51.23-1.02.33-1.47.33-.9 0-1.14-.33-1.14-1.61v-.98l.11-4.97h2.42l.02-1.18h-2.42l.05-2.84zm4.57 8.85c0 1.12.04 1.55.21 2.09.38 1.2 1.64 1.97 3.18 1.97 1.31 0 2.12-.46 2.72-1.56 0 .56.04.85.21 1.31h1.45c-.21-.66-.23-.87-.23-2.16v-7.66h-1.5v5.57c0 .83-.08 1.37-.28 1.81-.38.89-1.21 1.4-2.2 1.4-1.51 0-2.09-.74-2.09-2.77v-6.01h-1.47v6.01zm16.89-10.08v5.45c-.7-1.16-1.56-1.65-2.86-1.65-2.37 0-3.97 2.11-3.97 5.26 0 3.09 1.6 5.08 4.05 5.08 1.31 0 2.14-.48 2.84-1.66v.35c0 .38.05.67.15 1.06h1.48c-.17-.58-.22-1.16-.22-2.9V18.86h-1.47zm.02 8.98c0 2.38-1.02 3.89-2.67 3.89-1.62 0-2.65-1.49-2.65-3.87 0-2.43 1.03-3.94 2.67-3.94 1.63 0 2.65 1.51 2.65 3.92zm4.59 4.91h1.58v-9.82h-1.58v9.82zm-.29-12.93c0 .6.46 1.03 1.08 1.03.65 0 1.09-.43 1.09-1.03 0-.63-.44-1.08-1.06-1.08h-.07c-.6.04-1.04.5-1.04 1.08zm12.87 7.85c0-3.05-1.62-5.01-4.1-5.01-2.65 0-4.35 2.07-4.35 5.28 0 3.09 1.73 5.06 4.44 5.06 1.86 0 3.14-.87 3.76-2.57l-1.39-.17c-.58 1.08-1.24 1.5-2.35 1.5-1.84 0-2.86-1.27-2.93-3.67h6.9c.02-.19.02-.33.02-.42zm-6.87-.72c.3-2.01 1.24-3.07 2.71-3.07 1.52 0 2.43 1.08 2.6 3.07h-5.31zm9.37-1.41v7.21h1.5v-5.49c0-2.1.98-3.32 2.69-3.32 1.39 0 2.03.81 2.03 2.55v6.26h1.49v-6.59c0-2.34-1.07-3.5-3.22-3.5-1.37 0-2.42.56-3.1 1.7 0-.69-.02-.96-.19-1.43h-1.43c.21.85.23 1.01.23 2.61zm12.48 7.33h1.45l2.35-7.71 2.33 7.71h1.47l2.92-9.94h-1.53l-2.18 7.79-2.37-7.79h-1.28l-2.37 7.79-2.18-7.79h-1.54l2.93 9.94zm20.17-5.2c0-3.05-1.63-5.01-4.1-5.01-2.65 0-4.36 2.07-4.36 5.28 0 3.09 1.73 5.06 4.44 5.06 1.86 0 3.14-.87 3.76-2.57l-1.39-.17c-.58 1.08-1.24 1.5-2.35 1.5-1.84 0-2.86-1.27-2.92-3.67h6.89c.03-.19.03-.33.03-.42zm-6.88-.72c.3-2.01 1.24-3.07 2.71-3.07 1.52 0 2.44 1.08 2.61 3.07h-5.32zm9.42-1.31v7.11h1.51v-4.39c0-1.31.13-2.14.45-2.82.45-.98 1.16-1.52 1.97-1.52.38 0 .66.09 1.34.4v-1.45c-.42-.21-.85-.31-1.24-.31-1.09 0-1.9.74-2.62 2.38.02-.27.04-.46.04-.6 0-.5-.06-1.02-.19-1.51h-1.43c.15.89.17 1.14.17 2.71zm8.5 1.76 4.33 5.35h2.05l-4.52-5.41 4.2-4.41h-1.79l-4.27 4.47zm-1.54 5.35h1.5V18.86h-1.5v13.89z"/>
  </g>
</svg>
