<svg xmlns="http://www.w3.org/2000/svg" width="2184" height="656" viewBox="0 0 2184 656" version="1.1"><path d="M 744.500 219.442 C 741.200 220.708, 735.800 222.053, 732.500 222.432 C 729.200 222.810, 725.706 223.349, 724.735 223.631 C 723.765 223.913, 723.221 224.549, 723.527 225.043 C 723.832 225.537, 726.305 226.237, 729.023 226.597 C 731.740 226.958, 734.645 227.758, 735.477 228.376 C 736.785 229.347, 736.902 232.532, 736.334 251.811 L 735.678 274.121 731.589 273.311 C 729.340 272.865, 723 272.510, 717.500 272.523 C 708.092 272.545, 707.042 272.762, 699.767 276.200 C 695.198 278.359, 689.847 281.923, 686.687 284.911 C 683.746 287.693, 680.027 292.563, 678.423 295.734 C 675.753 301.012, 675.506 302.388, 675.503 312 C 675.500 321.416, 675.792 323.131, 678.324 328.610 C 679.894 332.008, 683.224 336.758, 685.824 339.311 C 688.396 341.835, 693.114 345.093, 696.309 346.551 C 699.503 348.008, 704.678 349.430, 707.809 349.711 C 710.939 349.992, 715.313 349.732, 717.528 349.132 C 719.743 348.533, 724.556 346.233, 728.223 344.021 C 731.890 341.810, 735.140 340, 735.445 340 C 735.750 340, 736 342.250, 736 345 C 736 347.750, 736.368 350, 736.818 350 C 737.269 350, 739.998 349.299, 742.884 348.442 C 745.771 347.585, 751.815 346.235, 756.316 345.443 C 760.817 344.651, 764.639 344.002, 764.809 344.001 C 764.979 344.001, 764.840 343.550, 764.500 343 C 764.160 342.450, 762.199 342, 760.141 342 C 758.083 342, 755.860 341.460, 755.200 340.800 C 754.293 339.893, 754 324.644, 754 278.300 C 754 220.559, 753.898 217.004, 752.250 217.070 C 751.288 217.108, 747.800 218.175, 744.500 219.442 M 1716 221.138 C 1711.875 222.163, 1705.912 223.259, 1702.750 223.573 C 1698.847 223.961, 1697 224.581, 1697 225.505 C 1697 226.253, 1697.787 227.081, 1698.750 227.345 C 1699.713 227.609, 1702.182 228.109, 1704.238 228.456 C 1706.404 228.821, 1708.401 229.881, 1708.988 230.977 C 1709.545 232.017, 1710 238.905, 1710 246.283 C 1710 253.662, 1709.706 263.182, 1709.346 267.440 L 1708.691 275.181 1704.096 274.340 C 1701.568 273.878, 1694.989 273.500, 1689.475 273.500 C 1680.196 273.500, 1678.963 273.740, 1672.886 276.734 C 1668.784 278.754, 1664.369 282.031, 1661.119 285.468 C 1658.027 288.737, 1654.411 294.120, 1652.208 298.734 C 1648.781 305.912, 1648.500 307.181, 1648.500 315.500 C 1648.500 323.172, 1648.895 325.344, 1651.180 330.218 C 1652.654 333.363, 1655.973 338.195, 1658.556 340.956 C 1661.138 343.717, 1665.667 347.158, 1668.620 348.603 C 1671.978 350.245, 1676.383 351.422, 1680.379 351.742 C 1683.924 352.027, 1689.045 351.709, 1691.883 351.028 C 1694.696 350.353, 1699.750 348.022, 1703.113 345.848 C 1706.477 343.674, 1709.492 342.158, 1709.813 342.479 C 1710.134 342.800, 1709.917 344.859, 1709.331 347.055 C 1708.745 349.250, 1708.543 351.213, 1708.883 351.417 C 1709.222 351.622, 1713.775 350.950, 1719 349.925 C 1724.225 348.899, 1730.075 348.041, 1732 348.017 C 1733.925 347.992, 1736.513 347.701, 1737.750 347.370 C 1738.987 347.038, 1740 346.378, 1740 345.902 C 1740 345.427, 1738.763 344.764, 1737.250 344.429 C 1735.737 344.094, 1733.037 343.376, 1731.250 342.833 L 1728 341.845 1727.996 294.672 C 1727.994 268.728, 1727.699 241.088, 1727.341 233.250 C 1726.783 221.064, 1726.458 219.020, 1725.094 219.137 C 1724.218 219.212, 1720.125 220.112, 1716 221.138 M 228 226.963 C 201.725 227.303, 186.576 227.859, 186.708 228.479 C 186.822 229.018, 189.917 230.013, 193.585 230.690 C 197.254 231.367, 201.162 232.726, 202.271 233.710 C 204.257 235.475, 204.277 236.220, 203.646 286.160 C 203.295 314.022, 202.735 337.526, 202.404 338.390 C 202.072 339.254, 200.158 340.417, 198.151 340.975 C 196.143 341.533, 193.086 341.991, 191.357 341.994 C 189.520 341.998, 187.980 342.610, 187.651 343.468 C 187.341 344.275, 187.507 345.196, 188.021 345.513 C 188.534 345.830, 208.924 346.366, 233.331 346.704 L 277.709 347.318 278.314 340.409 C 278.648 336.609, 279.226 330.688, 279.599 327.250 C 280.085 322.774, 279.947 321, 279.114 321 C 278.473 321, 276.457 324.275, 274.633 328.278 C 272.789 332.325, 269.929 336.724, 268.191 338.186 C 265.559 340.401, 263.695 340.929, 256.365 341.540 C 251.579 341.938, 243.351 341.985, 238.082 341.643 C 232.812 341.302, 227.262 341.017, 225.750 341.011 L 223 341 223 313.879 L 223 286.758 238.750 287.468 C 249.469 287.951, 255.202 288.625, 256.697 289.578 C 258.259 290.572, 259.237 292.716, 260.078 296.989 C 261.025 301.805, 261.637 303, 263.154 303 C 264.949 303, 265.034 302.118, 264.774 286.250 C 264.547 272.343, 264.252 269.500, 263.037 269.500 C 262.233 269.500, 261.243 270.850, 260.838 272.500 C 260.432 274.150, 259.857 276.688, 259.559 278.140 C 259.261 279.592, 258.352 281.035, 257.540 281.346 C 256.727 281.658, 248.736 281.978, 239.781 282.056 L 223.500 282.199 223.161 277.350 C 222.974 274.682, 223.139 263.330, 223.526 252.122 L 224.229 231.743 242.865 232.197 C 256.210 232.522, 262.115 233.038, 263.668 234.014 C 264.860 234.764, 266.823 237.656, 268.031 240.439 C 269.238 243.223, 270.545 246.148, 270.935 246.940 C 271.324 247.733, 272.173 248.558, 272.821 248.774 C 273.668 249.056, 274.042 246.325, 274.150 239.083 C 274.233 233.537, 274.345 228.438, 274.400 227.750 C 274.455 227.063, 273.375 226.484, 272 226.463 C 270.625 226.443, 250.825 226.668, 228 226.963 M 1012.750 229.750 C 978.489 229.979, 972 230.247, 972 231.432 C 972 232.207, 973.237 233.078, 974.750 233.367 C 976.263 233.656, 979.460 234.190, 981.856 234.552 C 984.251 234.915, 987.064 236.064, 988.106 237.106 C 989.916 238.916, 990 241.291, 990 290.465 C 990 340.323, 989.940 341.962, 988.066 342.965 C 987.002 343.534, 984.564 344, 982.648 344 C 980.731 344, 978.452 344.273, 977.582 344.607 C 976.712 344.941, 976 345.788, 976 346.490 C 976 347.192, 977.013 347.959, 978.250 348.193 C 979.487 348.427, 997.600 348.724, 1018.500 348.854 C 1039.400 348.983, 1057.850 349.319, 1059.500 349.600 L 1062.500 350.112 1064.782 338.306 C 1066.037 331.813, 1067.049 325.938, 1067.032 325.250 C 1067.014 324.563, 1066.213 324.006, 1065.250 324.012 C 1064.025 324.021, 1062.655 326.113, 1060.683 330.985 C 1059.133 334.813, 1057.069 338.929, 1056.095 340.131 C 1054.877 341.635, 1052.636 342.557, 1048.912 343.085 C 1045.936 343.508, 1037.117 343.887, 1029.315 343.927 C 1021.513 343.967, 1013.976 343.561, 1012.565 343.025 L 1010 342.050 1010 317.107 C 1010 303.388, 1010.273 291.452, 1010.607 290.582 C 1011.098 289.301, 1012.860 289.012, 1019.857 289.062 C 1024.611 289.096, 1031.821 289.456, 1035.879 289.862 C 1041.856 290.461, 1043.614 291.040, 1045.129 292.911 C 1046.390 294.469, 1047 296.825, 1047 300.142 C 1047 303.687, 1047.438 305.231, 1048.567 305.664 C 1049.429 305.995, 1050.588 305.812, 1051.142 305.258 C 1051.795 304.605, 1051.897 298.420, 1051.431 287.626 C 1050.883 274.942, 1050.402 271, 1049.402 271 C 1048.674 271, 1047.789 272.668, 1047.412 274.750 C 1047.038 276.813, 1046.131 279.689, 1045.396 281.142 C 1044.375 283.161, 1043.169 283.869, 1040.280 284.142 C 1038.201 284.339, 1030.520 284.342, 1023.210 284.149 L 1009.920 283.797 1010.102 269.149 C 1010.203 261.092, 1010.502 250.051, 1010.768 244.613 L 1011.251 234.726 1030.140 235.221 C 1046.829 235.659, 1049.277 235.937, 1051.153 237.608 C 1052.321 238.649, 1053.889 240.948, 1054.638 242.718 C 1055.387 244.488, 1056 247.300, 1056 248.968 C 1056 251.333, 1056.440 252, 1058 252 C 1059.884 252, 1060 251.333, 1060 240.500 L 1060 229 1056.750 229.238 C 1054.963 229.370, 1035.162 229.600, 1012.750 229.750 M 1439.778 230.555 C 1439.426 230.907, 1439.380 231.827, 1439.676 232.598 C 1439.972 233.369, 1441.317 234, 1442.664 234 C 1444.012 234, 1447.119 234.505, 1449.569 235.122 C 1453.108 236.013, 1454.158 236.783, 1454.683 238.871 C 1455.045 240.317, 1455.378 264.088, 1455.421 291.696 C 1455.475 325.896, 1455.161 342.232, 1454.437 342.959 C 1453.853 343.545, 1450.709 344.358, 1447.451 344.765 C 1442.971 345.325, 1441.444 345.931, 1441.190 347.253 C 1440.877 348.878, 1442.754 349.011, 1468.177 349.151 C 1483.205 349.234, 1497.075 349.401, 1499 349.523 C 1500.925 349.645, 1507.755 349.511, 1514.177 349.226 C 1520.599 348.941, 1526.350 348.402, 1526.955 348.028 C 1527.560 347.654, 1528.967 344.126, 1530.082 340.188 C 1531.196 336.250, 1532.196 330.451, 1532.304 327.299 C 1532.464 322.620, 1532.190 321.507, 1530.805 321.222 C 1529.545 320.964, 1528.814 321.980, 1527.951 325.187 C 1527.313 327.559, 1525.534 332.272, 1523.999 335.659 C 1522.442 339.095, 1520.167 342.397, 1518.854 343.127 C 1517.142 344.079, 1512.133 344.383, 1500.500 344.240 C 1491.700 344.131, 1482.813 343.769, 1480.750 343.434 L 1477 342.824 1476.818 321.662 C 1476.717 310.023, 1476.748 286.108, 1476.886 268.517 C 1477.051 247.441, 1477.496 236.311, 1478.191 235.882 C 1478.771 235.524, 1481.848 234.936, 1485.031 234.576 C 1488.708 234.160, 1491.020 233.389, 1491.377 232.461 C 1491.735 231.528, 1491.316 231.002, 1490.219 231.006 C 1489.273 231.009, 1477.682 230.765, 1464.459 230.464 C 1451.236 230.162, 1440.130 230.203, 1439.778 230.555 M 1906.841 231.524 C 1905.379 232.318, 1903.214 234.536, 1902.029 236.452 C 1899.954 239.811, 1899.937 240.065, 1901.565 243.495 C 1902.494 245.453, 1904.382 247.942, 1905.762 249.027 C 1907.141 250.112, 1909.318 251, 1910.600 251 C 1911.882 251, 1914.521 249.603, 1916.465 247.896 C 1919.009 245.663, 1920 243.967, 1920 241.847 C 1920 240.226, 1919.328 237.600, 1918.506 236.011 C 1917.684 234.422, 1916.009 232.419, 1914.783 231.561 C 1913.558 230.702, 1911.868 230.018, 1911.027 230.040 C 1910.187 230.062, 1908.304 230.730, 1906.841 231.524 M 584.721 265.910 C 579.892 270.186, 573.705 274.733, 570.971 276.014 C 568.237 277.294, 566 278.706, 566 279.152 C 566 279.597, 567.013 280.182, 568.250 280.451 C 569.487 280.720, 571.625 281.066, 573 281.220 L 575.500 281.500 576 309 C 576.462 334.430, 576.655 336.763, 578.554 339.997 C 579.684 341.920, 582.114 344.508, 583.955 345.749 C 585.796 346.989, 589.147 348.506, 591.401 349.119 C 594.445 349.946, 597.141 349.933, 601.879 349.068 C 605.388 348.427, 610.338 346.842, 612.879 345.545 C 615.421 344.248, 618.817 341.799, 620.427 340.104 C 622.037 338.408, 623.100 336.767, 622.790 336.457 C 622.479 336.146, 619.397 337.041, 615.940 338.446 C 612.484 339.851, 607.888 341, 605.728 341 C 602.617 341, 601.113 340.313, 598.497 337.697 C 595.857 335.057, 595.063 333.299, 594.544 328.947 C 594.188 325.951, 594.032 313.825, 594.198 302 L 594.500 280.500 607.231 280.220 C 618.761 279.967, 620.062 279.753, 621.027 277.950 C 621.613 276.855, 621.820 275.518, 621.487 274.979 C 621.150 274.433, 615.857 274, 609.523 274 C 603.275 274, 597.452 273.727, 596.582 273.393 C 595.337 272.915, 595 271.212, 595 265.393 C 595 261.327, 594.663 258.030, 594.250 258.067 C 593.837 258.104, 589.549 261.633, 584.721 265.910 M 1345 269.027 C 1338.936 274.707, 1335.124 277.447, 1331.699 278.591 C 1329.039 279.479, 1327.067 280.709, 1327.277 281.347 C 1327.485 281.981, 1329.870 282.725, 1332.578 283 L 1337.500 283.500 1338 311.179 C 1338.469 337.163, 1338.626 339.028, 1340.565 341.621 C 1341.700 343.141, 1344.313 345.747, 1346.371 347.413 C 1349.533 349.972, 1351.149 350.498, 1356.806 350.810 C 1361.851 351.088, 1364.875 350.663, 1369.079 349.082 C 1372.148 347.928, 1376.535 345.378, 1378.829 343.414 C 1381.123 341.451, 1383 339.223, 1383 338.465 C 1383 337.460, 1381.301 337.889, 1376.750 340.042 C 1373.313 341.668, 1368.994 342.999, 1367.154 342.999 C 1365.314 343, 1362.521 342.239, 1360.947 341.309 C 1359.373 340.380, 1357.548 338.323, 1356.892 336.738 C 1356.008 334.605, 1355.883 327.327, 1356.410 308.702 C 1356.801 294.866, 1357.354 283.313, 1357.639 283.028 C 1357.924 282.743, 1363.409 282.358, 1369.829 282.173 C 1379.094 281.907, 1381.758 281.506, 1382.750 280.228 C 1383.438 279.342, 1384 278.098, 1384 277.463 C 1384 276.685, 1379.874 276.100, 1371.346 275.667 C 1364.387 275.315, 1358.469 274.802, 1358.196 274.529 C 1357.922 274.256, 1357.429 271.217, 1357.099 267.777 C 1356.671 263.308, 1356.072 261.457, 1355 261.294 C 1354.175 261.169, 1349.675 264.649, 1345 269.027 M 486.993 271.548 C 485.622 272.306, 481.011 274.105, 476.746 275.547 C 472.481 276.988, 466.895 278.467, 464.332 278.833 C 461.770 279.200, 459.706 279.950, 459.746 280.500 C 459.787 281.050, 461.773 281.852, 464.160 282.282 C 466.547 282.712, 469.512 283.283, 470.750 283.551 L 473 284.038 473 311.962 C 473 339.685, 472.984 339.898, 470.777 341.443 C 469.555 342.299, 466.616 343, 464.246 343 C 461.218 343, 459.755 343.476, 459.323 344.601 C 458.985 345.481, 459.260 346.543, 459.935 346.960 C 460.609 347.376, 470.462 347.524, 481.830 347.287 C 493.199 347.051, 503.091 346.668, 503.813 346.436 C 504.536 346.204, 504.873 345.604, 504.564 345.103 C 504.254 344.602, 501.679 344.174, 498.842 344.152 C 495.730 344.128, 493.111 343.540, 492.241 342.670 C 491.065 341.493, 490.813 337.019, 490.874 318.364 C 490.914 305.789, 490.960 294.764, 490.974 293.864 C 490.988 292.964, 492.688 290.552, 494.750 288.504 C 496.813 286.455, 500.750 283.708, 503.500 282.399 C 506.250 281.090, 510.205 280.015, 512.290 280.010 C 514.374 280.004, 517.832 280.894, 519.974 281.987 C 522.116 283.079, 524.573 284.979, 525.434 286.209 C 526.755 288.096, 527 292.404, 527 313.788 C 527 328.411, 526.586 339.905, 526.021 340.961 C 525.452 342.024, 522.939 343.295, 520.021 343.995 C 517.259 344.657, 515 345.717, 515 346.350 C 515 347.183, 520.443 347.459, 534.750 347.350 C 545.612 347.268, 555.063 347.155, 555.750 347.100 C 556.438 347.045, 557 346.601, 557 346.114 C 557 345.626, 554.966 344.922, 552.481 344.549 C 549.223 344.061, 547.507 343.177, 546.331 341.383 C 544.904 339.204, 544.769 336.177, 545.252 317.112 C 545.555 305.133, 545.405 293.198, 544.918 290.591 C 544.431 287.985, 542.771 283.973, 541.229 281.676 C 539.687 279.379, 536.417 276.375, 533.962 275 C 530.072 272.821, 528.282 272.501, 520 272.505 C 511.647 272.509, 509.889 272.831, 505.441 275.175 C 502.658 276.641, 497.975 279.743, 495.033 282.068 L 489.685 286.295 490.269 279.337 C 490.589 275.510, 490.545 271.881, 490.169 271.274 C 489.684 270.489, 488.766 270.568, 486.993 271.548 M 884.274 271.093 C 881.950 271.530, 878.051 273.058, 875.611 274.488 C 873.170 275.918, 869.362 279.053, 867.149 281.454 C 864.873 283.924, 862.638 287.631, 862.002 289.993 C 861.384 292.289, 861.171 295.592, 861.530 297.334 C 861.889 299.075, 863.228 302.119, 864.505 304.098 C 865.812 306.124, 870.469 310.115, 875.163 313.234 C 879.749 316.280, 886.425 320.362, 890 322.305 C 893.575 324.248, 897.813 327.215, 899.417 328.898 C 901.314 330.889, 902.333 333.008, 902.333 334.966 C 902.333 336.620, 901.471 338.928, 900.417 340.094 C 899.362 341.259, 896.700 343.136, 894.500 344.265 C 892.300 345.393, 888.700 346.316, 886.500 346.315 C 884.162 346.314, 880.359 345.223, 877.349 343.690 C 874.515 342.247, 871.279 339.898, 870.156 338.471 C 869.033 337.043, 867.584 334.216, 866.936 332.188 C 866.288 330.159, 865.360 328.069, 864.872 327.543 C 864.316 326.942, 863.477 327.129, 862.622 328.043 C 861.544 329.194, 861.438 331.266, 862.117 337.905 C 862.590 342.528, 863.152 346.485, 863.367 346.700 C 863.581 346.915, 867.524 348.009, 872.128 349.132 C 876.733 350.256, 883.203 351.218, 886.508 351.272 C 890.986 351.344, 893.944 350.714, 898.128 348.799 C 901.214 347.386, 905.631 344.521, 907.942 342.433 C 910.254 340.345, 913.012 336.936, 914.072 334.858 C 915.144 332.758, 916 329.049, 916 326.508 C 916 323.993, 915.394 320.488, 914.653 318.718 C 913.912 316.948, 911.514 313.883, 909.323 311.906 C 907.133 309.930, 900.201 305.730, 893.920 302.573 C 887.639 299.416, 881.038 295.432, 879.250 293.720 C 876.733 291.310, 876 289.776, 876 286.918 C 876 283.970, 876.754 282.494, 879.750 279.576 C 881.813 277.567, 884.515 275.666, 885.757 275.352 C 886.998 275.037, 889.677 275.092, 891.710 275.473 C 893.743 275.855, 897.228 277.082, 899.453 278.200 C 901.679 279.318, 904.294 280.932, 905.265 281.785 C 906.236 282.639, 907.306 285.061, 907.643 287.169 C 908.100 290.028, 908.731 291, 910.128 291 C 911.761 291, 911.996 290.202, 911.968 284.750 C 911.950 281.085, 911.376 277.761, 910.582 276.714 C 909.837 275.732, 906.814 274.101, 903.864 273.091 C 900.914 272.080, 896.250 271.038, 893.500 270.775 C 890.750 270.513, 886.598 270.656, 884.274 271.093 M 407.500 272.336 C 405.300 273.059, 402.403 274.241, 401.062 274.961 C 399.721 275.682, 396.454 278.302, 393.801 280.783 C 391.149 283.264, 387.644 287.627, 386.011 290.480 C 384.379 293.332, 382.311 298.528, 381.415 302.026 C 380.274 306.479, 379.987 310.169, 380.458 314.330 C 380.828 317.598, 382.007 322.574, 383.079 325.386 C 384.152 328.199, 386.599 332.634, 388.519 335.243 C 390.438 337.851, 394.424 341.589, 397.377 343.550 C 400.329 345.510, 405.165 347.758, 408.122 348.545 C 411.080 349.332, 414.912 349.982, 416.637 349.988 C 418.362 349.995, 423.443 348.937, 427.927 347.638 C 433.057 346.153, 438.419 343.691, 442.385 341.001 C 445.853 338.650, 449.241 335.844, 449.914 334.766 C 450.588 333.687, 450.920 332.587, 450.653 332.319 C 450.385 332.052, 447.156 333.649, 443.475 335.869 C 439.795 338.089, 434.410 340.436, 431.508 341.086 C 428.607 341.735, 424.718 341.977, 422.866 341.624 C 421.015 341.271, 417.131 339.624, 414.236 337.963 C 411.340 336.302, 407.642 333.109, 406.018 330.866 C 404.394 328.624, 402.111 324.249, 400.945 321.145 C 399.779 318.040, 398.752 312.800, 398.663 309.500 L 398.500 303.500 424.500 302.893 C 438.800 302.559, 450.613 302.222, 450.750 302.143 C 450.887 302.064, 451 300.667, 451 299.038 C 451 297.408, 450.096 293.660, 448.992 290.708 C 447.888 287.756, 445.462 283.563, 443.601 281.389 C 441.740 279.215, 437.806 276.120, 434.859 274.511 C 430.242 271.990, 428.254 271.546, 420.500 271.303 C 414.996 271.131, 409.946 271.532, 407.500 272.336 M 803 272.492 C 800.525 273.300, 796.261 275.667, 793.524 277.754 C 790.787 279.841, 786.846 283.787, 784.767 286.524 C 782.687 289.261, 780.055 293.970, 778.917 296.989 C 777.780 300.008, 776.601 304.569, 776.299 307.125 C 775.973 309.876, 776.438 314.872, 777.438 319.368 C 778.618 324.671, 780.332 328.767, 783.115 332.934 C 785.308 336.218, 789.216 340.428, 791.801 342.291 C 794.385 344.154, 798.507 346.459, 800.960 347.415 C 803.412 348.370, 808.362 349.392, 811.960 349.686 C 817.082 350.105, 819.896 349.747, 824.941 348.035 C 828.483 346.834, 834.552 343.799, 838.428 341.292 C 842.303 338.785, 846.011 336.006, 846.667 335.117 C 847.323 334.228, 847.462 333.357, 846.975 333.182 C 846.488 333.006, 844.121 334.017, 841.715 335.427 C 839.309 336.837, 834.718 338.893, 831.514 339.995 C 828.309 341.098, 824.649 342, 823.381 342 C 822.113 342, 818.524 341.046, 815.407 339.879 C 812.289 338.713, 808.061 336.243, 806.011 334.391 C 803.961 332.539, 801.066 328.310, 799.578 324.994 C 798.090 321.678, 796.382 316.328, 795.782 313.104 C 795.183 309.881, 794.948 306.577, 795.261 305.762 C 795.726 304.552, 799.552 304.159, 816.165 303.618 C 827.349 303.253, 839.336 302.685, 842.803 302.355 L 849.105 301.756 848.428 298.628 C 848.056 296.908, 846.852 293.574, 845.752 291.220 C 844.652 288.866, 841.718 284.679, 839.233 281.915 C 836.748 279.151, 832.417 275.710, 829.608 274.268 C 825.518 272.168, 822.805 271.584, 816 271.335 C 810.450 271.132, 805.938 271.534, 803 272.492 M 1205.702 273.013 C 1203.063 273.472, 1199.094 274.792, 1196.881 275.945 C 1194.668 277.098, 1190.384 279.869, 1187.362 282.102 C 1184.068 284.535, 1181.246 285.924, 1180.319 285.569 C 1179.191 285.136, 1178.955 284.233, 1179.446 282.238 C 1179.818 280.732, 1180.369 278.268, 1180.672 276.762 C 1181.073 274.769, 1180.764 273.847, 1179.537 273.376 C 1178.609 273.020, 1175.746 273.714, 1173.174 274.918 C 1170.602 276.123, 1165.349 277.872, 1161.499 278.804 C 1156.698 279.967, 1154.500 280.971, 1154.500 282 C 1154.500 283, 1155.833 283.667, 1158.500 284 L 1162.500 284.500 1162.500 313.201 C 1162.500 333.062, 1162.155 342.247, 1161.379 343.022 C 1160.763 343.638, 1158.093 344.694, 1155.447 345.369 C 1152.800 346.044, 1150.473 347.082, 1150.275 347.675 C 1150.033 348.400, 1154.934 348.936, 1165.208 349.309 C 1173.618 349.614, 1183.650 349.782, 1187.500 349.682 C 1192.975 349.540, 1194.500 349.173, 1194.500 348 C 1194.500 346.933, 1193.303 346.455, 1190.357 346.343 C 1188.079 346.256, 1185.338 345.716, 1184.268 345.143 C 1182.462 344.177, 1182.276 342.523, 1181.687 322.277 C 1181.338 310.273, 1181.333 298.723, 1181.676 296.609 C 1182.068 294.196, 1183.473 291.602, 1185.453 289.634 C 1187.188 287.910, 1190.657 285.488, 1193.163 284.250 C 1196.015 282.841, 1199.548 282.001, 1202.610 282.004 C 1205.691 282.006, 1208.682 282.728, 1210.696 283.956 C 1212.453 285.028, 1214.703 287.150, 1215.696 288.673 C 1217.327 291.176, 1217.484 293.882, 1217.337 316.848 C 1217.203 337.822, 1216.916 342.513, 1215.690 343.738 C 1214.874 344.555, 1212.135 345.456, 1209.603 345.741 C 1206.940 346.041, 1205 346.773, 1205 347.476 C 1205 348.329, 1208.636 348.888, 1217.157 349.346 C 1223.843 349.706, 1233.743 350, 1239.157 350 C 1248.169 350, 1249 349.839, 1249 348.095 C 1249 346.475, 1248.439 346.262, 1245.250 346.671 C 1242.826 346.982, 1240.793 346.624, 1239.500 345.659 C 1237.608 344.246, 1237.473 342.689, 1237 316.833 C 1236.558 292.683, 1236.283 289.092, 1234.636 286 C 1233.611 284.075, 1231.586 281.221, 1230.136 279.658 C 1228.686 278.096, 1225.925 276.012, 1224 275.027 C 1222.075 274.043, 1218.250 272.999, 1215.500 272.708 C 1212.750 272.416, 1208.341 272.554, 1205.702 273.013 M 1279.939 273.365 C 1277.430 274.041, 1274.055 275.542, 1272.439 276.700 C 1270.822 277.857, 1268.509 279.867, 1267.298 281.166 C 1266.086 282.465, 1264.399 285.194, 1263.548 287.232 C 1262.696 289.269, 1262 292.721, 1262 294.903 C 1262 297.085, 1262.476 300.137, 1263.058 301.685 C 1263.640 303.233, 1265.997 306.426, 1268.296 308.780 C 1270.594 311.134, 1275.856 315.228, 1279.988 317.878 C 1284.119 320.528, 1289.871 324.167, 1292.769 325.964 C 1295.667 327.762, 1298.929 330.366, 1300.019 331.751 C 1301.109 333.136, 1302 335.377, 1302 336.730 C 1302 338.084, 1301.109 340.443, 1300.020 341.972 C 1298.931 343.502, 1296.500 345.484, 1294.619 346.377 C 1292.737 347.270, 1289.743 348, 1287.965 348 C 1286.187 348, 1282.981 347.475, 1280.841 346.834 C 1278.701 346.193, 1275.344 344.280, 1273.383 342.584 C 1271.421 340.888, 1268.845 337.475, 1267.658 335 C 1266.471 332.525, 1265.082 330.500, 1264.572 330.500 C 1264.062 330.500, 1263.315 331.728, 1262.914 333.229 C 1262.513 334.730, 1262.030 339.005, 1261.842 342.729 L 1261.500 349.500 1269.500 350.464 C 1273.900 350.994, 1281.775 351.432, 1287 351.437 C 1295.407 351.445, 1297.100 351.133, 1301.717 348.723 C 1304.586 347.226, 1308.573 344.360, 1310.578 342.355 C 1312.583 340.350, 1314.848 337.215, 1315.612 335.387 C 1316.375 333.560, 1317 330.457, 1317 328.492 C 1317 326.528, 1316.119 323.193, 1315.042 321.082 C 1313.965 318.971, 1311.096 315.501, 1308.668 313.372 C 1306.239 311.242, 1299.594 307.025, 1293.901 304 C 1288.208 300.975, 1281.627 296.665, 1279.275 294.421 C 1276.749 292.011, 1275 289.434, 1275 288.122 C 1275 286.900, 1275.683 284.581, 1276.517 282.967 C 1277.351 281.354, 1279.354 279.351, 1280.967 278.517 C 1282.581 277.683, 1285.868 277, 1288.272 277 C 1290.677 277, 1294.861 277.721, 1297.572 278.602 C 1300.282 279.483, 1303.509 281.305, 1304.743 282.650 C 1305.976 283.995, 1307.283 286.311, 1307.647 287.797 C 1308.010 289.284, 1308.801 290.831, 1309.404 291.235 C 1310.007 291.639, 1311.124 291.976, 1311.888 291.985 C 1312.981 291.997, 1313.139 290.842, 1312.633 286.538 C 1312.280 283.533, 1311.482 279.958, 1310.860 278.593 C 1310.238 277.227, 1309.003 275.831, 1308.115 275.490 C 1307.227 275.148, 1303.433 274.223, 1299.685 273.435 C 1295.936 272.646, 1290.986 272.030, 1288.685 272.067 C 1286.383 272.105, 1282.447 272.688, 1279.939 273.365 M 1910.384 275.006 C 1905.920 276.528, 1899.507 278.093, 1896.134 278.484 C 1892.760 278.876, 1890 279.547, 1890 279.976 C 1890 280.404, 1890.563 281.198, 1891.250 281.739 C 1891.938 282.280, 1894.264 282.994, 1896.419 283.326 C 1898.575 283.658, 1900.716 284.508, 1901.179 285.215 C 1901.641 285.922, 1901.902 299.176, 1901.759 314.668 C 1901.617 330.161, 1901.170 343.166, 1900.766 343.569 C 1900.363 343.971, 1897.888 344.845, 1895.266 345.510 C 1892.277 346.268, 1890.378 347.337, 1890.173 348.379 C 1889.875 349.892, 1891.818 350.015, 1912.160 349.769 C 1931.724 349.533, 1934.512 349.302, 1934.783 347.893 C 1935.030 346.604, 1933.880 346.176, 1928.967 345.731 C 1925.598 345.425, 1922.540 344.874, 1922.171 344.505 C 1921.802 344.136, 1921.244 328.113, 1920.932 308.899 C 1920.615 289.411, 1919.952 273.583, 1919.432 273.102 C 1918.900 272.610, 1915.014 273.428, 1910.384 275.006 M 1966 275.040 C 1962.975 276.147, 1958.362 278.621, 1955.748 280.537 C 1953.135 282.454, 1949.646 285.886, 1947.995 288.165 C 1946.345 290.444, 1944.503 294.132, 1943.902 296.362 C 1943.302 298.592, 1943.090 302.164, 1943.432 304.300 C 1943.774 306.436, 1945.003 310.046, 1946.164 312.322 C 1947.325 314.598, 1951.026 319.336, 1954.388 322.852 C 1960.009 328.732, 1960.349 329.336, 1958.616 330.373 C 1957.580 330.993, 1955.426 332.566, 1953.830 333.869 C 1952.234 335.172, 1950.269 337.512, 1949.464 339.069 C 1948.659 340.627, 1948 343.058, 1948 344.473 C 1948 346.083, 1949.495 348.667, 1952 351.384 C 1954.200 353.771, 1956 356.220, 1956 356.827 C 1956 357.433, 1955.060 358.433, 1953.912 359.047 C 1952.763 359.662, 1949.999 361.813, 1947.770 363.827 C 1945.540 365.841, 1942.696 369.105, 1941.449 371.081 C 1940.202 373.057, 1939.088 375.534, 1938.975 376.587 C 1938.862 377.639, 1938.822 379.298, 1938.885 380.272 C 1938.948 381.247, 1940.810 384.009, 1943.023 386.409 C 1945.236 388.809, 1949.203 391.701, 1951.839 392.835 C 1954.474 393.969, 1959.527 395.367, 1963.066 395.941 C 1966.605 396.515, 1972.650 396.986, 1976.500 396.987 C 1980.350 396.988, 1986.200 396.550, 1989.500 396.014 C 1992.800 395.478, 1998.128 394.061, 2001.339 392.864 C 2004.907 391.535, 2009.241 388.805, 2012.479 385.845 C 2015.394 383.181, 2018.775 378.882, 2019.993 376.292 C 2021.745 372.565, 2022.123 370.278, 2021.808 365.329 C 2021.481 360.192, 2020.867 358.404, 2018.372 355.321 C 2016.701 353.256, 2013.314 350.326, 2010.845 348.808 C 2008.376 347.291, 2003.689 345.372, 2000.428 344.542 C 1997.168 343.713, 1987.145 342.400, 1978.156 341.624 C 1969.167 340.848, 1961.407 339.807, 1960.911 339.311 C 1960.375 338.775, 1960.514 336.670, 1961.254 334.124 L 1962.500 329.839 1974.617 329.669 C 1986.419 329.504, 1986.914 329.407, 1993.617 325.922 C 1998.467 323.400, 2001.582 320.919, 2004.162 317.520 C 2006.177 314.868, 2008.376 310.730, 2009.049 308.325 C 2009.753 305.810, 2010.017 301.791, 2009.670 298.861 C 2009.338 296.061, 2008.152 291.880, 2007.033 289.569 C 2005.915 287.259, 2005 285.061, 2005 284.684 C 2005 284.308, 2006.860 284, 2009.134 284 C 2011.408 284, 2015.043 284.532, 2017.213 285.182 C 2020.475 286.159, 2021.319 286.116, 2022.090 284.932 C 2022.602 284.144, 2022.905 281.925, 2022.761 280 C 2022.521 276.784, 2022.257 276.516, 2019.500 276.702 C 2017.850 276.813, 2012.414 277.212, 2007.420 277.589 C 1999.504 278.186, 1997.518 277.988, 1991.920 276.046 C 1988.389 274.821, 1982.350 273.640, 1978.500 273.422 C 1973.216 273.124, 1970.151 273.520, 1966 275.040 M 284.249 275.246 C 284.477 275.932, 286.313 276.761, 288.329 277.088 C 290.344 277.416, 292.866 278.474, 293.932 279.438 C 294.998 280.403, 296.760 283.062, 297.847 285.346 C 298.935 287.631, 305.879 301.875, 313.279 317 C 320.679 332.125, 327.056 345.537, 327.451 346.805 C 327.846 348.073, 328.614 348.962, 329.157 348.781 C 329.699 348.600, 331.841 345.313, 333.916 341.476 C 335.990 337.639, 339.300 331.575, 341.269 328 C 343.239 324.425, 347.762 314.975, 351.321 307 C 354.879 299.025, 359.251 289.800, 361.035 286.500 C 362.820 283.200, 364.962 279.712, 365.795 278.750 C 366.653 277.759, 368.707 277, 370.533 277 C 372.305 277, 374.284 276.363, 374.930 275.584 C 375.935 274.373, 373.889 274.170, 360.803 274.180 C 352.386 274.186, 344.712 274.404, 343.750 274.663 C 342.788 274.923, 342 275.554, 342 276.067 C 342 276.580, 344.438 277, 347.418 277 C 350.398 277, 353.548 277.273, 354.418 277.607 C 355.288 277.941, 356 279.051, 356 280.073 C 356 281.096, 355.343 283.410, 354.539 285.216 C 353.736 287.022, 349.637 296.734, 345.430 306.797 C 341.162 317.007, 337.295 324.932, 336.681 324.727 C 336.076 324.525, 333.939 320.342, 331.934 315.430 C 329.928 310.519, 325.526 300.650, 322.153 293.500 C 318.779 286.350, 316.014 279.958, 316.009 279.295 C 316.004 278.633, 317.688 277.815, 319.750 277.479 C 321.813 277.142, 324.138 276.784, 324.917 276.683 C 325.697 276.583, 326.522 275.938, 326.750 275.250 C 327.075 274.276, 322.389 274, 305.500 274 C 288.645 274, 283.926 274.277, 284.249 275.246 M 1099.500 275.638 C 1097.300 276.461, 1091.749 277.968, 1087.163 278.987 C 1082.578 280.006, 1078.558 281.108, 1078.230 281.437 C 1077.902 281.765, 1078.053 282.409, 1078.567 282.869 C 1079.080 283.329, 1081.618 284.274, 1084.206 284.970 C 1088.784 286.201, 1088.932 286.362, 1089.605 290.851 C 1089.986 293.390, 1089.992 306.050, 1089.618 318.984 C 1089.034 339.216, 1088.707 342.675, 1087.279 343.750 C 1086.365 344.438, 1083.734 345, 1081.431 345 C 1079.129 345, 1076.744 345.604, 1076.131 346.342 C 1075.519 347.080, 1075.313 347.980, 1075.675 348.342 C 1076.037 348.704, 1086.608 349, 1099.167 349 C 1113.722 349, 1122 348.637, 1122 348 C 1122 347.450, 1120.088 346.998, 1117.750 346.995 C 1114.804 346.992, 1112.687 346.301, 1110.851 344.745 L 1108.203 342.500 1107.559 320.257 L 1106.916 298.013 1112.757 292.007 C 1117.330 287.304, 1119.239 286.006, 1121.549 286.028 C 1123.240 286.044, 1126.178 287.325, 1128.428 289.028 C 1130.589 290.663, 1133.542 292, 1134.991 292 C 1136.583 292, 1138.632 290.911, 1140.166 289.250 C 1141.564 287.738, 1142.995 285.684, 1143.346 284.687 C 1143.698 283.689, 1143.360 281.663, 1142.595 280.184 C 1141.831 278.705, 1140.267 276.647, 1139.121 275.609 C 1137.436 274.084, 1136.139 273.846, 1132.349 274.366 C 1129.771 274.719, 1125.600 276.212, 1123.081 277.684 C 1120.561 279.156, 1115.952 282.784, 1112.839 285.747 C 1108.069 290.286, 1107.090 290.849, 1106.620 289.318 C 1106.313 288.318, 1106.487 285.700, 1107.007 283.500 C 1107.527 281.300, 1107.963 278.262, 1107.976 276.750 C 1107.995 274.537, 1107.560 274.014, 1105.750 274.070 C 1104.513 274.109, 1101.700 274.814, 1099.500 275.638 M 1615.500 275.570 C 1612.750 276.335, 1608.425 276.970, 1605.890 276.981 C 1603.354 276.991, 1599.175 277.288, 1596.603 277.641 C 1593.855 278.018, 1592.079 278.738, 1592.296 279.389 C 1592.499 279.998, 1595.103 280.837, 1598.083 281.253 C 1601.797 281.773, 1604.071 282.698, 1605.317 284.199 C 1606.975 286.196, 1607.106 288.327, 1606.817 308.630 L 1606.500 330.873 1603.651 333.844 C 1602.085 335.478, 1598.091 338.032, 1594.777 339.520 C 1591.463 341.007, 1587.037 342.454, 1584.942 342.735 C 1582.112 343.114, 1580.211 342.675, 1577.542 341.026 C 1575.567 339.806, 1573.287 337.523, 1572.476 335.953 C 1571.351 333.778, 1571 329.202, 1571 316.707 C 1571 307.691, 1570.703 294.795, 1570.341 288.049 L 1569.681 275.785 1564.591 276.541 C 1561.791 276.957, 1554.325 277.581, 1548 277.927 C 1538.508 278.446, 1536.937 278.745, 1539 279.642 C 1540.375 280.239, 1543.525 281.352, 1546 282.114 L 1550.500 283.500 1551 308 L 1551.500 332.500 1554.500 338.499 C 1556.522 342.542, 1558.804 345.380, 1561.500 347.204 C 1563.700 348.692, 1567.883 350.416, 1570.795 351.035 C 1573.707 351.654, 1577.982 351.848, 1580.295 351.466 C 1582.608 351.084, 1586.525 350.099, 1589 349.276 C 1591.475 348.453, 1596.362 345.746, 1599.861 343.260 C 1604.289 340.114, 1606.445 339.103, 1606.958 339.932 C 1607.363 340.588, 1607.481 343.346, 1607.220 346.062 C 1606.797 350.467, 1606.958 351, 1608.713 351 C 1609.795 351, 1614.199 350.100, 1618.500 349 C 1622.801 347.900, 1628.187 347, 1630.469 347 C 1632.751 347, 1635.456 346.387, 1636.480 345.638 C 1638.149 344.418, 1637.748 344.227, 1632.636 343.803 C 1629.498 343.543, 1626.456 342.856, 1625.877 342.277 C 1625.206 341.606, 1624.620 329.050, 1624.259 307.612 C 1623.755 277.685, 1623.518 274.010, 1622.096 274.089 C 1621.218 274.139, 1618.250 274.805, 1615.500 275.570 M 407.285 278.908 C 404.861 280.664, 402.226 283.912, 400.635 287.105 C 399.186 290.013, 398 293.152, 398 294.080 C 398 295.008, 399.012 296.060, 400.250 296.418 C 401.488 296.777, 407.450 297.327, 413.500 297.641 C 420.395 297.998, 425.526 297.808, 427.250 297.130 C 429.747 296.149, 430 295.582, 430 290.975 C 430 288.184, 429.303 284.553, 428.451 282.906 C 427.600 281.259, 425.462 279.033, 423.701 277.960 C 421.755 276.773, 418.697 276.006, 415.900 276.004 C 412.404 276.001, 410.336 276.698, 407.285 278.908 M 711.759 277.366 C 709.702 278.132, 706.988 279.433, 705.729 280.258 C 704.470 281.083, 702.249 283.500, 700.794 285.629 C 699.338 287.758, 697.380 292.181, 696.442 295.458 C 695.151 299.971, 694.888 303.382, 695.360 309.521 C 695.703 313.978, 696.616 319.730, 697.391 322.303 C 698.165 324.875, 699.940 328.929, 701.336 331.310 C 702.732 333.692, 705.672 336.887, 707.871 338.411 C 710.070 339.934, 713.447 341.537, 715.375 341.972 C 717.971 342.557, 720.575 342.193, 725.407 340.566 C 728.997 339.358, 732.849 337.542, 733.967 336.530 C 735.911 334.771, 736 333.560, 736 309 C 736 285.785, 735.831 283.162, 734.250 281.776 C 733.288 280.932, 731.076 279.520, 729.336 278.639 C 727.596 277.758, 723.771 276.799, 720.836 276.506 C 717.476 276.172, 714.114 276.490, 711.759 277.366 M 808.685 277.017 C 807.137 277.482, 804.435 278.957, 802.680 280.295 C 800.926 281.633, 798.480 284.751, 797.245 287.223 C 796.010 289.696, 795 292.859, 795 294.253 C 795 295.646, 795.712 297.059, 796.582 297.393 C 797.452 297.727, 803.891 298, 810.891 298 C 820.003 298, 824.143 297.616, 825.466 296.649 C 827.004 295.524, 827.213 294.442, 826.710 290.202 C 826.379 287.400, 825.428 283.794, 824.598 282.189 C 823.767 280.583, 821.538 278.534, 819.643 277.635 C 817.748 276.736, 815.141 276.039, 813.849 276.086 C 812.557 276.133, 810.233 276.552, 808.685 277.017 M 1759.174 276.749 C 1745.248 276.974, 1740.946 277.340, 1741.253 278.273 C 1741.476 278.948, 1743.974 279.736, 1746.805 280.025 C 1749.635 280.314, 1752.383 280.989, 1752.911 281.525 C 1753.439 282.061, 1755.203 285.200, 1756.830 288.500 C 1758.457 291.800, 1764.025 303.500, 1769.204 314.500 C 1774.383 325.500, 1780.374 338.438, 1782.518 343.250 C 1785.025 348.878, 1786.975 352, 1787.985 352 C 1788.943 352, 1791.195 348.789, 1793.769 343.750 C 1796.086 339.212, 1800.449 330.781, 1803.463 325.013 C 1806.478 319.246, 1810.080 311.906, 1811.470 308.703 C 1812.859 305.500, 1814.411 303.136, 1814.920 303.450 C 1815.428 303.765, 1816.841 307.018, 1818.060 310.680 C 1819.278 314.342, 1823.102 322.774, 1826.556 329.419 C 1830.010 336.064, 1834.335 344.309, 1836.168 347.742 C 1838 351.175, 1839.809 353.987, 1840.186 353.992 C 1840.564 353.996, 1842.972 349.613, 1845.537 344.250 C 1848.103 338.887, 1852.435 329.325, 1855.166 323 C 1857.896 316.675, 1863.342 305.288, 1867.267 297.696 C 1873.429 285.780, 1874.988 283.524, 1878.666 281.196 C 1881.010 279.713, 1882.943 278.204, 1882.963 277.842 C 1882.984 277.480, 1875.800 277.152, 1867 277.113 C 1854.124 277.057, 1851 277.310, 1851 278.406 C 1851 279.309, 1852.860 280.002, 1856.501 280.457 C 1859.526 280.835, 1862.676 281.819, 1863.501 282.643 C 1864.325 283.468, 1865 284.338, 1865 284.577 C 1865 284.816, 1862.480 290.971, 1859.399 298.255 C 1856.319 305.540, 1852.171 315.438, 1850.182 320.250 C 1848.192 325.063, 1846.247 329, 1845.860 329 C 1845.472 329, 1844.633 327.313, 1843.995 325.250 C 1843.357 323.188, 1839.236 314.231, 1834.836 305.347 C 1830.436 296.463, 1826.597 287.417, 1826.306 285.244 C 1825.796 281.443, 1825.898 281.270, 1829.013 280.647 C 1830.793 280.291, 1833.994 280, 1836.125 280 C 1838.903 280, 1840 279.575, 1840 278.500 C 1840 277.211, 1836.825 277, 1817.427 277 C 1797.191 277, 1794.887 277.167, 1795.177 278.613 C 1795.360 279.530, 1797.968 281.149, 1801.218 282.363 C 1804.363 283.538, 1807.738 285.304, 1808.718 286.286 C 1809.880 287.450, 1810.500 289.584, 1810.500 292.419 C 1810.500 295.854, 1809 299.668, 1803.345 310.601 C 1799.410 318.211, 1795.667 324.611, 1795.029 324.824 C 1794.390 325.037, 1793.600 324.151, 1793.273 322.855 C 1792.945 321.560, 1788.475 312.291, 1783.339 302.259 C 1778.202 292.226, 1774 283.339, 1774 282.509 C 1774 281.434, 1775.080 280.996, 1777.750 280.986 C 1779.813 280.979, 1782.513 280.701, 1783.750 280.370 C 1784.987 280.038, 1786 279.192, 1786 278.490 C 1786 277.788, 1785.288 276.941, 1784.418 276.607 C 1783.548 276.273, 1781.636 276.102, 1780.168 276.226 C 1778.701 276.350, 1769.253 276.586, 1759.174 276.749 M 1681.500 279.659 C 1679.850 280.527, 1677.295 282.362, 1675.823 283.736 C 1674.350 285.111, 1672.189 288.458, 1671.020 291.176 C 1669.721 294.196, 1668.667 299.333, 1668.310 304.394 C 1667.892 310.322, 1668.201 314.806, 1669.399 320.190 C 1670.326 324.359, 1672.503 330.094, 1674.286 333.065 C 1676.054 336.011, 1679.398 339.752, 1681.718 341.378 C 1684.798 343.536, 1687.090 344.333, 1690.218 344.332 C 1692.573 344.331, 1696.798 343.566, 1699.606 342.632 C 1702.415 341.699, 1705.790 339.788, 1707.106 338.388 C 1709.499 335.841, 1709.500 335.835, 1709.500 310.840 L 1709.500 285.840 1706.303 282.982 C 1704.545 281.410, 1701.395 279.648, 1699.303 279.067 C 1697.211 278.486, 1693.025 278.027, 1690 278.046 C 1686.975 278.065, 1683.150 278.791, 1681.500 279.659 M 1969.192 280.024 C 1967.282 281.189, 1965.072 283.829, 1963.964 286.271 C 1962.588 289.302, 1962.038 292.785, 1962.022 298.568 C 1962.010 303.006, 1962.668 308.885, 1963.484 311.633 C 1964.300 314.381, 1966.498 318.400, 1968.369 320.564 C 1971.363 324.027, 1972.295 324.499, 1976.136 324.494 C 1978.964 324.490, 1981.831 323.663, 1984.281 322.143 C 1986.361 320.854, 1989.056 317.931, 1990.271 315.649 C 1992.032 312.340, 1992.471 309.881, 1992.442 303.500 C 1992.419 298.640, 1991.726 293.503, 1990.676 290.411 C 1989.725 287.613, 1987.721 284.180, 1986.223 282.784 C 1984.725 281.387, 1982.517 279.739, 1981.316 279.122 C 1980.114 278.505, 1977.639 278.002, 1975.816 278.004 C 1973.992 278.006, 1971.011 278.915, 1969.192 280.024 M 1958.344 361.772 C 1957.158 362.723, 1955.247 365.075, 1954.097 367 C 1952.948 368.925, 1952.006 371.971, 1952.004 373.770 C 1952.002 375.568, 1953.095 378.775, 1954.434 380.895 C 1955.773 383.016, 1958.050 385.681, 1959.495 386.817 C 1960.939 387.954, 1964.652 389.409, 1967.744 390.051 C 1970.836 390.693, 1977.730 391.043, 1983.064 390.828 C 1991.413 390.493, 1993.573 390.024, 1998.603 387.451 C 2002.032 385.698, 2005.386 383.067, 2006.722 381.084 C 2008.133 378.991, 2009 376.208, 2009 373.775 C 2009 370.791, 2008.316 369.162, 2006.158 367.004 C 2004.595 365.441, 2001.358 363.635, 1998.965 362.991 C 1996.572 362.346, 1987.839 361.425, 1979.557 360.942 C 1971.276 360.460, 1963.600 360.061, 1962.500 360.055 C 1961.400 360.049, 1959.530 360.822, 1958.344 361.772 M 658.364 458.955 C 654.438 460.550, 648.363 462.396, 644.864 463.058 C 641.364 463.719, 637.866 464.852, 637.091 465.575 C 635.910 466.677, 636.513 466.999, 640.823 467.571 C 643.650 467.946, 646.707 468.796, 647.615 469.461 C 649.120 470.561, 649.253 475.531, 649.108 525.084 C 648.951 578.918, 648.927 579.519, 646.864 581.250 C 645.717 582.212, 643.308 583, 641.512 583 C 639.715 583, 637.685 583.675, 637 584.500 C 636.315 585.325, 636.148 586.036, 636.628 586.079 C 637.107 586.122, 646.859 586.176, 658.299 586.197 C 669.738 586.219, 679.400 585.934, 679.770 585.564 C 680.139 585.194, 679.780 584.473, 678.971 583.961 C 678.162 583.449, 675.813 583.024, 673.750 583.015 C 671.349 583.006, 669.281 582.281, 668 581 C 666.139 579.139, 666.006 577.729, 666.084 560.750 C 666.131 550.712, 666.500 539.836, 666.906 536.581 C 667.535 531.523, 668.142 530.234, 671.071 527.723 C 672.957 526.107, 676.750 523.713, 679.500 522.402 C 682.250 521.092, 685.977 520.015, 687.782 520.010 C 689.587 520.004, 692.512 520.617, 694.282 521.371 C 696.052 522.125, 698.625 523.961, 700 525.450 L 702.500 528.159 702.500 554.287 L 702.500 580.415 699 581.638 C 697.075 582.311, 694.231 583.134, 692.679 583.468 C 691.127 583.801, 690.021 584.564, 690.221 585.163 C 690.465 585.895, 697.692 586.325, 712.255 586.472 C 724.175 586.592, 733.728 586.369, 733.485 585.977 C 733.243 585.584, 731.267 584.978, 729.095 584.631 C 726.517 584.219, 724.425 583.084, 723.072 581.365 C 721.105 578.864, 721 577.498, 721 554.491 C 721 535.362, 720.680 529.343, 719.480 525.944 C 718.645 523.576, 716.781 520.090, 715.339 518.200 C 713.897 516.309, 710.713 513.876, 708.265 512.793 C 705.244 511.457, 701.603 510.824, 696.939 510.824 C 693.158 510.824, 688.363 511.382, 686.282 512.065 C 684.202 512.748, 680.700 514.415, 678.500 515.770 C 676.300 517.125, 672.864 519.796, 670.865 521.707 C 668.866 523.618, 667.043 524.803, 666.814 524.341 C 666.585 523.878, 666.713 517.650, 667.099 510.500 C 667.485 503.350, 667.842 491.200, 667.893 483.500 C 667.944 475.800, 667.699 466.462, 667.348 462.750 C 666.998 459.038, 666.438 456.013, 666.105 456.028 C 665.772 456.043, 662.289 457.360, 658.364 458.955 M 1114.039 459.116 C 1109.936 460.693, 1103.861 462.497, 1100.539 463.126 C 1097.218 463.755, 1094.080 464.652, 1093.567 465.118 C 1093.053 465.585, 1092.879 466.212, 1093.179 466.512 C 1093.478 466.812, 1095.693 467.393, 1098.099 467.804 C 1102.237 468.511, 1102.513 468.766, 1103.180 472.525 C 1103.567 474.711, 1103.911 484.226, 1103.942 493.668 C 1103.974 503.111, 1103.756 511.472, 1103.458 512.249 C 1103.004 513.432, 1101.988 513.346, 1097.208 511.719 C 1092.674 510.177, 1089.752 509.880, 1083 510.277 C 1077.747 510.586, 1072.278 511.621, 1068.683 512.985 C 1064.805 514.458, 1060.805 517.122, 1056.683 520.979 C 1052.542 524.853, 1049.403 528.969, 1047.179 533.440 C 1045.352 537.112, 1043.368 542.745, 1042.770 545.959 C 1041.969 550.271, 1041.990 553.333, 1042.853 557.651 C 1043.496 560.868, 1045.173 565.858, 1046.580 568.739 C 1047.986 571.621, 1051.185 576.027, 1053.688 578.530 C 1056.191 581.033, 1059.946 583.952, 1062.031 585.016 C 1064.116 586.080, 1067.679 587.367, 1069.947 587.877 C 1072.398 588.428, 1076.891 588.450, 1081.018 587.932 C 1084.838 587.452, 1089.884 586.095, 1092.232 584.916 C 1094.579 583.736, 1098.011 581.638, 1099.858 580.252 C 1102.543 578.238, 1103.386 578.006, 1104.058 579.094 C 1104.521 579.843, 1104.632 582.403, 1104.306 584.783 C 1103.735 588.948, 1103.803 589.090, 1106.107 588.563 C 1107.423 588.262, 1110.525 587.574, 1113 587.033 C 1115.475 586.492, 1120.898 586.038, 1125.050 586.024 C 1129.557 586.010, 1133.084 585.516, 1133.800 584.800 C 1134.460 584.140, 1135 583.240, 1135 582.800 C 1135 582.360, 1133.061 582, 1130.691 582 C 1128.321 582, 1125.509 581.361, 1124.441 580.581 C 1122.566 579.210, 1122.483 577.081, 1122 517.706 L 1121.500 456.251 1114.039 459.116 M 1692 458.634 C 1690.075 459.490, 1684.477 461.193, 1679.559 462.418 C 1674.642 463.643, 1670.467 465.100, 1670.281 465.656 C 1670.096 466.212, 1671.757 467.210, 1673.972 467.874 L 1678 469.080 1678 524.050 C 1678 577.845, 1677.957 579.057, 1675.992 580.760 C 1674.888 581.717, 1672.327 582.983, 1670.301 583.574 C 1668.275 584.164, 1666.478 585.064, 1666.309 585.574 C 1666.125 586.124, 1675.332 586.500, 1688.999 586.500 C 1705.226 586.500, 1711.999 586.172, 1712 585.387 C 1712 584.774, 1708.737 583.199, 1704.750 581.887 L 1697.500 579.500 1697.223 564.750 C 1697.067 556.416, 1697.340 550, 1697.851 550 C 1698.349 550, 1701.372 553.038, 1704.569 556.750 C 1707.766 560.462, 1713.896 567.158, 1718.191 571.628 C 1722.486 576.098, 1726 580.477, 1726 581.359 C 1726 582.240, 1724.875 583.244, 1723.500 583.589 C 1722.125 583.934, 1721 584.731, 1721.001 585.358 C 1721.001 586.166, 1726.858 586.588, 1741.001 586.802 C 1757.812 587.055, 1761 586.876, 1761 585.674 C 1761 584.888, 1760.438 583.795, 1759.750 583.245 C 1759.063 582.695, 1757.375 581.908, 1756 581.496 C 1754.625 581.085, 1751.728 579.458, 1749.563 577.881 C 1747.397 576.304, 1741.374 570.399, 1736.178 564.757 C 1730.982 559.116, 1724.317 551.261, 1721.366 547.303 C 1718.414 543.345, 1716.003 539.295, 1716.008 538.303 C 1716.012 537.247, 1719.716 533.495, 1724.950 529.244 C 1729.865 525.254, 1736.104 520.610, 1738.815 518.924 C 1742.479 516.646, 1745.490 515.685, 1750.542 515.180 C 1754.561 514.778, 1757.507 513.989, 1757.752 513.250 C 1758.040 512.381, 1756.845 511.992, 1753.833 511.972 C 1751.450 511.957, 1742.188 511.830, 1733.250 511.690 C 1720.659 511.493, 1717 511.721, 1717 512.703 C 1717 513.401, 1719.033 514.483, 1721.517 515.109 C 1724.001 515.734, 1726.276 516.637, 1726.571 517.115 C 1726.867 517.593, 1726.746 518.627, 1726.304 519.412 C 1725.862 520.198, 1720.775 525.045, 1715 530.183 C 1709.225 535.321, 1703.202 540.532, 1701.615 541.763 C 1700.028 542.993, 1698.341 544, 1697.865 544 C 1697.389 544, 1697 524.425, 1697 500.500 C 1697 476.575, 1696.662 457.018, 1696.250 457.039 C 1695.838 457.061, 1693.925 457.778, 1692 458.634 M 481 458.985 C 480.175 459.509, 476.125 460.689, 472 461.605 C 467.875 462.522, 462.813 463.678, 460.750 464.175 C 458.688 464.671, 457 465.465, 457 465.939 C 457 466.413, 459.228 467.335, 461.950 467.988 C 464.673 468.641, 467.315 469.699, 467.821 470.338 C 468.359 471.017, 468.691 493.669, 468.621 524.838 L 468.500 578.177 466.124 580.101 C 464.817 581.159, 462.567 582.282, 461.124 582.596 C 459.681 582.910, 457.900 583.355, 457.167 583.584 C 456.434 583.813, 455.984 584.453, 456.168 585.005 C 456.376 585.629, 464.071 586.035, 476.501 586.078 C 487.501 586.117, 497.118 586.115, 497.872 586.074 C 498.979 586.014, 499.003 585.709, 498 584.500 C 497.315 583.675, 495.656 583, 494.312 583 C 492.968 583, 490.886 582.483, 489.684 581.850 C 488.483 581.218, 487.169 580.205, 486.765 579.600 C 486.361 578.995, 486.024 551.388, 486.015 518.250 C 486.001 461.536, 485.897 458.001, 484.250 458.015 C 483.288 458.024, 481.825 458.460, 481 458.985 M 306 460.632 C 303.525 461.420, 297.900 462.553, 293.500 463.150 C 289.100 463.746, 284.631 464.691, 283.570 465.249 C 281.773 466.193, 281.757 466.349, 283.338 467.505 C 284.272 468.188, 287.273 469.044, 290.007 469.407 C 294.022 469.939, 295.085 470.493, 295.533 472.283 C 295.839 473.502, 295.956 498.049, 295.794 526.831 C 295.514 576.759, 295.413 579.226, 293.615 580.540 C 292.578 581.298, 289.766 582.213, 287.365 582.573 C 284.697 582.973, 283 583.751, 283 584.573 C 283 585.647, 287.058 585.978, 303.068 586.210 C 314.106 586.369, 324.035 586.166, 325.132 585.758 C 326.230 585.351, 326.848 584.563, 326.505 584.008 C 326.162 583.454, 323.884 583, 321.441 583 C 318.333 583, 316.400 582.400, 315 581 C 313.131 579.131, 313 577.671, 313.006 558.750 C 313.009 547.612, 313.474 536.835, 314.039 534.799 C 314.683 532.481, 316.642 529.740, 319.283 527.462 C 321.603 525.462, 325.300 522.887, 327.500 521.740 C 329.891 520.493, 333.415 519.647, 336.261 519.635 C 340.454 519.618, 341.496 520.078, 344.995 523.495 C 347.181 525.629, 349.474 528.907, 350.092 530.779 C 350.878 533.159, 350.997 540.592, 350.488 555.514 C 350.065 567.922, 349.285 577.801, 348.624 579.127 C 347.866 580.647, 345.989 581.772, 342.994 582.502 C 340.522 583.103, 338.500 584.166, 338.500 584.863 C 338.500 585.843, 343.163 586.152, 359 586.223 C 376.608 586.302, 379.542 586.101, 379.797 584.793 C 380.018 583.662, 378.905 583.137, 375.460 582.748 C 372.911 582.461, 370.422 581.822, 369.928 581.328 C 369.434 580.834, 368.756 568.746, 368.422 554.465 C 367.838 529.532, 367.716 528.291, 365.330 523.242 C 363.963 520.350, 361.417 516.918, 359.672 515.615 C 357.928 514.313, 354.751 512.687, 352.613 512.001 C 350.277 511.252, 345.831 510.940, 341.469 511.220 C 335.870 511.580, 333.101 512.333, 329.356 514.517 C 326.685 516.074, 322.209 519.069, 319.409 521.174 C 316.609 523.278, 314.134 525, 313.909 525 C 313.684 525.001, 313.654 510.151, 313.842 492 C 314.170 460.455, 314.103 459.004, 312.342 459.099 C 311.329 459.153, 308.475 459.843, 306 460.632 M 818.741 467.562 C 815.574 468.330, 811.585 469.680, 809.877 470.564 C 808.169 471.447, 804.760 474.024, 802.301 476.290 C 799.843 478.556, 796.898 482.230, 795.758 484.455 C 794.472 486.963, 793.512 491.159, 793.231 495.500 C 792.982 499.350, 793.277 504.343, 793.886 506.596 C 794.496 508.849, 796.341 512.551, 797.987 514.823 C 799.633 517.096, 803.486 520.922, 806.549 523.326 C 809.613 525.731, 818.208 531.028, 825.651 535.099 C 833.093 539.169, 840.953 544.008, 843.118 545.850 C 845.282 547.693, 847.733 550.516, 848.564 552.124 C 849.396 553.732, 850.104 557.418, 850.139 560.314 C 850.174 563.211, 849.460 567.357, 848.553 569.527 C 847.646 571.697, 845.914 574.536, 844.702 575.835 C 843.491 577.135, 840.250 579.357, 837.500 580.774 C 833.324 582.926, 831.182 583.344, 824.500 583.312 C 818.289 583.283, 815.416 582.762, 811.651 580.981 C 808.985 579.719, 804.623 576.473, 801.959 573.766 C 798.599 570.353, 796.542 567.127, 795.245 563.235 C 794.217 560.150, 792.841 557.447, 792.188 557.229 C 791.310 556.937, 791 560.371, 791 570.398 C 791 583.642, 791.053 583.974, 793.250 584.486 C 794.487 584.774, 800.146 585.908, 805.824 587.005 C 811.501 588.102, 819.619 589, 823.863 589 C 828.107 589, 834.088 588.347, 837.154 587.548 C 840.220 586.749, 845.409 584.526, 848.684 582.606 C 851.959 580.687, 856.541 577.052, 858.868 574.528 C 861.194 572.004, 864.023 567.816, 865.155 565.220 C 866.286 562.624, 867.434 557.800, 867.705 554.500 C 868.083 549.911, 867.697 547.172, 866.066 542.853 C 864.893 539.747, 862.148 535.178, 859.966 532.699 C 857.784 530.220, 852.512 525.967, 848.249 523.248 C 843.987 520.529, 836.225 516.115, 831 513.439 C 824.925 510.329, 819.635 506.719, 816.327 503.429 C 812.733 499.855, 810.794 496.949, 809.976 493.911 C 809.328 491.506, 809.023 487.863, 809.298 485.816 C 809.572 483.769, 810.772 480.724, 811.964 479.051 C 813.156 477.377, 816.204 474.793, 818.737 473.308 C 822.481 471.114, 824.576 470.609, 829.922 470.612 C 833.540 470.614, 838.345 471.151, 840.599 471.805 C 842.853 472.460, 846.187 474.009, 848.007 475.248 C 849.827 476.487, 852.178 478.664, 853.231 480.087 C 854.285 481.509, 855.398 484.547, 855.705 486.837 C 856.165 490.264, 856.645 491, 858.423 491 C 860.513 491, 860.574 490.671, 860.300 480.842 C 860.145 475.255, 859.805 470.472, 859.546 470.213 C 859.287 469.954, 854.671 468.920, 849.288 467.915 C 843.904 466.911, 836.125 466.106, 832 466.128 C 827.875 466.149, 821.909 466.795, 818.741 467.562 M 183.305 469.317 C 183.027 469.766, 183.069 470.403, 183.399 470.732 C 183.728 471.061, 186.795 471.713, 190.214 472.181 C 193.633 472.648, 196.897 473.496, 197.466 474.065 C 198.139 474.738, 198.592 490.688, 198.763 519.799 C 198.908 544.385, 198.683 567.875, 198.263 572 L 197.500 579.500 191.250 581.462 C 187.813 582.541, 185 584.004, 185 584.712 C 185 585.743, 193.936 586, 229.856 586 L 274.711 586 275.331 578.750 C 275.671 574.763, 276.256 568.852, 276.629 565.615 C 277.184 560.803, 277.052 559.816, 275.904 560.197 C 275.132 560.453, 272.700 564.188, 270.500 568.496 C 268.300 572.805, 265.231 577.268, 263.680 578.415 C 261.121 580.307, 259.229 580.531, 243.288 580.835 C 233.624 581.019, 224.198 580.885, 222.342 580.536 L 218.966 579.903 219.233 554.701 L 219.500 529.500 233.500 529.212 C 241.200 529.054, 248.528 529.179, 249.784 529.490 C 251.040 529.801, 252.487 531.055, 253 532.278 C 253.512 533.500, 254.414 536.413, 255.004 538.750 C 255.594 541.087, 256.668 543, 257.390 543 C 258.436 543, 258.625 539.695, 258.318 526.750 C 258.106 517.813, 257.523 510.358, 257.023 510.185 C 256.522 510.012, 255.600 511.812, 254.975 514.185 C 254.349 516.558, 253.188 519.513, 252.396 520.750 C 250.999 522.929, 250.452 523, 234.959 523 L 218.965 523 219.233 498.250 L 219.500 473.500 238.852 473.702 C 254.438 473.865, 258.667 474.207, 260.581 475.461 C 261.889 476.318, 263.590 478.252, 264.361 479.759 C 265.132 481.267, 266.081 484.413, 266.470 486.750 C 267.033 490.144, 267.590 491, 269.233 491 C 271.168 491, 271.252 490.602, 270.652 484.250 C 270.301 480.538, 270.011 475.352, 270.007 472.727 L 270 467.955 226.906 468.227 C 203.204 468.377, 183.584 468.867, 183.305 469.317 M 1159.643 471.028 C 1158.071 471.499, 1155.882 472.698, 1154.778 473.692 C 1153.674 474.687, 1152.374 476.538, 1151.889 477.806 C 1151.286 479.383, 1151.469 481.006, 1152.467 482.937 C 1153.271 484.491, 1155.329 486.940, 1157.041 488.381 C 1158.753 489.821, 1161.041 491, 1162.126 491 C 1163.211 491, 1165.316 490.371, 1166.802 489.602 C 1168.289 488.834, 1170.320 487.304, 1171.316 486.203 C 1172.313 485.102, 1173.166 482.857, 1173.213 481.214 C 1173.260 479.571, 1172.278 476.795, 1171.031 475.044 C 1169.785 473.293, 1167.664 471.442, 1166.317 470.931 C 1164.971 470.419, 1163.562 470.039, 1163.185 470.086 C 1162.808 470.133, 1161.214 470.557, 1159.643 471.028 M 523 471.658 C 522.175 471.983, 520.263 473.403, 518.750 474.812 C 516.966 476.474, 516 478.397, 516 480.287 C 516 482.287, 517.105 484.305, 519.527 486.727 C 522.574 489.774, 523.521 490.177, 526.499 489.694 C 528.395 489.386, 531.082 488.317, 532.471 487.317 C 533.861 486.318, 535.272 484.488, 535.607 483.250 C 535.942 482.012, 535.949 479.932, 535.621 478.626 C 535.293 477.321, 534.232 475.282, 533.263 474.096 C 532.274 472.886, 529.963 471.747, 528 471.503 C 526.075 471.263, 523.825 471.332, 523 471.658 M 897.364 501.928 C 894.139 504.088, 889.959 507.453, 888.076 509.405 C 886.123 511.430, 882.554 513.652, 879.771 514.576 C 876.242 515.748, 874.978 516.654, 875.204 517.848 C 875.429 519.035, 876.921 519.641, 880.509 520 L 885.500 520.500 886.144 529.500 C 886.498 534.450, 886.838 545.925, 886.900 555 C 886.961 564.075, 887.481 573.192, 888.055 575.260 C 888.630 577.328, 890.765 580.760, 892.800 582.886 C 895.567 585.777, 897.777 587.022, 901.568 587.826 C 905.483 588.656, 908.183 588.577, 913.442 587.477 C 917.186 586.693, 922.532 584.763, 925.322 583.186 C 928.113 581.610, 930.853 579.594, 931.412 578.708 C 931.972 577.821, 932.184 576.850, 931.883 576.550 C 931.583 576.250, 928.054 577.151, 924.041 578.553 C 919.281 580.216, 915.755 580.885, 913.899 580.478 C 912.334 580.134, 909.950 578.541, 908.600 576.937 C 906.990 575.023, 905.932 572.213, 905.521 568.760 C 905.177 565.867, 905.032 553.825, 905.198 542 L 905.500 520.500 918.812 520.221 L 932.125 519.941 933.258 516.721 C 934.379 513.534, 934.397 513.526, 934.985 516 C 935.459 517.997, 936.275 518.552, 939.039 518.760 C 940.943 518.903, 943.962 519.261, 945.750 519.555 L 949 520.091 949.006 545.295 C 949.009 560.499, 949.447 572.087, 950.110 574.500 C 950.792 576.984, 952.847 580.077, 955.530 582.662 C 958.803 585.814, 961.190 587.123, 965.376 588.060 C 969.645 589.015, 972.210 589.033, 976.661 588.139 C 979.829 587.503, 984.239 586.048, 986.461 584.906 C 988.682 583.764, 993.050 580.842, 996.166 578.414 C 999.862 575.534, 1001.990 574.434, 1002.286 575.249 C 1002.535 575.937, 1002.503 578.929, 1002.214 581.897 L 1001.690 587.293 1008.095 586.425 C 1011.618 585.947, 1018.550 585.543, 1023.500 585.528 C 1028.617 585.512, 1032.624 585.069, 1032.787 584.500 C 1032.945 583.950, 1031.370 583.250, 1029.287 582.945 C 1027.204 582.640, 1024.547 581.869, 1023.382 581.231 C 1022.217 580.593, 1020.980 578.649, 1020.632 576.911 C 1020.284 575.172, 1019.996 561.994, 1019.991 547.625 C 1019.987 533.256, 1019.694 519.098, 1019.342 516.162 C 1018.727 511.046, 1018.593 510.848, 1016.100 511.393 C 1014.670 511.706, 1010.350 512.419, 1006.500 512.977 C 1002.650 513.536, 996.913 514.252, 993.750 514.568 C 989.835 514.960, 988 515.580, 988 516.511 C 988 517.381, 989.727 518.121, 992.750 518.547 C 995.362 518.915, 998.513 519.853, 999.750 520.631 C 1001.977 522.032, 1002 522.277, 1002 545.122 L 1002 568.198 998.979 571.020 C 997.317 572.572, 993.829 574.877, 991.229 576.141 C 988.628 577.405, 984.925 578.438, 983 578.435 C 981.075 578.433, 977.728 577.547, 975.563 576.466 C 973 575.186, 970.906 573.104, 969.563 570.500 C 967.668 566.826, 967.459 564.257, 967 539 L 966.500 511.500 964 511.902 C 962.625 512.124, 949.966 512.245, 935.868 512.173 C 921.014 512.096, 909.095 511.606, 907.521 511.008 C 904.865 509.998, 904.822 509.846, 905.501 503.988 C 906.075 499.048, 905.937 498, 904.712 498 C 903.896 498, 900.589 499.767, 897.364 501.928 M 1163.419 511.043 C 1160.164 512.756, 1153.918 515.192, 1149.541 516.456 C 1145.163 517.720, 1141.424 519.228, 1141.231 519.807 C 1141.038 520.386, 1142.912 521.164, 1145.395 521.537 C 1147.878 521.909, 1150.587 522.728, 1151.415 523.357 C 1152.396 524.103, 1153.011 526.586, 1153.184 530.500 C 1153.330 533.800, 1153.348 546.497, 1153.225 558.715 C 1153.022 578.788, 1152.830 581.021, 1151.234 581.875 C 1150.263 582.394, 1147.676 582.994, 1145.484 583.208 C 1142.846 583.465, 1141.500 584.087, 1141.500 585.048 C 1141.500 586.266, 1145.086 586.542, 1163.750 586.761 C 1182.154 586.976, 1186 586.782, 1186 585.638 C 1186 584.708, 1184.357 584.097, 1180.990 583.773 C 1178.234 583.508, 1175.150 582.541, 1174.136 581.623 C 1172.540 580.179, 1172.205 577.705, 1171.646 563.227 C 1171.291 554.027, 1170.948 538.342, 1170.884 528.370 C 1170.819 518.399, 1170.445 509.721, 1170.052 509.085 C 1169.551 508.274, 1167.572 508.858, 1163.419 511.043 M 437.066 511.235 C 434.628 512.423, 429.340 516.719, 425.316 520.783 L 418 528.171 418 519.085 C 418 514.088, 417.636 510, 417.191 510 C 416.747 510, 412.809 511.299, 408.441 512.887 C 404.074 514.475, 397.887 516.312, 394.694 516.970 C 391.209 517.687, 389.040 518.620, 389.268 519.303 C 389.476 519.928, 391.508 520.904, 393.784 521.470 C 396.059 522.037, 398.501 523.085, 399.210 523.800 C 400.171 524.768, 400.588 531.266, 400.846 549.300 C 401.037 562.610, 400.786 575.075, 400.289 577 C 399.509 580.018, 398.842 580.618, 395.442 581.355 C 393.274 581.825, 390.496 582.599, 389.270 583.074 C 388.043 583.550, 387.260 584.515, 387.530 585.220 C 387.912 586.216, 392.947 586.452, 410.250 586.282 C 424.449 586.143, 432.603 585.691, 432.823 585.032 C 433.012 584.464, 432.342 583.931, 431.333 583.848 C 430.325 583.764, 429.050 583.591, 428.500 583.463 C 427.950 583.335, 426.467 583.179, 425.205 583.115 C 423.942 583.052, 421.752 581.843, 420.339 580.429 L 417.768 577.859 418.304 555.804 L 418.840 533.748 422.670 529.792 C 424.776 527.616, 427.740 525.185, 429.255 524.389 C 431.815 523.046, 432.474 523.168, 438.589 526.117 C 444.987 529.203, 445.261 529.246, 448.539 527.683 C 450.393 526.799, 452.615 524.712, 453.476 523.046 C 454.419 521.223, 454.788 519.003, 454.403 517.469 C 454.051 516.068, 452.354 513.863, 450.632 512.570 C 448.909 511.277, 446.150 509.962, 444.500 509.647 C 442.502 509.267, 440.019 509.797, 437.066 511.235 M 525.143 512.010 C 521.097 513.601, 515.247 515.424, 512.143 516.062 C 509.039 516.700, 506.141 517.437, 505.701 517.700 C 505.262 517.963, 505.420 518.801, 506.052 519.563 C 506.684 520.324, 508.753 521.238, 510.650 521.594 C 512.546 521.950, 514.751 522.894, 515.549 523.692 C 516.745 524.888, 517 529.870, 517 552.048 C 517 578.853, 516.992 578.959, 514.750 580.409 C 513.513 581.210, 511.262 582.169, 509.750 582.541 C 508.141 582.936, 507 583.898, 507 584.858 C 507.001 586.328, 509.196 586.500, 528 586.500 C 542.833 586.500, 549 586.171, 549 585.380 C 549 584.764, 546.343 583.738, 543.096 583.099 C 539.849 582.460, 536.732 581.381, 536.168 580.702 C 535.542 579.949, 534.861 565.727, 534.420 544.234 C 534.022 524.855, 533.428 509.026, 533.098 509.058 C 532.769 509.091, 529.189 510.419, 525.143 512.010 M 1543.500 510.825 C 1540.200 511.818, 1535.953 513.444, 1534.062 514.438 C 1532.171 515.433, 1528.318 518.553, 1525.500 521.373 C 1522.683 524.193, 1519.138 529.121, 1517.624 532.324 C 1515.873 536.030, 1514.668 540.577, 1514.312 544.824 C 1514.003 548.517, 1514.284 554.056, 1514.941 557.219 C 1515.595 560.365, 1517.471 565.625, 1519.111 568.907 C 1520.752 572.189, 1523.740 576.320, 1525.751 578.086 C 1527.763 579.853, 1531.679 582.335, 1534.454 583.603 C 1537.229 584.870, 1542.752 586.442, 1546.727 587.096 C 1552.212 587.999, 1555.345 588.009, 1559.727 587.140 C 1562.902 586.510, 1568.200 584.672, 1571.500 583.056 C 1574.800 581.440, 1579.005 578.563, 1580.844 576.664 C 1582.707 574.740, 1584.035 572.435, 1583.844 571.458 C 1583.542 569.920, 1583.112 570.032, 1580.332 572.372 C 1578.589 573.840, 1575.068 575.967, 1572.507 577.100 C 1569.945 578.233, 1565.473 579.405, 1562.569 579.705 C 1559.476 580.024, 1555.675 579.724, 1553.394 578.980 C 1551.252 578.282, 1547.668 576.460, 1545.430 574.931 C 1542.795 573.132, 1540.221 570.015, 1538.131 566.095 C 1536.356 562.765, 1534.258 556.993, 1533.469 553.270 C 1532.680 549.546, 1532.027 545.487, 1532.017 544.250 L 1532 542 1559 542 C 1584.052 542, 1585.999 541.874, 1585.988 540.250 C 1585.982 539.288, 1585.375 536.250, 1584.641 533.500 C 1583.906 530.750, 1582.363 526.657, 1581.211 524.405 C 1580.060 522.153, 1577.427 518.826, 1575.360 517.011 C 1573.293 515.196, 1569.736 512.886, 1567.455 511.877 C 1565.174 510.868, 1560.201 509.812, 1556.404 509.531 C 1551.404 509.160, 1547.845 509.517, 1543.500 510.825 M 1610 513.378 C 1603.125 515.685, 1596.600 517.925, 1595.500 518.357 C 1593.525 519.133, 1593.524 519.161, 1595.441 520.571 C 1596.509 521.357, 1598.839 522, 1600.620 522 C 1602.400 522, 1604.491 522.634, 1605.266 523.409 C 1606.371 524.514, 1606.818 530.537, 1607.337 551.327 C 1607.702 565.907, 1607.743 578.507, 1607.428 579.327 C 1607.114 580.146, 1605.651 581.290, 1604.178 581.868 C 1602.705 582.446, 1599.793 583.216, 1597.706 583.579 C 1595.620 583.942, 1594.069 584.706, 1594.259 585.276 C 1594.484 585.953, 1602.671 586.314, 1617.812 586.314 C 1630.576 586.314, 1641.340 585.994, 1641.731 585.602 C 1642.122 585.211, 1641.780 584.473, 1640.971 583.961 C 1640.162 583.449, 1637.783 583.024, 1635.684 583.015 C 1633.586 583.007, 1630.886 582.483, 1629.684 581.850 C 1628.483 581.218, 1627.169 580.205, 1626.765 579.600 C 1626.361 578.995, 1626.040 568.825, 1626.051 557 C 1626.065 542.008, 1626.439 534.853, 1627.285 533.362 C 1627.953 532.186, 1630.455 529.599, 1632.845 527.612 C 1635.234 525.626, 1637.899 524, 1638.766 524 C 1639.633 524, 1643.255 525.165, 1646.814 526.589 C 1653.264 529.169, 1653.293 529.171, 1655.893 527.242 C 1657.327 526.177, 1659.127 524.202, 1659.892 522.854 C 1661.111 520.709, 1661.062 519.934, 1659.507 516.657 C 1658.530 514.597, 1656.386 512.217, 1654.744 511.367 C 1652.818 510.372, 1650.575 510.045, 1648.430 510.447 C 1646.600 510.790, 1642.493 513.043, 1639.302 515.453 C 1636.111 517.863, 1631.949 521.447, 1630.054 523.417 C 1628.158 525.388, 1626.302 527, 1625.929 527 C 1625.556 527, 1625.482 522.950, 1625.764 518 C 1626.241 509.640, 1626.143 509.007, 1624.389 509.092 C 1623.350 509.143, 1616.875 511.072, 1610 513.378 M 1789.326 510.121 C 1787.031 510.533, 1783.656 511.636, 1781.826 512.572 C 1779.997 513.508, 1776.848 515.572, 1774.829 517.159 C 1772.809 518.745, 1770.222 521.976, 1769.079 524.337 C 1767.871 526.832, 1767 530.616, 1767 533.365 C 1767 535.969, 1767.660 539.375, 1768.466 540.935 C 1769.273 542.495, 1771.919 545.510, 1774.347 547.635 C 1776.775 549.761, 1782.077 553.264, 1786.131 555.419 C 1790.184 557.574, 1795.869 560.836, 1798.765 562.666 C 1801.985 564.702, 1804.665 567.327, 1805.666 569.425 C 1807.021 572.268, 1807.094 573.359, 1806.088 575.787 C 1805.421 577.398, 1803.486 579.743, 1801.789 580.998 C 1800.092 582.252, 1796.853 583.488, 1794.591 583.743 C 1792.330 583.998, 1788.590 583.697, 1786.282 583.076 C 1783.973 582.454, 1780.153 580.479, 1777.792 578.687 C 1775.333 576.821, 1772.432 573.308, 1771 570.464 C 1769.625 567.734, 1768.050 565.500, 1767.500 565.500 C 1766.950 565.500, 1766.378 566.850, 1766.229 568.500 C 1766.080 570.150, 1766.305 574.869, 1766.729 578.988 C 1767.297 584.500, 1767.896 586.522, 1769 586.653 C 1769.825 586.751, 1775.764 587.390, 1782.199 588.072 C 1792.507 589.165, 1794.705 589.115, 1800.699 587.649 C 1804.439 586.734, 1809.293 584.735, 1811.485 583.206 C 1813.677 581.677, 1816.467 578.947, 1817.685 577.140 C 1818.903 575.332, 1820.201 571.843, 1820.570 569.385 C 1821.047 566.203, 1820.733 563.560, 1819.481 560.208 C 1818.453 557.458, 1815.796 553.628, 1813.093 551 C 1810.507 548.486, 1804.279 544.357, 1798.982 541.644 C 1793.767 538.974, 1788.074 535.716, 1786.331 534.405 C 1784.588 533.095, 1782.643 530.449, 1782.009 528.527 C 1781.374 526.604, 1781.134 524.152, 1781.475 523.077 C 1781.817 522.003, 1783.665 519.745, 1785.583 518.062 C 1788.427 515.565, 1789.946 515, 1793.823 515 C 1796.768 515, 1800.268 515.856, 1803.024 517.250 C 1805.514 518.510, 1808.936 521.480, 1810.800 524 C 1812.631 526.475, 1814.771 529.288, 1815.555 530.250 C 1816.339 531.212, 1817.374 532, 1817.856 532 C 1818.348 532, 1818.372 530.140, 1817.909 527.750 C 1817.457 525.413, 1817.068 520.913, 1817.044 517.750 L 1817 512 1813.250 511.994 C 1811.188 511.991, 1807.925 511.583, 1806 511.087 C 1804.075 510.590, 1800.475 510.002, 1798 509.779 C 1795.525 509.555, 1791.622 509.710, 1789.326 510.121 M 589.105 511.515 C 586.137 512.350, 581.499 514.237, 578.797 515.707 C 576.095 517.177, 571.692 520.539, 569.011 523.178 C 566.299 525.848, 562.666 530.965, 560.819 534.717 C 557.804 540.841, 557.500 542.284, 557.500 550.479 C 557.500 558.428, 557.849 560.213, 560.435 565.500 C 562.049 568.800, 565.788 574.043, 568.744 577.152 C 572.097 580.679, 576.070 583.644, 579.308 585.037 C 582.478 586.401, 587.808 587.543, 592.999 587.972 C 598.891 588.458, 603.116 588.266, 606.767 587.345 C 609.664 586.614, 614.204 584.917, 616.857 583.573 C 619.510 582.228, 623.102 579.509, 624.840 577.529 C 626.578 575.550, 628 573.271, 628 572.465 C 628 571.659, 627.830 571, 627.621 571 C 627.413 571, 624.662 572.554, 621.509 574.452 C 618.356 576.351, 613.331 578.412, 610.343 579.033 C 607.355 579.653, 603.018 579.845, 600.705 579.460 C 598.392 579.075, 594.867 577.933, 592.872 576.922 C 590.876 575.911, 587.404 572.993, 585.155 570.439 C 582.906 567.884, 580.086 563.253, 578.888 560.147 C 577.504 556.562, 576.536 551.345, 576.237 545.860 C 575.883 539.367, 576.192 535.939, 577.480 532.061 C 578.637 528.578, 580.786 525.309, 584.098 521.998 C 587.042 519.053, 590.500 516.678, 592.751 516.052 C 594.813 515.480, 597.850 515.011, 599.500 515.011 C 601.150 515.011, 604.295 515.509, 606.488 516.118 C 608.709 516.735, 611.910 518.745, 613.711 520.655 C 615.490 522.541, 617.485 525.887, 618.146 528.092 C 619.186 531.564, 619.691 532.059, 621.923 531.800 C 624.467 531.504, 624.500 531.390, 624.500 523 L 624.500 514.500 619 512.688 C 615.942 511.680, 609.283 510.680, 604 510.436 C 597.356 510.128, 592.878 510.453, 589.105 511.515 M 1220.995 511.351 C 1218.518 512.019, 1214.404 514.002, 1211.854 515.757 C 1209.303 517.511, 1205.305 521.097, 1202.969 523.724 C 1200.632 526.351, 1197.351 531.399, 1195.676 534.942 C 1193.110 540.371, 1192.635 542.573, 1192.651 548.942 C 1192.662 553.099, 1193.419 559.041, 1194.333 562.147 C 1195.248 565.253, 1197.738 570.112, 1199.867 572.945 C 1201.995 575.778, 1205.502 579.394, 1207.658 580.980 C 1209.814 582.566, 1213.940 584.794, 1216.826 585.932 C 1220.542 587.396, 1224.346 588, 1229.856 588 C 1234.135 588, 1240.081 587.275, 1243.068 586.390 C 1246.056 585.504, 1250.139 583.945, 1252.142 582.925 C 1254.145 581.904, 1257.407 579.538, 1259.392 577.667 C 1261.376 575.795, 1263 573.754, 1263 573.132 C 1263 572.509, 1262.505 572, 1261.901 572 C 1261.296 572, 1258.259 573.538, 1255.151 575.417 C 1252.043 577.296, 1247.234 579.296, 1244.465 579.860 C 1241.540 580.457, 1237.979 580.541, 1235.965 580.061 C 1234.059 579.607, 1231.232 578.732, 1229.682 578.117 C 1228.132 577.501, 1225.297 575.803, 1223.382 574.342 C 1221.467 572.882, 1218.793 569.796, 1217.439 567.486 C 1216.085 565.175, 1214.327 561.083, 1213.534 558.392 C 1212.740 555.702, 1211.958 551.025, 1211.795 548 L 1211.500 542.500 1237.342 541.824 C 1251.556 541.453, 1263.451 540.882, 1263.777 540.557 C 1264.102 540.231, 1263.776 537.610, 1263.051 534.732 C 1262.325 531.854, 1260.915 527.874, 1259.916 525.887 C 1258.917 523.901, 1255.783 520.192, 1252.953 517.647 C 1249.655 514.682, 1245.979 512.477, 1242.721 511.510 C 1239.925 510.679, 1234.906 510.030, 1231.568 510.067 C 1228.231 510.105, 1223.473 510.682, 1220.995 511.351 M 1295.812 512.543 C 1292.134 513.799, 1285.880 515.330, 1281.915 515.945 C 1277.950 516.560, 1274.315 517.306, 1273.837 517.601 C 1273.359 517.896, 1273.188 518.495, 1273.458 518.932 C 1273.728 519.368, 1276.098 520.307, 1278.724 521.018 C 1281.351 521.729, 1284.063 522.746, 1284.750 523.278 C 1285.697 524.010, 1286 530.996, 1286 552.087 C 1286 578.620, 1285.909 579.978, 1284.060 580.968 C 1282.993 581.539, 1280.405 582.363, 1278.310 582.798 C 1276.211 583.234, 1274.500 584.185, 1274.500 584.915 C 1274.500 585.973, 1278.739 586.249, 1295.446 586.283 C 1309.026 586.309, 1316.513 585.960, 1316.737 585.289 C 1316.927 584.720, 1316.051 583.978, 1314.791 583.641 C 1313.531 583.303, 1311.332 583.021, 1309.905 583.014 C 1308.478 583.006, 1306.530 582.138, 1305.576 581.084 C 1304.010 579.353, 1303.874 576.787, 1304.171 554.526 L 1304.500 529.883 1307 527.905 C 1308.375 526.817, 1312.075 524.593, 1315.221 522.963 C 1318.854 521.082, 1322.450 520, 1325.070 520 C 1327.340 520, 1330.708 520.717, 1332.555 521.593 C 1334.741 522.630, 1336.631 524.672, 1337.974 527.446 C 1339.910 531.445, 1340.020 533.200, 1339.768 556.065 L 1339.500 580.425 1337 581.669 C 1335.625 582.353, 1333.263 583.166, 1331.750 583.476 C 1330.237 583.785, 1329 584.680, 1329 585.464 C 1329 586.655, 1331.265 586.803, 1342.750 586.363 C 1350.313 586.073, 1360.012 586.240, 1364.305 586.733 C 1368.598 587.227, 1372.323 587.286, 1372.583 586.866 C 1372.843 586.445, 1372.256 585.691, 1371.278 585.191 C 1370.300 584.691, 1367.955 583.988, 1366.066 583.629 C 1364.177 583.270, 1361.814 582.237, 1360.816 581.333 C 1359.162 579.837, 1358.999 577.630, 1358.989 556.595 C 1358.983 543.893, 1358.698 531.804, 1358.355 529.732 C 1358.013 527.659, 1356.330 523.609, 1354.616 520.732 C 1352.192 516.662, 1350.294 514.889, 1346.071 512.750 C 1341.550 510.460, 1339.374 510.004, 1333.071 510.022 C 1327.868 510.037, 1324.249 510.620, 1321.500 511.886 C 1319.300 512.900, 1314.686 515.815, 1311.247 518.364 C 1307.808 520.914, 1304.771 523, 1304.497 523 C 1304.224 523, 1304 520.327, 1304 517.059 C 1304 513.791, 1303.662 510.925, 1303.250 510.689 C 1302.838 510.453, 1299.490 511.287, 1295.812 512.543 M 1436.750 512.748 C 1428.582 512.917, 1422 513.467, 1422 513.980 C 1422 514.490, 1423.194 515.715, 1424.653 516.703 C 1426.113 517.691, 1428.767 519.872, 1430.553 521.550 C 1432.339 523.227, 1434.374 526.515, 1435.075 528.856 C 1436.230 532.711, 1436.136 533.600, 1434.076 538.306 C 1432.825 541.163, 1429.877 548.135, 1427.524 553.800 C 1425.172 559.466, 1422.854 564.131, 1422.374 564.167 C 1421.893 564.203, 1419.876 560.243, 1417.891 555.366 C 1415.905 550.490, 1411.068 540.569, 1407.141 533.320 C 1403.213 526.072, 1400 519.707, 1400 519.177 C 1400 518.648, 1400.712 517.941, 1401.582 517.607 C 1402.452 517.273, 1404.506 517, 1406.148 517 C 1407.789 517, 1410.002 516.534, 1411.066 515.965 C 1412.130 515.395, 1413 514.495, 1413 513.965 C 1413 513.374, 1404.257 513, 1390.417 513 C 1372.798 513, 1367.924 513.275, 1368.244 514.250 C 1368.470 514.938, 1370.296 515.639, 1372.303 515.809 C 1375.085 516.044, 1376.680 516.994, 1379.021 519.809 C 1380.709 521.839, 1387.889 535.200, 1394.977 549.500 C 1402.064 563.800, 1409.172 578.650, 1410.772 582.500 C 1412.426 586.482, 1414.288 589.500, 1415.090 589.500 C 1415.905 589.500, 1419.308 583.804, 1423.155 576 C 1426.815 568.575, 1431.984 557.436, 1434.642 551.246 C 1437.299 545.056, 1439.892 540.131, 1440.404 540.301 C 1440.916 540.472, 1446.772 551.181, 1453.418 564.100 C 1460.063 577.019, 1465.879 588.155, 1466.342 588.847 C 1466.805 589.539, 1467.615 589.962, 1468.142 589.786 C 1468.670 589.610, 1470.359 585.874, 1471.897 581.483 C 1473.434 577.092, 1479.446 562.810, 1485.257 549.745 C 1491.067 536.680, 1496.663 524.530, 1497.693 522.745 C 1498.785 520.851, 1501.602 518.447, 1504.458 516.971 C 1507.150 515.580, 1509.559 513.823, 1509.811 513.067 C 1510.177 511.970, 1509.303 511.824, 1505.495 512.346 C 1502.869 512.706, 1495.834 513, 1489.860 513 C 1483.495 513, 1479 513.402, 1479 513.972 C 1479 514.507, 1481.447 515.655, 1484.437 516.525 C 1487.859 517.520, 1490.016 518.734, 1490.259 519.803 C 1490.471 520.736, 1489.796 523.750, 1488.759 526.500 C 1487.723 529.250, 1483.447 539.549, 1479.258 549.386 L 1471.642 567.273 1469.999 561.386 C 1469.096 558.149, 1465.645 549.650, 1462.331 542.500 C 1459.017 535.350, 1455.507 527.379, 1454.531 524.788 C 1453.556 522.196, 1453.001 519.440, 1453.299 518.663 C 1453.625 517.813, 1456.058 516.973, 1459.405 516.555 C 1462.465 516.173, 1465.258 515.391, 1465.612 514.818 C 1465.966 514.245, 1465.636 513.384, 1464.878 512.904 C 1464.120 512.423, 1460.800 512.123, 1457.500 512.236 C 1454.200 512.350, 1444.862 512.580, 1436.750 512.748 M 1224.500 515.465 C 1222.300 516.264, 1218.847 518.682, 1216.826 520.838 C 1214.806 522.995, 1212.607 526.580, 1211.940 528.804 C 1211.274 531.029, 1210.979 533.502, 1211.285 534.300 C 1211.653 535.259, 1213.982 535.947, 1218.171 536.333 C 1221.652 536.654, 1228.550 536.598, 1233.500 536.208 L 1242.500 535.500 1242.806 531.272 C 1242.997 528.646, 1242.369 525.361, 1241.150 522.606 C 1240.070 520.166, 1238.109 517.462, 1236.791 516.599 C 1235.474 515.735, 1233.069 514.800, 1231.448 514.520 C 1229.826 514.241, 1226.700 514.666, 1224.500 515.465 M 1077.885 516.380 C 1075.897 517.090, 1072.949 518.612, 1071.334 519.762 C 1069.719 520.912, 1067.071 524.248, 1065.449 527.176 C 1062.622 532.279, 1062.501 533.018, 1062.512 545 C 1062.522 555.640, 1062.861 558.336, 1064.786 563.121 C 1066.029 566.212, 1068.693 570.436, 1070.704 572.507 C 1072.715 574.578, 1076.378 577.165, 1078.845 578.256 C 1082.207 579.743, 1084.556 580.094, 1088.229 579.659 C 1090.924 579.340, 1095 578.047, 1097.287 576.785 C 1099.574 575.523, 1102.034 573.368, 1102.752 571.996 C 1103.741 570.108, 1103.991 564.089, 1103.780 547.304 L 1103.500 525.108 1100.027 521.527 C 1097.866 519.298, 1094.682 517.389, 1091.596 516.473 C 1088.868 515.663, 1085.481 515.020, 1084.068 515.044 C 1082.656 515.068, 1079.873 515.669, 1077.885 516.380 M 1541.827 517.744 C 1539.997 519.253, 1537.937 521.165, 1537.249 521.994 C 1536.562 522.822, 1535.099 525.470, 1533.999 527.877 C 1532.900 530.285, 1532 533.097, 1532 534.127 C 1532 535.750, 1532.835 536.010, 1538.250 536.076 C 1541.688 536.118, 1547.298 536.339, 1550.717 536.567 C 1554.136 536.796, 1558.636 536.618, 1560.717 536.173 L 1564.500 535.363 1564.239 530.502 C 1564.078 527.496, 1563.016 523.997, 1561.458 521.338 C 1560.072 518.972, 1558.081 516.579, 1557.034 516.018 C 1555.988 515.458, 1552.886 515, 1550.142 515 C 1546.178 515, 1544.471 515.563, 1541.827 517.744" stroke="none" fill="#9f221f" fill-rule="evenodd"/></svg>