<svg xmlns="http://www.w3.org/2000/svg" width="1308" height="1020" viewBox="0 0 1308 1020" version="1.1"><path d="M 186.500 227.870 C 167.144 233.441, 151.226 249.369, 145.894 268.500 C 145.090 271.384, 144.500 278.154, 144.500 284.500 C 144.500 297.414, 146.654 305.059, 153.100 315.034 C 169.627 340.603, 200.961 348.276, 233.769 334.786 C 237.767 333.143, 241.479 330.973, 242.019 329.965 C 243.196 327.766, 243.324 289.058, 242.160 287.225 C 241.545 286.255, 237.297 286.016, 224.426 286.225 L 207.500 286.500 207.200 292.837 C 206.796 301.381, 207.462 302, 217.061 302 L 224.877 302 225.514 306.250 C 225.865 308.587, 226.005 312.300, 225.826 314.500 C 225.545 317.942, 225.012 318.738, 222 320.207 C 217.220 322.538, 204.728 324.343, 197.752 323.711 C 190.436 323.048, 180.750 318.526, 175.356 313.257 C 173.077 311.030, 169.477 305.695, 167.356 301.402 L 163.500 293.597 163.524 283.048 L 163.547 272.500 166.514 266.500 C 170.477 258.487, 179.348 249.628, 186.705 246.338 C 198.892 240.887, 211.281 242.306, 224.835 250.704 L 232.171 255.249 236.584 250.918 C 242.800 244.817, 243.069 243.263, 238.576 239.379 C 233.317 234.833, 222.600 229.500, 214.936 227.615 C 206.543 225.550, 194.173 225.661, 186.500 227.870 M 536.452 233.646 C 530.961 239.571, 534.632 250.005, 542.205 249.996 C 546.496 249.991, 551.781 246.722, 552.568 243.584 C 553.404 240.254, 551.346 234.356, 548.701 232.503 C 545.165 230.027, 539.299 230.574, 536.452 233.646 M 279.500 276.378 C 268.367 281.628, 261.913 291.926, 261.193 305.591 C 260.544 317.890, 262.575 323.660, 270.311 331.490 C 277.369 338.636, 284.998 342.143, 293.483 342.143 C 301.657 342.143, 312.497 337.617, 317.367 332.172 L 319.234 330.084 316.033 326.042 C 314.272 323.819, 312.118 322, 311.244 322 C 310.371 322, 306.723 323.174, 303.136 324.609 C 292.382 328.911, 285.144 327.090, 279.401 318.639 C 278.173 316.833, 277.019 314.488, 276.835 313.428 L 276.500 311.500 299.500 310.934 C 312.150 310.623, 322.673 310.285, 322.884 310.184 C 323.096 310.083, 323.048 306.920, 322.779 303.156 C 321.889 290.712, 315.695 281.096, 305.521 276.358 C 298.396 273.040, 286.558 273.049, 279.500 276.378 M 361.500 275.228 C 359.850 275.817, 357.427 277.131, 356.115 278.149 C 353.006 280.562, 350.294 280.502, 349.501 278.002 C 348.813 275.835, 345.584 274.639, 341.852 275.167 L 339.500 275.500 339.500 307.500 L 339.500 339.500 346.167 339.500 C 349.834 339.500, 353.200 339.134, 353.647 338.687 C 354.094 338.240, 354.631 328.565, 354.840 317.187 C 355.050 305.809, 355.614 295.756, 356.094 294.847 C 358.587 290.126, 372.150 287.315, 376.783 290.561 C 381.813 294.084, 382.465 297.066, 383 319 L 383.500 339.500 390.108 339.792 L 396.717 340.085 397.358 335.403 C 397.711 332.828, 398 323.104, 398 313.795 C 398 303.580, 398.429 296.068, 399.081 294.849 C 401.858 289.659, 414.754 287.333, 420.689 290.952 C 425.230 293.721, 425.988 297.683, 425.994 318.679 C 426.001 340.171, 426.039 340.263, 434.808 339.796 L 440.381 339.500 441.276 336.029 C 441.769 334.120, 442.006 323.545, 441.804 312.529 C 441.395 290.247, 440.933 288.252, 434.534 281.169 C 429.469 275.563, 424.082 273.691, 414.320 274.147 C 406.282 274.522, 400.069 276.812, 395.414 281.113 L 393.327 283.041 389.414 279.893 C 387.261 278.161, 384.052 276.127, 382.282 275.372 C 378.506 273.762, 365.855 273.674, 361.500 275.228 M 476.500 276.378 C 470.086 279.402, 464.685 284.906, 461.234 291.932 L 458.500 297.500 458.500 308 L 458.500 318.500 461.466 323.855 C 466.764 333.420, 481.100 343.377, 489.453 343.293 C 494.432 343.242, 503.158 339.993, 509.379 335.872 C 516.051 331.453, 516.519 330.085, 512.875 325.664 C 509.415 321.467, 507.966 321.243, 501.835 323.955 C 496.454 326.335, 489.971 327.461, 486.566 326.606 C 483.013 325.714, 477.239 320.389, 474.941 315.885 C 473.873 313.792, 473 311.837, 473 311.540 C 473 311.243, 482.814 311, 494.809 311 C 521.084 311, 520.616 311.170, 519.656 301.984 C 518.370 289.682, 510.820 278.830, 501.285 275.582 C 494.094 273.131, 482.601 273.500, 476.500 276.378 M 595.500 275.207 C 593.850 275.783, 591.060 277.329, 589.300 278.641 L 586.099 281.026 582.668 278.013 C 580.204 275.850, 578.215 275, 575.618 275 L 572 275 572 306.883 L 572 338.767 574.250 339.370 C 578.044 340.387, 584.533 340.067, 585.800 338.800 C 586.652 337.948, 587 331.897, 587 317.935 L 587 298.270 589.171 295.509 C 591.929 292.003, 598.382 289.050, 603.349 289.022 C 608.036 288.995, 613.641 291.512, 615.282 294.380 C 616.091 295.795, 616.607 303.423, 616.835 317.308 L 617.176 338.117 619.653 339.058 C 621.016 339.576, 624.319 340, 626.993 340 L 631.856 340 632.526 334.640 C 632.894 331.692, 633.027 321.004, 632.821 310.890 L 632.447 292.500 629.817 287.500 C 624.525 277.440, 618.415 273.956, 606.282 274.079 C 602.002 274.122, 597.150 274.630, 595.500 275.207 M 660 275.064 C 656.766 276.423, 652.202 280.771, 650.411 284.200 C 648.393 288.063, 648.635 296.365, 650.896 300.795 C 652.979 304.879, 658.542 309.261, 667 313.480 C 677.673 318.804, 681 322.600, 677.800 325.800 C 675.966 327.634, 666.982 327.231, 660 325 C 656.557 323.900, 653.566 323, 653.355 323 C 652.385 323, 649.007 329.732, 649.004 331.673 C 648.999 334.599, 658.568 340.561, 665.618 342.025 C 669.998 342.934, 671.982 342.828, 677.013 341.416 C 688.438 338.211, 694.989 331.398, 694.996 322.718 C 695.004 312.564, 690.401 307.490, 674.378 299.989 C 663.779 295.027, 662.847 294.024, 665.035 289.934 C 666.318 287.537, 669.705 287.454, 679.093 289.589 C 686.863 291.356, 687.909 291.010, 690.617 285.773 C 692.747 281.654, 691.495 279.112, 686.151 276.706 C 680.826 274.308, 664.272 273.269, 660 275.064 M 719.670 275.433 C 712.650 277.320, 711.555 278.758, 712.643 284.660 L 713.536 289.500 717.518 289.401 C 719.708 289.346, 724.936 288.947, 729.136 288.514 C 740.852 287.305, 742.920 288.289, 744.334 295.750 L 744.950 299 734.225 299.022 C 719.823 299.051, 713.046 302.209, 708.495 311.010 C 705.782 316.256, 706.723 327.472, 710.334 332.929 C 714.175 338.733, 722.058 342.409, 729.366 341.803 C 734.327 341.391, 736.359 340.635, 743.874 336.401 C 746.424 334.964, 747.361 334.810, 747.713 335.768 C 748.832 338.815, 751.367 340.202, 754.798 339.645 C 756.695 339.337, 758.530 338.805, 758.874 338.461 C 760 337.339, 760.189 305.702, 759.126 296.183 C 757.156 278.533, 752.060 273.950, 734.538 274.067 C 729.017 274.105, 722.326 274.719, 719.670 275.433 M 782.500 274.827 C 781.400 275.049, 780.169 275.742, 779.765 276.366 C 779.361 276.990, 779.024 291.329, 779.015 308.231 L 779 338.962 781.303 339.540 C 782.570 339.858, 786.058 339.979, 789.053 339.809 L 794.500 339.500 795 318.328 L 795.500 297.156 798 294.483 C 803.099 289.031, 810.934 287.363, 816.915 290.456 C 822.469 293.328, 823.441 297.375, 823.830 319.250 L 824.181 339 831.590 339 L 839 339 839 317.539 L 839 296.078 841.135 294.089 C 846.039 289.520, 853.656 287.778, 859.317 289.931 C 860.664 290.442, 862.830 292.355, 864.132 294.181 L 866.500 297.500 867 318.500 L 867.500 339.500 875 339.500 L 882.500 339.500 882.772 319 L 883.043 298.500 880.969 291.671 C 879.400 286.508, 877.871 283.819, 874.697 280.651 C 869.711 275.672, 864.842 274, 855.330 274 C 848.009 274, 840.959 276.595, 836.177 281.050 L 833.956 283.119 829.986 279.720 C 825.173 275.600, 820.220 274, 812.283 274 C 805.513 274, 800.465 275.407, 797.436 278.139 C 794.646 280.654, 792.360 280.480, 790.479 277.608 C 788.858 275.134, 785.967 274.126, 782.500 274.827 M 956.435 275.890 C 943.236 281.885, 936.637 298.256, 941.887 311.981 L 943.983 317.462 940.964 319.825 C 931.785 327.009, 931.498 343.694, 940.452 349.561 C 943.550 351.591, 943.661 353.092, 940.898 355.593 C 935.189 360.759, 934.588 369.208, 939.351 377.335 C 941.495 380.994, 943.328 382.528, 948.737 385.191 L 955.458 388.500 966.979 388.500 C 981.944 388.500, 987.409 386.721, 994.628 379.502 C 1000.107 374.024, 1001.989 369.676, 1001.989 362.500 C 1001.989 356.759, 1000.312 351.524, 997.342 347.995 C 992.471 342.206, 990.215 341.626, 970.278 341.038 L 952.055 340.500 949.896 338.341 C 947.408 335.852, 947.825 332.175, 950.950 329.050 L 952.849 327.151 958.675 328.682 C 973.257 332.515, 987.859 326.355, 993.289 314.080 C 996.020 307.906, 995.971 298.908, 993.172 292.623 C 990.297 286.168, 990.394 285, 993.800 285 C 997.687 285, 999 283.308, 999 278.300 L 999 274 979.750 274.022 C 963.199 274.041, 959.930 274.303, 956.435 275.890 M 1028.221 275.672 C 1022.775 277.599, 1015.116 285.050, 1011.953 291.500 L 1009.500 296.500 1009.500 308 L 1009.500 319.500 1012.466 324.855 C 1019.849 338.184, 1033.622 344.065, 1049.292 340.578 C 1056.874 338.892, 1066.013 334.070, 1065.984 331.772 C 1065.952 329.367, 1061.444 322.517, 1059.667 322.174 C 1058.689 321.986, 1054.984 322.995, 1051.434 324.416 C 1043.784 327.478, 1039.964 327.621, 1034.312 325.055 C 1029.894 323.049, 1024 316.073, 1024 312.850 L 1024 311 1044.750 310.986 C 1056.162 310.979, 1066.501 310.704, 1067.725 310.376 C 1073.948 308.708, 1070.196 291.227, 1061.663 282.128 C 1056.390 276.506, 1049.816 274.008, 1040.500 274.089 C 1036.090 274.127, 1030.580 274.837, 1028.221 275.672 M 1103.388 275.315 C 1095.833 278.191, 1090.194 283.990, 1087.437 291.718 C 1085.410 297.399, 1085.664 307.073, 1087.995 312.987 L 1089.990 318.048 1087.745 319.072 C 1084.824 320.406, 1081.291 325.868, 1079.877 331.236 C 1078.324 337.132, 1080.142 343.455, 1084.599 347.658 C 1088.376 351.220, 1088.811 353.082, 1086.345 355.128 C 1081.701 358.979, 1080.697 368.993, 1084.250 376.038 C 1088.854 385.167, 1100.914 389.783, 1117.636 388.815 C 1130.821 388.052, 1140.634 382.389, 1145.422 372.780 C 1149.880 363.835, 1148.687 354.718, 1142.136 347.661 C 1136.941 342.065, 1134.934 341.557, 1115.852 341.008 L 1098.204 340.500 1096.102 338.595 C 1093.309 336.064, 1093.446 332.869, 1096.468 330.030 L 1098.936 327.711 1104.635 328.856 C 1117.487 331.437, 1125.783 329.348, 1133.558 321.572 C 1141.315 313.816, 1143.133 304.020, 1139 292.260 C 1136.453 285.012, 1136.454 285, 1139.878 285 C 1143.693 285, 1145.197 282.965, 1144.815 278.320 L 1144.500 274.500 1125.500 274.315 C 1112.847 274.192, 1105.460 274.526, 1103.388 275.315 M 1174.748 275.427 C 1167.193 278.123, 1160.957 284.428, 1156.817 293.555 C 1153.399 301.092, 1153.548 314.469, 1157.135 322.120 C 1160.707 329.738, 1166.051 335.386, 1172.839 338.720 C 1177.701 341.108, 1179.699 341.496, 1187 341.475 L 1195.500 341.450 1202.159 338.329 C 1205.850 336.599, 1209.582 334.042, 1210.533 332.591 L 1212.248 329.973 1209.610 325.986 C 1206.548 321.360, 1204.651 321.054, 1198 324.115 C 1191.283 327.205, 1183.290 327.625, 1179.280 325.096 C 1175.470 322.694, 1170 315.475, 1170 312.850 L 1170 311 1191.418 311 C 1203.198 311, 1213.548 310.727, 1214.418 310.393 C 1215.611 309.935, 1216 308.347, 1216 303.931 C 1216 292.280, 1209.595 281.469, 1199.801 276.588 C 1195.471 274.430, 1193.268 274.007, 1186.554 274.044 C 1182.124 274.068, 1176.812 274.690, 1174.748 275.427 M 1255.885 275.332 C 1253.897 276.069, 1250.862 277.674, 1249.142 278.899 C 1245.686 281.360, 1244.340 281.023, 1242.942 277.348 L 1242.008 274.890 1237.254 275.195 L 1232.500 275.500 1232.500 307.500 L 1232.500 339.500 1240 339.500 L 1247.500 339.500 1248 318.328 L 1248.500 297.156 1251 294.491 C 1254.246 291.030, 1259.212 288.996, 1264.372 289.015 C 1269.801 289.034, 1272.936 290.730, 1275.442 295.002 L 1277.493 298.500 1277.997 319 L 1278.500 339.500 1285.455 339.500 L 1292.410 339.500 1293.269 335.500 C 1293.741 333.300, 1293.986 323.128, 1293.814 312.896 L 1293.500 294.292 1290 287.435 C 1287.184 281.917, 1285.539 279.984, 1281.581 277.539 L 1276.662 274.500 1268.081 274.246 C 1262.762 274.089, 1258.126 274.502, 1255.885 275.332 M 535.667 275.667 C 535.300 276.033, 535 290.219, 535 307.191 L 535 338.050 537.686 339.071 C 539.163 339.632, 542.650 339.959, 545.436 339.796 L 550.500 339.500 550.764 307.250 L 551.028 275 543.681 275 C 539.640 275, 536.033 275.300, 535.667 275.667 M 286.197 289.077 C 281.734 291.343, 276.415 297.815, 277.842 299.242 C 279.207 300.607, 306.270 299.699, 306.744 298.272 C 306.968 297.597, 305.203 294.981, 302.820 292.460 C 297.378 286.699, 292.741 285.756, 286.197 289.077 M 482.907 289.324 C 478.501 291.648, 473.553 297.468, 474.576 299.123 C 474.874 299.605, 481.616 300, 489.559 300 L 504 300 504 298.221 C 504 297.242, 502.326 294.719, 500.281 292.613 C 494.209 286.362, 490.026 285.570, 482.907 289.324 M 1034.204 289.128 C 1029.597 291.408, 1024.414 297.243, 1025.473 298.957 C 1026.271 300.247, 1051.889 300.356, 1053.908 299.078 C 1055.870 297.836, 1049.785 290.226, 1045.346 288.371 C 1040.918 286.521, 1039.240 286.635, 1034.204 289.128 M 1179.871 289.006 C 1175.768 291.174, 1170.727 296.679, 1171.291 298.376 C 1171.538 299.120, 1176.458 299.594, 1185.832 299.777 L 1200 300.055 1200 298.104 C 1200 293.703, 1191.347 286.941, 1185.849 287.044 C 1184.557 287.069, 1181.867 287.951, 1179.871 289.006 M 963.450 289.395 C 958.342 291.640, 955 296.477, 955 301.626 C 955 316.056, 971.519 321.605, 978.903 309.656 C 985.458 299.051, 974.417 284.575, 963.450 289.395 M 1106.401 290.838 C 1097.382 296.510, 1099.176 311.610, 1109.329 315.488 C 1114.450 317.443, 1117.810 316.507, 1122.740 311.753 C 1128.213 306.473, 1128.113 297.273, 1122.525 292.023 C 1119.021 288.732, 1110.720 288.122, 1106.401 290.838 M 727.357 310.992 C 721.757 313.252, 720.090 322.181, 724.455 326.545 C 727.200 329.291, 729.428 329.551, 735.250 327.807 C 741.131 326.045, 745 321.749, 745 316.980 C 745 311.810, 742.360 309.979, 735.027 310.063 C 731.987 310.098, 728.536 310.516, 727.357 310.992 M 955.400 358.400 C 951.029 362.771, 950.999 365.937, 955.284 370.612 L 958.567 374.196 965.139 374.723 C 972.902 375.346, 977.712 374.006, 981.965 370.033 C 984.048 368.087, 985 366.251, 985 364.181 C 985 356.802, 981.751 355, 968.450 355 L 958.800 355 955.400 358.400 M 1102.775 356.512 C 1099.486 358.354, 1098 360.905, 1098 364.712 C 1098 370.892, 1104.166 375, 1113.441 375 C 1126.428 375, 1135.538 364.616, 1128.422 357.924 L 1125.844 355.500 1115.672 355.243 C 1108.032 355.050, 1104.822 355.366, 1102.775 356.512 M 183.670 379.250 C 182.332 381.038, 178.438 388.800, 175.017 396.500 C 171.595 404.200, 162.483 424.225, 154.768 441 C 134.249 485.616, 133.079 488.368, 134.150 489.500 C 134.671 490.050, 138.552 490.500, 142.776 490.500 L 150.455 490.500 151.954 487.500 C 152.779 485.850, 155.072 480.675, 157.049 476 L 160.643 467.500 186.152 467.233 L 211.660 466.967 213.147 468.733 C 213.964 469.705, 215.909 473.650, 217.468 477.500 C 219.027 481.350, 221.183 485.981, 222.258 487.790 L 224.213 491.080 231.856 490.790 L 239.500 490.500 239.770 488.500 C 239.918 487.400, 235.264 475.925, 229.427 463 C 223.591 450.075, 212.829 426.182, 205.512 409.904 C 198.195 393.626, 191.604 379.338, 190.864 378.154 C 188.959 375.104, 186.491 375.480, 183.670 379.250 M 392.255 382.128 C 383.340 384.674, 383.535 398.884, 392.509 400.568 C 399.792 401.934, 405.858 396.388, 404.573 389.538 C 403.473 383.673, 398.120 380.453, 392.255 382.128 M 682.378 382.434 C 675.529 385.421, 673.854 393.007, 678.923 398.077 C 681.087 400.241, 682.795 401, 685.500 401 C 690.413 401, 695.002 396.568, 694.996 391.827 C 694.992 387.988, 691.702 382, 689.596 382 C 688.808 382, 687.564 381.791, 686.832 381.536 C 686.099 381.282, 684.095 381.686, 682.378 382.434 M 772.325 382.459 C 767.782 384.435, 765.608 388.180, 766.339 392.769 C 767.473 399.897, 774.655 403.089, 781.053 399.309 C 787.247 395.650, 787.028 386.817, 780.647 382.926 C 776.948 380.671, 776.495 380.646, 772.325 382.459 M 338.250 405.662 C 337.374 406.016, 337 408.982, 337 415.564 L 337 424.962 334.750 425.451 C 333.512 425.720, 331.375 426.066, 330 426.220 L 327.500 426.500 327.500 433 L 327.500 439.500 332 440 L 336.500 440.500 336.815 461.500 C 337.167 484.987, 337.666 486.978, 344.034 490.318 C 348.564 492.693, 359.384 492.061, 368.008 488.917 L 374.178 486.667 373.664 484.084 C 372.651 478.999, 370.490 474, 369.304 474 C 368.641 474, 365.506 474.675, 362.339 475.500 C 359.171 476.325, 355.774 477, 354.790 477 L 353 477 353 458.500 L 353 440 361.378 440 C 371.396 440, 372.235 439.343, 371.805 431.831 L 371.500 426.500 362.250 426.212 L 353 425.925 353 420.102 C 353 416.899, 352.714 412.191, 352.364 409.640 L 351.728 405 345.614 405.079 C 342.251 405.122, 338.938 405.385, 338.250 405.662 M 718.774 406.209 C 717.412 407.231, 716.996 409.374, 716.777 416.500 L 716.500 425.500 712.206 425.810 L 707.911 426.119 708.206 432.810 L 708.500 439.500 712.500 440 L 716.500 440.500 717 461 C 717.542 483.231, 718.050 485.511, 723.331 489.410 C 727.429 492.436, 741.379 492.261, 748.480 489.095 C 751.219 487.873, 753.754 486.399, 754.112 485.818 C 754.628 484.983, 751.623 474.334, 750.562 473.237 C 750.422 473.092, 748.775 473.604, 746.904 474.375 C 741.257 476.700, 734.885 477.426, 733.892 475.859 C 733.418 475.111, 733.024 466.738, 733.015 457.250 L 733 440 742.389 440 L 751.777 440 752.434 436.500 C 752.795 434.575, 752.795 431.425, 752.434 429.500 L 751.777 426 742.424 426 L 733.070 426 732.785 415.750 L 732.500 405.500 726.498 405.209 C 722.724 405.026, 719.856 405.397, 718.774 406.209 M 182.036 420.232 C 179.655 425.879, 175.749 434.728, 173.354 439.896 C 170.959 445.064, 169 449.901, 169 450.646 C 169 451.731, 172.323 451.997, 185.750 451.985 C 194.963 451.976, 203.091 451.595, 203.812 451.137 C 204.824 450.496, 203.149 445.856, 196.510 430.903 C 191.772 420.231, 187.550 411.154, 187.129 410.732 C 186.708 410.309, 184.416 414.584, 182.036 420.232 M 254.073 426.412 C 253.309 427.332, 253.052 437.375, 253.236 459.120 L 253.500 490.500 260.603 490.791 L 267.707 491.082 268.353 484.894 C 268.709 481.491, 269 471.651, 269 463.028 L 269 447.349 271.250 445.299 C 279.135 438.117, 290.462 437.633, 295.200 444.275 L 297.500 447.500 297.826 467.990 C 298.022 480.283, 298.571 488.983, 299.199 489.740 C 299.838 490.510, 302.698 491, 306.550 491 L 312.856 491 313.511 485.750 C 313.872 482.863, 314.017 472.141, 313.833 461.924 L 313.500 443.348 310.485 437.458 C 308.178 432.952, 306.316 430.853, 302.563 428.533 L 297.657 425.500 286.990 425.500 L 276.323 425.500 271.081 428.759 C 265.931 431.960, 264 432.180, 264 429.563 C 264 426.532, 256.064 424.013, 254.073 426.412 M 430.001 426.069 C 424.087 428.555, 419 436.221, 419 442.644 C 419 451.138, 425.249 458.451, 437 463.711 C 444.116 466.897, 449 470.635, 449 472.896 C 449 474.941, 446.447 477.480, 443.500 478.363 C 441.496 478.965, 434.416 477.335, 428.164 474.834 L 424.829 473.500 422.414 476.306 C 420.058 479.044, 419.291 483.377, 420.765 485.616 C 421.169 486.229, 423.525 487.769, 426 489.038 C 431.482 491.849, 444.638 492.904, 450.625 491.014 C 460.198 487.992, 465.927 481.221, 465.978 472.872 C 466.033 463.832, 460.654 458.058, 445.801 451.214 C 435.563 446.496, 433.186 443.891, 436.011 440.487 C 437.630 438.536, 445.454 438.543, 451 440.500 C 457.170 442.677, 457.798 442.470, 460.232 437.459 C 462.783 432.209, 462.263 430.658, 456.894 427.509 C 454.189 425.923, 451.368 425.468, 443 425.268 C 437.225 425.131, 431.375 425.491, 430.001 426.069 M 496.259 426.659 C 488.642 429.356, 479.841 440.049, 477.605 449.324 C 476.331 454.609, 476.821 465.022, 478.610 470.712 C 481.241 479.074, 490.373 488.180, 498.496 490.542 C 509.920 493.863, 525.971 490.815, 532.401 484.103 L 535.037 481.352 531.978 477.129 C 530.296 474.807, 528.338 472.683, 527.627 472.410 C 526.916 472.138, 523.897 473.169, 520.917 474.703 C 513.994 478.267, 505.596 478.582, 501.381 475.435 C 497.860 472.806, 493.394 467.162, 492.532 464.250 L 491.865 462 512.868 462 C 524.419 462, 535.024 461.561, 536.435 461.025 C 538.654 460.181, 539 459.454, 539 455.630 C 539 448.731, 535.531 438.980, 531.330 434.072 C 525.740 427.542, 519.432 425.004, 509 425.089 C 504.171 425.128, 498.668 425.806, 496.259 426.659 M 557.236 426.036 L 554.972 426.946 555.236 458.723 L 555.500 490.500 562.108 490.792 L 568.717 491.085 569.358 486.403 C 569.711 483.828, 570 474.225, 570 465.063 L 570 448.406 573.750 444.758 C 576.034 442.537, 579.291 440.634, 582.082 439.893 L 586.664 438.675 590.554 440.587 C 592.723 441.654, 595.342 444.049, 596.472 446 L 598.500 449.500 598.838 469.656 L 599.175 489.813 601.338 490.393 C 602.527 490.712, 605.581 490.979, 608.125 490.986 L 612.750 491 613.375 487.875 C 613.719 486.156, 614 476.236, 614 465.830 L 614 446.909 616.397 444.513 C 617.715 443.194, 621.244 441.403, 624.240 440.533 C 630.889 438.600, 636.126 439.908, 639.404 444.321 L 641.500 447.141 641.823 468.123 L 642.146 489.105 644.638 490.052 C 646.009 490.574, 649.292 491, 651.934 491 L 656.738 491 657.358 487.250 C 658.600 479.735, 658.032 448.711, 656.551 443.144 C 653.240 430.707, 645.347 424.984, 631.554 425.022 C 623.164 425.045, 617.689 426.739, 612.295 430.982 C 609.004 433.571, 608.706 433.540, 604.785 430.210 C 599.800 425.977, 596.643 425, 587.942 425 C 581.917 425, 578.882 425.515, 575.476 427.116 C 573 428.280, 570.729 429.630, 570.428 430.116 C 569.324 431.902, 565.939 430.971, 565.052 428.636 C 563.751 425.215, 561.305 424.401, 557.236 426.036 M 809.500 426.871 C 800.602 432.397, 797.713 441.369, 801.880 450.541 C 804.248 455.755, 808.397 459.178, 818.408 464.178 C 828.085 469.012, 830 470.572, 830 473.620 C 830 478.306, 821.804 479.438, 812.761 476.001 C 809.867 474.901, 806.991 474.001, 806.369 474.001 C 805.746 474, 804.017 475.601, 802.525 477.557 C 798.720 482.545, 799.621 485.239, 806.267 488.741 L 811.500 491.498 821.500 491.499 C 829.848 491.500, 832.253 491.129, 836.060 489.253 C 847.349 483.689, 850.203 469.995, 842.016 460.671 C 840.252 458.662, 834.805 455.271, 828.065 451.986 C 816.979 446.584, 815.249 444.941, 816.500 441 C 817.019 439.365, 818.013 439, 821.953 439 C 824.602 439, 829.132 439.763, 832.019 440.695 L 837.268 442.390 839.627 439.648 C 847.230 430.808, 840.065 424.996, 821.572 425.004 C 814.467 425.007, 811.850 425.411, 809.500 426.871 M 864.223 426.557 L 862 428.113 862 458.950 L 862 489.786 863.582 490.393 C 864.452 490.727, 867.764 491, 870.942 491 L 876.721 491 877.352 485.750 C 877.699 482.863, 877.987 473.369, 877.991 464.654 L 878 448.809 880.149 445.791 C 882.818 442.042, 887.538 440, 893.534 440 C 899.603 440, 901.784 441.311, 904.063 446.331 L 905.956 450.500 905.978 470.133 L 906 489.767 908.250 490.370 C 909.487 490.701, 912.804 490.979, 915.619 490.986 L 920.738 491 921.358 487.250 C 921.699 485.188, 921.990 475.175, 922.004 465 C 922.019 454.825, 922.361 445.998, 922.765 445.384 C 924.401 442.901, 932.039 440, 936.944 440 C 941.015 440, 942.551 440.522, 945.037 442.750 C 949.270 446.543, 949.948 450.525, 949.976 471.731 L 950 489.962 952.316 490.543 C 953.590 490.863, 956.826 490.984, 959.508 490.812 L 964.383 490.500 965.280 487.019 C 966.510 482.247, 965.581 446.395, 964.108 441.775 C 962.315 436.154, 957.004 429.769, 952.024 427.250 C 948.578 425.507, 945.879 425.001, 940.038 425.006 C 931.034 425.012, 926.582 426.120, 922.014 429.489 C 917.563 432.773, 915.744 432.659, 910.303 428.750 L 905.780 425.500 896.900 425.151 L 888.021 424.802 881.398 427.901 C 877.756 429.605, 874.420 431, 873.986 431 C 873.551 431, 872.725 429.650, 872.150 428 C 870.951 424.561, 867.872 424, 864.223 426.557 M 1070.500 426.357 C 1065.034 428.886, 1059.992 436.508, 1060.006 442.218 C 1060.028 451.232, 1065.128 457.225, 1078.494 463.939 C 1086.141 467.781, 1091 471.733, 1091 474.112 C 1091 475.856, 1085.848 478.234, 1082.178 478.183 C 1080.081 478.154, 1075.920 477.201, 1072.932 476.066 C 1065.788 473.350, 1064.822 473.447, 1062.750 477.087 C 1059.057 483.576, 1061.647 487.630, 1071.319 490.502 C 1081.029 493.386, 1093.121 491.898, 1100.044 486.969 C 1106.024 482.710, 1108.634 472.801, 1105.640 465.718 C 1103.361 460.325, 1099.004 456.920, 1087.250 451.347 C 1077.711 446.824, 1076 445.662, 1076 443.706 C 1076 442.438, 1076.540 440.860, 1077.200 440.200 C 1078.865 438.535, 1085.630 438.701, 1091.893 440.561 C 1097.695 442.284, 1098.427 442.017, 1102.114 436.840 C 1104.816 433.046, 1103.843 430.483, 1098.677 427.783 C 1093.376 425.011, 1075.375 424.100, 1070.500 426.357 M 387.236 458.250 L 387.500 490.500 392.947 490.809 C 395.942 490.979, 399.430 490.858, 400.697 490.540 L 403 489.962 403 457.981 L 403 426 394.986 426 L 386.972 426 387.236 458.250 M 678.667 426.667 C 678.300 427.033, 678 441.406, 678 458.605 L 678 489.877 682.309 490.524 C 689.780 491.644, 692.403 490.911, 693.127 487.500 C 693.951 483.617, 694.190 429.660, 693.393 427.582 C 692.923 426.356, 691.271 426, 686.060 426 C 682.360 426, 679.033 426.300, 678.667 426.667 M 768.706 426.627 C 768.318 427.015, 768 441.406, 768 458.605 L 768 489.877 772.493 490.551 C 774.965 490.922, 778.547 490.932, 780.454 490.575 L 783.921 489.924 783.710 458.212 L 783.500 426.500 776.456 426.210 C 772.582 426.051, 769.095 426.239, 768.706 426.627 M 984.399 427.403 C 983.378 430.063, 984.638 471.342, 985.855 475.118 C 987.582 480.477, 990.999 485.053, 995.785 488.417 C 999.161 490.790, 1001.355 491.492, 1006.400 491.813 C 1014.611 492.336, 1022.516 490.606, 1026.780 487.355 L 1030.165 484.773 1032.832 487.968 C 1035.047 490.621, 1036.085 491.108, 1038.943 490.832 C 1041.866 490.550, 1042.509 490.018, 1043.208 487.301 C 1043.660 485.541, 1043.911 471.141, 1043.765 455.301 L 1043.500 426.500 1036 426.500 L 1028.500 426.500 1027.913 448.500 C 1027.590 460.600, 1027.252 470.622, 1027.163 470.772 C 1027.073 470.922, 1024.887 472.384, 1022.304 474.022 C 1014.809 478.775, 1007.198 477.871, 1002.596 471.680 L 1000.500 468.859 1000 447.680 L 999.500 426.500 992.236 426.206 C 986.527 425.975, 984.849 426.231, 984.399 427.403 M 504 438.722 C 500.488 440.041, 496.819 443.433, 494.957 447.084 L 492.959 451 507.980 451 L 523 451 523 449.344 C 523 446.673, 518.013 440.904, 514.400 439.394 C 511.011 437.978, 506.718 437.700, 504 438.722 M 162.994 528.934 C 155.806 531.121, 149.144 537.018, 146.375 543.645 C 145.619 545.455, 145.004 549.988, 145.010 553.718 C 145.022 561.864, 147.586 568.090, 153.969 575.464 L 158.257 580.419 156.008 581.960 C 154.772 582.807, 151.341 585.701, 148.385 588.391 C 131.238 603.992, 133.972 629.964, 153.786 639.694 L 159.500 642.500 170 642.500 C 182.490 642.500, 188.049 640.874, 197.715 634.392 C 201.317 631.977, 204.603 630, 205.016 630 C 205.429 630, 207.481 631.913, 209.576 634.250 C 214.258 639.474, 218.860 643, 220.997 643 C 223.017 643, 231 635.197, 231 633.222 C 231 632.416, 227.307 627.972, 222.792 623.347 L 214.585 614.938 215.927 611.719 C 220.965 599.631, 225.043 582.643, 223.321 580.921 C 222.807 580.407, 220.023 579.374, 217.134 578.625 C 211.074 577.053, 209.041 578.095, 208.946 582.821 C 208.864 586.903, 204.629 602.290, 203.482 602.673 C 202.927 602.858, 197.978 598.473, 192.486 592.928 L 182.500 582.848 186 580.224 C 197.009 571.971, 203.016 562.505, 203.005 553.428 C 202.992 543.079, 195.897 532.856, 186.504 529.656 C 181.431 527.927, 167.690 527.506, 162.994 528.934 M 290.491 529.865 C 288.287 530.867, 285.023 533.348, 283.239 535.380 C 277.667 541.727, 276.760 545.047, 276.101 561.500 L 275.500 576.500 271.513 576.825 C 266.065 577.268, 265 578.452, 265 584.063 C 265 589.458, 265.687 590.187, 271.500 590.965 L 275.500 591.500 275.767 616.180 L 276.035 640.860 281.595 641.555 C 285.031 641.984, 288.082 641.828, 289.578 641.146 L 292 640.043 292 615.558 L 292 591.072 301.750 590.786 L 311.500 590.500 311.500 584 L 311.500 577.500 302 577 L 292.500 576.500 292.190 566 C 291.845 554.269, 292.831 549.553, 296.447 545.652 C 299.509 542.347, 305.432 542.105, 311.859 545.022 C 314.257 546.110, 316.581 547, 317.024 547 C 318.022 547, 323 538.223, 323 536.463 C 323 534.475, 317.353 530.192, 313.219 529.044 C 307.139 527.355, 295.055 527.792, 290.491 529.865 M 858.667 529.667 C 858.300 530.033, 858 555.185, 858 585.560 L 858 640.786 859.582 641.393 C 860.452 641.727, 863.586 642, 866.547 642 C 870.845 642, 872.138 641.610, 872.965 640.066 C 874.082 637.978, 874.491 533.444, 873.393 530.582 C 872.923 529.356, 871.271 529, 866.060 529 C 862.360 529, 859.033 529.300, 858.667 529.667 M 1095.667 529.667 C 1095.300 530.033, 1095 555.177, 1095 585.542 L 1095 640.750 1098.125 641.375 C 1102.658 642.282, 1108.270 642.115, 1110 641.022 C 1111.297 640.202, 1111.539 632.854, 1111.786 586.787 C 1111.943 557.479, 1111.821 532.487, 1111.516 531.250 L 1110.962 529 1103.648 529 C 1099.625 529, 1096.033 529.300, 1095.667 529.667 M 346.077 534.589 C 339.823 539.851, 343.202 551, 351.050 551 C 358.225 551, 363.383 544.753, 360.986 538.966 C 358.130 532.070, 351.413 530.098, 346.077 534.589 M 380 532.706 C 376.224 534.086, 374 537.357, 374 541.528 C 374 549.736, 381.336 553.531, 388.618 549.091 C 397.737 543.531, 390.102 529.013, 380 532.706 M 563.277 533.973 C 559.669 536.172, 558.474 539.385, 559.409 544.369 C 560.194 548.550, 562.752 550.940, 567.126 551.577 C 571.402 552.201, 574.871 550.385, 577.278 546.264 C 578.886 543.510, 578.995 542.514, 578.010 539.531 C 575.713 532.571, 569.450 530.209, 563.277 533.973 M 166.367 542.918 C 161.769 545.722, 160 548.821, 160 554.072 C 160 557.573, 160.694 559.658, 162.851 562.636 C 165.760 566.652, 171.522 572, 172.939 572 C 174.222 572, 180.376 566.791, 184.066 562.583 C 190.390 555.370, 188.214 546.177, 179.282 542.371 C 174.808 540.465, 170.060 540.666, 166.367 542.918 M 1000.718 575.102 C 995.989 576.202, 991.200 578.593, 988.169 581.367 L 985.839 583.500 984.419 581.559 C 983.639 580.491, 983 579.065, 983 578.388 C 983 576.868, 977.762 575.623, 975.022 576.493 L 973 577.135 973 608.592 L 973 640.050 975.750 641.112 C 978.544 642.191, 986.521 641.810, 987.799 640.536 C 988.185 640.153, 988.725 629.957, 989 617.881 C 989.549 593.755, 989.047 595.490, 996.500 591.975 C 999.578 590.524, 1001.791 590.223, 1006.099 590.671 L 1011.699 591.253 1013.849 586.811 C 1017.380 579.519, 1016.624 576.990, 1010.500 575.590 C 1008.850 575.213, 1006.825 574.751, 1006 574.564 C 1005.175 574.376, 1002.798 574.618, 1000.718 575.102 M 430.889 575.962 C 429.453 576.397, 426.248 577.942, 423.767 579.396 L 419.256 582.040 417.696 579.659 C 416.838 578.349, 414.760 577.002, 413.079 576.666 C 406.753 575.401, 407 574.085, 407 608.976 L 407 640.738 410.750 641.358 C 423.032 643.388, 423 643.449, 423 617.968 L 423 597.078 425.250 594.921 C 429.075 591.255, 433.446 589.917, 439.336 590.610 L 444.689 591.239 446.843 587.755 C 448.027 585.838, 449.278 582.860, 449.623 581.136 L 450.250 578.002 446.657 576.501 C 442.846 574.909, 435.229 574.649, 430.889 575.962 M 506.757 576.083 C 494.989 578.858, 484.839 591.675, 483.384 605.601 C 482.174 617.173, 487.717 630.677, 496.252 636.954 C 506.228 644.291, 520.461 645.058, 532.690 638.919 L 539.500 635.500 539.807 632.330 C 540.036 629.970, 539.372 628.329, 537.206 625.904 L 534.297 622.649 527.409 625.574 C 515.364 630.691, 507.933 628.826, 501.250 619.009 C 497.116 612.937, 496.925 613, 519.435 613 C 531.020 613, 541.042 612.554, 542.576 611.971 L 545.282 610.942 544.735 602.967 C 544.302 596.641, 543.579 593.907, 541.242 589.746 C 534.735 578.160, 521.011 572.723, 506.757 576.083 M 622.916 576.319 C 620.395 577.027, 616.657 578.595, 614.609 579.803 C 610.047 582.495, 608 582.593, 608 580.122 C 608 577.413, 606.057 576.303, 601.500 576.408 L 597.500 576.500 597.236 608.622 L 596.973 640.745 600.111 641.372 C 606.329 642.616, 610.868 642.116, 611.965 640.066 C 612.578 638.920, 613 630.100, 613 618.434 L 613 598.736 616.358 595.569 C 619.659 592.456, 625.630 590, 629.898 590 C 633.962 590, 638.842 592.795, 640.672 596.171 C 642.205 598.999, 642.530 602.584, 642.831 619.998 C 643.074 634.084, 643.547 640.727, 644.342 641.233 C 646.276 642.463, 655.500 642.086, 657.397 640.699 L 659.177 639.397 658.744 617.949 C 658.273 594.610, 657.689 591.401, 652.703 584.775 C 646.632 576.709, 634.148 573.165, 622.916 576.319 M 695.860 576.508 C 689.170 578.654, 681.732 585.767, 677.781 593.798 L 674.500 600.465 674.523 609.482 C 674.543 617.112, 674.956 619.380, 677.204 624.220 C 682.652 635.946, 693.603 643, 706.356 643 C 716.185 643, 728.593 638.498, 730.962 634.071 C 732.081 631.981, 728.450 624.278, 725.976 623.492 C 725.066 623.204, 721.887 624.042, 718.911 625.355 C 711.333 628.698, 707.740 629.302, 703.326 627.977 C 698.626 626.567, 695.908 624.426, 692.568 619.505 C 688.052 612.850, 687.620 613, 711.309 613 C 727.565 613, 733.053 612.682, 734.454 611.657 C 736.029 610.505, 736.219 609.309, 735.787 603.264 C 734.936 591.379, 728.826 582.028, 719.089 577.711 C 713.158 575.080, 702.096 574.508, 695.860 576.508 M 801.906 576.403 C 799.929 577.164, 796.846 578.546, 795.054 579.472 L 791.795 581.157 789.870 579.091 C 787.385 576.423, 783.739 575.534, 781.093 576.950 L 779 578.070 779 633.535 L 779 689 787 689 L 795 689 795 664.393 L 795 639.786 796.629 640.411 C 809.578 645.380, 823.829 642.466, 832.270 633.123 C 837.218 627.646, 839.730 622.407, 840.905 615.111 C 843.453 599.289, 835.646 583.712, 822.184 577.757 C 816.426 575.210, 806.690 574.560, 801.906 576.403 M 1040.231 576.111 C 1037.333 576.594, 1033.355 577.660, 1031.391 578.481 L 1027.820 579.973 1028.526 584.237 C 1029.607 590.759, 1030.717 592.301, 1033.839 591.610 C 1035.302 591.286, 1040.100 590.527, 1044.500 589.924 C 1054.356 588.572, 1057.481 589.515, 1059.548 594.462 C 1062.230 600.879, 1061.988 601.088, 1052.708 600.374 C 1042.572 599.595, 1034.717 601.554, 1029.457 606.172 C 1024.896 610.177, 1023 614.813, 1023 621.965 C 1023 633.183, 1030.669 641.893, 1041.323 642.777 C 1047.765 643.311, 1056.845 640.934, 1059.479 638.023 C 1061.969 635.272, 1063.199 635.483, 1065.203 639.006 C 1067.098 642.335, 1070.328 642.944, 1073.559 640.579 L 1075.500 639.159 1075.500 615.829 C 1075.500 590.417, 1074.564 584.757, 1069.587 580.082 C 1064.739 575.527, 1053.149 573.960, 1040.231 576.111 M 1148.165 576.908 C 1130.425 583.034, 1122.111 607.472, 1131.478 625.957 C 1140.209 643.187, 1162.565 648.275, 1180.250 637.057 C 1182.862 635.400, 1185 633.426, 1185 632.670 C 1185 630.923, 1180.989 624.991, 1178.952 623.727 C 1177.873 623.056, 1176.058 623.375, 1172.952 624.780 C 1164.524 628.594, 1160.626 629.362, 1156.542 628.014 C 1150.541 626.033, 1143 618.258, 1143 614.050 C 1143 613.351, 1149.834 613, 1163.435 613 C 1174.674 613, 1184.965 612.584, 1186.304 612.074 C 1189.390 610.901, 1190.127 607.288, 1188.807 599.797 C 1186.847 588.670, 1178.323 578.850, 1168.177 576.033 C 1162.598 574.483, 1154.112 574.854, 1148.165 576.908 M 327.186 601.250 L 327.500 625.500 330.142 630.500 C 333.373 636.614, 335.184 638.309, 341.450 641.081 C 348.822 644.342, 359.376 643.516, 367.815 639.018 C 374.173 635.629, 375.482 635.705, 376.167 639.500 C 376.456 641.104, 377.314 641.500, 380.504 641.500 L 384.480 641.500 385.122 638.500 C 385.475 636.850, 385.817 622.337, 385.882 606.250 L 386 577 378.500 577 L 371 577 370.989 594.750 C 370.975 617.036, 370.648 619.018, 366.268 623.399 C 363.482 626.184, 361.722 627.016, 357.492 627.544 C 350.854 628.374, 347.126 626.751, 344.752 621.999 C 343.270 619.033, 343.003 615.578, 343.002 599.332 C 343.001 588.789, 342.727 579.452, 342.393 578.582 C 341.915 577.335, 340.206 577, 334.329 577 L 326.871 577 327.186 601.250 M 561 608.883 L 561 640.767 563.250 641.370 C 564.487 641.701, 567.622 641.979, 570.215 641.986 C 573.862 641.997, 575.164 641.562, 575.965 640.066 C 577.077 637.988, 577.471 581.391, 576.393 578.582 C 575.915 577.337, 574.212 577, 568.393 577 L 561 577 561 608.883 M 893.012 598.208 C 893.025 621.931, 893.983 627.890, 898.750 633.905 C 906.792 644.050, 923.994 646.127, 935.268 638.314 L 939.210 635.582 941.894 638.870 C 944.136 641.617, 945.141 642.104, 948 641.829 C 950.661 641.573, 951.575 640.944, 952.111 639 C 952.983 635.837, 953.214 584.322, 952.375 580.125 L 951.750 577 944.430 577 L 937.110 577 936.805 598.579 L 936.500 620.158 932.916 623.440 C 926.286 629.513, 915.341 629.156, 911.461 622.742 L 909.500 619.500 909 598.500 L 908.500 577.500 900.750 577.208 L 893 576.916 893.012 598.208 M 506.743 591.529 C 503.296 593.871, 500 598.476, 500 600.950 C 500 601.635, 505.043 602, 514.500 602 C 530.467 602, 530.576 601.949, 527.451 595.906 C 523.854 588.949, 513.698 586.803, 506.743 591.529 M 698.389 590.905 C 695.291 592.793, 691.897 596.916, 690.694 600.250 L 690.063 602 705.156 602 L 720.250 602 719.613 598.816 C 717.935 590.426, 706.291 586.086, 698.389 590.905 M 1151.217 591.308 C 1147.824 593.573, 1144.018 598.558, 1144.007 600.750 C 1144.002 601.693, 1147.551 602, 1158.441 602 C 1166.384 602, 1173.104 601.641, 1173.376 601.201 C 1174.359 599.611, 1169.418 592.664, 1166.016 590.854 C 1161.369 588.382, 1155.321 588.567, 1151.217 591.308 M 803.021 591.116 C 796.199 593.838, 794.892 597.166, 794.845 611.934 L 794.808 623.426 796.907 625.126 C 799.639 627.338, 805.908 628.359, 811.250 627.462 C 816.839 626.523, 823.324 620.224, 824.961 614.145 C 828.732 600.140, 815.421 586.168, 803.021 591.116 M 160.743 596.830 C 152.379 605.599, 150.977 613.218, 156.278 621.084 C 161.763 629.224, 171.878 630.796, 183.128 625.258 C 186.712 623.493, 190.460 621.150, 191.455 620.050 L 193.264 618.051 191.694 615.776 C 188.950 611.798, 168.546 590.979, 167.402 590.990 C 166.798 590.995, 163.802 593.624, 160.743 596.830 M 1045.001 612.066 C 1038.087 614.982, 1035.806 621.941, 1040.012 627.288 C 1043.896 632.226, 1050.623 631.572, 1057.750 625.563 C 1060.353 623.367, 1061 622.075, 1061 619.066 C 1061 616.672, 1060.324 614.699, 1059.137 613.624 C 1056.857 611.560, 1048.408 610.629, 1045.001 612.066 M 189.168 679.533 C 167.983 684.132, 150.006 702.321, 145.464 723.754 C 141.247 743.654, 147.113 763.395, 161.440 777.518 C 175.968 791.841, 198.100 797.037, 220.500 791.383 C 229.167 789.196, 237.124 786.187, 240 784.010 L 242.500 782.118 242.811 762.371 C 242.982 751.510, 242.859 741.573, 242.536 740.289 L 241.950 737.953 224.725 738.226 L 207.500 738.500 207.191 743.947 C 207.021 746.942, 207.138 750.412, 207.450 751.658 L 208.019 753.922 216.759 754.211 L 225.500 754.500 225.500 762.500 L 225.500 770.500 221.754 772.330 C 219.694 773.337, 214.365 774.797, 209.911 775.574 C 195.634 778.067, 184.288 774.361, 174.651 764.058 C 172.021 761.247, 168.437 755.921, 166.685 752.223 L 163.500 745.500 163.500 735.500 L 163.500 725.500 166.610 719 C 171.105 709.607, 176.770 703.717, 185.423 699.440 C 198.666 692.896, 208.635 693.589, 223.453 702.086 C 228.167 704.789, 232.356 706.967, 232.762 706.926 C 233.883 706.815, 242 697.080, 242 695.848 C 242 693.795, 234.469 687.862, 227.500 684.426 C 215.289 678.405, 202.114 676.723, 189.168 679.533 M 840.416 679.352 C 833.909 681.485, 830.584 683.887, 827.254 688.858 C 822.901 695.359, 822.012 699.658, 822.006 714.250 L 822 727 819.750 727.148 C 818.513 727.229, 816.825 727.388, 816 727.500 C 815.175 727.612, 813.917 727.771, 813.204 727.852 C 812.253 727.961, 811.987 729.794, 812.204 734.750 L 812.500 741.500 817 742 L 821.500 742.500 821.769 765.920 C 821.944 781.146, 822.424 789.806, 823.141 790.670 C 824.812 792.684, 835.390 792.440, 837.128 790.348 C 838.181 789.079, 838.580 783.266, 838.844 765.348 L 839.187 742 847.512 742 C 858.744 742, 859.003 741.857, 858.985 735.643 C 858.976 732.814, 858.624 729.956, 858.202 729.292 C 857.720 728.534, 854.091 727.975, 848.467 727.792 L 839.500 727.500 839.221 714.891 C 839.068 707.956, 839.394 701.094, 839.946 699.641 C 841.060 696.711, 846.404 693.004, 849.500 693.014 C 850.600 693.017, 853.929 694.150, 856.897 695.532 L 862.294 698.044 864.249 696.274 C 867.306 693.509, 869.229 689.050, 868.544 686.320 C 867.126 680.670, 849.622 676.334, 840.416 679.352 M 510.750 679.762 L 506 680.110 506 735.536 L 506 790.962 508.316 791.543 C 509.590 791.863, 512.835 791.984, 515.526 791.812 L 520.420 791.500 521.249 787.500 C 522.114 783.330, 521.876 681.497, 521 680.723 C 520.013 679.851, 515.415 679.420, 510.750 679.762 M 469.607 681.582 C 468.471 684.542, 468.917 789.830, 470.068 790.542 C 471.975 791.721, 482.458 792.132, 484 791.089 C 485.292 790.215, 485.545 783.179, 485.822 740.287 C 486 712.904, 485.855 688.138, 485.500 685.250 L 484.856 680 477.535 680 C 471.782 680, 470.084 680.339, 469.607 681.582 M 669 735.420 L 669 790.841 675.481 791.535 C 679.045 791.917, 682.578 791.992, 683.331 791.703 C 685.224 790.977, 685.981 783.359, 685.991 764.941 C 685.997 753.991, 686.370 748.927, 687.250 747.846 C 690.027 744.433, 695.218 741.834, 700.257 741.332 C 704.658 740.893, 706.062 741.191, 709 743.189 C 714.210 746.732, 714.880 749.939, 714.944 771.643 C 715.008 793.385, 714.393 792, 723.975 792 C 728.351 792, 729.936 791.609, 730.393 790.418 C 730.727 789.548, 731 780.180, 731 769.600 C 731 748.415, 729.950 742.353, 725.179 736 C 721.569 731.193, 719.213 729.336, 714.260 727.396 C 708.523 725.150, 697.090 725.869, 691.290 728.842 C 688.974 730.029, 686.837 731, 686.540 731 C 686.243 731, 686 720.931, 686 708.625 C 686 696.319, 685.719 684.844, 685.375 683.125 L 684.750 680 676.875 680 L 669 680 669 735.420 M 878 716.913 L 878 726.909 874.250 727.533 C 867.948 728.580, 868 728.519, 868 734.950 L 868 740.962 870.250 741.451 C 871.487 741.720, 873.625 742.066, 875 742.220 L 877.500 742.500 878 763 L 878.500 783.500 880.733 787.090 C 885.342 794.502, 895.774 795.919, 908.512 790.865 C 915.181 788.219, 915.927 786.839, 913.941 780.820 C 912.059 775.120, 911.282 774.842, 903.692 777.159 C 893.855 780.162, 894 780.428, 894 759.378 L 894 742 902.928 742 L 911.856 742 912.541 736.516 C 913.572 728.267, 913.419 728.123, 903.297 727.790 L 894.500 727.500 894 717.500 L 893.500 707.500 885.750 707.208 L 878 706.916 878 716.913 M 765 726.516 C 756.955 727.862, 752.385 729.554, 751.656 731.454 C 751.041 733.056, 752.538 740.938, 753.672 742.072 C 754.220 742.620, 757.688 742.389, 762.380 741.492 C 777.458 738.607, 782.492 739.949, 783.647 747.161 L 784.233 750.822 772.866 751.161 C 763.233 751.448, 760.779 751.869, 756.770 753.917 C 750.004 757.375, 746.685 762.590, 746.177 770.556 C 745.651 778.826, 748.332 784.635, 755.169 790.039 C 764.539 797.446, 770.617 796.718, 784.735 786.500 C 785.741 785.772, 786.500 786.045, 787.524 787.500 C 790.321 791.475, 791.133 792, 794.478 792 L 797.877 792 798.541 787.575 C 798.906 785.142, 799.032 773.779, 798.822 762.325 L 798.440 741.500 796.372 736.967 C 793.882 731.508, 789.105 727.255, 784.721 726.594 C 776.605 725.369, 771.961 725.351, 765 726.516 M 281.275 727.654 C 275.256 729.785, 267.610 737.057, 264.300 743.797 L 261.500 749.500 261.500 760 C 261.500 772.508, 263.316 777.221, 271.155 785.060 C 280.528 794.433, 295.490 796.454, 309.173 790.196 C 312.653 788.604, 316.366 786.324, 317.424 785.130 L 319.349 782.957 316.357 778.729 C 312.876 773.808, 311.498 773.633, 302.500 776.973 C 294.787 779.836, 288.499 779.381, 283.541 775.599 C 279.705 772.673, 277 768.311, 277 765.050 L 277 763 297.750 762.986 C 309.163 762.979, 319.512 762.701, 320.750 762.370 L 323 761.767 323 756.421 C 323 744.355, 314.861 731.962, 304.355 728.032 C 297.872 725.606, 287.536 725.437, 281.275 727.654 M 346.145 727.012 C 335.714 731.445, 331.410 741.701, 335.865 751.509 C 338.303 756.875, 342.708 760.536, 353.783 766.400 C 363.034 771.298, 365.122 773.633, 363.660 777.443 C 362.742 779.837, 356.780 780.322, 350.377 778.525 C 338.133 775.087, 337.044 775.307, 334.953 781.643 C 333.977 784.601, 334.065 785.414, 335.538 787.042 C 338.598 790.423, 347.815 793.286, 356 793.398 C 362.346 793.484, 364.393 793.062, 369.301 790.652 C 378.421 786.173, 382.452 778.105, 380.041 769.152 C 378.425 763.152, 373.682 759.016, 361.884 753.323 C 349.435 747.315, 348.086 746.044, 350.405 742.505 C 352.379 739.492, 355.328 739.307, 364.522 741.616 C 368.059 742.504, 371.569 742.996, 372.320 742.708 C 374.406 741.907, 377.212 735.243, 376.460 732.874 C 375.333 729.323, 367.637 726.661, 357.500 726.317 C 352.550 726.149, 347.440 726.462, 346.145 727.012 M 411.781 727.939 C 404.709 730.703, 399.715 735.193, 395.914 742.204 L 392.500 748.500 392.500 759.500 C 392.500 768.627, 392.864 771.287, 394.637 775.122 C 397.710 781.768, 403.326 787.523, 409.839 790.701 C 414.728 793.087, 416.727 793.466, 424.500 793.482 C 432.290 793.498, 434.243 793.135, 439.025 790.784 C 445.532 787.585, 449.010 784.587, 448.973 782.211 C 448.958 781.270, 447.643 778.928, 446.050 777.006 L 443.153 773.512 438.327 775.394 C 421.572 781.930, 411.701 778.675, 407.559 765.250 L 406.865 763 429.310 763 C 455.438 763, 454.579 763.319, 453.727 753.926 C 452.658 742.133, 444.475 731.054, 434.266 727.575 C 428.064 725.462, 417.687 725.630, 411.781 727.939 M 549.007 727.593 C 541.612 730.800, 538 736.200, 538 744.049 C 538 753.747, 541.228 757.495, 556.898 765.993 C 566.261 771.070, 569.408 774.598, 567.079 777.405 C 565.165 779.711, 555.352 779.504, 549.059 777.023 C 546.300 775.936, 543.393 775.296, 542.599 775.600 C 540.989 776.218, 538 781.930, 538 784.389 C 538 788.475, 555.367 795.603, 562.491 794.440 C 573.042 792.720, 581.845 786.005, 583.989 778.042 C 586.687 768.020, 581.883 761.466, 565.999 753.499 C 553.286 747.124, 552.110 746.008, 554.405 742.505 C 556.355 739.529, 558.432 739.392, 568.133 741.599 L 575.161 743.197 577.496 741.004 C 580.359 738.314, 581.395 734.607, 580.008 732.015 C 577.442 727.221, 556.691 724.261, 549.007 727.593 M 617.763 727.514 C 608.976 730.741, 601.927 737.513, 597.722 746.767 C 594.456 753.955, 594.650 766.579, 598.143 774.089 C 601.312 780.903, 607.653 787.188, 615 790.798 C 622.539 794.502, 634.251 794.667, 641 791.165 C 645.693 788.729, 652.429 782.837, 654.172 779.643 C 656.239 775.854, 645.745 768.367, 643.487 772.021 C 642.146 774.191, 632.339 778.982, 629.218 778.991 C 619.696 779.018, 610.959 769.417, 611.028 759 C 611.051 755.398, 614.286 748.931, 617.624 745.814 C 623.908 739.944, 630.204 739.546, 638.430 744.500 C 641.627 746.425, 644.775 748, 645.425 748 C 647.284 748, 653 741.609, 653 739.531 C 653 736.639, 644.834 729.472, 639.447 727.637 C 633.682 725.672, 622.941 725.612, 617.763 727.514 M 288.791 739.988 C 287.302 740.437, 284.827 741.706, 283.291 742.807 C 280.189 745.032, 276.698 750.365, 277.693 751.360 C 278.508 752.174, 303.304 752.204, 305.418 751.393 C 307.736 750.504, 307.402 749.451, 303.402 745.023 C 301.300 742.697, 298.284 740.618, 296.152 740.025 C 292.045 738.885, 292.446 738.887, 288.791 739.988 M 419.211 740.129 C 415.640 741.159, 407.710 748.626, 408.300 750.404 C 408.536 751.115, 413.814 751.597, 423.332 751.777 C 440.002 752.091, 440.225 751.960, 434.451 745.213 C 431.467 741.728, 425.689 738.641, 423 739.096 C 422.725 739.142, 421.020 739.607, 419.211 740.129 M 766.512 763.213 C 757.992 768.153, 759.889 781, 769.139 781 C 773.305 781, 780.676 777.424, 782.617 774.462 C 784.951 770.899, 784.074 764.835, 781 763.288 C 777.883 761.719, 769.167 761.674, 766.512 763.213 M 933.217 772.561 C 930.738 774.297, 928 779.014, 928 781.549 C 928 784.715, 931.364 790.251, 934.420 792.114 C 939.296 795.088, 942.680 794.555, 947.118 790.118 C 951.335 785.900, 952.170 781.662, 949.805 776.472 C 947.500 771.413, 938.040 769.182, 933.217 772.561" stroke="none" fill="#0a0a0a" fill-rule="evenodd"/></svg>