<svg xmlns="http://www.w3.org/2000/svg" width="5232" height="4080" viewBox="0 0 5232 4080" version="1.1"><path d="M 778.597 904.082 C 751.437 907.791, 726.324 915.775, 701.128 928.710 C 672.262 943.530, 647.929 963.040, 629.121 986.448 C 602.121 1020.049, 588.370 1049.012, 580.670 1088.500 C 576.830 1108.191, 575.594 1120.758, 575.603 1140 C 575.610 1154.805, 576.044 1159.884, 578.417 1172.980 C 581.730 1191.256, 587.536 1211.769, 593.143 1225 C 603.548 1249.555, 620.894 1276.004, 639.802 1296.145 C 668.430 1326.640, 714.713 1352.289, 755.743 1360.397 C 781.098 1365.407, 802.528 1367.195, 821.684 1365.896 C 859.709 1363.318, 887.660 1357.228, 924.739 1343.441 C 944.671 1336.030, 958.199 1329.333, 964.576 1323.722 C 971.418 1317.702, 971.335 1318.794, 971.368 1234.500 C 971.398 1157.399, 971.032 1149.587, 967.203 1145.758 C 964.127 1142.683, 950.982 1142.065, 899.625 1142.581 C 839.601 1143.184, 833.537 1143.507, 830.989 1146.242 C 828.182 1149.255, 826.733 1157.894, 826.668 1172 C 826.573 1192.874, 829.975 1204.269, 837.028 1206.694 C 839.397 1207.508, 849.931 1207.905, 870.191 1207.944 C 891.630 1207.984, 900.082 1208.323, 900.601 1209.163 C 901.627 1210.823, 903.456 1266.762, 902.629 1271.169 C 901.724 1275.987, 898.831 1277.641, 881.332 1283.345 C 856.880 1291.315, 828.987 1295.479, 801 1295.338 C 777.710 1295.221, 763.144 1291.611, 740.603 1280.369 C 707.296 1263.758, 687.888 1244.013, 669.959 1208.500 C 662.516 1193.756, 657.181 1178.555, 653.816 1162.500 C 650.777 1148.004, 650.533 1118.375, 653.342 1105 C 657.480 1085.294, 660.262 1077.402, 669.730 1058.508 C 674.988 1048.017, 677.807 1043.738, 687.524 1031.500 C 706.609 1007.464, 733.591 988.568, 763 978.644 C 796.644 967.292, 823.071 968.306, 861.866 982.440 C 875.554 987.428, 882.955 991.467, 906.344 1006.716 C 930.637 1022.554, 925.593 1022.870, 944.212 1004.348 C 958.483 990.152, 968.276 979.051, 969.621 975.546 C 970.331 973.695, 961.819 963.758, 953.291 956.481 C 940.497 945.565, 916.298 930.444, 900.296 923.367 C 885.662 916.895, 859.378 909.150, 839.500 905.452 C 828.903 903.480, 789.491 902.594, 778.597 904.082 M 2159.321 924.811 C 2149.794 928.184, 2144.458 933.216, 2137.383 945.500 C 2134.688 950.179, 2134.503 951.206, 2134.502 961.500 C 2134.500 971.926, 2134.678 972.879, 2137.905 979.766 C 2142 988.502, 2147.531 993.950, 2156.630 998.208 C 2162.621 1001.011, 2163.767 1001.211, 2171.545 1000.802 C 2179.140 1000.404, 2180.913 999.892, 2189.543 995.608 C 2200.657 990.090, 2207.272 984.265, 2208.968 978.500 C 2215.016 957.948, 2206.199 934.178, 2189.474 925.948 C 2182.729 922.628, 2167.144 922.041, 2159.321 924.811 M 1153.609 1094.990 C 1129.532 1098.037, 1113.409 1104.587, 1094.500 1119.003 C 1071.694 1136.390, 1054.717 1163.078, 1047.108 1193.500 C 1043.234 1208.991, 1041.760 1237.881, 1044.062 1253.182 C 1045.640 1263.668, 1049.484 1278.479, 1053.057 1287.834 C 1060.191 1306.517, 1081.338 1332.158, 1099.500 1344.148 C 1119.591 1357.411, 1146.937 1367.471, 1168.500 1369.533 C 1182.240 1370.847, 1211.873 1363.941, 1232.084 1354.716 C 1247.363 1347.742, 1270.148 1330.809, 1275.742 1322.271 C 1277.124 1320.161, 1276.853 1319.612, 1270.802 1312.269 C 1267.281 1307.996, 1262.921 1302.150, 1261.113 1299.278 C 1257.480 1293.504, 1252.152 1288.388, 1248.211 1286.890 C 1244.451 1285.460, 1239.368 1286.948, 1224 1293.974 C 1205.505 1302.431, 1190.698 1306.593, 1175.849 1307.509 C 1165.380 1308.155, 1163.451 1307.999, 1156.849 1305.980 C 1147.202 1303.029, 1144.869 1301.818, 1136.293 1295.318 C 1125.941 1287.470, 1117.987 1277.591, 1111.520 1264.551 C 1106.565 1254.560, 1105.563 1251.212, 1105.894 1245.750 C 1105.993 1244.110, 1109.042 1243.994, 1154.250 1243.908 C 1180.787 1243.857, 1219.825 1243.470, 1241 1243.047 C 1292.667 1242.016, 1292.003 1242.273, 1291.997 1223.300 C 1291.992 1204.619, 1289.356 1189.679, 1282.770 1171 C 1272.770 1142.637, 1253.185 1120.033, 1227.500 1107.212 C 1216.843 1101.892, 1206.987 1098.455, 1196.850 1096.524 C 1186.838 1094.616, 1163.188 1093.777, 1153.609 1094.990 M 1471.456 1094.943 C 1452.876 1097.097, 1434.360 1103.858, 1423.500 1112.455 C 1417.866 1116.915, 1414.479 1118.920, 1409.771 1120.581 C 1404.770 1122.345, 1403.680 1121.583, 1398.296 1112.551 C 1393.155 1103.926, 1391.365 1102.248, 1385.484 1100.538 C 1379.021 1098.659, 1365.436 1098.373, 1361.800 1100.039 C 1360.315 1100.719, 1358.650 1102.565, 1358.101 1104.141 C 1355.397 1111.898, 1354.863 1137.780, 1355.178 1245.831 C 1355.496 1354.796, 1355.525 1356.181, 1357.500 1357.683 C 1359.220 1358.992, 1362.827 1359.111, 1383.295 1358.535 C 1396.382 1358.166, 1408.362 1357.421, 1409.917 1356.879 C 1416.879 1354.452, 1417.790 1345.379, 1418.990 1266.500 C 1419.501 1232.950, 1420.209 1201.225, 1420.563 1196 C 1421.317 1184.897, 1423.176 1180.007, 1428.627 1174.799 C 1434.571 1169.119, 1447.882 1161.600, 1457.673 1158.392 C 1465.704 1155.761, 1467.762 1155.500, 1480.500 1155.500 C 1493.942 1155.500, 1494.739 1155.617, 1500.500 1158.425 C 1510.874 1163.483, 1520.464 1175.053, 1526.855 1190.221 C 1529.500 1196.500, 1529.500 1196.500, 1530.147 1274.500 C 1530.503 1317.400, 1531.107 1353.682, 1531.490 1355.127 C 1532.423 1358.648, 1535.432 1359, 1564.640 1359 C 1582.628 1359, 1588.014 1358.713, 1588.063 1357.750 C 1588.098 1357.063, 1588.562 1352.675, 1589.096 1348 C 1589.630 1343.325, 1590.429 1305.750, 1590.873 1264.500 C 1591.680 1189.500, 1591.680 1189.500, 1594.484 1183.694 C 1598.686 1174.991, 1604.283 1169.880, 1616.111 1163.944 C 1631.708 1156.117, 1649.938 1153.165, 1665.114 1156.010 C 1672.653 1157.423, 1686.092 1164.088, 1690.661 1168.681 C 1695.538 1173.582, 1699.577 1181.885, 1701.077 1190.090 C 1701.853 1194.335, 1702.495 1220.986, 1702.977 1269 C 1703.512 1322.137, 1704.038 1342.568, 1704.949 1345.500 C 1707.266 1352.962, 1709.079 1355.832, 1712.153 1356.903 C 1720.621 1359.855, 1756.135 1360.604, 1761.121 1357.935 C 1766.132 1355.254, 1767.253 1337.376, 1767.386 1258 C 1767.510 1184.808, 1767.510 1184.808, 1761.836 1165.644 C 1756.527 1147.712, 1747.672 1133.434, 1732.735 1118.721 C 1724.931 1111.034, 1722.432 1109.269, 1712.661 1104.544 C 1696.939 1096.940, 1688.242 1094.945, 1668 1094.299 C 1649.675 1093.714, 1639.760 1094.925, 1624.864 1099.567 C 1610.134 1104.158, 1587.810 1117.157, 1577.329 1127.246 C 1573.158 1131.261, 1573.158 1131.261, 1569.329 1128.935 C 1567.223 1127.656, 1562.800 1124.182, 1559.500 1121.215 C 1539.468 1103.208, 1519.627 1095.305, 1492.500 1094.528 C 1484.800 1094.307, 1475.330 1094.494, 1471.456 1094.943 M 1941 1095.024 C 1914.741 1098.208, 1894.530 1107.436, 1874.666 1125.312 C 1860.096 1138.425, 1844.384 1163.125, 1838.084 1182.820 C 1832.609 1199.937, 1831.500 1208.234, 1831.509 1232 C 1831.517 1253.265, 1831.669 1255.104, 1834.290 1265.500 C 1838.791 1283.352, 1841.514 1289.723, 1850.749 1304 C 1857.071 1313.775, 1873.969 1331.513, 1885 1339.954 C 1903.199 1353.879, 1930.067 1368.246, 1945 1372.038 C 1957.548 1375.224, 1966.857 1374.499, 1983.500 1369.041 C 2008.604 1360.807, 2031.722 1348.768, 2049.238 1334.807 C 2063.929 1323.097, 2065.146 1319.690, 2057.917 1310.505 C 2055.488 1307.418, 2052.067 1302.831, 2050.315 1300.311 C 2045.825 1293.852, 2041.078 1289.120, 2037 1287.037 C 2033.956 1285.482, 2032.979 1285.413, 2029.500 1286.506 C 2027.300 1287.198, 2024.150 1288.464, 2022.500 1289.319 C 2020.850 1290.175, 2013.451 1293.417, 2006.057 1296.524 C 1987.662 1304.254, 1978.309 1306.232, 1959.457 1306.381 C 1944.415 1306.500, 1944.415 1306.500, 1936.667 1302.676 C 1923.620 1296.235, 1906.057 1277.865, 1898.256 1262.500 C 1896.606 1259.250, 1892 1245.920, 1892 1244.395 C 1892 1244.178, 1910.112 1243.952, 1932.250 1243.893 C 2003.431 1243.705, 2068.141 1242.403, 2072.330 1241.076 C 2078.588 1239.092, 2079.382 1235.887, 2078.665 1215.500 C 2077.761 1189.794, 2074.446 1176.745, 2063.085 1154.179 C 2053.529 1135.198, 2036.822 1118.010, 2017.728 1107.515 C 2009.220 1102.838, 1996.053 1098.368, 1985.221 1096.479 C 1974.492 1094.608, 1950.849 1093.830, 1941 1095.024 M 2409 1094.458 C 2408.175 1094.657, 2404.125 1095.363, 2400 1096.026 C 2390.558 1097.544, 2378.141 1101.401, 2371 1105.032 C 2367.975 1106.570, 2360.566 1111.378, 2354.536 1115.716 C 2343.573 1123.604, 2343.573 1123.604, 2338.716 1120.405 C 2336.045 1118.646, 2331.868 1114.470, 2329.435 1111.126 C 2324.375 1104.172, 2320.024 1101.537, 2310.144 1099.443 C 2300.499 1097.399, 2293.436 1097.564, 2291.111 1099.889 C 2288.051 1102.949, 2287.500 1125.118, 2287.500 1245.200 C 2287.500 1333.816, 2287.750 1355.149, 2288.799 1356.200 C 2289.801 1357.203, 2296.305 1357.500, 2317.280 1357.500 C 2344.463 1357.500, 2344.463 1357.500, 2345.194 1353.500 C 2345.596 1351.300, 2346.376 1315.750, 2346.926 1274.500 C 2347.541 1228.416, 2348.338 1197.821, 2348.992 1195.145 C 2350.686 1188.219, 2352.343 1185.840, 2361.528 1177.145 C 2375.737 1163.695, 2394.527 1155.975, 2413.500 1155.793 C 2435.216 1155.584, 2454.551 1165.093, 2461.452 1179.375 C 2465.937 1188.659, 2466.210 1193.344, 2466.942 1273.500 C 2467.426 1326.459, 2467.980 1350.315, 2468.771 1352.190 C 2470.227 1355.644, 2473.714 1356.636, 2491 1358.513 C 2508.453 1360.408, 2525.354 1360.483, 2526.857 1358.672 C 2529.308 1355.719, 2530.103 1340.632, 2531.055 1279 C 2532.455 1188.366, 2531.441 1175.217, 2521.414 1154.051 C 2506.506 1122.580, 2486.518 1104.964, 2457.011 1097.290 C 2448.950 1095.194, 2444.680 1094.762, 2429 1094.456 C 2418.825 1094.258, 2409.825 1094.259, 2409 1094.458 M 2665.469 1095.088 C 2650.642 1096.212, 2637.951 1100.307, 2627 1107.502 C 2609.976 1118.687, 2600.048 1133.277, 2595.937 1153.153 C 2592.335 1170.570, 2594.303 1185.728, 2602.275 1201.975 C 2611.134 1220.030, 2629.372 1234.193, 2670.052 1254.611 C 2695.875 1267.571, 2709.858 1277.512, 2715.063 1286.609 C 2718.202 1292.096, 2718.202 1292.096, 2715.473 1296.298 C 2710.914 1303.318, 2708.887 1304.952, 2702.058 1307.118 C 2696.964 1308.732, 2692.927 1309.191, 2683.975 1309.172 C 2670.096 1309.143, 2664.411 1307.927, 2640.500 1299.872 C 2620.609 1293.171, 2613.470 1291.857, 2610.031 1294.265 C 2607.205 1296.245, 2595 1321.315, 2595 1325.141 C 2595 1328.737, 2597.988 1334.776, 2601.153 1337.578 C 2606.781 1342.562, 2618.644 1350.428, 2630 1356.707 C 2644.044 1364.473, 2673.563 1371.664, 2686.500 1370.471 C 2712.857 1368.040, 2745.673 1353.217, 2763.107 1335.866 C 2775.196 1323.835, 2780.010 1310.483, 2779.985 1289.060 C 2779.976 1281.355, 2779.380 1273.988, 2778.444 1270 C 2774.730 1254.187, 2762.995 1237.282, 2748.500 1226.863 C 2740.348 1221.003, 2718.739 1209.352, 2707 1204.487 C 2703.425 1203.005, 2692.217 1197.788, 2682.093 1192.894 C 2668.042 1186.101, 2662.747 1183.009, 2659.720 1179.826 C 2655.868 1175.777, 2655.768 1175.495, 2656.271 1170.078 C 2656.984 1162.400, 2659.458 1156.752, 2663.032 1154.640 C 2670.325 1150.332, 2693.246 1152.077, 2721.126 1159.062 C 2742.753 1164.481, 2744.845 1164.712, 2748.214 1162.053 C 2752.463 1158.700, 2763.274 1143.087, 2765.197 1137.527 C 2767.518 1130.814, 2767.431 1126.522, 2764.867 1121.226 C 2758.772 1108.634, 2728.779 1097.337, 2696.500 1095.473 C 2678.650 1094.443, 2674.640 1094.393, 2665.469 1095.088 M 2919.500 1094.992 C 2904.912 1096.081, 2884.602 1099.438, 2873.602 1102.580 C 2861.175 1106.128, 2853.583 1110.162, 2850.467 1114.871 C 2846.812 1120.394, 2846.439 1124.621, 2848.764 1134.206 C 2849.870 1138.768, 2851.313 1145.110, 2851.970 1148.299 C 2853.384 1155.160, 2857.925 1160.468, 2863.019 1161.216 C 2864.783 1161.475, 2873.139 1160.209, 2881.588 1158.403 C 2902.759 1153.878, 2914.232 1152.684, 2937.500 1152.585 C 2956.919 1152.502, 2957.645 1152.573, 2962.495 1155 C 2966.016 1156.762, 2968.302 1158.832, 2970.242 1162.013 C 2972.997 1166.530, 2977.349 1181.608, 2978.583 1190.916 C 2979.240 1195.864, 2979.240 1195.864, 2975.728 1196.523 C 2973.796 1196.886, 2965.122 1196.691, 2956.453 1196.091 C 2917.082 1193.366, 2891.994 1195.942, 2875.113 1204.443 C 2848.657 1217.766, 2832.545 1237.346, 2828.401 1261.208 C 2826.351 1273.010, 2826.941 1296.326, 2829.535 1306 C 2834.614 1324.940, 2848.554 1344.411, 2864.064 1354.227 C 2877.442 1362.694, 2894.757 1367.898, 2910.163 1368.080 C 2930.890 1368.327, 2957.746 1358.583, 2973.981 1344.928 C 2978.872 1340.815, 2982.729 1339, 2986.578 1339 C 2988.593 1339, 2989.470 1340.006, 2991.545 1344.699 C 2995.594 1353.852, 2998.189 1356.606, 3004.105 1358.025 C 3010.493 1359.558, 3023.135 1358.656, 3029.770 1356.195 C 3035.645 1354.016, 3036.492 1351.853, 3037.943 1335.314 C 3039.277 1320.110, 3039.304 1217.817, 3037.979 1199.500 C 3035.270 1162.040, 3032.543 1148.764, 3023.966 1131.282 C 3014.129 1111.232, 2999.275 1101.010, 2973.500 1096.552 C 2963.272 1094.783, 2933.736 1093.930, 2919.500 1094.992 M 3233 1094.960 C 3217.748 1096.601, 3200.270 1102.733, 3192.281 1109.245 C 3189.410 1111.585, 3184.606 1115.664, 3181.605 1118.308 C 3176.148 1123.116, 3176.148 1123.116, 3172.324 1121.155 C 3167.887 1118.880, 3165.682 1116.584, 3160.655 1109 C 3155.791 1101.662, 3153.277 1100.055, 3144.194 1098.478 C 3132.972 1096.529, 3123.087 1098.855, 3119.572 1104.271 C 3115.705 1110.230, 3115.500 1116.604, 3115.500 1231 C 3115.500 1291.775, 3115.875 1344.974, 3116.333 1349.220 C 3117.159 1356.880, 3117.190 1356.945, 3120.333 1357.497 C 3122.075 1357.803, 3135.402 1358.154, 3149.950 1358.277 C 3176.400 1358.500, 3176.400 1358.500, 3177.181 1355 C 3177.611 1353.075, 3178.218 1321.800, 3178.531 1285.500 C 3179.186 1209.534, 3179.891 1194.957, 3183.237 1188.203 C 3186.328 1181.965, 3199.539 1168.251, 3206.482 1164.074 C 3218.923 1156.590, 3241.642 1152.995, 3255 1156.396 C 3265.143 1158.979, 3271.286 1162.462, 3277.459 1169.129 C 3286.335 1178.717, 3290.837 1189.184, 3293.101 1205.500 C 3293.770 1210.322, 3294.467 1241.771, 3294.856 1284.668 C 3295.210 1323.810, 3295.812 1356.147, 3296.193 1356.527 C 3296.574 1356.907, 3309.235 1357.460, 3324.329 1357.756 C 3351.421 1358.287, 3351.787 1358.267, 3352.892 1356.202 C 3353.671 1354.746, 3354.275 1328.903, 3354.879 1271.174 C 3355.746 1188.238, 3355.746 1188.238, 3358.958 1182.867 C 3364.354 1173.846, 3379.031 1163.614, 3394 1158.439 C 3404.352 1154.861, 3420.324 1153.979, 3429.550 1156.476 C 3441.598 1159.737, 3454.858 1170.817, 3460.396 1182.250 C 3466.175 1194.180, 3466.083 1192.727, 3466.499 1278.358 C 3466.710 1321.730, 3467.022 1357.342, 3467.192 1357.495 C 3467.361 1357.648, 3481.209 1357.937, 3497.965 1358.137 C 3528.430 1358.500, 3528.430 1358.500, 3529.298 1354 C 3529.775 1351.525, 3530.241 1313.725, 3530.333 1270 C 3530.519 1181.541, 3530.661 1183.834, 3523.746 1164 C 3517.332 1145.602, 3511.347 1135.011, 3500.910 1123.592 C 3481.838 1102.725, 3455.657 1093.129, 3421 1094.304 C 3400.554 1094.998, 3387.642 1098.096, 3371.500 1106.182 C 3357.091 1113.400, 3341.229 1124.975, 3338.264 1130.435 C 3337.284 1132.239, 3337.055 1132.262, 3334.857 1130.776 C 3333.561 1129.899, 3328.225 1125.494, 3323 1120.986 C 3307.263 1107.409, 3291.680 1099.517, 3274.833 1096.593 C 3264.234 1094.753, 3242.726 1093.913, 3233 1094.960 M 3875 1095.064 C 3843.636 1095.938, 3833.257 1098.236, 3815.500 1108.239 C 3792.151 1121.391, 3778.191 1138.143, 3767.998 1165.240 C 3762.210 1180.630, 3759.820 1192.931, 3759.692 1208 C 3759.562 1223.196, 3761.210 1230.563, 3770.097 1254.521 C 3773.478 1263.634, 3776.076 1271.211, 3775.872 1271.358 C 3775.667 1271.505, 3772.079 1273.725, 3767.898 1276.292 C 3759.728 1281.306, 3751.501 1290.132, 3744.895 1300.969 C 3739.947 1309.086, 3736.240 1321.249, 3734.819 1334.030 C 3733.797 1343.224, 3733.861 1346.177, 3735.272 1354.631 C 3737.133 1365.790, 3740.779 1375.955, 3745.377 1382.810 C 3747.161 1385.469, 3752.573 1390.587, 3758 1394.747 C 3773.419 1406.565, 3773.088 1406.205, 3772.005 1409.981 C 3770.619 1414.814, 3768.535 1417.536, 3763.644 1420.901 C 3758.272 1424.597, 3750.756 1436.257, 3747.236 1446.356 C 3743.573 1456.865, 3743.020 1471.665, 3745.867 1483.015 C 3748.457 1493.346, 3756.074 1509.324, 3762.390 1517.678 C 3764.959 1521.076, 3770.085 1526.081, 3773.781 1528.799 C 3798.006 1546.620, 3822.507 1553.784, 3865 1555.469 C 3915.904 1557.488, 3955.294 1544.326, 3982.057 1516.353 C 3995.229 1502.586, 4001.025 1492.268, 4005.182 1475.187 C 4006.918 1468.052, 4007.305 1463.284, 4007.351 1448.500 C 4007.402 1431.696, 4007.225 1429.902, 4004.685 1421.500 C 3999.817 1405.399, 3994.818 1396.636, 3984.883 1386.790 C 3977.541 1379.514, 3974.563 1377.345, 3966.797 1373.625 C 3947.492 1364.376, 3936.679 1363.052, 3880 1362.997 C 3817.027 1362.936, 3806.058 1361.758, 3798.792 1354.280 C 3794.284 1349.640, 3792.998 1346.398, 3793.006 1339.685 C 3793.014 1332.129, 3794.482 1327.942, 3800.035 1319.640 C 3806.571 1309.867, 3809.674 1308.259, 3817.761 1310.452 C 3844.181 1317.616, 3849.603 1318.441, 3870.500 1318.471 C 3888.664 1318.497, 3891.280 1318.279, 3899 1316.091 C 3917.688 1310.795, 3935.149 1302.219, 3947.443 1292.296 C 3954.095 1286.928, 3964.735 1273.426, 3969.069 1264.855 C 3978.945 1245.321, 3982.134 1232.969, 3982.199 1214 C 3982.261 1195.894, 3978.521 1181.052, 3968.214 1158.500 C 3965.449 1152.450, 3962.899 1146.105, 3962.547 1144.401 C 3961.907 1141.302, 3961.907 1141.302, 3970.704 1140.703 C 3987.439 1139.563, 3995.232 1135.306, 3996.539 1126.588 C 3997.172 1122.365, 3995.461 1098.128, 3994.459 1097.126 C 3992.615 1095.282, 3915.142 1093.945, 3875 1095.064 M 4142 1095.438 C 4131.538 1096.955, 4118.105 1100.185, 4111.659 1102.733 C 4098.886 1107.783, 4081.765 1120.397, 4069.615 1133.707 C 4052.228 1152.755, 4041.328 1174.732, 4036.734 1200 C 4033.931 1215.420, 4033.656 1247.049, 4036.208 1260.506 C 4037.861 1269.226, 4043.032 1286.313, 4046.495 1294.500 C 4051.964 1307.431, 4071.865 1331.447, 4085.898 1342.051 C 4103.779 1355.563, 4132.630 1365.356, 4158.500 1366.694 C 4187.300 1368.184, 4226.807 1356.792, 4253.083 1339.421 C 4265.191 1331.416, 4265.690 1325.449, 4255.854 1306.257 C 4249.261 1293.390, 4246.236 1289.496, 4241.146 1287.320 C 4236.711 1285.424, 4234.719 1285.936, 4214.826 1294.080 C 4192.483 1303.227, 4184.191 1305.833, 4173.500 1307.068 C 4156.689 1309.010, 4142.772 1305.649, 4128.333 1296.161 C 4117.928 1289.324, 4109.695 1280.173, 4102.833 1267.818 C 4097.730 1258.631, 4096.013 1253.520, 4096.007 1247.500 C 4096.003 1243.500, 4096.003 1243.500, 4180.752 1243.325 C 4265.500 1243.149, 4265.500 1243.149, 4272 1240.825 C 4277.658 1238.801, 4278.759 1237.982, 4280.500 1234.500 C 4282.243 1231.014, 4282.493 1228.571, 4282.444 1215.500 C 4282.398 1203.242, 4281.968 1198.876, 4280.095 1191.615 C 4273.119 1164.573, 4263.544 1146.249, 4247.457 1129.147 C 4230.945 1111.595, 4213.274 1101.637, 4189.487 1096.480 C 4179.472 1094.308, 4153.690 1093.743, 4142 1095.438 M 4501.500 1095.024 C 4446.118 1095.542, 4435.191 1095.885, 4427.653 1097.338 C 4410.876 1100.573, 4402.794 1104.062, 4387.541 1114.651 C 4373.627 1124.311, 4365.834 1133.688, 4355.667 1153 C 4346.381 1170.639, 4343.064 1184.906, 4342.920 1207.838 C 4342.839 1220.579, 4343.208 1225.052, 4344.894 1231.822 C 4346.800 1239.472, 4353.337 1257.293, 4358.116 1267.871 C 4359.203 1270.275, 4359.958 1272.323, 4359.796 1272.423 C 4359.633 1272.522, 4357.025 1273.357, 4354 1274.279 C 4347.755 1276.181, 4339.438 1282.848, 4335.931 1288.763 C 4334.713 1290.819, 4332.013 1295.200, 4329.932 1298.500 C 4310.747 1328.927, 4313.318 1366.913, 4336.055 1388.967 C 4339.192 1392.010, 4344.626 1397.049, 4348.130 1400.165 C 4354.500 1405.831, 4354.500 1405.831, 4352.551 1409.492 C 4351.479 1411.506, 4347.949 1416.157, 4344.706 1419.827 C 4327.628 1439.154, 4322.700 1466.126, 4331.433 1492.472 C 4336.148 1506.696, 4338.562 1510.695, 4348.758 1521.166 C 4373.633 1546.710, 4400.583 1555.256, 4456.500 1555.328 C 4481.058 1555.360, 4483.202 1555.212, 4495.159 1552.653 C 4521.133 1547.093, 4538.574 1538.822, 4557.440 1523.119 C 4571.481 1511.432, 4586.162 1488.242, 4589.485 1472.500 C 4591.870 1461.203, 4592.422 1442.947, 4590.711 1432 C 4588.779 1419.646, 4586.285 1413.301, 4579.024 1402.280 C 4568.414 1386.175, 4556.431 1376.011, 4541.071 1370.088 C 4525.472 1364.072, 4521.305 1363.723, 4457 1363.048 C 4398.500 1362.433, 4398.500 1362.433, 4391.827 1359.242 C 4381.597 1354.349, 4374.283 1344.916, 4374.076 1336.351 C 4374.016 1333.880, 4375.621 1331.153, 4381.521 1323.699 C 4385.658 1318.473, 4389.821 1313.899, 4390.771 1313.534 C 4394.196 1312.220, 4408.797 1312.970, 4417.062 1314.886 C 4432.398 1318.439, 4441.245 1319.254, 4458.752 1318.723 C 4476.445 1318.186, 4483.650 1316.748, 4500.066 1310.475 C 4512.935 1305.557, 4528.594 1294.643, 4537.771 1284.197 C 4556.522 1262.850, 4560.786 1252.969, 4563.168 1225.333 C 4565.307 1200.514, 4563.353 1188.100, 4552.727 1159 C 4550.818 1153.775, 4548.949 1147.377, 4548.572 1144.783 C 4547.760 1139.191, 4547.563 1139.282, 4561.556 1138.748 C 4571.609 1138.365, 4576.659 1136.239, 4578.828 1131.478 C 4581.123 1126.442, 4579.441 1104.717, 4576.278 1098.541 C 4574.301 1094.680, 4573.210 1093.985, 4569.500 1094.223 C 4567.850 1094.329, 4537.250 1094.689, 4501.500 1095.024 M 4729 1094.606 C 4683.348 1100.226, 4651.211 1123.483, 4631.039 1165.500 C 4619.888 1188.728, 4616.574 1203.813, 4616.543 1231.500 C 4616.520 1251.645, 4617.543 1259.126, 4622.493 1275 C 4625.681 1285.223, 4627.766 1289.825, 4634.499 1301.500 C 4652.885 1333.382, 4682.948 1356.230, 4716.601 1363.899 C 4734.060 1367.877, 4746.899 1369.192, 4756.634 1367.998 C 4792.811 1363.563, 4835.967 1343.891, 4844.233 1328.068 C 4847.840 1321.163, 4847.772 1317.410, 4843.937 1311.900 C 4842.253 1309.480, 4838.947 1304.575, 4836.591 1301 C 4832.307 1294.501, 4824.012 1286, 4821.952 1286 C 4820.023 1286, 4795.810 1294.603, 4786 1298.775 C 4773.532 1304.076, 4767.547 1305.693, 4755.649 1306.972 C 4741.499 1308.494, 4730.718 1307.042, 4721 1302.305 C 4715.037 1299.398, 4711.437 1296.585, 4703.434 1288.575 C 4697.898 1283.034, 4691.613 1275.802, 4689.468 1272.505 C 4684.558 1264.958, 4678.815 1251.777, 4678.636 1247.646 C 4678.500 1244.500, 4678.500 1244.500, 4763.500 1243.737 C 4810.250 1243.318, 4850.891 1242.720, 4853.813 1242.408 C 4861.339 1241.604, 4862.596 1239.248, 4863.558 1224.136 C 4864.501 1209.320, 4862.854 1191.209, 4859.495 1179.460 C 4856.068 1167.473, 4846.591 1148.377, 4839.077 1138.318 C 4822.989 1116.781, 4799.184 1101.942, 4771.971 1096.487 C 4764.639 1095.017, 4735.887 1093.758, 4729 1094.606 M 5050.258 1095.006 C 5030.288 1097.091, 5012.859 1103.941, 4994.500 1116.921 C 4989 1120.809, 4984.093 1123.993, 4983.595 1123.995 C 4981.779 1124.005, 4975.430 1116.273, 4972.772 1110.816 C 4967.703 1100.410, 4962.998 1098.389, 4945.720 1099.194 C 4936.052 1099.644, 4930.866 1101.410, 4929.508 1104.713 C 4928.500 1107.165, 4926.563 1336.347, 4927.450 1348.180 C 4928.163 1357.682, 4928.163 1357.682, 4956.331 1358.314 C 4971.824 1358.661, 4985.517 1358.679, 4986.761 1358.353 C 4988.004 1358.027, 4989.226 1356.802, 4989.475 1355.631 C 4989.724 1354.459, 4990.356 1318.850, 4990.881 1276.500 C 4991.521 1224.798, 4992.213 1197.954, 4992.988 1194.794 C 4994.430 1188.921, 5000.559 1179.326, 5006.653 1173.403 C 5012.216 1167.997, 5026.636 1160.800, 5037.743 1157.888 C 5048.885 1154.966, 5063.812 1154.318, 5072 1156.400 C 5090.424 1161.086, 5101.384 1172.243, 5106.980 1192.007 C 5110.015 1202.728, 5111.073 1233.201, 5110.758 1300.786 C 5110.542 1347.124, 5110.725 1356.212, 5111.891 1356.932 C 5113.655 1358.023, 5149.310 1359.392, 5160.561 1358.801 C 5165.226 1358.557, 5169.535 1357.865, 5170.135 1357.265 C 5173.930 1353.470, 5175.226 1324.181, 5174.749 1253 C 5174.329 1190.500, 5174.329 1190.500, 5171.722 1179.435 C 5168.510 1165.806, 5164.240 1153.934, 5159.396 1145.167 C 5144.008 1117.314, 5121.628 1101.277, 5091.500 1096.512 C 5079.620 1094.633, 5060.513 1093.936, 5050.258 1095.006 M 2165.500 1099.593 C 2148.229 1101.327, 2142.322 1102.253, 2141.165 1103.408 C 2138.306 1106.263, 2137.394 1302.593, 2140.071 1338.754 C 2141.421 1356.983, 2141.217 1356.608, 2150.178 1357.395 C 2163.236 1358.542, 2198.972 1358.428, 2200.164 1357.236 C 2200.837 1356.563, 2201.561 1347.741, 2202.044 1334.321 C 2203.178 1302.844, 2204.235 1132.973, 2203.402 1116.142 C 2202.787 1103.721, 2202.461 1101.782, 2200.840 1100.914 C 2198.906 1099.879, 2172.484 1098.891, 2165.500 1099.593 M 1165 1149.149 C 1146.303 1151.640, 1127.985 1163.211, 1117.046 1179.439 C 1111.581 1187.547, 1108 1194.261, 1108 1196.399 C 1108 1197.396, 1109.547 1198.110, 1112.750 1198.592 C 1118.184 1199.409, 1224.093 1198.303, 1228.209 1197.386 C 1230.919 1196.782, 1230.919 1196.782, 1228.067 1191.141 C 1224.509 1184.103, 1210.982 1166.904, 1204.573 1161.269 C 1193.204 1151.272, 1179.823 1147.174, 1165 1149.149 M 4149.500 1149.839 C 4138.697 1152.614, 4128.220 1158.897, 4117.647 1168.940 C 4106.970 1179.083, 4096.548 1194.949, 4098.972 1197.372 C 4099.783 1198.182, 4115.517 1198.500, 4154.800 1198.500 C 4209.059 1198.500, 4221 1197.987, 4221 1195.655 C 4221 1190.245, 4197.332 1162.630, 4187.029 1156.019 C 4176.432 1149.219, 4161.493 1146.759, 4149.500 1149.839 M 1944.500 1150.347 C 1928.169 1155.768, 1907.725 1172.539, 1900.250 1186.647 C 1896.240 1194.214, 1896.143 1196.403, 1899.750 1197.893 C 1903.060 1199.260, 2015.858 1198.542, 2017.255 1197.145 C 2018.497 1195.903, 2013.779 1184.829, 2009.557 1179.077 C 2003.156 1170.358, 1987.699 1156.470, 1980.392 1152.872 C 1974.006 1149.728, 1973.043 1149.550, 1961.085 1149.291 C 1952.620 1149.108, 1947.191 1149.454, 1944.500 1150.347 M 4731.500 1149.983 C 4721.351 1152.617, 4709.425 1160.498, 4697.415 1172.508 C 4688.549 1181.374, 4686.705 1184.081, 4682.908 1193.803 C 4681.105 1198.422, 4684.102 1198.693, 4738 1198.775 C 4765.225 1198.816, 4790.650 1198.546, 4794.500 1198.175 C 4803.134 1197.342, 4803.535 1196.259, 4798.870 1186.367 C 4796.386 1181.101, 4793.244 1177.052, 4785.393 1169 C 4774.070 1157.386, 4767.478 1152.855, 4758.540 1150.542 C 4752.303 1148.928, 4736.800 1148.608, 4731.500 1149.983 M 3860.251 1154.499 C 3848.161 1157.160, 3837.112 1165.280, 3828.605 1177.758 C 3823.051 1185.906, 3820.255 1193.522, 3818.924 1204.131 C 3818.048 1211.123, 3818.189 1213.088, 3820.088 1220.295 C 3825.117 1239.387, 3836.046 1254.163, 3850.564 1261.500 C 3855.690 1264.091, 3857.796 1264.543, 3866 1264.817 C 3879.199 1265.258, 3891.867 1261.889, 3899.685 1255.857 C 3907.963 1249.471, 3915.720 1240.346, 3919.676 1232.341 C 3923.165 1225.281, 3923.222 1224.968, 3923.193 1212.833 C 3923.145 1192.096, 3918.654 1179.686, 3907.280 1168.861 C 3900.959 1162.845, 3890.776 1156.728, 3884.500 1155.176 C 3877.161 1153.361, 3866.743 1153.070, 3860.251 1154.499 M 4441.618 1155.043 C 4427.803 1158.533, 4416.357 1167.976, 4409.151 1181.826 C 4403.277 1193.116, 4401.841 1198.583, 4401.864 1209.564 C 4401.886 1220.413, 4403.202 1225.468, 4409.009 1237.019 C 4415.886 1250.695, 4426.070 1259.471, 4440.387 1264.056 C 4449.665 1267.028, 4462.100 1266.474, 4470.288 1262.726 C 4484.129 1256.389, 4497.819 1243.675, 4503.373 1232 C 4506.384 1225.670, 4506.465 1225.121, 4506.482 1211 C 4506.504 1193.394, 4505.220 1188.450, 4497.739 1177.332 C 4491.322 1167.793, 4484.732 1162.324, 4474.546 1158.083 C 4467.828 1155.287, 4465.338 1154.796, 4456.138 1154.456 C 4450.287 1154.239, 4443.753 1154.503, 4441.618 1155.043 M 2923 1240.082 C 2907.374 1242.073, 2896.724 1249.253, 2890.131 1262.241 C 2886.818 1268.769, 2886.783 1268.978, 2887.141 1280.226 C 2887.484 1291.044, 2887.690 1291.988, 2891.298 1299.289 C 2896.999 1310.824, 2903.875 1315, 2917.168 1315 C 2932.277 1315, 2949.640 1309.839, 2960.406 1302.148 C 2973.798 1292.582, 2979.712 1283.542, 2980.665 1271.185 C 2981.716 1257.564, 2977.500 1248.882, 2967.310 1243.678 C 2959.158 1239.516, 2939.782 1237.943, 2923 1240.082 M 3845.544 1420.589 C 3830.148 1422.766, 3828.775 1423.395, 3820.725 1431.965 C 3810.588 1442.756, 3808.485 1447.259, 3808.558 1458.011 C 3808.608 1465.463, 3808.982 1467.203, 3811.558 1471.993 C 3813.176 1475.001, 3817.477 1480.506, 3821.115 1484.227 C 3831.450 1494.795, 3842.295 1498.750, 3863.500 1499.686 C 3886.207 1500.688, 3901.201 1497.348, 3917.870 1487.576 C 3928.044 1481.612, 3935.353 1474.653, 3938.114 1468.302 C 3939.396 1465.354, 3940.408 1460.365, 3940.734 1455.380 C 3941.207 1448.151, 3940.987 1446.651, 3938.722 1441.705 C 3932.875 1428.931, 3922.305 1421.891, 3906.171 1420.021 C 3894.062 1418.618, 3857.029 1418.965, 3845.544 1420.589 M 4432 1420.065 C 4427.325 1420.498, 4420.376 1421.830, 4416.558 1423.025 C 4410.674 1424.868, 4408.673 1426.141, 4403.431 1431.383 C 4399.925 1434.890, 4395.798 1440.368, 4393.901 1444.034 C 4391.030 1449.583, 4390.557 1451.499, 4390.566 1457.539 C 4390.576 1463.518, 4391.112 1465.703, 4394.125 1472.049 C 4403.070 1490.883, 4422.448 1500.119, 4453.119 1500.166 C 4479.255 1500.206, 4497.364 1493.413, 4512.708 1477.812 C 4521.252 1469.126, 4525.433 1459.984, 4524.751 1451.483 C 4524.119 1443.615, 4521.534 1438.756, 4514.355 1431.944 C 4502.888 1421.062, 4494.212 1418.933, 4462.162 1419.139 C 4450.248 1419.216, 4436.675 1419.633, 4432 1420.065 M 745.500 1505.383 C 742.750 1506.683, 739.315 1509.041, 737.866 1510.624 C 733.419 1515.481, 726.362 1528.080, 719.656 1543.135 C 716.137 1551.036, 710.224 1564.025, 706.516 1572 C 702.808 1579.975, 699.424 1587.400, 698.996 1588.500 C 698.225 1590.483, 678.194 1635.053, 672.031 1648.500 C 662.100 1670.169, 651.695 1692.780, 643.733 1709.997 C 638.775 1720.720, 633.945 1731.297, 633 1733.500 C 632.055 1735.703, 627.226 1746.280, 622.268 1757.003 C 617.310 1767.726, 611.433 1780.550, 609.209 1785.500 C 596.164 1814.534, 589.281 1829.555, 581.261 1846.500 C 563.066 1884.939, 534.395 1949.777, 533.407 1954.716 C 532.847 1957.516, 533.081 1957.866, 536.147 1958.823 C 543.458 1961.103, 551.431 1961.874, 573 1962.384 C 589.223 1962.768, 596.476 1962.579, 599 1961.708 C 602.212 1960.599, 603.138 1959.226, 610.261 1945 C 614.529 1936.475, 619.866 1924.775, 622.119 1919 C 624.373 1913.225, 628.580 1903.325, 631.467 1897 C 634.355 1890.675, 637.568 1883.054, 638.608 1880.066 C 639.649 1877.077, 641.903 1873.139, 643.618 1871.316 C 646.736 1868, 646.736 1868, 745.908 1868 C 860.939 1868, 850.110 1866.951, 856.253 1878.691 C 858.212 1882.436, 861.379 1889.325, 863.290 1894 C 880.351 1935.728, 890.557 1957.479, 894.934 1961.440 C 896.654 1962.996, 899.465 1963.150, 923.172 1962.980 C 937.652 1962.877, 951.750 1962.500, 954.500 1962.144 C 959.500 1961.496, 959.500 1961.496, 959.299 1955.673 C 959.009 1947.266, 956.966 1941.097, 946.489 1917 C 932.475 1884.767, 896.236 1803.833, 879.996 1768.500 C 874.940 1757.500, 867.984 1742.200, 864.538 1734.500 C 854.286 1711.590, 849.381 1700.799, 837.369 1674.719 C 824.872 1647.586, 810.083 1614.466, 797.977 1586.500 C 778.052 1540.470, 764.380 1512.535, 759.021 1506.901 C 754.658 1502.315, 752.503 1502.073, 745.500 1505.383 M 3095.634 1526.528 C 3082.599 1529.813, 3072.506 1537.461, 3067.954 1547.500 C 3063.353 1557.644, 3062.466 1563.598, 3064.328 1571.840 C 3066.290 1580.531, 3070.723 1589.462, 3075.159 1593.664 C 3080.140 1598.382, 3089.646 1602.757, 3097.860 1604.114 C 3104.241 1605.168, 3105.858 1605.098, 3110.825 1603.555 C 3143.502 1593.401, 3152.661 1563.545, 3131.206 1537.117 C 3123.842 1528.045, 3108.148 1523.373, 3095.634 1526.528 M 1569.105 1527.583 C 1561.707 1529.572, 1554.352 1533.749, 1550.924 1537.909 C 1549.348 1539.820, 1546.816 1544.335, 1545.296 1547.942 C 1542.824 1553.809, 1542.532 1555.712, 1542.517 1566 C 1542.500 1577.296, 1542.565 1577.624, 1546.144 1584.500 C 1551.949 1595.654, 1555.964 1598.899, 1568.451 1602.529 C 1582.794 1606.698, 1603.523 1599.496, 1612.444 1587.243 C 1614.343 1584.634, 1616.679 1579.627, 1617.634 1576.115 C 1619.129 1570.615, 1619.217 1568.514, 1618.263 1560.962 C 1616.388 1546.104, 1609.507 1535.214, 1598.181 1529.177 C 1592.730 1526.272, 1591.462 1526.006, 1583.360 1526.066 C 1578.487 1526.102, 1572.072 1526.785, 1569.105 1527.583 M 2733 1526.937 C 2722.677 1530.097, 2710.694 1539.838, 2706.445 1548.524 C 2699.794 1562.117, 2703.515 1581.268, 2715.116 1593.151 C 2726.275 1604.581, 2744.309 1607.040, 2760.661 1599.362 C 2767.705 1596.055, 2773.626 1590.024, 2777.083 1582.636 C 2781.040 1574.181, 2781.579 1568.971, 2779.542 1558.884 C 2776.215 1542.406, 2767.987 1530.558, 2757.761 1527.522 C 2752.400 1525.930, 2737.445 1525.576, 2733 1526.937 M 2899.940 1619.974 C 2875.180 1622.298, 2872.534 1622.752, 2870.467 1625.036 C 2867.700 1628.094, 2867.059 1635.406, 2866.967 1664.964 C 2866.920 1680.109, 2866.624 1694.408, 2866.310 1696.739 C 2865.792 1700.586, 2865.405 1701.071, 2862.120 1701.983 C 2860.129 1702.536, 2853.909 1702.991, 2848.297 1702.994 C 2837.128 1703.001, 2833.795 1703.961, 2832.110 1707.657 C 2830.905 1710.302, 2830.541 1744.370, 2831.632 1752.335 C 2832.104 1755.772, 2832.784 1757.114, 2834.300 1757.595 C 2835.420 1757.951, 2842.610 1758.543, 2850.279 1758.912 C 2862.358 1759.493, 2864.407 1759.837, 2865.611 1761.482 C 2866.761 1763.056, 2867.002 1774.142, 2867.010 1825.941 C 2867.024 1906.425, 2868.228 1921.360, 2876.003 1937.500 C 2880.424 1946.676, 2881.829 1948.362, 2891.708 1956.338 C 2896.823 1960.468, 2900.745 1962.719, 2905.208 1964.088 C 2919.293 1968.407, 2948.259 1968.362, 2968.291 1963.989 C 2978.140 1961.840, 3005.860 1951.376, 3012.039 1947.475 C 3014.170 1946.130, 3016.383 1944.152, 3016.957 1943.080 C 3019.407 1938.503, 3017.370 1929.139, 3011.664 1918.746 C 3009.417 1914.652, 3008.020 1910.523, 3007.610 1906.762 C 3006.838 1899.669, 3003.189 1891.688, 3001.023 1892.353 C 3000.185 1892.610, 2995.587 1894.450, 2990.805 1896.441 C 2975.875 1902.657, 2946.799 1908.421, 2939.548 1906.601 C 2936.340 1905.796, 2934.549 1902.003, 2932.229 1891.097 C 2930.836 1884.551, 2930.630 1875.407, 2930.741 1825 C 2930.812 1792.825, 2931.268 1765.150, 2931.755 1763.500 C 2932.641 1760.500, 2932.641 1760.500, 2969.286 1760 C 3001.861 1759.556, 3006.117 1759.313, 3007.611 1757.819 C 3010.578 1754.850, 3010.885 1710.670, 3007.971 1705.952 C 3007.230 1704.753, 3001.100 1704.370, 2972.787 1703.753 C 2934.996 1702.930, 2932.557 1702.722, 2931.386 1700.223 C 2930.942 1699.275, 2930.336 1680.950, 2930.039 1659.500 C 2929.743 1638.050, 2929.136 1619.938, 2928.691 1619.250 C 2927.669 1617.672, 2923.299 1617.782, 2899.940 1619.974 M 1372 1620.073 C 1357.682 1621.149, 1351.737 1621.927, 1350.098 1622.939 C 1347.686 1624.430, 1347.001 1632.639, 1346.469 1666.475 C 1346.179 1684.916, 1345.536 1699.864, 1345.011 1700.389 C 1344.495 1700.905, 1338.094 1701.653, 1330.786 1702.050 C 1314.465 1702.938, 1312.328 1703.466, 1310.465 1707.068 C 1307.467 1712.865, 1306.183 1745.892, 1308.611 1754.734 C 1309.502 1757.975, 1314.437 1758.986, 1329.500 1759.010 C 1336.650 1759.021, 1343.175 1759.457, 1344 1759.978 C 1345.304 1760.802, 1345.577 1771.146, 1346.089 1839.213 C 1346.500 1893.933, 1347.042 1919.457, 1347.889 1924 C 1349.728 1933.870, 1356.048 1946.052, 1362.831 1952.805 C 1373.986 1963.910, 1384.423 1967.158, 1409 1967.175 C 1422.782 1967.184, 1440.804 1965.302, 1449.500 1962.945 C 1451.700 1962.349, 1457.550 1960.331, 1462.500 1958.460 C 1467.450 1956.589, 1475.325 1953.874, 1480 1952.427 C 1488.971 1949.651, 1494.455 1946.291, 1496.174 1942.517 C 1497.532 1939.538, 1495.178 1931.319, 1490.038 1921.086 C 1487.942 1916.914, 1485.929 1911.700, 1485.564 1909.500 C 1484.562 1903.446, 1482.061 1896.295, 1480.490 1894.992 C 1479.401 1894.088, 1475.471 1894.840, 1462.795 1898.380 C 1443.748 1903.699, 1422.024 1908.235, 1417.672 1907.803 C 1414.962 1907.534, 1414.399 1906.883, 1412.653 1902 C 1410.882 1897.045, 1410.641 1893.047, 1410.223 1861.668 C 1409.639 1817.922, 1410.791 1764.640, 1412.364 1762.591 C 1413.289 1761.387, 1419.349 1760.901, 1445 1759.973 C 1462.325 1759.346, 1478.075 1758.515, 1480 1758.125 C 1482.448 1757.629, 1483.900 1756.584, 1484.833 1754.649 C 1486.580 1751.022, 1487.842 1706.639, 1486.227 1705.640 C 1485.637 1705.275, 1470.607 1704.515, 1452.827 1703.951 C 1415.151 1702.755, 1412.450 1702.510, 1411.411 1700.202 C 1410.989 1699.266, 1410.320 1682.975, 1409.924 1664 C 1409.207 1629.640, 1408.591 1623.733, 1405.391 1620.534 C 1403.671 1618.814, 1391.076 1618.641, 1372 1620.073 M 743.159 1645.712 C 741.560 1648.895, 738.562 1656.225, 736.498 1662 C 734.434 1667.775, 730.708 1676.550, 728.218 1681.500 C 725.729 1686.450, 722.012 1694.550, 719.960 1699.500 C 713.911 1714.088, 698.402 1749.298, 693.093 1760.499 C 690.388 1766.203, 687.848 1771.912, 687.448 1773.185 C 687.048 1774.458, 683.634 1781.955, 679.860 1789.845 C 676.087 1797.735, 673 1804.567, 673 1805.028 C 673 1806.336, 675.725 1806.838, 686.500 1807.514 C 697.629 1808.212, 809.519 1806.390, 817.697 1805.377 C 822.894 1804.734, 822.894 1804.734, 819.805 1798.617 C 818.106 1795.253, 814.798 1788, 812.455 1782.500 C 806.601 1768.763, 793.884 1740.656, 790.559 1734.107 C 788.011 1729.088, 782.499 1716.646, 768.583 1684.500 C 754.865 1652.815, 749.622 1642.120, 747.013 1640.508 C 746.493 1640.187, 744.759 1642.528, 743.159 1645.712 M 1134 1698.683 C 1123.594 1699.454, 1110.008 1702.338, 1101.065 1705.675 C 1087.907 1710.585, 1085.637 1711.846, 1075.426 1719.915 C 1070.517 1723.795, 1065.566 1726.976, 1064.424 1726.985 C 1061.477 1727.006, 1058.761 1723.700, 1054.044 1714.348 C 1050.712 1707.741, 1049.246 1705.870, 1046.314 1704.479 C 1042.550 1702.693, 1024.681 1700.783, 1020.710 1701.742 C 1017.258 1702.576, 1014.211 1705.885, 1012.275 1710.901 C 1010.610 1715.216, 1010.500 1723.053, 1010.500 1837.700 C 1010.500 1936.614, 1010.748 1960.147, 1011.800 1961.200 C 1012.788 1962.189, 1019.938 1962.585, 1041.646 1962.854 C 1057.364 1963.048, 1070.590 1962.810, 1071.076 1962.324 C 1072.858 1960.542, 1074.128 1925.882, 1074.808 1860.500 C 1075.504 1793.500, 1075.504 1793.500, 1077.986 1788.637 C 1081.805 1781.152, 1089.186 1775.154, 1103.127 1768.204 C 1120.335 1759.625, 1128.021 1757.709, 1143.444 1758.151 C 1155.162 1758.487, 1155.886 1758.638, 1163.194 1762.250 C 1173.346 1767.269, 1180.474 1774.393, 1185.481 1784.528 C 1189.345 1792.348, 1189.394 1792.590, 1190.160 1807.965 C 1190.585 1816.509, 1190.683 1846.450, 1190.376 1874.500 C 1190.066 1902.861, 1190.237 1931.499, 1190.762 1939.015 C 1192.184 1959.386, 1193.824 1961.353, 1210.750 1963 C 1225.298 1964.415, 1248.256 1964.270, 1250.290 1962.750 C 1251.359 1961.951, 1252.377 1958.792, 1253.110 1954 C 1254.570 1944.459, 1255.699 1857.027, 1254.905 1815 C 1254.310 1783.503, 1254.309 1783.499, 1251.123 1772 C 1242.444 1740.676, 1224.169 1717.579, 1199.500 1706.755 C 1183.019 1699.523, 1160.356 1696.730, 1134 1698.683 M 1742.877 1698.934 C 1731.527 1700.134, 1725.376 1701.831, 1716.500 1706.214 C 1705.748 1711.523, 1698.611 1717.187, 1692.827 1725 C 1677.613 1745.549, 1672.682 1766.055, 1677.846 1787.295 C 1685.292 1817.924, 1705.474 1835.679, 1763.138 1862.333 C 1773.830 1867.275, 1785.804 1875.014, 1790.699 1880.146 C 1796.596 1886.328, 1798.545 1894.245, 1795.347 1899.027 C 1790.255 1906.642, 1784.129 1910.588, 1772.652 1913.646 C 1765.973 1915.425, 1765.973 1915.425, 1750.737 1911.580 C 1732.224 1906.909, 1721.954 1903.371, 1709.974 1897.541 C 1704.969 1895.104, 1700.199 1893.370, 1699.375 1893.686 C 1696.461 1894.805, 1685.769 1908.604, 1681.911 1916.228 C 1679.167 1921.651, 1678.003 1925.230, 1678.010 1928.228 C 1678.022 1933.387, 1681.664 1941.494, 1685.624 1945.173 C 1691.788 1950.901, 1712.537 1960.562, 1726.128 1964.033 C 1743.558 1968.483, 1777.523 1968.999, 1796.518 1965.101 C 1807.088 1962.933, 1817.388 1958.833, 1828.509 1952.369 C 1838.098 1946.796, 1852.511 1932.766, 1855.734 1925.868 C 1865.078 1905.875, 1866.384 1885.751, 1859.571 1866.741 C 1854.900 1853.708, 1851.929 1848.829, 1843.550 1840.441 C 1834.818 1831.698, 1823.064 1823.851, 1806.906 1815.978 C 1800.083 1812.653, 1793.746 1809.515, 1792.824 1809.004 C 1791.902 1808.493, 1785.602 1805.765, 1778.824 1802.941 C 1761.345 1795.658, 1749.179 1789.179, 1744.848 1784.848 C 1738.417 1778.417, 1737.451 1770.124, 1742.288 1762.862 C 1745.845 1757.520, 1750.895 1755.623, 1762.771 1755.166 C 1776.214 1754.650, 1788.387 1756.829, 1807.105 1763.104 C 1815.137 1765.797, 1823.136 1768, 1824.881 1768 C 1829.642 1768, 1835.551 1761.459, 1841.827 1749.242 C 1849.394 1734.510, 1850.074 1732.270, 1848.441 1727.443 C 1846.869 1722.794, 1839.571 1715.678, 1832.441 1711.841 C 1825.751 1708.242, 1804.996 1701.328, 1797 1700.036 C 1788.399 1698.646, 1752.514 1697.916, 1742.877 1698.934 M 2016.346 1699.071 C 1989.645 1701.828, 1969.192 1711.302, 1949.617 1729.979 C 1922.144 1756.191, 1908.190 1787.804, 1906.349 1828 C 1905.196 1853.177, 1911.977 1884.634, 1922.386 1902.396 C 1930.549 1916.325, 1950.806 1938.314, 1964.210 1947.796 C 1970.912 1952.536, 1985.288 1959.748, 1993.448 1962.464 C 2002.938 1965.622, 2012.603 1967.103, 2027.500 1967.680 C 2062.823 1969.048, 2094.998 1961.193, 2119.617 1945.191 C 2126.184 1940.923, 2140 1928.417, 2140 1926.741 C 2140 1926.181, 2137.589 1922.523, 2134.641 1918.612 C 2131.694 1914.700, 2128.283 1909.371, 2127.062 1906.769 C 2124.146 1900.561, 2116.638 1892.293, 2112.249 1890.459 C 2107.123 1888.318, 2102.078 1888.676, 2097.500 1891.505 C 2089.755 1896.293, 2075.361 1902.877, 2062.557 1907.489 C 2049.081 1912.343, 2045.595 1912.821, 2031.434 1911.752 C 2024.043 1911.194, 2009.931 1905.239, 2001.961 1899.316 C 1985.300 1886.932, 1967.889 1860.970, 1969.182 1850.438 C 1969.500 1847.853, 1969.500 1847.853, 2023.500 1847.876 C 2053.200 1847.889, 2091.450 1847.528, 2108.500 1847.075 C 2142.772 1846.163, 2147.803 1845.351, 2153.315 1839.839 C 2156.300 1836.853, 2156.300 1836.853, 2155.617 1820.861 C 2154.814 1802.090, 2153.202 1792.686, 2148.392 1778.719 C 2137.087 1745.895, 2118.612 1722.890, 2093.333 1710.160 C 2083.644 1705.282, 2077.303 1703.144, 2066.073 1700.970 C 2053.786 1698.591, 2029.845 1697.677, 2016.346 1699.071 M 2329 1699.169 C 2321.698 1700.206, 2307.054 1704.961, 2299.500 1708.749 C 2296.750 1710.128, 2290.409 1713.899, 2285.409 1717.128 C 2277.406 1722.297, 2275.718 1723, 2271.314 1723 C 2265.463 1723, 2264.292 1722.005, 2260.722 1714 C 2257.932 1707.742, 2255.091 1704.772, 2249.768 1702.548 C 2242.241 1699.402, 2227.696 1701.501, 2223.097 1706.397 C 2221.149 1708.470, 2220.681 1710.459, 2219.925 1719.857 C 2218.776 1734.146, 2218.242 1943.108, 2219.328 1953.173 C 2219.945 1958.890, 2220.582 1961.015, 2221.828 1961.509 C 2222.748 1961.874, 2235.251 1962.425, 2249.614 1962.734 C 2275.728 1963.296, 2275.728 1963.296, 2276.374 1958.898 C 2277.836 1948.944, 2278.962 1909.693, 2279.054 1865.500 C 2279.108 1839.650, 2279.473 1813.246, 2279.866 1806.825 C 2280.579 1795.151, 2280.579 1795.151, 2286.540 1787.366 C 2297.272 1773.349, 2312.726 1762.386, 2326.500 1759.020 C 2329.250 1758.348, 2336.106 1757.825, 2341.735 1757.859 C 2349.910 1757.908, 2353.393 1758.415, 2359.034 1760.377 C 2373.969 1765.571, 2386.506 1779.338, 2391.475 1796 C 2393.956 1804.322, 2394.927 1830.912, 2394.966 1891.599 C 2394.985 1921.354, 2395.287 1949.090, 2395.637 1953.236 C 2396.274 1960.773, 2396.274 1960.773, 2400.387 1961.365 C 2402.649 1961.690, 2415.369 1962.262, 2428.653 1962.636 C 2452.806 1963.315, 2452.806 1963.315, 2453.308 1956.908 C 2453.583 1953.383, 2454.291 1916.075, 2454.880 1874 C 2455.470 1831.925, 2456.219 1795.980, 2456.545 1794.122 C 2457.677 1787.676, 2461.624 1780.501, 2466.302 1776.384 C 2472.733 1770.722, 2489.683 1762.565, 2500.462 1759.944 C 2512.121 1757.109, 2528.567 1757.524, 2536.799 1760.861 C 2542.455 1763.154, 2550.781 1768.937, 2555.190 1773.634 C 2558.687 1777.360, 2563.649 1788.041, 2565.117 1795.004 C 2565.902 1798.724, 2566.474 1824.738, 2566.888 1875.500 C 2567.458 1945.410, 2567.624 1950.749, 2569.327 1954.172 C 2571.510 1958.560, 2575.778 1960.543, 2586.295 1962.058 C 2594.234 1963.201, 2621.749 1963.532, 2624.929 1962.522 C 2626.145 1962.137, 2627.335 1960.445, 2627.945 1958.236 C 2630.338 1949.571, 2631.165 1918.909, 2630.758 1854 C 2630.342 1787.500, 2630.342 1787.500, 2627.780 1777 C 2617.294 1734.025, 2593.414 1708.647, 2556.010 1700.729 C 2542.946 1697.963, 2510.370 1697.759, 2498.666 1700.369 C 2481.769 1704.137, 2467.262 1710.324, 2457.500 1717.926 C 2448.417 1724.999, 2442.703 1728.735, 2438.228 1730.526 C 2434.234 1732.123, 2434.117 1732.107, 2429.839 1729.347 C 2427.453 1727.807, 2421.900 1723.197, 2417.500 1719.102 C 2408.854 1711.055, 2397.058 1704.574, 2385.489 1701.516 C 2374.060 1698.494, 2342.880 1697.199, 2329 1699.169 M 3264.021 1699.125 C 3253.678 1700.323, 3246.957 1702.433, 3236.775 1707.680 C 3229.750 1711.301, 3226.521 1713.792, 3220.196 1720.474 C 3198.098 1743.819, 3193.646 1775.268, 3208.230 1805 C 3211.663 1811.998, 3214.087 1815.182, 3221.950 1823.019 C 3234.212 1835.241, 3244.202 1841.749, 3271.420 1855.243 C 3305.130 1871.956, 3311.589 1876.254, 3318.363 1886.482 C 3321.527 1891.260, 3321.683 1894.740, 3318.973 1900.053 C 3313.569 1910.646, 3297.098 1915.772, 3279.095 1912.464 C 3270.117 1910.814, 3244.970 1902.597, 3232.021 1897.083 C 3227.800 1895.286, 3223.630 1894.127, 3222.447 1894.424 C 3221.295 1894.713, 3218.585 1897.431, 3216.426 1900.464 C 3214.267 1903.496, 3210.177 1909.119, 3207.338 1912.958 C 3198.689 1924.654, 3198.142 1929.629, 3204.427 1939.453 C 3208.515 1945.844, 3216.145 1951.215, 3229.946 1957.418 C 3242.455 1963.041, 3254.630 1965.781, 3272.784 1967.059 C 3296.622 1968.737, 3320.072 1966.583, 3333.718 1961.462 C 3356.253 1953.005, 3373.412 1938.343, 3380.161 1921.777 C 3389.792 1898.136, 3389.411 1878.790, 3378.894 1857.500 C 3368.689 1836.841, 3358.979 1829.435, 3315.370 1809.051 C 3277.184 1791.202, 3273.531 1789.323, 3269.727 1785.575 C 3263.376 1779.319, 3262.712 1777.786, 3263.483 1771.149 C 3264.348 1763.692, 3266.781 1759.690, 3272.211 1756.790 C 3281.086 1752.051, 3305.224 1754.701, 3329.500 1763.079 C 3335.550 1765.167, 3342.887 1767.190, 3345.803 1767.574 C 3350.740 1768.224, 3351.315 1768.073, 3354.115 1765.390 C 3360.085 1759.670, 3373.011 1737.472, 3372.976 1733 C 3372.945 1729.040, 3369.587 1722.666, 3365.375 1718.572 C 3359.799 1713.152, 3345.244 1706.429, 3331.656 1702.998 C 3314.240 1698.599, 3283.678 1696.850, 3264.021 1699.125 M 3563.015 1699.126 C 3548.020 1700.862, 3528.589 1707.837, 3513.443 1716.920 C 3508.818 1719.693, 3502.988 1722.478, 3500.486 1723.108 C 3494.529 1724.608, 3492.661 1722.986, 3489.908 1713.922 C 3487.702 1706.660, 3482.434 1700.119, 3478.583 1699.860 C 3469.704 1699.264, 3460.474 1702.191, 3454.144 1707.608 C 3446.075 1714.515, 3446.705 1703.628, 3446.913 1832.646 C 3447.015 1896.015, 3447.472 1950.222, 3447.928 1953.106 C 3448.398 1956.081, 3449.487 1958.883, 3450.445 1959.583 C 3453.364 1961.718, 3464.099 1962.998, 3484.640 1963.660 C 3501.617 1964.208, 3504.686 1964.083, 3505.750 1962.802 C 3509.524 1958.254, 3510.950 1931.427, 3511.320 1858 C 3511.630 1796.500, 3511.630 1796.500, 3516.065 1789.129 C 3524.163 1775.670, 3535.865 1766.355, 3550.500 1761.718 C 3556.539 1759.804, 3559.696 1759.504, 3573.500 1759.528 C 3587.803 1759.553, 3590.109 1759.799, 3595.247 1761.849 C 3603.078 1764.973, 3610.878 1772.327, 3615.267 1780.725 C 3622.639 1794.833, 3622.244 1789.906, 3622.913 1876 C 3623.590 1963.300, 3623.111 1958.278, 3631 1960.673 C 3636.792 1962.431, 3668.545 1964.205, 3676.973 1963.241 C 3683.446 1962.500, 3683.446 1962.500, 3684.136 1958.454 C 3686.040 1947.285, 3687.004 1919.496, 3687.566 1859.500 C 3687.906 1823.200, 3688.585 1790.805, 3689.075 1787.511 C 3689.565 1784.218, 3690.787 1780.393, 3691.790 1779.011 C 3694.568 1775.188, 3718.891 1763.338, 3729 1760.883 C 3735.883 1759.211, 3739.879 1758.888, 3750 1759.183 C 3761.645 1759.522, 3762.950 1759.766, 3769.084 1762.745 C 3777.897 1767.026, 3787.730 1776.671, 3791.863 1785.086 C 3798.187 1797.963, 3798.182 1797.898, 3798.967 1881.500 C 3799.359 1923.300, 3800.008 1958.243, 3800.409 1959.151 C 3801.475 1961.566, 3803.394 1961.857, 3826.567 1963.127 C 3850.312 1964.429, 3856.340 1963.967, 3858.431 1960.686 C 3861.952 1955.162, 3863.908 1921.766, 3863.949 1866.500 C 3864.006 1787.985, 3860.042 1766.068, 3840.416 1736.382 C 3833.543 1725.986, 3820.440 1713.530, 3811.358 1708.757 C 3794.913 1700.116, 3770.038 1696.513, 3742.585 1698.796 C 3726.749 1700.113, 3721.403 1701.309, 3707.320 1706.690 C 3700.157 1709.427, 3695.229 1712.173, 3689.105 1716.838 C 3679.377 1724.251, 3670.152 1729.998, 3668 1729.988 C 3664.867 1729.973, 3655.410 1724.720, 3646.133 1717.842 C 3635.628 1710.054, 3623.882 1704.031, 3614.500 1701.622 C 3602.025 1698.419, 3578.835 1697.295, 3563.015 1699.126 M 4309.144 1699.032 C 4296.749 1700.233, 4289.197 1702.233, 4279.365 1706.920 C 4270.239 1711.270, 4265.176 1715.441, 4258.160 1724.387 C 4249.524 1735.400, 4244.171 1746.724, 4241.510 1759.606 C 4239.617 1768.770, 4239.607 1774.486, 4241.466 1784 C 4244.793 1801.020, 4249.246 1809.385, 4261.438 1821.516 C 4273.257 1833.274, 4285.654 1841.375, 4313.725 1855.684 C 4337.601 1867.854, 4343.647 1871.426, 4350.911 1877.651 C 4355.894 1881.922, 4364 1892.468, 4364 1894.681 C 4364 1895.484, 4362.120 1898.370, 4359.823 1901.095 C 4352.597 1909.665, 4338.127 1914.996, 4326.153 1913.500 C 4314.340 1912.024, 4299.052 1907.478, 4278.854 1899.434 C 4271.349 1896.445, 4264.050 1894, 4262.636 1894 C 4260.762 1894, 4259.222 1895.154, 4256.966 1898.250 C 4250.956 1906.499, 4245.074 1917.548, 4243.398 1923.739 C 4241.702 1930.003, 4241.702 1930.003, 4245.045 1936.588 C 4249.302 1944.976, 4252.730 1947.788, 4267.500 1955.012 C 4286.970 1964.535, 4301.302 1967.370, 4330 1967.378 C 4344.487 1967.382, 4351.769 1966.936, 4358.326 1965.645 C 4377.454 1961.878, 4395.173 1953.134, 4406.834 1941.707 C 4414.757 1933.943, 4418.385 1928.770, 4421.905 1920.219 C 4435.927 1886.155, 4427.163 1853.646, 4397.850 1830.991 C 4384.057 1820.332, 4378.309 1817.415, 4329.500 1796.310 C 4312.981 1789.167, 4309.187 1786.751, 4305.322 1780.910 C 4303.053 1777.482, 4302.795 1776.277, 4303.293 1771.450 C 4304.120 1763.434, 4306.528 1759.937, 4313.051 1757.281 C 4324.190 1752.744, 4348.502 1755.034, 4370.265 1762.669 C 4375.894 1764.643, 4382.632 1766.834, 4385.239 1767.536 C 4389.977 1768.813, 4389.977 1768.813, 4396.972 1761.322 C 4405.519 1752.171, 4413.690 1740.167, 4414.572 1735.469 C 4415.432 1730.885, 4411.280 1722.217, 4406.186 1717.959 C 4398.638 1711.650, 4379.441 1703.776, 4363.817 1700.581 C 4354.432 1698.662, 4322.345 1697.753, 4309.144 1699.032 M 1571.480 1703.048 C 1551.171 1704.248, 1548.834 1704.790, 1547.834 1708.528 C 1545.352 1717.808, 1546.364 1939.639, 1548.953 1953.933 C 1550.571 1962.867, 1549.221 1962.500, 1580.486 1962.500 C 1601.231 1962.500, 1608.207 1962.193, 1609.163 1961.237 C 1610.698 1959.702, 1611.580 1904.236, 1611.781 1796.500 C 1611.910 1727.024, 1611.367 1705.967, 1609.394 1703.994 C 1607.958 1702.558, 1588.145 1702.064, 1571.480 1703.048 M 2733.398 1703.013 C 2719.034 1704.031, 2714.352 1704.871, 2712.832 1706.703 C 2710.974 1708.942, 2710.841 1956.241, 2712.697 1958.097 C 2714.942 1960.342, 2727.477 1962, 2747 1962.635 C 2769.522 1963.367, 2770.449 1963.084, 2772.095 1954.964 C 2773.930 1945.916, 2774.892 1899.161, 2775.120 1808 C 2775.378 1704.747, 2775.703 1710.294, 2769.059 1704.703 C 2765.958 1702.094, 2765.458 1702.005, 2754.673 1702.148 C 2748.528 1702.230, 2738.954 1702.619, 2733.398 1703.013 M 3960.571 1703.144 C 3942.314 1704.185, 3937.535 1705.893, 3936.293 1711.824 C 3934.894 1718.502, 3935.355 1845.029, 3936.832 1860 C 3940.452 1896.675, 3948.366 1919.935, 3962.734 1936.122 C 3970.880 1945.300, 3974.069 1948.089, 3984.500 1955.162 C 4000.326 1965.892, 4019.542 1969.406, 4049.918 1967.125 C 4059.038 1966.440, 4070.499 1964.992, 4075.386 1963.907 C 4089.211 1960.838, 4102.579 1954.028, 4112.606 1944.944 C 4119.314 1938.867, 4120.468 1938.529, 4123.553 1941.741 C 4125.011 1943.258, 4127.182 1946.525, 4128.379 1949 C 4133.187 1958.945, 4136.313 1961.515, 4146.500 1963.898 C 4150.603 1964.858, 4152.397 1964.794, 4156.500 1963.545 C 4159.250 1962.707, 4162.945 1962.017, 4164.711 1962.011 C 4168.550 1961.998, 4171.513 1959.179, 4172.417 1954.681 C 4174.394 1944.836, 4174.924 1918.032, 4175.050 1821.500 C 4175.143 1750.191, 4174.843 1713.175, 4174.150 1710.527 C 4173.578 1708.342, 4172.375 1706.017, 4171.478 1705.360 C 4168.959 1703.518, 4154.101 1702.649, 4137 1703.344 C 4120.721 1704.005, 4115.071 1705.004, 4112.913 1707.604 C 4111.877 1708.853, 4111.487 1725.902, 4111.010 1790.837 C 4110.414 1871.828, 4110.391 1872.539, 4108.241 1877.294 C 4107.049 1879.931, 4105.140 1883.399, 4103.999 1885.002 C 4098.462 1892.778, 4072.725 1906.518, 4059.068 1908.990 C 4045.134 1911.512, 4028.706 1906.591, 4019.042 1897 C 4011.699 1889.713, 4008.368 1884.634, 4005.476 1876.318 C 3999.929 1860.367, 3999.781 1858.167, 3999.066 1780.500 C 3998.610 1730.999, 3998.053 1707.688, 3997.283 1705.901 C 3995.562 1701.903, 3989.860 1701.475, 3960.571 1703.144 M 3084.664 1703.871 C 3076.895 1704.380, 3074.555 1704.889, 3073.529 1706.291 C 3072.559 1707.618, 3072.048 1716.946, 3071.505 1743.283 C 3070.588 1787.734, 3071.499 1952.321, 3072.688 1957 C 3073.577 1960.500, 3073.577 1960.500, 3081.039 1961.313 C 3091.503 1962.452, 3125.891 1962.455, 3129.472 1961.316 C 3131.699 1960.608, 3132.663 1959.509, 3133.317 1956.935 C 3134.322 1952.978, 3135.749 1757.830, 3135 1726.799 C 3134.635 1711.707, 3134.148 1705.746, 3133.200 1704.799 C 3131.724 1703.324, 3101.756 1702.751, 3084.664 1703.871 M 2018.794 1753.969 C 2010.027 1756.307, 2003.734 1760.014, 1994.760 1768.127 C 1989.765 1772.643, 1985.957 1777.262, 1982.805 1782.627 C 1975.893 1794.392, 1972.448 1801.877, 1973.544 1802.746 C 1974.070 1803.162, 2001.388 1803.358, 2034.250 1803.181 C 2103.138 1802.810, 2097.135 1804.166, 2090.100 1790.572 C 2085.559 1781.797, 2078.027 1772.008, 2070.851 1765.556 C 2057.720 1753.750, 2036.950 1749.127, 2018.794 1753.969 M 1199 2110.646 C 1181.012 2111.750, 1169.378 2114.978, 1155.335 2122.759 C 1133.956 2134.604, 1122.770 2147.908, 1112.672 2173.500 C 1105.192 2192.455, 1103.327 2209.146, 1102.350 2265.836 C 1101.676 2304.970, 1101.676 2304.970, 1098.588 2305.512 C 1096.890 2305.810, 1089.837 2306.431, 1082.915 2306.893 C 1075.993 2307.355, 1069.018 2308.355, 1067.415 2309.116 C 1065.466 2310.042, 1063.506 2312.488, 1061.500 2316.500 C 1058.611 2322.278, 1058.500 2323, 1058.500 2336 C 1058.500 2352.713, 1059.783 2356.154, 1067.429 2359.943 C 1071.610 2362.014, 1074.117 2362.439, 1083.929 2362.740 C 1098.601 2363.190, 1099.810 2363.472, 1101.285 2366.778 C 1102.200 2368.827, 1102.624 2393.492, 1103 2466.500 C 1103.500 2563.500, 1103.500 2563.500, 1113.500 2564.787 C 1119 2565.495, 1130.925 2566.170, 1140 2566.287 C 1154.167 2566.470, 1156.958 2566.250, 1159.741 2564.729 C 1166.255 2561.169, 1166.223 2561.362, 1166.050 2526.768 C 1165.756 2468.217, 1167.227 2368.066, 1168.402 2366.555 C 1169.283 2365.423, 1176.416 2364.954, 1204.526 2364.179 C 1244.562 2363.076, 1246.120 2362.794, 1247.940 2356.330 C 1250.800 2346.172, 1249.989 2319.696, 1246.567 2311.507 C 1245.132 2308.072, 1245.132 2308.072, 1209.088 2307.786 C 1173.043 2307.500, 1173.043 2307.500, 1170.272 2304.726 C 1167.500 2301.952, 1167.500 2301.952, 1167.500 2261.726 C 1167.500 2209.544, 1168.171 2206.011, 1181.759 2186.661 C 1188.299 2177.347, 1192.719 2173.904, 1201.180 2171.529 C 1212.607 2168.323, 1227.888 2171.163, 1246.998 2180.043 C 1252.829 2182.753, 1260.149 2185.847, 1263.266 2186.919 C 1268.932 2188.869, 1268.932 2188.869, 1271.522 2185.792 C 1272.946 2184.100, 1275.274 2180.419, 1276.696 2177.613 C 1278.118 2174.807, 1281.455 2169.006, 1284.112 2164.722 C 1292.549 2151.120, 1293.764 2144.735, 1289.132 2138.341 C 1279.912 2125.614, 1257.351 2115.166, 1232.500 2112.116 C 1222.660 2110.908, 1206.372 2110.194, 1199 2110.646 M 666.500 2112.585 C 648.582 2115.354, 630.733 2122.713, 617.307 2132.867 C 599.843 2146.075, 587.197 2165.316, 581.395 2187.509 C 578.182 2199.799, 577.077 2219.979, 578.973 2231.732 C 582.412 2253.050, 594.639 2277.414, 611.476 2296.500 C 625.374 2312.253, 632.659 2322.751, 630.870 2324.443 C 630.667 2324.636, 626.225 2327.373, 621 2330.527 C 602.524 2341.677, 582.415 2360.066, 572.289 2375.072 C 561.428 2391.167, 552.680 2412.543, 548.923 2432.165 C 545.009 2452.608, 547.661 2474.773, 556.860 2498.500 C 570.213 2532.938, 603.828 2560.281, 643 2568.567 C 657.636 2571.663, 684.546 2572.850, 700 2571.082 C 721.582 2568.613, 746.407 2561.855, 764.741 2553.456 C 776.273 2548.173, 792.586 2537.856, 804.679 2528.197 C 810.827 2523.287, 816.604 2518.982, 817.516 2518.632 C 819.661 2517.809, 826.030 2522.361, 829.138 2526.938 C 830.437 2528.851, 834.425 2533.371, 838 2536.982 C 841.575 2540.593, 846.300 2545.562, 848.500 2548.026 C 854.534 2554.781, 872.618 2568.856, 878.745 2571.566 C 884.158 2573.960, 884.158 2573.960, 887.947 2572.027 C 890.031 2570.964, 894.383 2567.740, 897.618 2564.863 C 915.252 2549.179, 925 2538.326, 925 2534.376 C 925 2528.253, 917.910 2520.038, 879.366 2481.500 C 868.621 2470.757, 859.798 2461.090, 859.063 2459.256 C 857.829 2456.179, 857.981 2455.652, 862.006 2448.990 C 867.940 2439.168, 876.934 2416.253, 881.822 2398.500 C 888.481 2374.313, 894.033 2345.942, 894.283 2334.824 C 894.581 2321.532, 893.642 2320.296, 880.916 2317.237 C 875.737 2315.992, 866.738 2313.823, 860.918 2312.417 C 841.709 2307.774, 839.372 2309.292, 836.591 2328.213 C 833.657 2348.179, 830.362 2363.093, 823.602 2387 C 822.124 2392.225, 820.181 2399.200, 819.284 2402.500 C 817.105 2410.515, 815.292 2414, 813.302 2414 C 811.668 2414, 739.592 2342.265, 734.444 2335.516 C 731.763 2332, 731.763 2332, 734.499 2328.412 C 736.004 2326.439, 739.770 2323.222, 742.868 2321.263 C 754.904 2313.652, 780.680 2289.102, 791.031 2275.390 C 798.960 2264.887, 805.711 2251.544, 809.189 2239.500 C 811.211 2232.501, 811.494 2229.374, 811.453 2214.500 C 811.400 2195.042, 810.402 2189.928, 803.394 2173.194 C 798.064 2160.469, 793.407 2152.704, 786.680 2145.327 C 780.151 2138.167, 768.832 2129.122, 760.737 2124.596 C 752.109 2119.773, 735.092 2114.266, 723.341 2112.495 C 710.864 2110.614, 678.922 2110.665, 666.500 2112.585 M 3445.087 2116.106 C 3438.810 2116.557, 3433.185 2117.415, 3432.587 2118.013 C 3430.888 2119.711, 3431.062 2559.734, 3432.762 2562.707 C 3434.629 2565.972, 3438.999 2566.500, 3464.143 2566.500 C 3489.204 2566.500, 3488.983 2566.554, 3492.852 2559.502 C 3494.368 2556.740, 3494.500 2539.291, 3494.500 2341.500 C 3494.500 2169.989, 3494.242 2125.649, 3493.224 2122.295 C 3491.019 2115.031, 3490.878 2114.982, 3472.679 2115.143 C 3463.780 2115.221, 3451.364 2115.655, 3445.087 2116.106 M 4397.500 2115.917 C 4384.376 2117, 4381.381 2118.210, 4380.482 2122.793 C 4380.082 2124.832, 4379.562 2215.375, 4379.328 2324 C 4378.909 2517.885, 4379.407 2562.397, 4382.012 2564.008 C 4384.079 2565.285, 4414.566 2567.288, 4424.523 2566.802 C 4435.934 2566.244, 4441.755 2564.001, 4443.914 2559.330 C 4444.634 2557.774, 4445.603 2552, 4446.068 2546.500 C 4447.109 2534.177, 4447.188 2135.111, 4446.150 2125.785 C 4445.740 2122.092, 4445.166 2118.833, 4444.875 2118.542 C 4442.666 2116.333, 4412.629 2114.668, 4397.500 2115.917 M 1399.355 2128.977 C 1389.697 2131.034, 1376.893 2140.458, 1373.093 2148.308 C 1368.438 2157.924, 1369.468 2176.470, 1375.261 2187.338 C 1378.636 2193.671, 1381.571 2196.310, 1389.855 2200.458 C 1394.558 2202.814, 1396.509 2203.162, 1405.905 2203.320 C 1416.383 2203.496, 1416.754 2203.425, 1424.081 2199.804 C 1437.895 2192.978, 1445.835 2182.256, 1446.736 2169.211 C 1447.185 2162.714, 1447.033 2162.167, 1441.963 2152.080 C 1435.723 2139.662, 1430.498 2134.078, 1422.222 2130.982 C 1415.753 2128.561, 1405.520 2127.664, 1399.355 2128.977 M 2264.842 2129.389 C 2253.511 2132.442, 2239.316 2144.718, 2237.143 2153.345 C 2232.986 2169.854, 2238.972 2191.223, 2250.203 2199.966 C 2256.575 2204.928, 2261.884 2206.405, 2273.514 2206.454 C 2283.991 2206.498, 2284.854 2206.340, 2291.221 2203.209 C 2299.241 2199.264, 2306.224 2191.910, 2311.135 2182.233 C 2313.933 2176.722, 2314.496 2174.515, 2314.498 2169.057 C 2314.500 2163.272, 2313.950 2161.381, 2309.833 2153 C 2304.745 2142.642, 2299.907 2136.342, 2294.458 2132.974 C 2286.935 2128.325, 2274.420 2126.810, 2264.842 2129.389 M 1520.279 2130.059 C 1515.673 2131.465, 1505.129 2139.827, 1500.840 2145.476 C 1496.880 2150.691, 1494 2159.210, 1494 2165.710 C 1494 2171.411, 1497.280 2181.405, 1501.478 2188.500 C 1508.837 2200.934, 1516.406 2204.574, 1532.696 2203.515 C 1545.172 2202.703, 1552.162 2199.574, 1561.276 2190.718 C 1566.351 2185.786, 1567.915 2183.529, 1568.837 2179.807 C 1570.661 2172.445, 1570.272 2162.160, 1567.896 2154.922 C 1563.754 2142.303, 1559.898 2137.453, 1550 2132.407 C 1545.164 2129.941, 1543.232 2129.571, 1534 2129.339 C 1528.225 2129.194, 1522.051 2129.518, 1520.279 2130.059 M 679.275 2164.484 C 663.138 2169, 649.724 2180.691, 642.156 2196.835 C 639.725 2202.020, 639.500 2203.560, 639.500 2215 C 639.500 2229.341, 640.598 2233.183, 648.528 2246.607 C 657.845 2262.378, 674.937 2280.313, 684.811 2284.680 C 691.086 2287.455, 695.102 2287.251, 700.917 2283.862 C 707.503 2280.023, 725.266 2263.401, 733.897 2253 C 750.508 2232.981, 751.553 2230.540, 750.796 2213.518 C 750.386 2204.291, 749.960 2202.353, 747.013 2196.310 C 742.637 2187.337, 731.198 2175.960, 721.269 2170.707 C 709.703 2164.586, 689.570 2161.603, 679.275 2164.484 M 4009.908 2298.525 C 3987.506 2302.307, 3966.412 2312.286, 3949.457 2327.123 C 3946.392 2329.805, 3943.499 2332, 3943.028 2332 C 3941.212 2332, 3936.122 2323.594, 3933.474 2316.221 C 3931.949 2311.974, 3930.299 2307.981, 3929.808 2307.346 C 3928.625 2305.818, 3908.212 2304.670, 3900.545 2305.700 C 3891.006 2306.981, 3891.566 2298.694, 3891.530 2439.096 C 3891.506 2536.456, 3891.744 2558.986, 3892.814 2560.276 C 3898.660 2567.322, 3937.684 2569.435, 3948.121 2563.270 C 3953.431 2560.133, 3953.335 2561.286, 3954.199 2490.500 C 3954.642 2454.200, 3955.343 2416.317, 3955.758 2406.316 C 3956.620 2385.513, 3956.465 2385.922, 3966.588 2377.694 C 3972.269 2373.075, 3980.024 2368.817, 3988.500 2365.661 C 3990.700 2364.841, 3995.558 2363.008, 3999.295 2361.586 C 4007.761 2358.365, 4010.296 2358.357, 4017.466 2361.527 C 4020.609 2362.917, 4026.415 2364.558, 4030.369 2365.172 C 4036.889 2366.186, 4037.989 2366.099, 4042.209 2364.232 C 4050.361 2360.626, 4060.209 2343.528, 4061.976 2329.912 C 4063.824 2315.678, 4063.495 2313.260, 4059.118 2308.882 C 4056.739 2306.504, 4054.294 2305, 4052.807 2305 C 4050.654 2305, 4033.482 2300.848, 4024.007 2298.037 C 4019.958 2296.835, 4019.910 2296.837, 4009.908 2298.525 M 1746.500 2298.608 C 1745.400 2298.881, 1739.807 2300.006, 1734.072 2301.108 C 1721.667 2303.492, 1710.469 2307.637, 1703.231 2312.522 C 1695.627 2317.655, 1677.212 2327.237, 1675.835 2326.778 C 1675.189 2326.563, 1672.825 2322.853, 1670.581 2318.534 C 1664.902 2307.605, 1663.660 2306.865, 1649.169 2305.774 C 1634.693 2304.684, 1630.939 2305.416, 1629.816 2309.548 C 1627.567 2317.817, 1627.005 2346.240, 1627.002 2451.654 C 1627 2564.808, 1627 2564.808, 1637.250 2565.391 C 1650.435 2566.141, 1665.604 2566.473, 1674.602 2566.209 C 1682.912 2565.965, 1687.837 2563.365, 1689.208 2558.500 C 1689.673 2556.850, 1690.496 2518.600, 1691.037 2473.500 C 1691.629 2424.044, 1692.419 2390.285, 1693.025 2388.438 C 1694.899 2382.733, 1712.558 2368.806, 1722.755 2364.990 C 1737.976 2359.296, 1744.895 2359.049, 1759.864 2363.668 C 1769.338 2366.591, 1773.323 2366.124, 1778.894 2361.436 C 1787.965 2353.803, 1800 2329.816, 1800 2319.370 C 1800 2309.601, 1780.078 2299.752, 1758 2298.605 C 1752.775 2298.334, 1747.600 2298.335, 1746.500 2298.608 M 2521.500 2298.698 C 2513.622 2299.744, 2492.745 2304.391, 2486.400 2306.512 C 2475.861 2310.035, 2459.442 2317.524, 2451.500 2322.432 C 2447.650 2324.811, 2443.044 2327.495, 2441.265 2328.396 C 2436.215 2330.955, 2434.469 2329.191, 2430.973 2318 C 2429.341 2312.775, 2427.577 2307.835, 2427.053 2307.022 C 2426.263 2305.796, 2423.003 2305.574, 2407.935 2305.721 C 2397.944 2305.818, 2389.601 2306.066, 2389.395 2306.271 C 2389.189 2306.477, 2388.454 2312.463, 2387.760 2319.573 C 2386.161 2335.976, 2385.920 2560.332, 2387.500 2561.880 C 2388.050 2562.418, 2392.325 2563.659, 2397 2564.637 C 2406.680 2566.662, 2445.068 2567.326, 2446.890 2565.500 C 2449.229 2563.156, 2449.940 2547.944, 2450.534 2487.500 C 2451.310 2408.476, 2451.768 2399.353, 2455.307 2392.377 C 2458.229 2386.615, 2464.286 2380.871, 2474.249 2374.415 C 2483.495 2368.423, 2487.134 2366.674, 2497 2363.475 C 2504.026 2361.197, 2507.407 2360.701, 2516.500 2360.614 C 2534.652 2360.441, 2545.687 2364.574, 2555.569 2375.247 C 2570.038 2390.876, 2570.968 2398.247, 2570.983 2497.500 C 2570.992 2556.340, 2571.346 2563.151, 2574.454 2564.344 C 2578.081 2565.736, 2593.452 2567.121, 2606.792 2567.258 C 2619.815 2567.392, 2622.034 2567.167, 2626.166 2565.298 C 2634.636 2561.466, 2634.392 2562.688, 2635.307 2519.544 C 2636.270 2474.197, 2635.604 2412.181, 2634.016 2399.197 C 2631.338 2377.309, 2621.942 2352.196, 2611.085 2337.907 C 2603.877 2328.420, 2593.202 2318.737, 2584.792 2314.055 C 2575.066 2308.643, 2556.324 2302.646, 2541.125 2300.085 C 2528.896 2298.025, 2527.379 2297.917, 2521.500 2298.698 M 2039.628 2301.512 C 2011.041 2306.670, 1991.798 2316.527, 1972.845 2335.722 C 1961.663 2347.048, 1955.968 2355.167, 1948.452 2370.500 C 1934.692 2398.574, 1929.459 2428.046, 1933.464 2454.909 C 1938.853 2491.045, 1954.708 2521.428, 1979.636 2543.391 C 1990.010 2552.531, 1997.216 2556.889, 2011.927 2562.922 C 2027.878 2569.462, 2035.999 2571.081, 2056 2571.707 C 2074.582 2572.289, 2085.188 2571.378, 2100 2567.926 C 2124.145 2562.299, 2154.130 2546.230, 2160.012 2535.765 C 2162.112 2532.028, 2162.180 2531.378, 2161.012 2526.129 C 2160.324 2523.033, 2158.627 2518.253, 2157.241 2515.507 C 2153.596 2508.287, 2143.397 2495.257, 2140.027 2493.514 C 2135.350 2491.095, 2128.858 2492.610, 2115.811 2499.165 C 2101.311 2506.451, 2079.348 2513.919, 2070.160 2514.690 C 2060.159 2515.528, 2048.506 2512.936, 2037 2507.313 C 2028.917 2503.363, 2026.157 2501.315, 2018.500 2493.585 C 2004.528 2479.481, 1997.525 2467.510, 1996.819 2456.527 C 1996.500 2451.554, 1996.500 2451.554, 2073.500 2451.364 C 2153.058 2451.167, 2161.880 2450.900, 2170.744 2448.417 C 2178.232 2446.319, 2178.830 2444.973, 2179.614 2428.463 C 2180.297 2414.083, 2179.144 2399.137, 2176.455 2387.500 C 2171.598 2366.483, 2159.755 2345.563, 2144.692 2331.392 C 2127.267 2315, 2110.708 2306.898, 2083.500 2301.450 C 2068.336 2298.413, 2056.714 2298.430, 2039.628 2301.512 M 2809.621 2300.467 C 2796.127 2302.180, 2786.684 2304.423, 2777.081 2308.197 C 2746.012 2320.410, 2720.268 2348.349, 2705.230 2386.177 C 2698.524 2403.045, 2696.570 2414.273, 2696.649 2435.500 C 2696.751 2463.302, 2700.584 2481.116, 2710.719 2500.883 C 2723.504 2525.820, 2742.426 2546.099, 2763.433 2557.377 C 2771.174 2561.532, 2786.691 2567.180, 2797.430 2569.750 C 2806.464 2571.913, 2841.640 2572.182, 2853 2570.175 C 2865.038 2568.049, 2878.335 2564.322, 2887.748 2560.434 C 2904.394 2553.559, 2921.631 2541.805, 2925.183 2534.908 C 2926.993 2531.393, 2926.989 2531.178, 2925.012 2524.908 C 2923.036 2518.641, 2921.510 2515.661, 2913.625 2502.669 C 2906.360 2490.696, 2900.573 2490.050, 2881.282 2499.054 C 2864.142 2507.055, 2844.939 2513.314, 2833.913 2514.493 C 2822.408 2515.724, 2803.373 2510.491, 2792.781 2503.187 C 2783.581 2496.841, 2771.530 2482.907, 2766.261 2472.522 C 2763.031 2466.156, 2760 2457.356, 2760 2454.343 C 2760 2452.157, 2760.386 2452, 2765.750 2451.998 C 2833.766 2451.977, 2924.797 2450.870, 2929.883 2450.002 C 2944.015 2447.592, 2944.478 2446.575, 2943.696 2419.700 C 2943.095 2399.022, 2941.247 2386.520, 2937.460 2377.500 C 2933.535 2368.155, 2925.511 2353.120, 2920.846 2346.371 C 2914.944 2337.833, 2902.044 2325.142, 2893.085 2319.058 C 2870.881 2303.979, 2838.603 2296.790, 2809.621 2300.467 M 3232.500 2299.635 C 3212.304 2302.621, 3201.773 2306.310, 3181.801 2317.396 C 3174.267 2321.578, 3167.705 2325, 3167.219 2325 C 3166.734 2325, 3164.884 2322.758, 3163.109 2320.018 C 3159.559 2314.540, 3153.046 2308.728, 3148.533 2307.013 C 3143.707 2305.178, 3130.819 2304.604, 3125.123 2305.970 C 3117.823 2307.722, 3117.037 2309.641, 3115.947 2328.367 C 3115.462 2336.690, 3115.051 2436.043, 3115.033 2549.151 C 3115 2754.803, 3115 2754.803, 3126.328 2755.511 C 3140.079 2756.370, 3176.014 2755.790, 3177.750 2754.681 C 3178.736 2754.051, 3179 2733.601, 3179 2657.941 C 3179 2581.911, 3179.259 2561.978, 3180.250 2561.894 C 3183.727 2561.599, 3188.330 2562.459, 3197.459 2565.110 C 3212.029 2569.339, 3223.705 2570.992, 3239 2570.990 C 3262.598 2570.987, 3276.541 2567.725, 3297.228 2557.366 C 3312.378 2549.780, 3330.436 2533.999, 3340.660 2519.410 C 3348.722 2507.907, 3357.390 2489.377, 3360.266 2477.500 C 3367.885 2446.035, 3367.810 2425.314, 3359.965 2394.500 C 3357.397 2384.413, 3344.805 2358.904, 3337.751 2349.500 C 3318.939 2324.422, 3292.267 2307.782, 3261 2301.617 C 3252.839 2300.008, 3237.289 2298.926, 3232.500 2299.635 M 4194.500 2299.683 C 4160.663 2304.005, 4136.056 2308.993, 4123.253 2314.126 C 4120.321 2315.302, 4116.631 2317.795, 4114.892 2319.776 C 4111.456 2323.689, 4111.500 2322.615, 4113.974 2341.934 C 4115.200 2351.517, 4118.794 2360.470, 4123.051 2364.549 C 4125.784 2367.167, 4126.256 2367.269, 4133.209 2366.727 C 4137.219 2366.414, 4144.775 2365.047, 4150 2363.687 C 4162.639 2360.400, 4190.279 2357, 4204.371 2357 C 4220.042 2357, 4228.530 2360.657, 4234.925 2370.166 C 4239.330 2376.716, 4243.321 2389.739, 4243.429 2397.916 C 4243.496 2403.002, 4243.332 2403.378, 4240.749 2404.080 C 4238.998 2404.556, 4233.179 2403.879, 4224.749 2402.220 C 4213.901 2400.084, 4208.782 2399.622, 4196.500 2399.671 C 4171.146 2399.771, 4154.436 2403.441, 4133.500 2413.509 C 4116.263 2421.798, 4107.368 2430.620, 4099.508 2447.219 C 4092.335 2462.366, 4089.168 2480.827, 4090.987 2496.884 C 4093.297 2517.281, 4100.861 2533.370, 4115.414 2548.845 C 4124.432 2558.435, 4142.531 2567.878, 4157.266 2570.683 C 4166.424 2572.427, 4187.114 2572.061, 4197 2569.981 C 4213.486 2566.513, 4230.870 2558.713, 4239.313 2550.996 C 4243.529 2547.144, 4250.981 2542, 4252.347 2542 C 4252.669 2542, 4256.906 2551.117, 4259.868 2558.187 C 4261.341 2561.702, 4262.790 2563.355, 4265.666 2564.801 C 4271.507 2567.738, 4279.445 2569.368, 4281.790 2568.112 C 4282.866 2567.536, 4285.941 2566.574, 4288.623 2565.972 C 4295.116 2564.517, 4297.630 2561.910, 4300.110 2554.058 C 4302.020 2548.011, 4302.254 2543.759, 4303.113 2499.500 C 4304.783 2413.531, 4302.309 2370.996, 4294.344 2348.681 C 4287.125 2328.458, 4278.753 2317.842, 4264.635 2311.008 C 4247.168 2302.554, 4213.980 2297.195, 4194.500 2299.683 M 4626.500 2299.672 C 4605.222 2302.312, 4592.832 2305.708, 4579.602 2312.525 C 4566.878 2319.082, 4559.825 2324.436, 4548.451 2336.176 C 4525.558 2359.805, 4513.034 2388.319, 4509.921 2423.906 C 4505.814 2470.843, 4523.860 2515.761, 4558.488 2544.794 C 4573.410 2557.305, 4586.209 2563.795, 4605.500 2568.631 C 4623.925 2573.250, 4656.518 2572.931, 4676.366 2567.937 C 4684.998 2565.765, 4702.454 2559.300, 4710.084 2555.449 C 4718.050 2551.427, 4732.558 2541.231, 4736.462 2536.910 C 4740.928 2531.967, 4740.873 2529.600, 4736.053 2519.300 C 4732.342 2511.369, 4720.947 2496.541, 4716.992 2494.496 C 4715.401 2493.673, 4711.675 2493, 4708.711 2493 C 4704.261 2493, 4701.511 2493.887, 4692.911 2498.095 C 4672.808 2507.933, 4651.617 2515, 4642.218 2515 C 4625.257 2515, 4605.428 2505.695, 4592.159 2491.510 C 4580.286 2478.819, 4574.515 2468.224, 4573.338 2456.955 C 4572.720 2451.051, 4572.720 2451.051, 4619.610 2451.610 C 4680.376 2452.333, 4738.580 2450.911, 4745.179 2448.541 C 4754.381 2445.236, 4756.821 2440.830, 4757.715 2425.906 C 4758.443 2413.755, 4754.571 2390.684, 4749.172 2375 C 4737.504 2341.107, 4706.978 2312.979, 4672.087 2303.970 C 4656.541 2299.956, 4638.168 2298.224, 4626.500 2299.672 M 1312 2307 C 1308.500 2307.500, 1308.500 2307.500, 1307.882 2321 C 1306.493 2351.358, 1305.869 2459.456, 1307.013 2471.500 C 1309.170 2494.194, 1312.666 2506.791, 1321.621 2524.130 C 1331.234 2542.742, 1338.983 2550.406, 1359.096 2561.196 C 1373.264 2568.796, 1387.583 2571.916, 1408.500 2571.959 C 1423.868 2571.991, 1438.487 2570.163, 1447 2567.146 C 1458.873 2562.937, 1473.657 2555.623, 1482.745 2549.461 C 1487.986 2545.908, 1493.314 2543, 1494.586 2543 C 1497.895 2543, 1501.526 2548.301, 1503.490 2556 C 1505.929 2565.566, 1506.825 2566.552, 1514.371 2567.976 C 1520.655 2569.161, 1525.398 2568.887, 1533.243 2566.883 C 1537.914 2565.690, 1539.464 2562.894, 1540.965 2552.955 C 1542.341 2543.848, 1543.509 2341.305, 1542.302 2321 C 1541.500 2307.500, 1541.500 2307.500, 1512.891 2307.235 C 1484.282 2306.970, 1484.282 2306.970, 1483.650 2312.235 C 1483.302 2315.131, 1482.996 2344.725, 1482.971 2378 C 1482.921 2442.772, 1482.081 2466.371, 1479.530 2474.732 C 1476.596 2484.346, 1462.805 2499.105, 1451.415 2504.822 C 1444.503 2508.291, 1431.738 2510.412, 1417.500 2510.458 C 1400.354 2510.513, 1395.812 2509.020, 1387.489 2500.589 C 1376.631 2489.590, 1372.563 2477.805, 1370.892 2452.500 C 1370.311 2443.700, 1370.106 2431.325, 1370.437 2425 C 1371.284 2408.785, 1371.290 2331.248, 1370.444 2320.850 C 1370.058 2316.092, 1369.406 2311.657, 1368.996 2310.994 C 1368.587 2310.331, 1366.057 2309.347, 1363.376 2308.808 C 1357.763 2307.679, 1317.232 2306.253, 1312 2307 M 2268 2306.972 C 2244.500 2307.500, 2244.500 2307.500, 2243.882 2319 C 2243.541 2325.325, 2243.204 2382.795, 2243.132 2446.711 C 2243 2562.923, 2243 2562.923, 2246.750 2563.903 C 2259.962 2567.357, 2299.377 2568.052, 2302.542 2564.886 C 2306.084 2561.345, 2306.335 2552.883, 2306.393 2435 C 2306.425 2371.475, 2306.089 2316.463, 2305.646 2312.750 C 2304.841 2306, 2304.841 2306, 2298.170 2306.222 C 2294.502 2306.344, 2280.925 2306.682, 2268 2306.972 M 3610.500 2307.029 C 3602.800 2307.429, 3591.261 2307.811, 3584.857 2307.878 C 3576.546 2307.965, 3573.083 2308.358, 3572.756 2309.250 C 3571.846 2311.733, 3571.500 2337.711, 3571.500 2403.500 C 3571.500 2464.033, 3571.677 2471.502, 3573.334 2480.881 C 3578.921 2512.514, 3586.423 2528.461, 3604.047 2546.168 C 3611.746 2553.904, 3613.906 2555.429, 3624.137 2560.346 C 3640.998 2568.452, 3651.546 2571.183, 3667.269 2571.514 C 3684.453 2571.876, 3702.979 2570.339, 3711.500 2567.844 C 3720.648 2565.165, 3738.988 2555.771, 3744.670 2550.853 C 3753.886 2542.876, 3758.268 2542.089, 3761.879 2547.762 C 3768.614 2558.344, 3774.855 2566.100, 3778.113 2567.937 C 3781.461 2569.824, 3782.084 2569.872, 3786.613 2568.580 C 3789.301 2567.813, 3794.052 2566.891, 3797.171 2566.531 C 3804.983 2565.629, 3807.411 2563.204, 3808.866 2554.849 C 3810.564 2545.096, 3811.581 2370.419, 3810.122 2339 C 3809.496 2325.525, 3808.702 2312.801, 3808.357 2310.725 C 3807.730 2306.949, 3807.730 2306.949, 3779.115 2307.611 C 3763.377 2307.974, 3749.756 2308.653, 3748.847 2309.119 C 3747.333 2309.895, 3747.185 2316.233, 3747.090 2384.233 C 3746.970 2469.788, 3746.817 2473.499, 3743.129 2480.466 C 3738.746 2488.746, 3722.918 2502.995, 3714.493 2506.244 C 3703.699 2510.407, 3675.900 2511.779, 3665.621 2508.655 C 3650.876 2504.175, 3640.100 2485.796, 3635.921 2458 C 3635.192 2453.153, 3634.689 2426.096, 3634.500 2381.500 C 3634.338 2343.275, 3633.797 2311.162, 3633.287 2309.500 C 3632.198 2305.950, 3631.901 2305.918, 3610.500 2307.029 M 2044.178 2356.505 C 2030.520 2360.331, 2014.830 2373.461, 2005.696 2388.707 C 2001.356 2395.951, 1997.502 2406.169, 1998.671 2407.337 C 1999.243 2407.909, 2113.705 2407.046, 2116.654 2406.447 C 2118.809 2406.010, 2118.809 2406.010, 2116.803 2399.255 C 2115.700 2395.540, 2113.222 2389.481, 2111.296 2385.790 C 2105.197 2374.102, 2090.843 2361.639, 2079.155 2357.883 C 2070.396 2355.067, 2051.908 2354.339, 2044.178 2356.505 M 2809.124 2356.578 C 2798.724 2359.375, 2790.141 2364.789, 2779.973 2374.965 C 2772.072 2382.872, 2769.746 2385.951, 2766.345 2393 C 2761.436 2403.174, 2760.612 2405.642, 2761.867 2406.418 C 2763.248 2407.271, 2880.700 2407.633, 2881.547 2406.786 C 2882.670 2405.664, 2879.238 2393.128, 2875.950 2386.343 C 2872.279 2378.768, 2859.229 2365.983, 2850.435 2361.347 C 2839.194 2355.420, 2821.165 2353.339, 2809.124 2356.578 M 4625.043 2356.139 C 4615.067 2357.792, 4602.246 2364.942, 4593.376 2373.797 C 4584.672 2382.488, 4576.376 2396.561, 4575.813 2403.593 C 4575.500 2407.500, 4575.500 2407.500, 4584.250 2407.475 C 4656.022 2407.270, 4692.752 2406.810, 4693.869 2406.102 C 4696.865 2404.204, 4687.731 2383.834, 4680.343 2375.936 C 4664.648 2359.156, 4646.351 2352.606, 4625.043 2356.139 M 3222.500 2361.468 C 3209.761 2364.246, 3201.828 2368.484, 3191.655 2377.945 C 3185.874 2383.322, 3183.558 2387.585, 3180.850 2397.831 C 3179.080 2404.530, 3178.755 2409.672, 3178.279 2438.500 C 3177.534 2483.661, 3178.982 2493.387, 3187.571 2500.928 C 3195.365 2507.772, 3207.533 2510.908, 3226.500 2510.961 C 3248.419 2511.023, 3263.335 2506.619, 3274.505 2496.787 C 3286.045 2486.628, 3296.845 2469.372, 3300.540 2455.185 C 3302.406 2448.019, 3302.432 2427.700, 3300.585 2418.989 C 3294.162 2388.695, 3273.629 2367.651, 3244.500 2361.510 C 3236.079 2359.735, 3230.493 2359.724, 3222.500 2361.468 M 657.511 2372.301 C 634.005 2393.482, 622.103 2408.504, 616.547 2424 C 613.687 2431.979, 613.503 2433.358, 613.549 2446.500 C 613.592 2459.112, 613.871 2461.293, 616.356 2468.500 C 623.688 2489.757, 636.737 2502.829, 657.921 2510.141 C 664.206 2512.310, 679.367 2514.955, 685.670 2514.982 C 692.492 2515.011, 719.839 2507.640, 729.223 2503.243 C 740.686 2497.871, 765.758 2480.979, 770.257 2475.597 C 773.866 2471.279, 773.866 2471.279, 768.403 2464.423 C 765.398 2460.652, 755.181 2449.452, 745.700 2439.533 C 736.218 2429.615, 717.976 2410.157, 705.162 2396.294 C 684.933 2374.409, 681.060 2370.687, 675.772 2368.044 C 672.422 2366.370, 668.740 2365.023, 667.590 2365.051 C 666.441 2365.078, 661.905 2368.341, 657.511 2372.301 M 4189 2445.983 C 4177.224 2447.546, 4168.308 2451.968, 4160.334 2460.199 C 4153.330 2467.429, 4151.498 2472.059, 4151.510 2482.500 C 4151.525 2495.335, 4154.409 2504.098, 4160.986 2511.295 C 4164.037 2514.633, 4167.845 2517.547, 4170.836 2518.834 C 4177.135 2521.544, 4188.806 2522.938, 4195.397 2521.768 C 4205.584 2519.959, 4227.638 2506.540, 4236.851 2496.546 C 4243.688 2489.129, 4245.354 2484.342, 4244.755 2473.835 C 4243.874 2458.379, 4238.774 2451.461, 4225.240 2447.363 C 4219.478 2445.618, 4197.931 2444.797, 4189 2445.983 M 784 2712.535 C 756.630 2716.331, 733.355 2722.955, 709.500 2733.738 C 679.232 2747.420, 657.526 2763.862, 633.074 2791.630 C 613.282 2814.107, 598.679 2839.618, 589.055 2868.526 C 578.661 2899.748, 573.560 2936.128, 575.980 2961.786 C 580.576 3010.523, 595.490 3048.534, 625.883 3088.975 C 634.152 3099.978, 653.117 3118.753, 664.152 3126.861 C 695.143 3149.632, 724.813 3163.163, 757.500 3169.433 C 814.556 3180.377, 865.161 3174.581, 932.892 3149.347 C 945.670 3144.586, 958.361 3137.528, 964.083 3132 C 971.510 3124.824, 971.435 3125.788, 971.470 3038 C 971.500 2962.500, 971.500 2962.500, 969 2957.559 C 967.031 2953.667, 965.720 2952.357, 962.823 2951.386 C 959.979 2950.434, 944.836 2950.307, 895.992 2950.828 C 834.729 2951.480, 832.795 2951.559, 831.399 2953.469 C 828.323 2957.676, 827.541 2963.531, 827.521 2982.500 C 827.504 2998.223, 827.809 3002.385, 829.291 3006.632 C 832.532 3015.919, 830.711 3015.490, 867.240 3015.574 C 896.015 3015.641, 899.395 3015.819, 900.497 3017.327 C 902.070 3019.478, 903.474 3071.723, 902.109 3077.323 C 901.042 3081.701, 898.760 3084.556, 894.608 3086.703 C 890.207 3088.978, 867.367 3096.658, 859.828 3098.396 C 847.749 3101.182, 823.021 3105.053, 813.678 3105.621 C 803.176 3106.259, 784.583 3104.197, 771.795 3100.976 C 735.616 3091.863, 704.112 3069.704, 683.105 3038.593 C 656.803 2999.640, 646.750 2960.664, 652.525 2920.030 C 658.771 2876.079, 684.497 2834.234, 721.049 2808.571 C 743.275 2792.967, 763.612 2784.783, 790.619 2780.576 C 803.982 2778.495, 812.427 2778.588, 826.151 2780.969 C 851.113 2785.300, 869.425 2792.633, 895.169 2808.611 C 923.048 2825.913, 928.249 2829, 929.518 2829 C 930.177 2829, 937.212 2822.350, 945.152 2814.222 C 956.530 2802.573, 960.478 2797.792, 963.794 2791.645 C 966.107 2787.356, 968 2783.279, 968 2782.586 C 968 2779.737, 959.452 2769.700, 951.739 2763.493 C 939.473 2753.621, 928.836 2746.795, 912.851 2738.534 C 895.509 2729.572, 883.728 2724.979, 866.500 2720.461 C 834.798 2712.148, 806.435 2709.423, 784 2712.535 M 3384.500 2712.526 C 3365.866 2715.314, 3348.367 2720.595, 3339.014 2726.255 C 3321.894 2736.614, 3316.963 2741.503, 3305.990 2759 C 3299.210 2769.812, 3295.629 2777.715, 3293.020 2787.626 C 3288.240 2805.784, 3287.743 2812.108, 3287.275 2860.698 C 3286.916 2897.874, 3286.566 2907.116, 3285.478 2908.018 C 3284.702 2908.662, 3278.456 2909.345, 3270.813 2909.621 C 3254.945 2910.194, 3251.950 2910.585, 3249.453 2912.411 C 3247.670 2913.714, 3247.575 2915.207, 3247.848 2937.648 C 3248.008 2950.767, 3248.377 2962.496, 3248.669 2963.714 C 3249.414 2966.826, 3251.428 2967.231, 3269.485 2967.904 C 3285.471 2968.500, 3285.471 2968.500, 3286.178 2972.500 C 3286.567 2974.700, 3286.935 3012.050, 3286.995 3055.500 C 3287.120 3144.150, 3287.654 3160.114, 3290.597 3163.014 C 3293.437 3165.811, 3307.228 3167.264, 3326.795 3166.827 C 3345.278 3166.415, 3346.474 3166.060, 3349.890 3159.982 C 3353.326 3153.868, 3353.972 3139.561, 3354.664 3054.161 C 3355.253 2981.529, 3355.496 2972.609, 3356.933 2970.835 C 3358.462 2968.946, 3360.175 2968.820, 3391.521 2968.296 C 3426.636 2967.708, 3429.429 2967.328, 3432.446 2962.723 C 3436.026 2957.259, 3436.504 2950.245, 3434.621 2930.829 C 3433.646 2920.783, 3432.631 2912.212, 3432.365 2911.782 C 3432.099 2911.352, 3416.638 2911, 3398.006 2911 C 3378.897 2911, 3363.035 2910.584, 3361.617 2910.045 C 3360.235 2909.519, 3358.294 2907.850, 3357.302 2906.335 C 3355.625 2903.773, 3355.516 2900.500, 3355.726 2859.321 C 3355.957 2813.989, 3356.540 2805.571, 3360.007 2797.483 C 3363.089 2790.293, 3372.030 2782.071, 3382.298 2776.984 C 3389.862 2773.237, 3391.967 2772.628, 3397.298 2772.646 C 3400.709 2772.658, 3406.159 2773.450, 3409.408 2774.407 C 3416.860 2776.603, 3432.564 2783.635, 3440.822 2788.475 C 3445.213 2791.049, 3447.853 2792.003, 3449.465 2791.598 C 3454.999 2790.209, 3469.899 2770.586, 3473.534 2759.900 C 3476.512 2751.144, 3476.604 2748.104, 3474.042 2743.082 C 3468.333 2731.893, 3443.797 2719.341, 3417.500 2714.159 C 3403.466 2711.393, 3394.907 2710.969, 3384.500 2712.526 M 1892.500 2719.058 C 1883.077 2719.982, 1879.384 2721.214, 1878.596 2723.696 C 1875.993 2731.899, 1875.696 2751.165, 1875.289 2938 C 1874.873 3129.065, 1875.188 3154.746, 1878.016 3160.030 C 1880.099 3163.922, 1897.390 3167.281, 1916 3167.408 C 1935.298 3167.540, 1937.019 3166.256, 1940.691 3149 C 1942.402 3140.961, 1942.500 3129.655, 1942.500 2940.500 C 1942.500 2740.500, 1942.500 2740.500, 1939.544 2729.813 C 1937.185 2721.284, 1936.175 2719.015, 1934.544 2718.576 C 1931.614 2717.789, 1901.966 2718.129, 1892.500 2719.058 M 2034.218 2719.009 C 2029.662 2719.406, 2025.719 2719.948, 2025.453 2720.213 C 2023.566 2722.100, 2023.045 2770.947, 2023.074 2943 C 2023.105 3131.804, 2023.469 3160.450, 2025.871 3163.345 C 2027.921 3165.814, 2035.014 3166.907, 2053.049 3167.533 C 2073.478 3168.241, 2078.475 3167.584, 2081.286 3163.819 C 2086.304 3157.098, 2086.259 3158.612, 2086.672 2981.500 C 2086.884 2890.750, 2086.661 2797.825, 2086.176 2775 C 2085.355 2736.315, 2085.146 2733.039, 2083.093 2726.705 C 2081.380 2721.418, 2080.334 2719.697, 2078.381 2718.955 C 2075.545 2717.877, 2046.805 2717.912, 2034.218 2719.009 M 2677.527 2719.956 C 2677.202 2720.482, 2676.406 2728.469, 2675.757 2737.706 C 2674.900 2749.916, 2674.653 2805.268, 2674.852 2940.500 C 2675.123 3123.658, 2675.570 3161.007, 2677.516 3162.878 C 2679.134 3164.435, 2695.275 3166.050, 2715.630 3166.693 C 2734.759 3167.297, 2734.759 3167.297, 2736.452 3164.714 C 2740.963 3157.829, 2741.719 3144.840, 2742.866 3054.450 C 2743.689 2989.557, 2742.950 2994.665, 2752.705 2986.473 C 2769.875 2972.054, 2778.582 2967.801, 2797.824 2964.433 C 2807.210 2962.790, 2808.475 2962.778, 2816.002 2964.261 C 2836.695 2968.338, 2851.869 2982.108, 2857.222 3001.665 C 2857.876 3004.055, 2858.555 3033.375, 2859.025 3079.500 C 2859.771 3152.806, 2860.214 3161.642, 2863.297 3164.725 C 2864.728 3166.157, 2910.522 3168.446, 2915.963 3167.357 C 2917.673 3167.015, 2919.530 3165.878, 2920.092 3164.829 C 2922.257 3160.783, 2922.983 3138.118, 2922.991 3074.317 C 2922.999 3008.165, 2922.458 2994.331, 2919.456 2984 C 2913.973 2965.127, 2907.732 2951.749, 2899.012 2940.176 C 2880.442 2915.532, 2852.806 2902.772, 2818 2902.772 C 2796.293 2902.772, 2779.696 2907.011, 2757.995 2918.099 C 2750.567 2921.895, 2743.882 2925, 2743.140 2925 C 2742.105 2925, 2741.959 2924.008, 2742.513 2920.750 C 2743.467 2915.143, 2743.477 2904.605, 2742.608 2812.737 C 2741.957 2743.860, 2741.676 2734.206, 2740.144 2728.246 C 2738.813 2723.065, 2737.849 2721.231, 2735.958 2720.273 C 2732.926 2718.739, 2678.462 2718.443, 2677.527 2719.956 M 3516.500 2827.661 C 3510.859 2828.631, 3511 2827.762, 3511 2861.472 C 3511 2878.646, 3510.712 2896.108, 3510.359 2900.276 C 3509.598 2909.282, 3510.508 2908.790, 3492.394 2909.995 C 3480.429 2910.790, 3475.844 2912.073, 3473.085 2915.397 C 3472.159 2916.513, 3471.774 2922.689, 3471.658 2938.248 C 3471.521 2956.727, 3471.725 2959.914, 3473.184 2962.150 C 3475.122 2965.117, 3479.139 2966.338, 3492.500 2968.019 C 3509.060 2970.102, 3509.268 2970.166, 3510.196 2973.500 C 3510.655 2975.150, 3510.753 3002.600, 3510.413 3034.500 C 3510.011 3072.296, 3510.169 3097.377, 3510.868 3106.500 C 3512.733 3130.836, 3518.408 3146.104, 3530.060 3158.132 C 3535.590 3163.841, 3538.394 3165.788, 3546.609 3169.629 C 3552.049 3172.172, 3558.750 3174.924, 3561.500 3175.745 C 3567.946 3177.669, 3584.362 3177.573, 3594.119 3175.555 C 3607.879 3172.709, 3632.453 3164.811, 3642.951 3159.859 C 3660.891 3151.399, 3663.493 3148.190, 3660.663 3138.011 C 3658.810 3131.346, 3650.758 3110.406, 3647.876 3104.757 C 3646.199 3101.469, 3645.511 3101, 3642.374 3101 C 3637.731 3101, 3631.278 3102.720, 3610.574 3109.476 C 3593.347 3115.098, 3585.975 3116.231, 3582.765 3113.750 C 3579.241 3111.027, 3577.142 3104.578, 3576.011 3093 C 3574.713 3079.719, 3574.996 2970.670, 3576.332 2969.333 C 3576.789 2968.875, 3592.854 2968.275, 3612.032 2968 C 3637.583 2967.634, 3647.228 2967.174, 3648.122 2966.279 C 3648.996 2965.404, 3649.473 2957.558, 3649.803 2938.616 C 3650.334 2908.164, 3655.237 2911.575, 3610.325 2911.153 C 3582.355 2910.890, 3577.036 2910.089, 3575.887 2905.967 C 3575.509 2904.610, 3575.155 2886.978, 3575.100 2866.785 C 3575.003 2831.212, 3574.938 2830.037, 3573.011 2829.006 C 3570.924 2827.889, 3521.950 2826.724, 3516.500 2827.661 M 1161.500 2902.625 C 1142.611 2904.518, 1126.688 2908.628, 1114.500 2914.757 C 1089.152 2927.504, 1071.602 2945.666, 1057.738 2973.500 C 1043.240 3002.606, 1039.152 3041.732, 1047.079 3075.500 C 1049.717 3086.739, 1054.307 3099.920, 1057.985 3106.820 C 1062.840 3115.930, 1075.922 3132.714, 1084.700 3141.095 C 1100.751 3156.422, 1114.323 3163.930, 1137.500 3170.306 C 1153.282 3174.648, 1159.758 3175.505, 1176 3175.399 C 1189.866 3175.309, 1192.818 3174.967, 1204 3172.155 C 1235.954 3164.117, 1264.927 3149.069, 1273.021 3136.306 C 1275.764 3131.980, 1275.843 3131.559, 1274.501 3128.348 C 1273.722 3126.483, 1271.117 3122.380, 1268.712 3119.229 C 1266.307 3116.078, 1263.053 3111.113, 1261.481 3108.196 C 1258.292 3102.277, 1252.329 3096.372, 1248.594 3095.434 C 1245.436 3094.642, 1238.033 3096.819, 1224.399 3102.552 C 1200.629 3112.546, 1186.876 3115.980, 1170.568 3115.994 C 1157.322 3116.005, 1142.550 3110.222, 1130.235 3100.204 C 1120.093 3091.953, 1106.987 3068.964, 1106.196 3058.037 C 1105.779 3052.272, 1105.779 3052.272, 1160.640 3052.195 C 1262.169 3052.053, 1286.318 3050.952, 1290.169 3046.288 C 1292.389 3043.600, 1291.757 3011.871, 1289.246 3000 C 1286.965 2989.214, 1280.833 2973.064, 1274.818 2962 C 1258.351 2931.714, 1230.788 2911.522, 1197 2904.992 C 1187.369 2903.131, 1168.805 2901.893, 1161.500 2902.625 M 2503.694 2903.051 C 2492.371 2904.068, 2480.457 2906.480, 2471 2909.670 C 2442.144 2919.406, 2410.251 2947.700, 2395.822 2976.363 C 2385.760 2996.352, 2380 3019.608, 2380 3040.243 C 2380 3051.224, 2382.941 3070.189, 2386.456 3081.887 C 2389.972 3093.588, 2398.082 3110.102, 2404.496 3118.624 C 2414.312 3131.666, 2431.827 3147.379, 2446.539 3156.344 C 2464.088 3167.037, 2491.604 3175.924, 2512 3177.486 C 2533.169 3179.107, 2561.873 3168.666, 2586.974 3150.215 C 2603.099 3138.362, 2620 3118.141, 2620 3110.701 C 2620 3109.084, 2618.426 3106.764, 2615.369 3103.876 C 2612.822 3101.469, 2607.984 3096.622, 2604.619 3093.105 C 2598.921 3087.151, 2590.517 3082, 2586.500 3082 C 2583.328 3082, 2574.090 3086.979, 2569.194 3091.328 C 2562.640 3097.149, 2551.337 3104.794, 2543.257 3108.871 C 2534.446 3113.318, 2527.029 3115.002, 2515.500 3115.173 C 2497.389 3115.441, 2482.719 3109.448, 2468.647 3096.033 C 2453.323 3081.424, 2446.370 3065.304, 2445.277 3041.853 C 2444.484 3024.834, 2447.101 3015.027, 2456.798 2998.686 C 2468.588 2978.819, 2494.079 2962.974, 2514.197 2963.007 C 2527.262 2963.028, 2548.827 2972.011, 2563.500 2983.543 C 2568.104 2987.161, 2575.833 2991.602, 2578.604 2992.220 C 2582.055 2992.991, 2588.193 2988.917, 2598.297 2979.149 C 2608.142 2969.632, 2611.944 2964.029, 2611.968 2959 C 2611.975 2957.625, 2610.899 2954.178, 2609.578 2951.340 C 2606.620 2944.988, 2590.273 2928.146, 2581.119 2922.018 C 2559.728 2907.701, 2530.812 2900.618, 2503.694 2903.051 M 3078.500 2902.618 C 3046.096 2907.259, 3028.185 2911.344, 3017.278 2916.581 C 3011.367 2919.419, 3009.586 2920.849, 3007.470 2924.461 C 3004.884 2928.874, 3004.884 2928.874, 3007.523 2944.687 C 3009.071 2953.957, 3011.060 2962.362, 3012.331 2965 C 3014.500 2969.500, 3014.500 2969.500, 3020.679 2969.796 C 3024.077 2969.959, 3029.477 2969.421, 3032.679 2968.600 C 3057.385 2962.271, 3103.439 2958.862, 3115.572 2962.466 C 3120.924 2964.055, 3128.435 2970.813, 3131.392 2976.700 C 3135.634 2985.145, 3137.572 3003.459, 3134.355 3004.694 C 3133.450 3005.041, 3121.863 3004.758, 3108.605 3004.066 C 3061.614 3001.611, 3040.946 3005.480, 3016.729 3021.266 C 3001.975 3030.883, 2990.438 3047.434, 2985.548 3066 C 2982.770 3076.545, 2982.423 3094.669, 2984.780 3106.049 C 2988.663 3124.795, 2994.251 3135.052, 3008.500 3149.588 C 3027.859 3169.339, 3050.480 3180.920, 3069.824 3180.983 C 3083.320 3181.027, 3109.783 3168.345, 3128.198 3153.009 C 3132.764 3149.206, 3138.137 3145.172, 3140.138 3144.046 C 3143.618 3142.087, 3143.868 3142.074, 3145.907 3143.749 C 3147.079 3144.712, 3149.992 3149.325, 3152.379 3154 C 3155.186 3159.496, 3157.852 3163.275, 3159.922 3164.692 C 3164.401 3167.758, 3172.993 3169.341, 3180.687 3168.517 C 3188.811 3167.647, 3191.641 3165.349, 3193.022 3158.500 C 3195.520 3146.119, 3196.228 3070.279, 3194.479 3002.503 C 3193.679 2971.490, 3190.809 2956.246, 3182.893 2940.951 C 3172.943 2921.725, 3156.728 2909.288, 3135.138 2904.322 C 3128.698 2902.841, 3085.929 2901.554, 3078.500 2902.618 M 1400 2904.425 C 1384.376 2907.175, 1370.164 2914.013, 1358.278 2924.499 C 1348.534 2933.096, 1337.890 2952.209, 1335.031 2966.243 C 1333.228 2975.094, 1336.631 2993.005, 1342.774 3007 C 1347.120 3016.902, 1359.871 3031.236, 1373.215 3041.222 C 1383.029 3048.566, 1390.880 3053.014, 1414.500 3064.613 C 1444.066 3079.132, 1452.054 3084.938, 1454.623 3093.776 C 1456.827 3101.356, 1455.736 3108.245, 1451.637 3112.636 C 1448.963 3115.501, 1447.319 3116.219, 1440.500 3117.498 C 1436.100 3118.324, 1430.025 3118.998, 1427 3118.996 C 1414.481 3118.987, 1390.916 3113.493, 1380.070 3108.054 C 1372.554 3104.285, 1361.258 3101.467, 1357.473 3102.418 C 1350.867 3104.075, 1340.179 3119.998, 1338.128 3131.236 C 1336.664 3139.258, 1338.117 3143.859, 1343.738 3149 C 1348.927 3153.746, 1363.540 3162.346, 1368.542 3163.598 C 1370.169 3164.005, 1373.340 3165.151, 1375.588 3166.144 C 1382.996 3169.417, 1404.072 3173.952, 1416.602 3174.970 C 1444.216 3177.212, 1474.284 3168.789, 1494.146 3153.249 C 1502.553 3146.671, 1513.079 3134.581, 1516.516 3127.557 C 1520.382 3119.654, 1523.294 3103.219, 1522.584 3093.309 C 1521.001 3071.205, 1516.097 3059.714, 1502.263 3045.691 C 1491.396 3034.674, 1475.602 3025.412, 1444 3011.523 C 1423.537 3002.530, 1403.871 2991.923, 1401.078 2988.373 C 1398.464 2985.049, 1396.678 2979.420, 1397.366 2976.677 C 1398.367 2972.689, 1404.058 2965.128, 1407.818 2962.789 C 1411.102 2960.748, 1412.690 2960.509, 1422.500 2960.585 C 1435.992 2960.690, 1450.043 2963.403, 1468.668 2969.501 C 1481.793 2973.798, 1482.329 2973.889, 1485.858 2972.415 C 1490.786 2970.357, 1494.465 2966.737, 1499.495 2959 C 1504.018 2952.043, 1505.515 2948.196, 1506.538 2940.898 C 1507.809 2931.831, 1501.316 2922.234, 1490.046 2916.524 C 1483.411 2913.161, 1468.791 2908.419, 1457 2905.805 C 1444.981 2903.140, 1411.859 2902.338, 1400 2904.425 M 1672.500 2904.614 C 1650.798 2908.505, 1638.325 2913.247, 1623.060 2923.414 C 1595.567 2941.723, 1576.760 2971.648, 1568.957 3009.500 C 1565.660 3025.493, 1565.585 3051.863, 1568.792 3067.755 C 1575.379 3100.407, 1587.294 3122.320, 1609.719 3143.028 C 1631.398 3163.046, 1667.478 3177, 1697.561 3177 C 1722.609 3177, 1752.491 3167.256, 1778.062 3150.751 C 1792.337 3141.538, 1797.678 3133.544, 1795.165 3125.156 C 1793.890 3120.899, 1783.791 3105.366, 1778.927 3100.178 C 1777.213 3098.351, 1774.449 3096.028, 1772.784 3095.015 C 1770.033 3093.342, 1769.390 3093.304, 1765.715 3094.601 C 1763.492 3095.385, 1761.184 3096.414, 1760.586 3096.887 C 1758.331 3098.673, 1734.140 3108.869, 1726.228 3111.368 C 1716.512 3114.437, 1697.478 3116.486, 1688.017 3115.480 C 1670.625 3113.631, 1657.250 3105.901, 1645.178 3090.719 C 1635.910 3079.065, 1630.314 3066.695, 1629.758 3056.638 C 1629.500 3051.958, 1629.500 3051.958, 1715.500 3051.540 C 1810.206 3051.080, 1808.611 3051.185, 1812.672 3045.159 C 1819.022 3035.736, 1815.874 3003.606, 1806.140 2978.500 C 1790.655 2938.560, 1756.199 2910.647, 1714.872 2904.564 C 1701.924 2902.659, 1683.284 2902.680, 1672.500 2904.614 M 2216.189 2904.544 C 2196.788 2907.922, 2181.826 2915.192, 2169.973 2927 C 2161.488 2935.453, 2156.652 2944.057, 2152.830 2957.500 C 2149.464 2969.337, 2149.686 2987.328, 2153.336 2998.500 C 2156.985 3009.672, 2162.255 3018.190, 2171 3027.051 C 2183.020 3039.230, 2193.743 3046.221, 2226.473 3063.221 C 2263.331 3082.365, 2271.494 3089.221, 2271.164 3100.759 C 2270.896 3110.145, 2266.032 3114.477, 2253.296 3116.675 C 2246.122 3117.913, 2242.638 3117.970, 2232.719 3117.014 C 2220.278 3115.814, 2204.609 3111.895, 2197.293 3108.154 C 2192.205 3105.553, 2178.324 3101.030, 2175.372 3101.013 C 2174.202 3101.006, 2171.685 3101.651, 2169.780 3102.447 C 2161.213 3106.027, 2150.782 3130.028, 2153.349 3140.254 C 2154.253 3143.856, 2158.358 3147.560, 2169.381 3154.720 C 2185.409 3165.130, 2203.554 3172.677, 2221.914 3176.569 C 2232.638 3178.842, 2247.805 3178.405, 2260 3175.471 C 2305.976 3164.411, 2333.045 3139.311, 2338.184 3102.976 C 2339.841 3091.257, 2337.400 3076.499, 2331.954 3065.317 C 2327.128 3055.406, 2316.611 3043.746, 2305.688 3036.195 C 2301.623 3033.385, 2281.892 3022.980, 2261.840 3013.073 C 2241.789 3003.166, 2223.482 2993.683, 2221.158 2992 C 2213.601 2986.525, 2211.475 2980.773, 2214.457 2973.872 C 2218.667 2964.130, 2224.325 2960.011, 2233.500 2960.009 C 2244.137 2960.007, 2274.471 2966.101, 2292.500 2971.862 C 2298.343 2973.729, 2298.595 2973.731, 2302.113 2971.940 C 2309.915 2967.965, 2320.059 2953.835, 2322.075 2944.131 C 2325.379 2928.234, 2317.804 2920.430, 2290.313 2911.410 C 2271.568 2905.260, 2262.570 2903.754, 2242.500 2903.408 C 2230.008 2903.193, 2221.957 2903.540, 2216.189 2904.544 M 1686.230 2958.060 C 1676.963 2959.001, 1672.923 2960.656, 1662.069 2967.954 C 1651.900 2974.791, 1639.020 2988.260, 1634.582 2996.698 C 1629.957 3005.492, 1629.722 3005.389, 1656.106 3006.121 C 1687.437 3006.990, 1739.506 3007.125, 1746.853 3006.358 C 1751.128 3005.911, 1753 3005.291, 1753 3004.324 C 1753 2999.218, 1740.794 2982.622, 1728.929 2971.596 C 1720.359 2963.633, 1711.936 2959.312, 1703.306 2958.452 C 1700.113 2958.134, 1696.600 2957.750, 1695.500 2957.598 C 1694.400 2957.446, 1690.229 2957.655, 1686.230 2958.060 M 1154.500 2960.373 C 1150.100 2961.596, 1145.375 2963.205, 1144 2963.948 C 1138.359 2966.998, 1129.068 2974.235, 1124.244 2979.335 C 1115.297 2988.796, 1107.384 3002.784, 1109.680 3005.080 C 1110.747 3006.147, 1213.734 3006.469, 1222.882 3005.434 C 1226.463 3005.029, 1229.379 3004.175, 1229.657 3003.452 C 1231.365 2999, 1209.145 2971.517, 1198.329 2964.702 C 1187.100 2957.628, 1170.332 2955.972, 1154.500 2960.373 M 3076.182 3049.062 C 3066.857 3050.712, 3061.390 3053.744, 3055.025 3060.797 C 3051.796 3064.375, 3047.881 3069.597, 3046.327 3072.401 C 3043.747 3077.054, 3043.502 3078.374, 3043.521 3087.500 C 3043.540 3096.787, 3043.781 3097.993, 3046.899 3104.412 C 3051.145 3113.152, 3056.947 3118.806, 3064.835 3121.890 C 3073.577 3125.308, 3084.744 3124.574, 3098.272 3119.691 C 3110.721 3115.198, 3114.920 3112.701, 3123.713 3104.560 C 3133.314 3095.670, 3135.215 3091.547, 3135.803 3078.333 C 3136.599 3060.416, 3133.685 3055.097, 3120.861 3051.059 C 3114.711 3049.123, 3110.867 3048.691, 3097.500 3048.431 C 3088.700 3048.261, 3079.107 3048.545, 3076.182 3049.062 M 3753.340 3083.053 C 3739.170 3084.491, 3730.891 3089.080, 3722.525 3100.136 C 3712.572 3113.290, 3710.346 3122.722, 3713.947 3136.482 C 3715.097 3140.872, 3717.491 3146.920, 3719.268 3149.923 C 3723.969 3157.864, 3734.417 3168.017, 3741.500 3171.527 C 3747.057 3174.281, 3748.312 3174.500, 3758.500 3174.500 C 3769.069 3174.500, 3769.774 3174.363, 3776.500 3171.003 C 3790.440 3164.038, 3802.405 3148.991, 3804.982 3135.183 C 3807.223 3123.171, 3801.981 3106.675, 3792.636 3096.336 C 3782.955 3085.624, 3770.270 3081.336, 3753.340 3083.053" stroke="none" fill="#060606" fill-rule="evenodd"/></svg>