<svg xmlns="http://www.w3.org/2000/svg" width="3600" height="400" viewBox="0 0 3600 400" version="1.1"><path d="M 1791.500 2.055 C 1793.700 3.096, 1796.175 3.961, 1797 3.978 C 1797.825 3.994, 1799.973 4.906, 1801.774 6.004 C 1803.575 7.102, 1805.363 8, 1805.747 8 C 1806.131 8, 1804.995 6.675, 1803.223 5.056 C 1801.450 3.437, 1800 1.637, 1800 1.056 C 1800 0.419, 1797.523 0.032, 1793.750 0.081 C 1787.500 0.162, 1787.500 0.162, 1791.500 2.055 M 809.500 20.196 C 790.250 20.677, 769.663 20.840, 763.750 20.559 C 755.325 20.157, 753 20.328, 753 21.349 C 753 22.065, 754.013 23.580, 755.250 24.715 C 756.487 25.851, 759.750 27.909, 762.500 29.290 C 765.250 30.671, 769.201 33.509, 771.280 35.597 C 773.360 37.686, 775.385 40.543, 775.780 41.947 C 776.176 43.351, 776.500 100.525, 776.500 169 C 776.500 293.500, 776.500 293.500, 774 298.449 C 772.625 301.171, 769.899 304.667, 767.943 306.217 C 765.350 308.273, 762.370 309.370, 756.943 310.268 C 749.647 311.476, 749.494 311.562, 749.196 314.619 C 748.949 317.161, 749.320 317.853, 751.196 318.356 C 752.463 318.695, 776.472 318.979, 804.550 318.986 C 842.938 318.997, 855.898 318.702, 856.800 317.800 C 857.460 317.140, 858 315.790, 858 314.800 C 858 313.810, 857.348 313, 856.552 313 C 855.755 313, 851.584 311.888, 847.284 310.530 C 841.332 308.650, 838.599 307.156, 835.842 304.280 C 833.850 302.201, 831.509 299.085, 830.639 297.355 C 829.769 295.625, 828.536 292.250, 827.900 289.855 C 827.138 286.987, 826.530 267.833, 826.121 233.749 C 825.780 205.286, 825.837 181.999, 826.250 181.999 C 826.663 182, 827.005 182.787, 827.011 183.750 C 827.017 184.713, 828.930 188.650, 831.261 192.501 C 833.593 196.352, 837.975 203.063, 841 207.414 C 844.025 211.766, 850.042 220.315, 854.370 226.413 C 858.699 232.511, 867.472 244.025, 873.867 252 C 880.261 259.975, 889.355 270.343, 894.074 275.041 C 898.794 279.738, 907.237 287.267, 912.836 291.771 C 918.436 296.275, 926.951 302.600, 931.758 305.828 C 936.566 309.055, 944.322 313.860, 948.994 316.506 C 953.665 319.151, 962.284 323.453, 968.147 326.066 C 974.010 328.678, 983.013 332.259, 988.154 334.024 C 993.294 335.789, 1002.675 338.320, 1009 339.648 C 1015.325 340.976, 1024.775 342.759, 1030 343.609 C 1035.321 344.476, 1049.278 345.399, 1061.730 345.707 C 1075.529 346.048, 1088.803 345.808, 1096.730 345.074 C 1103.754 344.423, 1115.330 342.551, 1122.455 340.914 C 1129.581 339.278, 1136.218 337.208, 1137.205 336.314 C 1138.192 335.421, 1139 334.254, 1139 333.721 C 1139 333.151, 1136.841 332.974, 1133.750 333.291 C 1130.862 333.587, 1122.650 334.621, 1115.500 335.589 C 1107.151 336.720, 1096.061 337.351, 1084.500 337.355 C 1068.653 337.360, 1065.176 337.051, 1055.433 334.776 C 1049.346 333.355, 1037.871 329.621, 1029.933 326.478 C 1021.995 323.335, 1012.372 319.191, 1008.549 317.268 C 1004.726 315.345, 998.149 311.634, 993.935 309.020 C 989.720 306.405, 980.718 300.073, 973.930 294.947 C 967.142 289.821, 958.012 282.224, 953.640 278.064 C 949.269 273.904, 939.851 263.975, 932.710 256 C 925.569 248.025, 915.139 235.875, 909.532 229 C 903.924 222.125, 888.686 202.240, 875.668 184.811 C 862.651 167.383, 852 152.803, 852 152.412 C 852 152.021, 858.862 144.755, 867.250 136.266 C 875.638 127.777, 891.256 112.657, 901.958 102.666 C 912.660 92.675, 926.801 79.426, 933.382 73.223 C 939.964 67.021, 949.658 58.672, 954.924 54.670 C 960.191 50.667, 967.803 45.304, 971.839 42.752 C 975.876 40.200, 982.581 36.696, 986.740 34.964 C 990.900 33.233, 998.735 30.822, 1004.152 29.607 C 1009.570 28.392, 1014.511 26.889, 1015.134 26.266 C 1015.756 25.644, 1016.001 24.445, 1015.677 23.601 C 1015.161 22.256, 1009.423 22.059, 968.794 21.996 C 943.333 21.956, 920.115 21.676, 917.201 21.374 C 914.286 21.071, 911.284 21.061, 910.529 21.351 C 909.750 21.649, 909.371 22.702, 909.653 23.780 C 909.983 25.044, 912.267 26.431, 916.451 27.908 C 919.917 29.131, 923.950 31.382, 925.414 32.910 C 926.877 34.438, 928.332 37.274, 928.647 39.212 C 929.018 41.501, 928.626 43.987, 927.526 46.304 C 926.595 48.266, 922.330 54.063, 918.048 59.185 C 913.766 64.308, 895.691 83.398, 877.881 101.606 C 860.072 119.815, 842.526 137.470, 838.890 140.840 C 835.255 144.210, 831.205 148.546, 829.890 150.477 C 828.576 152.407, 827.187 153.989, 826.805 153.993 C 826.422 153.997, 826.295 131.838, 826.522 104.750 C 826.750 77.662, 827.415 52.125, 828 48 C 828.585 43.875, 829.971 38.625, 831.081 36.333 C 832.190 34.041, 834.231 31.424, 835.615 30.517 C 836.998 29.610, 841.139 28.231, 844.815 27.451 C 848.492 26.672, 853.139 26.027, 855.143 26.017 C 857.531 26.006, 858.995 25.455, 859.393 24.418 C 859.727 23.548, 860 21.973, 860 20.918 C 860 19.178, 859.279 19.015, 852.250 19.161 C 847.987 19.250, 828.750 19.715, 809.500 20.196 M 1048.969 76.508 C 1043.727 77.224, 1034.425 79.008, 1028.298 80.473 C 1022.171 81.938, 1014.041 84.630, 1010.231 86.456 C 1006.421 88.282, 998.623 92.847, 992.902 96.601 C 986.930 100.519, 978.841 107.061, 973.907 111.962 C 969.181 116.658, 963.381 123.380, 961.018 126.900 C 958.655 130.419, 955.223 135.951, 953.391 139.193 C 951.559 142.434, 948.932 148.658, 947.553 153.022 C 946.174 157.386, 944.531 165.130, 943.903 170.229 C 943.274 175.328, 943.017 184, 943.332 189.500 C 943.647 195, 944.820 203.034, 945.938 207.354 C 947.057 211.674, 949.945 219.324, 952.356 224.354 C 954.768 229.384, 959.023 236.709, 961.813 240.630 C 964.602 244.552, 969.429 250.509, 972.538 253.868 C 975.648 257.227, 980.809 261.942, 984.007 264.346 C 987.205 266.750, 994.720 271.470, 1000.706 274.835 C 1006.692 278.199, 1015.638 282.286, 1020.586 283.917 C 1025.533 285.547, 1034.963 287.787, 1041.541 288.893 C 1048.118 290, 1058.900 291.206, 1065.500 291.574 C 1074.416 292.071, 1080.456 291.815, 1089 290.578 C 1095.325 289.662, 1104.678 287.814, 1109.783 286.471 C 1114.889 285.128, 1122.423 282.479, 1126.526 280.583 C 1130.628 278.688, 1137.217 274.969, 1141.168 272.319 C 1145.120 269.668, 1152.990 263.073, 1158.658 257.662 C 1164.326 252.251, 1170.988 244.778, 1173.462 241.057 C 1175.937 237.335, 1179.533 230.962, 1181.454 226.895 C 1183.375 222.828, 1186.044 215.225, 1187.384 210 C 1188.725 204.775, 1190.398 196.068, 1191.102 190.652 C 1192.102 182.963, 1192.132 178.578, 1191.237 170.652 C 1190.606 165.068, 1189.183 157.879, 1188.073 154.675 C 1186.964 151.471, 1184.025 144.563, 1181.543 139.323 C 1179.061 134.084, 1175.047 127.017, 1172.622 123.619 C 1170.197 120.220, 1163.953 113.367, 1158.746 108.390 C 1153.539 103.412, 1145.997 97.157, 1141.985 94.490 C 1137.973 91.823, 1130.823 87.988, 1126.095 85.968 C 1121.368 83.948, 1113.900 81.350, 1109.500 80.194 C 1105.100 79.039, 1096.422 77.398, 1090.216 76.547 C 1084.009 75.696, 1074.334 75.046, 1068.716 75.103 C 1063.097 75.160, 1054.211 75.792, 1048.969 76.508 M 2198 76.111 C 2198 76.327, 2196.178 81.855, 2193.952 88.396 C 2191.725 94.937, 2184.493 112.487, 2177.880 127.395 C 2171.267 142.303, 2162.025 164.175, 2157.342 176 C 2152.658 187.825, 2143.644 209.650, 2137.310 224.500 C 2130.975 239.350, 2123.252 256.445, 2120.146 262.490 C 2116.814 268.976, 2112.656 275.390, 2110 278.140 C 2107.118 281.125, 2104.062 283.194, 2101.500 283.895 C 2099.300 284.496, 2096.717 284.991, 2095.760 284.994 C 2094.222 284.999, 2094.187 284.796, 2095.455 283.250 C 2096.244 282.288, 2098.736 279.250, 2100.994 276.500 C 2103.251 273.750, 2106.616 268.323, 2108.472 264.440 C 2110.328 260.557, 2112.544 254.691, 2113.395 251.405 C 2114.247 248.119, 2115.450 240.946, 2116.069 235.465 C 2116.689 229.984, 2116.915 222.698, 2116.572 219.273 C 2116.229 215.848, 2115.016 209.998, 2113.877 206.273 C 2112.737 202.548, 2110.406 196.856, 2108.696 193.624 C 2106.965 190.353, 2102.332 184.493, 2098.243 180.404 C 2094.203 176.365, 2086.801 170.319, 2081.793 166.969 C 2076.786 163.620, 2067.471 158.378, 2061.094 155.322 C 2054.717 152.265, 2043.425 147.551, 2036 144.845 C 2028.575 142.140, 2017.957 137.719, 2012.404 135.021 C 2006.053 131.934, 2001.155 128.802, 1999.199 126.574 C 1997.489 124.627, 1995.549 121.226, 1994.887 119.017 C 1993.969 115.952, 1993.956 114.089, 1994.834 111.159 C 1995.467 109.046, 1997.006 105.803, 1998.254 103.951 C 1999.502 102.099, 2002.460 99.107, 2004.828 97.301 C 2007.196 95.495, 2012.366 93.001, 2016.316 91.760 C 2022.047 89.959, 2025.627 89.528, 2034.014 89.633 C 2039.966 89.707, 2047.342 90.471, 2051.014 91.395 C 2054.581 92.292, 2060.417 94.483, 2063.983 96.263 C 2068.302 98.419, 2073.159 102.171, 2078.530 107.500 C 2083.286 112.218, 2087.500 117.449, 2088.802 120.250 C 2090.396 123.678, 2091.587 125, 2093.082 125 C 2095.100 125, 2095.138 124.673, 2094.553 112.250 C 2094.223 105.237, 2093.694 94.871, 2093.378 89.214 C 2092.819 79.222, 2092.741 78.950, 2090.651 79.689 C 2089.468 80.108, 2071.850 80.481, 2051.500 80.518 C 2014.500 80.587, 2014.500 80.587, 2004.500 83.343 C 1999 84.859, 1990.896 87.837, 1986.490 89.962 C 1981.391 92.421, 1975.968 96.127, 1971.564 100.162 C 1966.387 104.906, 1963.926 108.092, 1961.776 112.834 C 1959.510 117.832, 1958.900 120.633, 1958.882 126.115 C 1958.870 129.965, 1959.598 135.283, 1960.514 138.043 C 1961.529 141.097, 1964.098 145.134, 1967.157 148.482 C 1969.901 151.484, 1974.817 155.948, 1978.081 158.401 C 1981.345 160.855, 1987.031 164.287, 1990.717 166.029 C 1994.403 167.770, 2005.537 172.461, 2015.459 176.453 C 2025.382 180.445, 2039.125 186.483, 2046 189.870 C 2052.875 193.258, 2061.511 198.289, 2065.191 201.050 C 2068.871 203.811, 2073.489 208.260, 2075.453 210.936 C 2077.417 213.612, 2079.987 217.978, 2081.164 220.638 C 2082.657 224.012, 2083.451 228.300, 2083.792 234.818 C 2084.097 240.650, 2083.794 246.291, 2082.986 249.830 C 2082.273 252.949, 2080.186 258.425, 2078.349 262 C 2076.511 265.575, 2073.023 271.024, 2070.599 274.110 C 2068.135 277.245, 2063.138 281.749, 2059.271 284.320 C 2055.466 286.850, 2048.843 290.325, 2044.554 292.042 C 2040.265 293.759, 2031.748 296.358, 2025.628 297.817 C 2016.265 300.048, 2012.358 300.454, 2001 300.376 C 1992.992 300.320, 1983.839 299.598, 1978.500 298.600 C 1973.550 297.675, 1965 295.540, 1959.500 293.855 C 1954 292.170, 1945.225 289.016, 1940 286.847 C 1934.775 284.678, 1929.865 282.275, 1929.090 281.506 C 1927.879 280.306, 1928.796 278.925, 1935.590 271.721 C 1939.940 267.109, 1945.201 260.447, 1947.281 256.917 C 1949.360 253.388, 1951.792 248.025, 1952.685 245 C 1953.720 241.494, 1954.299 235.873, 1954.282 229.495 C 1954.263 222.382, 1953.626 217.196, 1952.078 211.552 C 1950.880 207.186, 1948.019 199.988, 1945.719 195.557 C 1942.775 189.884, 1939.313 185.261, 1934.019 179.935 C 1929.884 175.774, 1923.241 170.229, 1919.258 167.613 C 1915.275 164.997, 1907.799 160.637, 1902.645 157.924 C 1897.490 155.210, 1883.424 149.235, 1871.387 144.645 C 1859.349 140.056, 1847.567 135.313, 1845.205 134.107 C 1842.843 132.900, 1839.156 130.329, 1837.013 128.393 C 1834.870 126.457, 1832.356 122.880, 1831.426 120.445 C 1829.964 116.618, 1829.908 115.399, 1831.012 111.456 C 1831.791 108.674, 1834.046 104.940, 1836.793 101.885 C 1839.587 98.778, 1843.994 95.476, 1848.399 93.191 C 1855.500 89.506, 1855.500 89.506, 1871.500 89.503 C 1885.604 89.500, 1888.329 89.777, 1894.500 91.835 C 1898.350 93.119, 1903.673 95.347, 1906.329 96.787 C 1908.986 98.226, 1913.565 102.003, 1916.506 105.179 C 1919.446 108.356, 1923.277 113.848, 1925.018 117.385 C 1926.993 121.397, 1928.951 124.015, 1930.226 124.349 C 1932.157 124.854, 1932.233 124.575, 1931.621 119.191 C 1931.266 116.061, 1930.686 105.513, 1930.333 95.750 C 1929.979 85.987, 1929.592 78, 1929.471 78 C 1929.350 78, 1927.507 78.608, 1925.376 79.352 C 1923.244 80.095, 1917.450 81.003, 1912.500 81.369 C 1906.567 81.807, 1898.728 81.491, 1889.500 80.440 C 1880.313 79.394, 1872.234 79.065, 1866 79.484 C 1860.775 79.835, 1853.152 80.806, 1849.061 81.641 C 1844.969 82.476, 1838.048 84.463, 1833.681 86.057 C 1829.313 87.651, 1822.508 90.969, 1818.559 93.431 C 1814.610 95.892, 1809.100 100.315, 1806.315 103.261 C 1803.529 106.206, 1800.573 109.940, 1799.747 111.558 C 1798.920 113.176, 1797.739 116.885, 1797.122 119.799 C 1796.505 122.714, 1796 126.861, 1796 129.014 C 1796 131.168, 1796.726 135.083, 1797.614 137.715 C 1798.501 140.347, 1800.808 144.664, 1802.741 147.308 C 1804.674 149.952, 1809.004 154.340, 1812.363 157.058 C 1815.722 159.776, 1821.402 163.533, 1824.985 165.408 C 1828.568 167.282, 1837.575 171.278, 1845 174.287 C 1852.425 177.296, 1862.775 181.653, 1868 183.969 C 1873.225 186.285, 1882.675 190.825, 1889 194.060 C 1895.325 197.294, 1902.900 201.920, 1905.833 204.339 C 1908.766 206.758, 1912.970 210.921, 1915.175 213.589 C 1917.380 216.257, 1920.045 220.128, 1921.097 222.190 C 1922.149 224.252, 1923.682 228.522, 1924.505 231.680 C 1925.327 234.837, 1926 240.844, 1926 245.029 C 1926 249.213, 1925.329 254.895, 1924.510 257.655 C 1923.690 260.415, 1921.662 264.546, 1920.004 266.836 C 1918.345 269.126, 1916.379 271, 1915.635 271 C 1914.890 271, 1912.306 269.280, 1909.891 267.178 C 1907.476 265.076, 1900.659 259.451, 1894.741 254.678 C 1888.824 249.905, 1883.762 246, 1883.491 246 C 1883.221 246, 1883 247.712, 1883 249.804 C 1883 252.284, 1883.994 255.156, 1885.856 258.054 C 1887.427 260.499, 1891.835 265.425, 1895.651 269 C 1899.468 272.575, 1903.633 276.327, 1904.908 277.337 C 1906.190 278.353, 1906.840 279.549, 1906.363 280.012 C 1905.888 280.473, 1902.034 282.221, 1897.799 283.896 C 1893.563 285.570, 1887.263 287.401, 1883.799 287.963 C 1880.334 288.525, 1875.181 288.988, 1872.347 288.992 C 1869.512 288.997, 1862.987 288.151, 1857.847 287.113 C 1852.706 286.076, 1844.656 283.698, 1839.958 281.829 C 1835.260 279.959, 1828.285 276.347, 1824.458 273.802 C 1820.631 271.256, 1814.100 266.271, 1809.945 262.723 C 1805.790 259.176, 1800.052 253.335, 1797.194 249.743 C 1794.336 246.152, 1791.323 242.954, 1790.499 242.638 C 1789.523 242.264, 1789.004 242.663, 1789.012 243.781 C 1789.018 244.727, 1789.877 248.977, 1790.921 253.226 C 1791.964 257.475, 1793.331 265.125, 1793.959 270.226 C 1794.587 275.327, 1795.314 281.300, 1795.575 283.500 C 1796.050 287.500, 1796.050 287.500, 1805.775 289.757 C 1811.124 290.998, 1821.800 293.419, 1829.500 295.137 C 1842.415 298.019, 1845.011 298.268, 1863 298.355 C 1875.239 298.414, 1884.920 297.970, 1889 297.163 C 1892.575 296.456, 1898.650 294.965, 1902.500 293.851 C 1906.350 292.736, 1911.439 290.871, 1913.810 289.705 C 1917.333 287.973, 1918.428 287.811, 1919.810 288.819 C 1920.739 289.498, 1924.650 291.543, 1928.500 293.365 C 1932.350 295.186, 1940.675 298.518, 1947 300.768 C 1953.325 303.018, 1962.775 305.999, 1968 307.392 C 1973.225 308.785, 1981.313 310.392, 1985.974 310.962 C 1990.634 311.533, 2000.589 312, 2008.094 312 C 2017.265 312, 2025.637 311.332, 2033.620 309.964 C 2040.154 308.844, 2048.875 307.020, 2053 305.909 C 2057.125 304.799, 2065.208 301.647, 2070.962 298.906 C 2076.716 296.164, 2083.784 292.138, 2086.669 289.960 C 2089.554 287.782, 2092.158 286, 2092.457 286 C 2092.756 286, 2093 287.125, 2093 288.500 C 2093 289.875, 2093.338 291.007, 2093.750 291.015 C 2094.162 291.023, 2104.850 291.073, 2117.500 291.126 C 2130.150 291.179, 2141.048 291.172, 2141.719 291.111 C 2142.389 291.050, 2142.715 290.421, 2142.444 289.714 C 2142.172 289.007, 2140.346 287.564, 2138.386 286.509 C 2136.426 285.453, 2133.962 283.496, 2132.911 282.160 C 2131.860 280.824, 2131 278.392, 2131 276.756 C 2131 275.120, 2133.069 268.993, 2135.597 263.141 C 2138.125 257.288, 2140.773 251.893, 2141.481 251.151 C 2142.547 250.035, 2151.639 249.930, 2194.233 250.540 C 2245.698 251.276, 2245.698 251.276, 2251.950 263.899 C 2255.864 271.802, 2258.071 277.440, 2257.851 278.977 C 2257.646 280.407, 2256.082 282.384, 2254.102 283.716 C 2252.049 285.096, 2249.203 286, 2246.911 286 C 2244.825 286, 2242.888 286.372, 2242.607 286.826 C 2242.326 287.281, 2242.352 288.631, 2242.665 289.826 C 2243.233 292, 2243.233 292, 2319.510 292 C 2388.312 292, 2395.846 291.844, 2396.396 290.410 C 2396.732 289.535, 2396.753 288.410, 2396.444 287.910 C 2396.135 287.409, 2393.644 287, 2390.909 287 C 2388.174 287, 2384.263 286.302, 2382.218 285.449 C 2380.173 284.596, 2377.029 282.475, 2375.231 280.734 C 2373.433 278.994, 2371.548 275.979, 2371.043 274.035 C 2370.530 272.059, 2370.009 232.124, 2369.862 183.500 C 2369.666 118.739, 2369.897 95.959, 2370.764 94.382 C 2371.405 93.217, 2373.351 91.980, 2375.089 91.632 C 2376.828 91.284, 2381.367 91, 2385.178 91 C 2388.988 91, 2395.344 91.721, 2399.303 92.602 C 2403.261 93.483, 2409.300 95.563, 2412.722 97.225 C 2416.430 99.026, 2420.933 102.350, 2423.870 105.456 C 2426.580 108.321, 2430.002 113.044, 2431.475 115.952 C 2432.949 118.859, 2434.787 124.222, 2435.560 127.869 C 2436.333 131.516, 2436.973 136.840, 2436.983 139.701 C 2436.992 142.561, 2436.494 147.286, 2435.875 150.201 C 2435.256 153.115, 2433.859 157.406, 2432.771 159.736 C 2431.683 162.066, 2429.001 165.764, 2426.810 167.955 C 2424.620 170.145, 2420.504 173.073, 2417.664 174.460 C 2414.824 175.848, 2408.450 177.877, 2403.500 178.970 C 2398.185 180.143, 2390.712 180.966, 2385.250 180.978 C 2380.162 180.990, 2376.010 181.338, 2376.022 181.750 C 2376.034 182.162, 2376.822 183.423, 2377.772 184.552 C 2378.723 185.681, 2381.085 187.644, 2383.021 188.915 C 2384.958 190.186, 2389.008 194.390, 2392.021 198.257 C 2395.035 202.124, 2404.875 214.561, 2413.889 225.894 C 2422.903 237.227, 2436.259 254.375, 2443.568 264 C 2450.878 273.625, 2459.028 283.880, 2461.680 286.789 C 2466.500 292.077, 2466.500 292.077, 2527.351 292.104 C 2560.819 292.119, 2588.339 291.989, 2588.506 291.816 C 2588.673 291.642, 2588.965 290.616, 2589.155 289.536 C 2589.450 287.857, 2588.712 287.455, 2584.060 286.767 C 2581.067 286.324, 2577.258 285.167, 2575.595 284.195 C 2573.932 283.224, 2571.673 280.893, 2570.577 279.015 C 2568.621 275.667, 2568.585 273.849, 2568.735 185.858 C 2568.871 106.396, 2569.068 95.768, 2570.461 93.075 C 2571.326 91.402, 2573.354 89.351, 2574.967 88.517 C 2576.581 87.683, 2579.733 87, 2581.972 87 C 2585.356 87, 2586.237 86.573, 2587.194 84.473 C 2587.896 82.932, 2587.986 81.595, 2587.423 81.046 C 2586.915 80.552, 2567.937 80.024, 2545.250 79.874 C 2516.601 79.684, 2503.668 79.932, 2502.915 80.685 C 2502.319 81.281, 2501.981 82.796, 2502.165 84.052 C 2502.448 85.981, 2503.469 86.531, 2508.760 87.606 C 2512.204 88.306, 2516.311 89.797, 2517.887 90.920 C 2519.464 92.042, 2521.596 94.657, 2522.627 96.730 C 2524.415 100.329, 2524.500 104.492, 2524.500 188.500 C 2524.500 269.114, 2524.359 276.758, 2522.816 279.573 C 2521.890 281.263, 2520.386 283.265, 2519.473 284.022 C 2518.042 285.210, 2517.176 285.064, 2513.158 282.960 C 2510.596 281.619, 2504.174 276.184, 2498.886 270.884 C 2493.598 265.583, 2476.870 245.750, 2461.713 226.811 C 2446.555 207.872, 2432.756 190.880, 2431.047 189.051 C 2429.339 187.222, 2428.136 185.531, 2428.373 185.293 C 2428.611 185.055, 2431.437 184.189, 2434.653 183.368 C 2437.869 182.547, 2444.773 179.815, 2449.995 177.296 C 2457.348 173.750, 2460.978 171.227, 2466.086 166.109 C 2470.902 161.284, 2473.326 157.880, 2475.063 153.500 C 2477.052 148.485, 2477.448 145.695, 2477.472 136.500 C 2477.498 126.237, 2477.293 125.065, 2474.403 119 C 2472.699 115.425, 2469.143 110.108, 2466.501 107.184 C 2463.858 104.260, 2459.014 100.047, 2455.735 97.820 C 2452.457 95.594, 2446.877 92.459, 2443.337 90.853 C 2439.796 89.248, 2432.219 86.828, 2426.498 85.477 C 2419.452 83.812, 2410.680 82.705, 2399.299 82.044 C 2390.059 81.507, 2365.094 80.895, 2343.819 80.682 C 2322.545 80.470, 2304.611 80.622, 2303.966 81.021 C 2303.082 81.567, 2303.074 82.270, 2303.932 83.873 C 2304.720 85.346, 2306.059 86.013, 2308.285 86.044 C 2310.053 86.068, 2313.217 86.700, 2315.316 87.449 C 2317.415 88.197, 2320.066 89.640, 2321.208 90.655 C 2322.349 91.670, 2324.340 94.750, 2325.632 97.500 C 2327.980 102.500, 2327.980 102.500, 2327.985 186.500 C 2327.987 241.227, 2327.629 271.796, 2326.956 274.219 C 2326.388 276.264, 2324.775 279.302, 2323.373 280.969 C 2321.970 282.636, 2320.014 284, 2319.025 284 C 2318.037 284, 2315.561 282.313, 2313.523 280.250 C 2311.485 278.188, 2307.520 273.126, 2304.711 269.002 C 2301.903 264.879, 2294.005 250.254, 2287.161 236.502 C 2280.318 222.751, 2269.674 201.150, 2263.510 188.500 C 2257.345 175.850, 2244.865 150.200, 2235.776 131.500 C 2226.688 112.800, 2217.344 93.107, 2215.012 87.739 C 2212.680 82.370, 2210.362 77.724, 2209.860 77.414 C 2209.359 77.104, 2206.485 76.596, 2203.474 76.285 C 2200.463 75.974, 2198 75.896, 2198 76.111 M 1238.500 80.115 C 1229.700 80.453, 1215.889 80.790, 1207.809 80.865 C 1199.729 80.939, 1192.862 81.414, 1192.549 81.920 C 1192.237 82.426, 1193.131 83.745, 1194.537 84.851 C 1195.944 85.957, 1198.469 87.164, 1200.149 87.533 C 1201.829 87.902, 1204.893 89.893, 1206.958 91.958 C 1209.022 94.022, 1210.966 97.014, 1211.277 98.606 C 1211.587 100.198, 1211.636 130.300, 1211.386 165.500 C 1211.135 200.700, 1210.819 239.639, 1210.685 252.032 C 1210.462 272.448, 1210.252 274.889, 1208.446 278.032 C 1207.240 280.129, 1204.683 282.374, 1201.976 283.711 C 1199.514 284.928, 1196.980 285.745, 1196.344 285.529 C 1195.708 285.312, 1194.398 286.007, 1193.433 287.074 C 1192.468 288.140, 1191.986 289.319, 1192.362 289.695 C 1192.737 290.070, 1198.547 290.447, 1205.272 290.532 C 1211.997 290.616, 1226.226 290.793, 1236.890 290.925 C 1252.154 291.114, 1256.460 290.881, 1257.125 289.832 C 1257.589 289.100, 1257.976 287.988, 1257.985 287.361 C 1257.993 286.735, 1256.313 285.922, 1254.250 285.555 C 1252.188 285.188, 1247.947 284.189, 1244.827 283.334 C 1241.279 282.362, 1237.946 280.604, 1235.929 278.640 C 1234.156 276.913, 1232.017 273.925, 1231.176 272 C 1229.871 269.011, 1229.561 257.922, 1229.050 196 C 1228.720 156.125, 1228.501 123.386, 1228.563 123.246 C 1228.625 123.106, 1231.111 126.161, 1234.088 130.035 C 1237.064 133.909, 1246.475 145.947, 1255 156.787 C 1263.525 167.626, 1272.750 179.478, 1275.500 183.124 C 1278.250 186.770, 1284.608 195.117, 1289.628 201.674 C 1294.648 208.231, 1301.130 215.730, 1304.031 218.338 C 1309.306 223.081, 1309.306 223.081, 1312.240 220.290 C 1313.853 218.756, 1318.668 212.775, 1322.939 207 C 1327.211 201.225, 1337.207 187.050, 1345.152 175.500 C 1353.098 163.950, 1364.572 147.525, 1370.650 139 C 1376.728 130.475, 1382.455 122.037, 1383.376 120.250 C 1384.298 118.463, 1385.550 117, 1386.159 117 C 1386.964 117, 1387.088 136.286, 1386.612 187.750 C 1386.252 226.663, 1385.687 262.325, 1385.355 267 C 1385.024 271.675, 1384.112 276.757, 1383.328 278.294 C 1382.544 279.831, 1380.462 281.967, 1378.701 283.040 C 1376.941 284.114, 1373.839 284.994, 1371.809 284.996 C 1369.779 284.998, 1367.846 285.441, 1367.513 285.979 C 1367.180 286.518, 1367.366 287.816, 1367.927 288.864 C 1368.896 290.675, 1370.825 290.790, 1406.724 291.184 C 1432.399 291.465, 1444.740 291.262, 1445.249 290.549 C 1445.661 289.972, 1445.883 288.846, 1445.744 288.047 C 1445.605 287.247, 1443.527 286.115, 1441.121 285.530 C 1438.230 284.825, 1435.835 283.367, 1434.038 281.215 C 1432.546 279.427, 1430.712 276.285, 1429.964 274.232 C 1428.865 271.219, 1428.535 253.499, 1428.251 182.199 C 1427.900 93.898, 1427.900 93.898, 1430.032 90.448 C 1431.216 88.533, 1433.241 86.775, 1434.583 86.498 C 1435.912 86.224, 1438.125 85.766, 1439.500 85.481 C 1441.087 85.151, 1442 84.281, 1442 83.098 C 1442 82.010, 1441.063 80.982, 1439.750 80.630 C 1438.513 80.299, 1422.789 80.021, 1404.809 80.014 C 1385.129 80.005, 1371.883 80.380, 1371.528 80.954 C 1371.204 81.479, 1371.225 83.049, 1371.575 84.444 C 1372.040 86.294, 1373.197 87.246, 1375.856 87.965 C 1377.860 88.507, 1380.513 89.662, 1381.750 90.532 C 1383.058 91.451, 1384 93.156, 1384 94.605 C 1384 95.976, 1381.750 100.836, 1378.999 105.406 C 1376.249 109.977, 1370.157 119.067, 1365.461 125.608 C 1360.766 132.149, 1354.155 141.550, 1350.771 146.500 C 1347.386 151.450, 1340.766 160.918, 1336.059 167.540 C 1331.351 174.161, 1326.816 180.617, 1325.980 181.886 C 1324.473 184.172, 1324.381 184.094, 1315.880 173.347 C 1311.161 167.381, 1303.103 157.325, 1297.974 151 C 1292.845 144.675, 1283.183 132.975, 1276.502 125 C 1269.822 117.025, 1262.204 107.575, 1259.575 104 C 1256.945 100.425, 1254.137 96.230, 1253.334 94.678 C 1252.248 92.579, 1252.159 91.513, 1252.988 90.514 C 1253.601 89.776, 1256.017 88.272, 1258.357 87.172 C 1260.698 86.072, 1263.113 84.569, 1263.724 83.833 C 1264.335 83.096, 1264.985 81.852, 1265.168 81.069 C 1265.423 79.975, 1264.224 79.627, 1260 79.572 C 1256.975 79.532, 1247.300 79.777, 1238.500 80.115 M 1629.358 80.229 C 1629.110 80.630, 1629.361 81.807, 1629.916 82.844 C 1630.471 83.880, 1633.373 85.926, 1636.366 87.390 C 1639.358 88.854, 1642.079 90.765, 1642.414 91.636 C 1642.756 92.528, 1641.621 95.682, 1639.815 98.860 C 1638.052 101.962, 1634.593 107.425, 1632.129 111 C 1629.665 114.575, 1625.781 119.975, 1623.499 123 C 1621.216 126.025, 1614.220 135.925, 1607.952 145 C 1601.683 154.075, 1593.279 165.957, 1589.277 171.405 C 1585.275 176.853, 1582 181.690, 1582 182.155 C 1582 182.620, 1581.377 183, 1580.615 183 C 1579.853 183, 1578.424 181.762, 1577.439 180.250 C 1576.454 178.738, 1571.114 171.843, 1565.574 164.928 C 1560.033 158.013, 1551.377 146.988, 1546.339 140.428 C 1541.300 133.868, 1533.500 124.225, 1529.006 119 C 1524.512 113.775, 1518.868 106.773, 1516.465 103.439 C 1514.061 100.106, 1511.655 96.223, 1511.118 94.810 C 1510.405 92.935, 1510.513 91.712, 1511.518 90.277 C 1512.276 89.196, 1514.904 87.545, 1517.359 86.607 C 1519.815 85.669, 1522.099 84.185, 1522.435 83.308 C 1522.772 82.431, 1522.803 81.470, 1522.504 81.171 C 1522.206 80.873, 1509.033 80.702, 1493.231 80.792 C 1477.429 80.883, 1462.138 80.966, 1459.250 80.978 C 1454.136 80.999, 1454 81.075, 1454 83.881 C 1454 86.456, 1454.472 86.882, 1458.445 87.882 C 1460.889 88.497, 1464.152 90.087, 1465.695 91.414 C 1468.500 93.827, 1468.500 93.827, 1468.500 181.663 C 1468.500 229.974, 1468.159 271.096, 1467.743 273.046 C 1467.327 274.997, 1465.747 278.076, 1464.233 279.890 C 1462.301 282.204, 1459.992 283.563, 1456.490 284.448 C 1452.231 285.524, 1451.454 286.096, 1451.184 288.354 C 1450.982 290.037, 1451.346 290.999, 1452.184 290.996 C 1452.908 290.994, 1467.450 291.080, 1484.500 291.187 C 1515.500 291.381, 1515.500 291.381, 1515.500 288.940 C 1515.500 286.721, 1515.002 286.446, 1510 285.907 C 1506.975 285.581, 1503.150 284.608, 1501.500 283.746 C 1499.850 282.884, 1497.286 280.901, 1495.803 279.339 C 1494.320 277.778, 1492.352 274.700, 1491.431 272.500 C 1489.949 268.960, 1489.653 260.339, 1488.859 197.603 C 1488.365 158.609, 1488.141 126.525, 1488.361 126.306 C 1488.581 126.086, 1490.479 128.290, 1492.578 131.203 C 1494.678 134.116, 1498.488 138.975, 1501.045 142 C 1503.602 145.025, 1510.459 153.800, 1516.283 161.500 C 1522.107 169.200, 1532.299 182.475, 1538.933 191 C 1545.568 199.525, 1553.723 209.988, 1557.056 214.250 C 1560.390 218.513, 1563.504 222, 1563.978 222 C 1564.451 222, 1567.341 219.713, 1570.400 216.917 C 1573.459 214.122, 1578.815 207.934, 1582.302 203.167 C 1585.789 198.400, 1597.311 181.900, 1607.906 166.500 C 1618.502 151.100, 1630.278 134, 1634.076 128.500 C 1637.874 123, 1641.694 117.600, 1642.565 116.500 C 1644.011 114.672, 1644.111 121.395, 1643.715 194.500 C 1643.465 240.644, 1642.882 275.741, 1642.337 277.432 C 1641.817 279.045, 1640.241 281.224, 1638.834 282.275 C 1637.427 283.325, 1633.857 284.481, 1630.901 284.842 C 1627.275 285.286, 1625.441 285.988, 1625.265 287 C 1625.120 287.825, 1625.349 289.035, 1625.773 289.689 C 1626.342 290.568, 1636.408 290.929, 1664.306 291.071 C 1685.075 291.178, 1702.375 290.959, 1702.749 290.584 C 1703.123 290.210, 1702.982 289.196, 1702.436 288.330 C 1701.890 287.464, 1699.105 285.884, 1696.247 284.817 C 1693.388 283.751, 1690.145 281.729, 1689.040 280.324 C 1687.935 278.918, 1686.521 276.133, 1685.898 274.134 C 1685.126 271.655, 1684.456 242.891, 1683.791 183.647 C 1683.255 135.878, 1683.095 95.309, 1683.435 93.494 C 1683.806 91.515, 1685.080 89.523, 1686.616 88.516 C 1688.025 87.593, 1691.602 86.587, 1694.565 86.281 C 1698.641 85.860, 1700.096 85.272, 1700.544 83.863 C 1700.869 82.838, 1701.896 82, 1702.827 82 C 1703.757 82, 1705.096 82.924, 1705.801 84.053 C 1706.507 85.183, 1709.006 86.931, 1711.356 87.938 C 1713.706 88.946, 1716.795 91.156, 1718.222 92.852 C 1720.392 95.431, 1720.932 97.343, 1721.535 104.574 C 1721.931 109.326, 1722.027 149.504, 1721.749 193.857 C 1721.367 254.739, 1720.938 275.315, 1719.997 277.827 C 1719.032 280.402, 1717.478 281.763, 1713.125 283.847 C 1709.318 285.669, 1707.403 287.209, 1707.201 288.612 C 1706.914 290.601, 1707.481 290.711, 1721.201 291.339 C 1729.066 291.698, 1746.172 291.994, 1759.215 291.996 C 1780.793 292, 1783.011 291.842, 1783.830 290.250 C 1784.325 289.288, 1784.528 287.938, 1784.282 287.250 C 1784.014 286.504, 1782.038 286, 1779.385 286 C 1776.938 286, 1773.405 285.360, 1771.534 284.579 C 1769.576 283.760, 1766.938 281.353, 1765.316 278.904 C 1762.500 274.650, 1762.500 274.650, 1761.858 245.075 C 1761.506 228.809, 1761.168 189.040, 1761.108 156.700 C 1761.017 106.880, 1761.224 97.468, 1762.464 95.069 C 1763.269 93.512, 1765.376 91.020, 1767.146 89.531 C 1769.573 87.488, 1771.054 86.961, 1773.171 87.384 C 1774.715 87.693, 1776.658 87.685, 1777.489 87.366 C 1778.360 87.031, 1779 85.548, 1779 83.862 C 1779 82.253, 1778.438 80.744, 1777.750 80.507 C 1777.063 80.270, 1743.494 79.947, 1703.154 79.788 C 1662.814 79.630, 1629.606 79.828, 1629.358 80.229 M 2647.389 80.011 C 2646.767 80.633, 2636.811 81.050, 2621.457 81.096 C 2607.749 81.136, 2596.191 81.382, 2595.771 81.642 C 2595.351 81.901, 2595.659 83.375, 2596.457 84.916 C 2597.254 86.457, 2599.389 88.274, 2601.203 88.954 C 2603.016 89.633, 2606.163 90.879, 2608.195 91.722 C 2610.227 92.565, 2612.858 94.284, 2614.040 95.542 C 2615.636 97.242, 2616.446 99.951, 2617.185 106.069 C 2617.798 111.136, 2618.046 144.745, 2617.830 193.403 C 2617.503 266.899, 2617.352 272.755, 2615.693 276.107 C 2614.711 278.091, 2612.632 280.937, 2611.073 282.430 C 2609.513 283.924, 2606.047 285.705, 2603.370 286.388 C 2600.107 287.221, 2598.389 288.221, 2598.157 289.421 C 2597.968 290.406, 2598.192 291.564, 2598.656 291.993 C 2599.120 292.423, 2614.402 293.091, 2632.616 293.477 C 2665.732 294.180, 2665.732 294.180, 2666.234 291.554 C 2666.576 289.769, 2666.219 288.665, 2665.118 288.103 C 2664.228 287.648, 2661.086 287.004, 2658.135 286.671 C 2655.184 286.339, 2650.784 285.106, 2648.358 283.931 C 2645.931 282.756, 2642.809 280.305, 2641.420 278.484 C 2639.774 276.326, 2638.561 272.965, 2637.939 268.836 C 2637.413 265.351, 2636.874 233.362, 2636.742 197.750 C 2636.609 162.137, 2636.733 133, 2637.018 133 C 2637.303 133, 2638.203 134.083, 2639.018 135.407 C 2639.833 136.731, 2645.900 143.798, 2652.500 151.112 C 2659.100 158.425, 2669.033 169.380, 2674.573 175.455 C 2680.113 181.530, 2690.865 193.475, 2698.466 202 C 2706.068 210.525, 2724.035 230.098, 2738.394 245.496 C 2752.752 260.895, 2768.809 277.857, 2774.076 283.190 C 2783.652 292.887, 2783.652 292.887, 2805.576 293.193 C 2817.634 293.362, 2828.235 293.349, 2829.134 293.164 C 2830.219 292.940, 2830.593 292.159, 2830.247 290.836 C 2829.937 289.651, 2827.508 287.794, 2824.248 286.251 C 2820.491 284.472, 2817.726 282.219, 2815.444 279.079 C 2813.614 276.560, 2811.641 272.613, 2811.059 270.307 C 2810.383 267.630, 2810 247.720, 2810 215.220 C 2810 187.228, 2810.299 150.035, 2810.663 132.568 C 2811.290 102.575, 2811.444 100.635, 2813.427 97.655 C 2814.582 95.920, 2817.156 93.700, 2819.147 92.723 C 2821.138 91.746, 2825.781 90.665, 2829.464 90.321 C 2833.148 89.977, 2836.760 89.097, 2837.492 88.365 C 2838.223 87.634, 2838.595 86.166, 2838.317 85.105 C 2837.911 83.551, 2836.710 83.096, 2832.156 82.773 C 2829.045 82.553, 2811.537 82.269, 2793.250 82.143 C 2774.963 82.016, 2760.010 82.270, 2760.022 82.706 C 2760.034 83.143, 2760.822 84.464, 2761.772 85.642 C 2763 87.164, 2765.500 88.121, 2770.410 88.949 C 2774.211 89.590, 2778.600 90.776, 2780.164 91.585 C 2781.729 92.394, 2784.244 94.922, 2785.754 97.204 C 2788.500 101.352, 2788.500 101.352, 2788.788 172.426 C 2789.038 234.412, 2788.890 243.308, 2787.630 242 C 2786.836 241.175, 2781.080 234.425, 2774.840 227 C 2768.601 219.575, 2752.471 200.909, 2738.998 185.520 C 2725.524 170.131, 2707.750 150.066, 2699.500 140.931 C 2691.250 131.796, 2677.025 116.229, 2667.889 106.338 C 2658.753 96.447, 2650.481 87.138, 2649.507 85.651 C 2647.812 83.064, 2647.812 82.865, 2649.523 80.974 C 2650.949 79.399, 2651.016 79, 2649.855 79 C 2649.055 79, 2647.945 79.455, 2647.389 80.011 M 1046.500 89.410 C 1042.650 90.645, 1037.475 92.698, 1035 93.970 C 1032.525 95.242, 1028.025 98.205, 1025 100.553 C 1021.975 102.901, 1016.938 107.450, 1013.808 110.661 C 1010.677 113.873, 1006.519 119.166, 1004.568 122.425 C 1002.616 125.683, 999.449 132.433, 997.528 137.425 C 995.608 142.416, 993.076 150.550, 991.902 155.500 C 989.987 163.579, 989.826 166.394, 990.326 183 C 990.651 193.805, 991.517 204.344, 992.408 208.338 C 993.246 212.100, 994.905 217.950, 996.094 221.338 C 997.283 224.727, 999.999 231.021, 1002.131 235.324 C 1004.262 239.628, 1007.341 245.089, 1008.973 247.461 C 1010.605 249.833, 1014.187 254.231, 1016.933 257.236 C 1019.678 260.240, 1025.204 264.957, 1029.212 267.717 C 1033.221 270.478, 1038.503 273.751, 1040.952 274.992 C 1043.400 276.232, 1047.900 278.111, 1050.952 279.168 C 1054.003 280.225, 1060.494 281.463, 1065.376 281.919 C 1070.265 282.377, 1077.767 282.357, 1082.076 281.874 C 1086.379 281.393, 1093.445 279.879, 1097.778 278.510 C 1102.111 277.141, 1108.462 274.208, 1111.892 271.992 C 1115.321 269.775, 1120.363 265.870, 1123.097 263.312 C 1125.831 260.755, 1130.058 255.470, 1132.490 251.569 C 1134.921 247.668, 1138.042 241.470, 1139.424 237.798 C 1140.807 234.125, 1142.942 226.480, 1144.170 220.810 C 1146.153 211.654, 1146.402 207.646, 1146.400 185 C 1146.397 162.014, 1146.186 158.743, 1144.259 151.825 C 1143.082 147.603, 1140.707 140.754, 1138.979 136.605 C 1137.252 132.455, 1134.019 126.245, 1131.795 122.804 C 1129.571 119.363, 1124.770 113.435, 1121.126 109.630 C 1117.482 105.825, 1111.575 100.831, 1108 98.533 C 1104.425 96.235, 1099.104 93.348, 1096.176 92.117 C 1093.247 90.887, 1087.172 89.233, 1082.676 88.442 C 1078.179 87.650, 1069.775 87.039, 1064 87.083 C 1056.025 87.143, 1051.816 87.703, 1046.500 89.410 M 2189.378 133.667 C 2189.035 134.675, 2187.192 139.100, 2185.282 143.500 C 2183.372 147.900, 2174.608 169.275, 2165.807 191 C 2157.005 212.725, 2148.948 232.272, 2147.902 234.438 C 2146.856 236.604, 2146 238.966, 2146 239.688 C 2146 240.752, 2154.869 241, 2192.941 241 C 2218.759 241, 2240.124 240.608, 2240.421 240.128 C 2240.717 239.649, 2238.894 234.586, 2236.370 228.878 C 2233.846 223.170, 2227.949 209.950, 2223.266 199.500 C 2218.582 189.050, 2212.928 176.900, 2210.702 172.500 C 2208.475 168.100, 2203.428 157.324, 2199.486 148.553 C 2195.544 139.782, 2191.797 132.432, 2191.160 132.220 C 2190.523 132.008, 2189.721 132.659, 2189.378 133.667" stroke="none" fill="#902020" fill-rule="evenodd"/></svg>