<svg xmlns="http://www.w3.org/2000/svg" width="3704" height="2344" viewBox="0 0 3704 2344" version="1.1"><path d="M 1383.500 520.108 C 1371.972 521.866, 1328.233 527.428, 1258.750 535.973 C 1240.737 538.188, 1211.487 541.787, 1193.750 543.970 C 1151.239 549.203, 1109.888 554.224, 1070 558.995 C 1052.125 561.133, 1024 564.499, 1007.500 566.475 C 968.737 571.117, 828.976 588.405, 809.500 590.967 C 785.877 594.075, 772.852 595.712, 737.500 600.020 C 719.350 602.232, 690.100 605.817, 672.500 607.988 C 640.562 611.928, 587.796 618.293, 540.500 623.912 C 526.750 625.546, 503.800 628.272, 489.500 629.970 C 475.200 631.669, 449.325 634.848, 432 637.036 C 414.675 639.223, 391.500 642.118, 380.500 643.468 C 369.500 644.819, 337.100 648.892, 308.500 652.519 C 279.900 656.146, 249.075 659.977, 240 661.031 C 217.436 663.652, 147.602 672.471, 125 675.553 C 103.901 678.430, 94.819 679.989, 93.774 680.911 C 93.375 681.264, 93.930 684.465, 95.009 688.026 C 97.179 695.193, 98.884 707.320, 102.034 738 C 103.191 749.275, 104.787 763.225, 105.581 769 C 106.375 774.775, 108.592 792.775, 110.510 809 C 112.427 825.225, 115.797 853.125, 117.999 871 C 120.201 888.875, 125.593 932.975, 129.980 969 C 140.159 1052.577, 145.726 1096.532, 146.767 1101.540 C 147.589 1105.500, 147.589 1105.500, 215.795 1105.757 C 283.895 1106.013, 284 1106.011, 284 1103.971 C 284 1102.847, 282.904 1095.532, 281.565 1087.714 C 280.226 1079.896, 278.168 1065.625, 276.993 1056 C 275.818 1046.375, 273.333 1027.250, 271.470 1013.500 C 269.608 999.750, 267.354 981.975, 266.461 974 C 265.569 966.025, 263.969 952.975, 262.907 945 C 258.910 914.992, 247.872 824.918, 246.425 810.500 C 245.597 802.250, 244.253 791.049, 243.438 785.608 C 242.113 776.769, 242.118 775.468, 243.487 773.379 C 245.288 770.631, 248.779 768.692, 255 766.984 C 257.475 766.305, 261.027 765.078, 262.894 764.259 C 265.591 763.075, 267.044 762.996, 269.975 763.874 C 274.395 765.199, 287.309 773.702, 299 782.986 C 303.675 786.699, 315.150 795.337, 324.500 802.183 C 333.850 809.030, 351.175 822.009, 363 831.027 C 374.825 840.044, 388.502 850.365, 393.394 853.961 C 406.209 863.383, 447.613 894.437, 460.500 904.293 C 466.550 908.920, 490.400 926.825, 513.500 944.082 C 536.600 961.339, 557.075 976.838, 559 978.525 C 562.528 981.616, 567.474 985, 568.465 985 C 569.314 985, 569.088 978.858, 568.022 972.934 C 566.793 966.106, 560.315 917.722, 559.462 909 C 559.113 905.425, 557.105 888.550, 555.001 871.500 C 552.897 854.450, 550.887 837.350, 550.535 833.500 C 550.183 829.650, 548.349 815.025, 546.459 801 C 540.908 759.797, 540.129 745.216, 543.267 741.240 C 543.814 740.547, 546.597 739.301, 549.451 738.471 C 555.463 736.724, 620.173 728.130, 633.512 727.308 C 642.436 726.758, 642.554 726.781, 645.675 729.696 C 649.554 733.320, 650.575 736.982, 652.473 754.073 C 653.293 761.458, 655.301 777.175, 656.935 789 C 658.570 800.825, 660.620 817.025, 661.492 825 C 662.364 832.975, 664.179 848.050, 665.526 858.500 C 666.873 868.950, 669.309 888.975, 670.939 903 C 672.570 917.025, 675.259 939.300, 676.916 952.500 C 678.572 965.700, 681.986 993.600, 684.502 1014.500 C 689.183 1053.386, 693.468 1087.978, 694.882 1098.288 C 695.318 1101.471, 696.094 1104.494, 696.605 1105.005 C 697.283 1105.683, 786.667 1106.516, 806.877 1106.033 C 808.527 1105.993, 808.534 1106.073, 803.649 1070.500 C 801.686 1056.200, 799.607 1039.775, 799.030 1034 C 798.453 1028.225, 796.864 1014.950, 795.498 1004.500 C 794.133 994.050, 791.658 973.575, 789.999 959 C 788.339 944.425, 786.082 925.975, 784.982 918 C 783.881 910.025, 781.635 891.800, 779.991 877.500 C 778.346 863.200, 776.366 847.450, 775.592 842.500 C 774.817 837.550, 773.437 826.300, 772.524 817.500 C 771.611 808.700, 769.550 791.825, 767.945 780 C 760.383 724.306, 760.289 714.634, 767.272 711.222 C 768.711 710.520, 776.550 709.257, 784.694 708.416 C 792.837 707.575, 807.600 705.794, 817.500 704.457 C 827.400 703.121, 841 701.286, 847.722 700.381 C 863.033 698.319, 865.169 698.937, 868.590 706.428 C 871.659 713.147, 871.996 715.491, 882.541 803.500 C 884.452 819.450, 886.906 839.025, 887.994 847 C 889.082 854.975, 890.885 869.600, 892.001 879.500 C 893.116 889.400, 895.349 907.175, 896.962 919 C 898.575 930.825, 900.178 943.425, 900.524 947 C 901.439 956.451, 904.934 985.431, 906.072 993 C 906.609 996.575, 908.584 1012.550, 910.461 1028.500 C 915.912 1074.839, 919.130 1101.329, 919.601 1103.750 C 920.038 1106, 920.038 1106, 975.591 1106 C 1031.144 1106, 1031.144 1106, 1030.570 1100.750 C 1030.255 1097.862, 1029.308 1087.867, 1028.466 1078.538 C 1027.624 1069.210, 1026.074 1055.485, 1025.021 1048.038 C 1023.967 1040.592, 1021.979 1024.600, 1020.602 1012.500 C 1019.225 1000.400, 1016.744 980.375, 1015.090 968 C 1013.435 955.625, 1011.593 940.775, 1010.996 935 C 1010.399 929.225, 1008.360 912.575, 1006.465 898 C 1001.032 856.216, 993.011 791.744, 991.474 777.500 C 989.803 762.012, 985.086 725.127, 984.504 723 C 983.392 718.933, 982.036 697.209, 982.620 692.809 C 983.845 683.569, 980.874 684.214, 1074 672.992 C 1111.534 668.469, 1149.733 663.787, 1200 657.547 C 1219.525 655.123, 1246.235 652.160, 1259.355 650.961 C 1280.120 649.064, 1283.397 648.968, 1284.650 650.222 C 1287.997 653.569, 1294.717 700.703, 1295.703 727.758 C 1296.236 742.347, 1296.117 744.213, 1294.547 745.948 C 1291.886 748.888, 1284.737 750.917, 1271.500 752.488 C 1264.900 753.271, 1250.725 755.043, 1240 756.426 C 1229.275 757.809, 1210.375 760.105, 1198 761.528 C 1185.625 762.952, 1167.850 765.195, 1158.500 766.513 C 1149.150 767.831, 1134.300 769.624, 1125.500 770.497 C 1098.867 773.140, 1100.715 772.730, 1101.491 775.820 C 1101.859 777.288, 1103.012 785.242, 1104.052 793.495 C 1105.092 801.748, 1106.877 815.700, 1108.019 824.500 C 1109.161 833.300, 1110.412 843.200, 1110.800 846.500 C 1111.504 852.500, 1111.504 852.500, 1116.002 852.446 C 1118.476 852.416, 1127.925 851.193, 1137 849.729 C 1152.346 847.253, 1181.758 843.480, 1220.792 838.982 C 1244.364 836.265, 1273.934 834.534, 1275.197 835.797 C 1276.361 836.961, 1282.183 874.331, 1284.540 895.760 C 1285.402 903.603, 1286.196 914.853, 1286.304 920.760 C 1286.500 931.500, 1286.500 931.500, 1281 933.328 C 1275.142 935.274, 1255.924 938.215, 1221 942.508 C 1151.018 951.111, 1122.136 955.482, 1121.326 957.593 C 1121.070 958.260, 1121.858 960.761, 1123.077 963.150 C 1127.198 971.228, 1127.747 975.181, 1131.929 1026.882 C 1132.480 1033.692, 1133.182 1039.515, 1133.488 1039.822 C 1134.375 1040.709, 1163.687 1037.475, 1232.500 1028.897 C 1267.700 1024.510, 1303.862 1020.394, 1312.861 1019.751 C 1327.924 1018.675, 1329.320 1018.717, 1330.466 1020.284 C 1332.469 1023.024, 1338.307 1060.647, 1340.974 1088 C 1341.591 1094.325, 1342.319 1100.963, 1342.593 1102.750 C 1343.091 1106, 1343.091 1106, 1407.162 1106 C 1471.233 1106, 1471.233 1106, 1470.545 1099.250 C 1470.167 1095.537, 1468.546 1081.925, 1466.943 1069 C 1465.340 1056.075, 1462.680 1033.800, 1461.032 1019.500 C 1459.383 1005.200, 1457.354 988.671, 1456.522 982.769 C 1455.689 976.867, 1453.902 962.692, 1452.549 951.269 C 1451.196 939.846, 1448.963 921.725, 1447.586 911 C 1446.209 900.275, 1444.184 884.075, 1443.085 875 C 1441.987 865.925, 1439.976 849.725, 1438.617 839 C 1437.257 828.275, 1434.739 807.575, 1433.019 793 C 1431.300 778.425, 1426.307 737.475, 1421.923 702 C 1411.579 618.291, 1407.725 586.420, 1404.029 554 C 1399.526 514.507, 1400.143 517.979, 1397.656 518.139 C 1396.470 518.216, 1390.100 519.102, 1383.500 520.108 M 377 975.868 C 377 976.969, 377.640 980.936, 378.421 984.685 C 380.344 993.906, 383.470 1016.041, 386.514 1042 C 388.813 1061.602, 393.196 1094.772, 394.537 1102.725 C 395.081 1105.949, 395.081 1105.949, 465.008 1105.923 C 503.468 1105.909, 536.473 1106.186, 538.353 1106.538 C 540.233 1106.891, 542.020 1106.776, 542.325 1106.284 C 542.972 1105.237, 517.706 1083.907, 497.365 1068.327 C 463.234 1042.184, 453.772 1034.799, 440.065 1023.607 C 432.054 1017.066, 420.100 1007.652, 413.500 1002.687 C 406.900 997.722, 398.124 990.924, 393.998 987.580 C 376.090 973.067, 377 973.694, 377 975.868 M 32 1472.750 L 32 1818.500 1759.170 1818.246 C 2709.114 1818.107, 3486.602 1817.732, 3486.920 1817.413 C 3487.239 1817.094, 3487.641 1661.621, 3487.814 1471.917 L 3488.128 1127 1760.064 1127 L 32 1127 32 1472.750 M 453.475 1226.060 C 448.974 1227.370, 444.582 1232.645, 441.528 1240.408 C 440.033 1244.208, 436.099 1253.208, 432.786 1260.408 C 429.474 1267.609, 423.719 1280.700, 419.998 1289.500 C 412.092 1308.199, 401.506 1332.348, 393.477 1350 C 390.350 1356.875, 386.770 1364.975, 385.521 1368 C 381.472 1377.807, 364.986 1415.092, 362.590 1419.862 C 359.185 1426.642, 349.031 1452.570, 348.321 1456.300 C 347.985 1458.060, 346.819 1461.283, 345.728 1463.461 C 343.744 1467.422, 343.744 1467.422, 340.997 1461.961 C 336.916 1453.847, 335.729 1449.448, 314.020 1362 C 294.505 1283.391, 283.620 1242.159, 280.853 1236.371 C 279.480 1233.500, 279.480 1233.500, 265.995 1232.648 C 258.572 1232.180, 236.626 1232.180, 217.178 1232.648 C 181.846 1233.500, 181.846 1233.500, 178.298 1237.372 C 175.003 1240.967, 174.791 1241.585, 175.317 1246.028 C 175.629 1248.660, 177.227 1255.242, 178.869 1260.656 C 180.511 1266.070, 184.180 1279.050, 187.023 1289.500 C 189.866 1299.950, 195.577 1320.200, 199.716 1334.500 C 203.854 1348.800, 208.304 1364.550, 209.604 1369.500 C 212.289 1379.721, 218.807 1402.663, 223.241 1417.500 C 226.189 1427.364, 233.349 1453.388, 237.136 1468 C 239.040 1475.348, 243.797 1492.083, 250.496 1515 C 252.345 1521.325, 254.820 1530.325, 255.996 1535 C 257.173 1539.675, 259.643 1548.450, 261.485 1554.500 C 265.950 1569.159, 271.625 1589.107, 275 1602 C 278.461 1615.222, 284.155 1635.203, 288.569 1649.616 C 290.442 1655.730, 292.906 1664.657, 294.046 1669.455 C 295.185 1674.253, 296.577 1679.376, 297.139 1680.839 C 297.702 1682.303, 299.693 1688.857, 301.565 1695.404 C 303.437 1701.951, 305.763 1708.188, 306.734 1709.262 C 312.424 1715.559, 324.859 1717.926, 333.100 1714.280 C 338.473 1711.903, 343.407 1704.806, 350.096 1689.832 C 352.388 1684.699, 354.584 1680.050, 354.974 1679.500 C 355.364 1678.950, 356.386 1676.689, 357.244 1674.475 C 358.979 1669.998, 396.488 1585.099, 401.084 1575.247 C 402.688 1571.808, 404 1568.810, 404 1568.583 C 404 1568.357, 406.176 1563.521, 408.837 1557.836 C 415.753 1543.055, 419.779 1534.031, 429.062 1512.500 C 433.567 1502.050, 438.372 1491.025, 439.740 1488 C 445.552 1475.145, 460.362 1439.774, 461.695 1435.563 C 462.887 1431.798, 464.705 1431.202, 465.938 1434.171 C 466.470 1435.452, 469.660 1443.475, 473.027 1452 C 478.829 1466.690, 481.403 1472.673, 491.525 1495 C 493.894 1500.225, 500.148 1514.280, 505.424 1526.234 C 510.700 1538.188, 519.084 1556.812, 524.056 1567.622 C 529.028 1578.431, 534.158 1589.801, 535.455 1592.888 C 538.136 1599.264, 544.481 1614.009, 546.477 1618.500 C 547.210 1620.150, 550.163 1626.900, 553.039 1633.500 C 563.431 1657.346, 585.274 1703.572, 587.639 1706.721 C 592.168 1712.752, 596.401 1715.182, 603.350 1715.740 C 616.845 1716.823, 621.460 1712.584, 627.746 1693.328 C 630.050 1686.273, 633.322 1675.325, 635.019 1669 C 638.742 1655.119, 643.756 1637.203, 649.014 1619 C 651.159 1611.575, 656.113 1594.025, 660.023 1580 C 669.521 1545.934, 672.192 1536.442, 675.780 1524 C 677.445 1518.225, 680.163 1508.550, 681.820 1502.500 C 688.271 1478.942, 698.760 1441.524, 711.534 1396.500 C 736.555 1308.313, 739.867 1296.491, 744.867 1277.500 C 749.653 1259.321, 751.162 1252.497, 752.420 1243.355 C 753.209 1237.617, 751.079 1235.261, 744 1234.039 C 737.115 1232.850, 655.309 1232.206, 652.253 1233.316 C 647.042 1235.210, 642.364 1249.233, 629.008 1303 C 625.114 1318.675, 620.640 1336.675, 619.066 1343 C 617.492 1349.325, 615.229 1358.775, 614.037 1364 C 612.845 1369.225, 611.225 1375.526, 610.437 1378.003 C 609.649 1380.479, 607.705 1388.129, 606.117 1395.003 C 604.530 1401.876, 601.645 1413.125, 599.706 1420 C 597.768 1426.875, 595.172 1437, 593.938 1442.500 C 591.654 1452.680, 589.330 1458.943, 586.532 1462.459 C 584.987 1464.401, 584.956 1464.400, 582.924 1462.369 C 581.762 1461.207, 580.195 1457.328, 579.305 1453.410 C 578.441 1449.609, 574.591 1439.525, 570.749 1431 C 563.835 1415.660, 558.140 1402.469, 551.321 1386 C 549.385 1381.325, 544.061 1369.175, 539.489 1359 C 534.917 1348.825, 527.271 1331.500, 522.498 1320.500 C 517.724 1309.500, 511.650 1295.775, 508.999 1290 C 506.348 1284.225, 499.610 1269.150, 494.027 1256.500 C 488.443 1243.850, 483.204 1232.466, 482.383 1231.202 C 479.316 1226.478, 475.233 1225, 465.500 1225.094 C 460.550 1225.141, 455.139 1225.576, 453.475 1226.060 M 3181.500 1226.678 C 3172.416 1227.823, 3150.792 1232.439, 3143.692 1234.749 C 3132.534 1238.380, 3110.998 1249.450, 3097.037 1258.731 C 3088.873 1264.158, 3081.961 1269.923, 3073.397 1278.450 C 3060.527 1291.265, 3058.918 1294.007, 3061.425 1298.856 C 3063.544 1302.952, 3105.694 1345.820, 3110.809 1349.080 C 3114.166 1351.220, 3115.713 1351.653, 3117.809 1351.041 C 3119.289 1350.608, 3128.600 1344.720, 3138.500 1337.956 C 3157.119 1325.234, 3161.622 1322.993, 3173.523 1320.530 C 3185.115 1318.131, 3203.834 1320.954, 3213.642 1326.581 C 3222.453 1331.637, 3236 1349.722, 3236 1356.430 C 3236 1361.320, 3226.553 1376.951, 3217.829 1386.497 C 3214.971 1389.624, 3203.587 1399.530, 3192.531 1408.511 C 3171.093 1425.925, 3158.996 1437.698, 3152.089 1447.869 C 3142.774 1461.586, 3140.954 1469.095, 3140.966 1493.761 C 3140.975 1512.438, 3142.817 1521.574, 3147.008 1523.732 C 3148.944 1524.729, 3158.882 1524.958, 3191.546 1524.758 C 3239.854 1524.462, 3237.369 1524.937, 3241.690 1515.167 C 3243.521 1511.028, 3244.394 1506.804, 3244.930 1499.500 C 3245.501 1491.725, 3246.234 1488.388, 3248.225 1484.500 C 3254.624 1472.009, 3264.656 1461.120, 3293.097 1435.794 C 3317.404 1414.150, 3326.393 1404.391, 3332.157 1393.384 C 3340.999 1376.499, 3345.487 1357.744, 3344.787 1340.604 C 3344.381 1330.678, 3343.834 1328.017, 3339.629 1315.519 C 3337.042 1307.830, 3333.163 1298.272, 3331.009 1294.280 C 3321.805 1277.214, 3306.213 1260.588, 3289.993 1250.542 C 3260.066 1232.006, 3238.043 1225.857, 3202.625 1226.150 C 3192.656 1226.232, 3183.150 1226.470, 3181.500 1226.678 M 1123 1232.970 C 1096.262 1233.358, 1085.909 1233.838, 1084.291 1234.763 C 1081.058 1236.612, 1077.354 1241.922, 1076.104 1246.500 C 1074.833 1251.151, 1074.608 1668.771, 1075.867 1685.565 C 1076.582 1695.103, 1076.828 1695.928, 1080.561 1701.324 C 1083.597 1705.713, 1085.344 1707.249, 1088.181 1708.029 C 1090.604 1708.694, 1140.336 1708.948, 1233.681 1708.770 C 1375.500 1708.500, 1375.500 1708.500, 1378.748 1706.184 C 1380.534 1704.910, 1382.334 1702.660, 1382.748 1701.184 C 1383.161 1699.708, 1383.500 1678.256, 1383.500 1653.514 C 1383.500 1608.528, 1383.500 1608.528, 1380.500 1607.017 C 1377.901 1605.709, 1364.674 1605.461, 1281.500 1605.166 C 1185.500 1604.824, 1185.500 1604.824, 1185.736 1560.674 C 1185.971 1516.523, 1185.971 1516.523, 1222.736 1516.860 C 1266.171 1517.258, 1348.319 1516.039, 1350.047 1514.971 C 1350.969 1514.401, 1351.214 1503.092, 1351.076 1467.362 C 1350.977 1441.588, 1350.650 1419.504, 1350.349 1418.286 C 1350.048 1417.068, 1348.949 1415.801, 1347.908 1415.471 C 1346.867 1415.140, 1309.899 1414.747, 1265.757 1414.598 C 1185.500 1414.326, 1185.500 1414.326, 1185.500 1374.666 C 1185.500 1335.007, 1185.500 1335.007, 1279 1334.979 C 1330.953 1334.964, 1374.229 1334.551, 1376.391 1334.050 C 1383.889 1332.310, 1383.468 1335.109, 1383.780 1284.895 C 1384.060 1239.860, 1384.060 1239.860, 1380.780 1236.591 C 1377.500 1233.322, 1377.500 1233.322, 1318 1232.662 C 1255.498 1231.969, 1184.240 1232.081, 1123 1232.970 M 1534 1232.927 C 1494.257 1233.619, 1491.267 1233.951, 1489.305 1237.885 C 1488.134 1240.233, 1487.718 1684.726, 1488.877 1694.389 C 1490.138 1704.894, 1491.834 1706.646, 1502.021 1707.968 C 1511.249 1709.165, 1624.528 1709.200, 1661.500 1708.017 C 1690.314 1707.094, 1702.283 1705.601, 1725.407 1700.045 C 1763.673 1690.851, 1799.179 1671.967, 1827.771 1645.601 C 1851.915 1623.338, 1875.752 1589.245, 1887.271 1560.500 C 1896.922 1536.415, 1901.451 1518.266, 1903.680 1494.745 C 1905.718 1473.231, 1905.819 1464.797, 1904.226 1449 C 1902 1426.919, 1900.909 1420.792, 1896.479 1405.500 C 1875.451 1332.918, 1823.844 1276.694, 1751.537 1247.592 C 1736.873 1241.691, 1712.837 1236.103, 1692.814 1233.941 C 1680.986 1232.663, 1584.464 1232.047, 1534 1232.927 M 2041.265 1232.669 C 2005.030 1233.025, 2005.030 1233.025, 2003.265 1235.718 C 2001.591 1238.273, 2001.500 1250.311, 2001.500 1468.456 C 2001.500 1714.674, 2001.292 1704.373, 2006.330 1707.258 C 2008.020 1708.225, 2035.943 1708.559, 2132.500 1708.768 C 2200.700 1708.915, 2266.918 1708.688, 2279.652 1708.262 C 2300.342 1707.570, 2303.026 1707.286, 2304.902 1705.589 C 2306.976 1703.711, 2307 1703.159, 2307 1656.416 C 2307 1617.051, 2306.764 1608.907, 2305.589 1607.732 C 2303.391 1605.534, 2281.402 1605.007, 2191.750 1605.003 C 2111 1605, 2111 1605, 2111 1560.750 C 2111.001 1516.500, 2111.001 1516.500, 2189.795 1516.500 C 2263.368 1516.500, 2268.767 1516.383, 2271.279 1514.737 C 2272.758 1513.768, 2274.313 1511.743, 2274.734 1510.237 C 2275.155 1508.732, 2275.500 1488.825, 2275.500 1466 C 2275.500 1424.500, 2275.500 1424.500, 2272.982 1420 C 2270.464 1415.500, 2270.464 1415.500, 2232.982 1414.709 C 2212.367 1414.273, 2176.262 1414.176, 2152.750 1414.492 C 2103.900 1415.149, 2109.369 1421.676, 2110.663 1364.250 C 2111.322 1335, 2111.322 1335, 2204.112 1335 C 2266.930 1335, 2298.532 1334.650, 2301.951 1333.917 C 2307 1332.834, 2307 1332.834, 2307 1286.367 C 2307 1247.769, 2306.755 1239.427, 2305.553 1237.102 C 2304.167 1234.423, 2303.705 1234.275, 2294.803 1233.670 C 2283.713 1232.915, 2092.910 1232.162, 2041.265 1232.669 M 2447.500 1232.956 C 2432.100 1233.255, 2418.943 1233.861, 2418.262 1234.302 C 2417.581 1234.743, 2415.781 1237.218, 2414.262 1239.802 C 2411.500 1244.500, 2411.500 1244.500, 2411.239 1467.853 C 2411.071 1612.125, 2411.327 1692.500, 2411.963 1694.862 C 2413.407 1700.226, 2418.128 1706.981, 2421 1707.793 C 2422.375 1708.182, 2443.334 1708.459, 2467.576 1708.409 C 2508.857 1708.324, 2511.854 1708.199, 2514.841 1706.435 C 2516.762 1705.300, 2518.513 1703.150, 2519.246 1701.026 C 2520.154 1698.391, 2520.535 1675.734, 2520.752 1611.377 C 2521.043 1525.253, 2521.043 1525.253, 2540.928 1524.527 C 2556.729 1523.950, 2561.397 1524.078, 2563.656 1525.151 C 2565.797 1526.166, 2567.785 1529.095, 2571.698 1537 C 2606.221 1606.743, 2649.947 1693.609, 2653.395 1699.300 C 2655.795 1703.260, 2658.825 1707.096, 2660.129 1707.824 C 2662.048 1708.895, 2671.927 1709.034, 2711.941 1708.554 C 2767.406 1707.888, 2765.353 1708.176, 2769.733 1700.444 C 2773.859 1693.160, 2772.569 1688.737, 2759.791 1666.355 C 2755.127 1658.185, 2748.713 1646.550, 2745.537 1640.500 C 2742.361 1634.450, 2735.143 1620.950, 2729.496 1610.500 C 2723.849 1600.050, 2715.240 1583.954, 2710.364 1574.732 C 2705.489 1565.509, 2697.729 1551.334, 2693.119 1543.232 C 2677.933 1516.538, 2678.964 1519.328, 2683 1515.853 C 2684.925 1514.196, 2690.532 1510.799, 2695.461 1508.304 C 2709.235 1501.332, 2721.060 1492.878, 2732.635 1481.730 C 2750.985 1464.056, 2762.337 1446.281, 2769.827 1423.500 C 2775.915 1404.981, 2776.412 1401.665, 2776.425 1379.500 C 2776.443 1351.095, 2773.399 1337.671, 2761.462 1313.500 C 2754.407 1299.215, 2748.359 1291.183, 2733.582 1276.470 C 2711.598 1254.581, 2689.376 1242.375, 2659.664 1235.866 C 2652.737 1234.349, 2644.153 1233.640, 2624.500 1232.960 C 2597.355 1232.021, 2495.731 1232.019, 2447.500 1232.956 M 2898.500 1232.887 C 2885.300 1233.224, 2873.747 1233.872, 2872.827 1234.327 C 2871.907 1234.782, 2870.332 1236.807, 2869.327 1238.827 C 2867.640 1242.219, 2867.503 1245.828, 2867.541 1286 C 2867.583 1329.500, 2867.583 1329.500, 2871.255 1347.500 C 2873.275 1357.400, 2876.283 1374.050, 2877.940 1384.500 C 2879.597 1394.950, 2881.416 1405.075, 2881.982 1407 C 2882.549 1408.925, 2884.162 1417.925, 2885.567 1427 C 2886.972 1436.075, 2889.628 1451.600, 2891.470 1461.500 C 2893.312 1471.400, 2895.124 1481.975, 2895.497 1485 C 2897.378 1500.265, 2903.959 1522.372, 2907.127 1524.068 C 2908.361 1524.728, 2916.595 1525.001, 2929.470 1524.807 C 2948.319 1524.523, 2950.073 1524.342, 2952.680 1522.410 C 2958.062 1518.422, 2957.013 1522.981, 2970.495 1445 C 2975.677 1415.025, 2980.821 1386.225, 2981.926 1381 C 2985.007 1366.425, 2987.766 1349.403, 2988.571 1340 C 2989.009 1334.881, 2990.052 1330.052, 2991.193 1327.859 C 2992.975 1324.436, 2993.071 1321.882, 2992.794 1285.359 C 2992.509 1247.678, 2992.432 1246.333, 2990.245 1241 C 2989.005 1237.975, 2987.618 1234.921, 2987.163 1234.213 C 2986.165 1232.659, 2936.515 1231.917, 2898.500 1232.887 M 844.034 1234.736 C 842.128 1235.706, 839.807 1237.850, 838.877 1239.500 C 837.305 1242.288, 837.162 1258.496, 836.843 1468.576 C 836.500 1694.653, 836.500 1694.653, 839.500 1699.480 C 845.488 1709.115, 842.040 1708.540, 891.835 1708.218 C 938.988 1707.914, 945.161 1707.317, 946.302 1702.952 C 947.091 1699.936, 946.962 1248.492, 946.170 1242.010 C 945.094 1233.198, 947.173 1233.544, 893.500 1233.236 C 851.212 1232.993, 847.220 1233.114, 844.034 1234.736 M 2521.362 1333.500 C 2521.152 1334.050, 2521.097 1356.775, 2521.240 1384 C 2521.500 1433.500, 2521.500 1433.500, 2573.500 1433.165 C 2602.100 1432.981, 2627.434 1432.412, 2629.798 1431.900 C 2635.012 1430.772, 2645.934 1424.167, 2651.808 1418.590 C 2667.383 1403.802, 2671.566 1378.993, 2661.769 1359.500 C 2657.160 1350.330, 2646.350 1340.417, 2635.500 1335.413 C 2630.501 1333.107, 2630.487 1333.107, 2576.122 1332.803 C 2540.511 1332.605, 2521.612 1332.845, 2521.362 1333.500 M 1598.750 1335.574 C 1598.338 1335.992, 1598 1397.060, 1598 1471.282 C 1598 1606.230, 1598 1606.230, 1628.750 1605.543 C 1672.254 1604.571, 1691.848 1601.563, 1711.887 1592.782 C 1757.051 1572.991, 1786.805 1526.596, 1788.730 1472.963 C 1789.249 1458.482, 1787.774 1447.870, 1782.527 1428.329 C 1771.985 1389.068, 1739.246 1354.845, 1700 1342.059 C 1682.528 1336.367, 1677.039 1335.776, 1637 1335.280 C 1616.375 1335.024, 1599.162 1335.156, 1598.750 1335.574 M 2910.947 1585.268 C 2894.717 1590.759, 2883.312 1599.288, 2874.143 1612.790 C 2868.515 1621.077, 2866.245 1627.331, 2864.911 1638.229 C 2863.131 1652.760, 2865.226 1667.592, 2870.538 1678.075 C 2876.096 1689.042, 2889.912 1703.456, 2899.770 1708.570 C 2906.764 1712.199, 2921.497 1716, 2928.568 1716 C 2935.383 1716, 2952.324 1711.364, 2960.500 1707.262 C 2973.102 1700.940, 2982.719 1690.904, 2989.670 1676.820 C 2995.506 1664.997, 2996.250 1662.006, 2996.322 1650.094 C 2996.376 1641.013, 2995.991 1638.360, 2993.621 1631.514 C 2988.946 1618.013, 2983.619 1608.923, 2976.198 1601.785 C 2967.727 1593.638, 2962.757 1590.764, 2948.746 1585.907 C 2933.634 1580.669, 2924.975 1580.522, 2910.947 1585.268 M 3174.441 1584.882 C 3162.872 1588.963, 3159.325 1590.738, 3151.863 1596.180 C 3141.514 1603.730, 3134.524 1614.272, 3128.448 1631.500 C 3126.194 1637.889, 3125.339 1655.314, 3126.961 1661.768 C 3129.593 1672.237, 3137.771 1687.804, 3144.355 1694.880 C 3148.700 1699.550, 3158.372 1706.629, 3163.518 1708.905 C 3170.636 1712.054, 3185.587 1716, 3190.398 1716 C 3197.102 1716, 3214.446 1711.312, 3223 1707.187 C 3232.954 1702.388, 3245.804 1689.718, 3251.304 1679.281 C 3255.094 1672.088, 3259.966 1655.312, 3259.988 1649.378 C 3260.009 1643.893, 3255.140 1626.745, 3251.406 1619.150 C 3246.965 1610.118, 3234.652 1597.330, 3225 1591.726 C 3208.157 1581.946, 3189.807 1579.462, 3174.441 1584.882" stroke="none" fill="#040404" fill-rule="evenodd"/></svg>